<?xml version="1.0" encoding="UTF-8" standalone="no"?>
<!-- Created with Inkscape (http://www.inkscape.org/) -->

<svg
   xmlns:dc="http://purl.org/dc/elements/1.1/"
   xmlns:cc="http://creativecommons.org/ns#"
   xmlns:rdf="http://www.w3.org/1999/02/22-rdf-syntax-ns#"
   xmlns:svg="http://www.w3.org/2000/svg"
   xmlns="http://www.w3.org/2000/svg"
   xmlns:sodipodi="http://sodipodi.sourceforge.net/DTD/sodipodi-0.dtd"
   xmlns:inkscape="http://www.inkscape.org/namespaces/inkscape"
   width="150"
   height="80"
   viewBox="0 0 39.6875 21.166666"
   version="1.1"
   id="svg8"
   inkscape:version="0.92.2 5c3e80d, 2017-08-06"
   sodipodi:docname="bush.svg"
   inkscape:export-filename="/home/lmb/Projects/LD40-MetalFear/src/images/obstacles/bush.png"
   inkscape:export-xdpi="115.2"
   inkscape:export-ydpi="115.2">
  <defs
     id="defs2" />
  <sodipodi:namedview
     id="base"
     pagecolor="#ffffff"
     bordercolor="#666666"
     borderopacity="1.0"
     inkscape:pageopacity="0.0"
     inkscape:pageshadow="2"
     inkscape:zoom="5.6568543"
     inkscape:cx="75.259845"
     inkscape:cy="37.293264"
     inkscape:document-units="px"
     inkscape:current-layer="layer1"
     showgrid="false"
     units="px"
     inkscape:window-width="1918"
     inkscape:window-height="1058"
     inkscape:window-x="0"
     inkscape:window-y="20"
     inkscape:window-maximized="1"
     fit-margin-top="0"
     fit-margin-left="0"
     fit-margin-right="0"
     fit-margin-bottom="0" />
  <metadata
     id="metadata5">
    <rdf:RDF>
      <cc:Work
         rdf:about="">
        <dc:format>image/svg+xml</dc:format>
        <dc:type
           rdf:resource="http://purl.org/dc/dcmitype/StillImage" />
        <dc:title></dc:title>
      </cc:Work>
    </rdf:RDF>
  </metadata>
  <g
     inkscape:label="Layer 1"
     inkscape:groupmode="layer"
     id="layer1"
     transform="translate(-2.9469174,-274.19219)">
    <path
       style="opacity:1;vector-effect:none;fill:#327926;fill-opacity:1;stroke:#1b461b;stroke-width:0.44999999;stroke-linecap:round;stroke-linejoin:miter;stroke-miterlimit:4;stroke-dasharray:none;stroke-dashoffset:0;stroke-opacity:1;paint-order:normal"
       d="m 8.0732133,275.31665 c 1.1283175,0.11048 2.1267947,-0.54963 3.3486347,-0.59531 1.22184,-0.0457 3.098295,0.71614 4.675563,0.72829 1.114586,0.009 2.060314,-0.27658 3.311549,-0.46371 2.710342,-0.40534 1.518432,0.58318 3.547072,-0.26458 1.667015,-0.69664 3.797956,1.04068 3.797956,1.04068 0,0 2.792882,0.73216 3.844728,0 1.703931,-1.18606 2.49899,-0.3393 3.804319,0.42364 1.025465,0.59937 1.716866,1.28672 3.440801,-0.92644 0.173112,-0.22224 0.883953,0.54279 1.149245,0.59689 0.265291,0.054 0.684735,-0.91868 0.928241,-0.81603 0.243506,0.10265 0.708637,1.84192 0.924986,1.98785 0.661568,0.46057 0.937375,-0.53233 1.237899,0.17504 0.103332,0.24322 0.182327,0.49925 0.236339,0.76454 0.05401,0.26529 0.06862,0.54686 0.08236,0.82184 0.02538,0.50786 0,1.01699 0,1.52549 0,0 -1.137106,1.18075 -1.052374,1.89967 0.06086,0.51636 1.03223,0.63176 1.052374,1.15131 0.03189,0.82261 -1.634726,1.13123 -1.520095,1.94644 0.08722,0.62024 1.470517,0.48017 1.520095,1.10454 0.05314,0.66927 -1.165661,0.80581 -1.422135,1.42627 -0.194253,0.46993 -0.07754,1.02294 0,1.52549 0.07251,0.46993 0.201291,0.94323 0.429948,1.36013 0.227151,0.41415 0.963837,0.82113 0.909827,1.08642 -0.05401,0.26529 -0.133687,0.52103 -0.236339,0.76454 -0.216174,0.495 -0.843787,0.28242 -1.197568,0.63791 -0.183378,0.18426 0.01311,0.88068 -0.274192,1.15077 -0.584484,0.54947 -1.569055,0.39363 -2.371047,0.41231 -1.24427,0.029 -2.490329,-0.19377 -3.704412,-0.46772 -1.236184,-0.27894 -2.343602,-1.18936 -3.610867,-1.18966 -1.119359,-2.5e-4 -3.189918,1.04934 -3.189918,1.04934 -1.2174,0.40047 -1.992093,-1.74526 -4.686627,0.37418 -1.354934,1.06575 -2.451685,0.46771 -3.610867,0.14031 -0.779511,-0.22017 -2.322443,-2.48232 -2.020043,-1.35071 0.705933,2.64167 -4.522384,1.51496 -5.996818,1.72489 -1.192755,0.16983 -3.3377433,-1.25169 -3.5801451,-0.49609 -0.3268173,1.01873 0.5327229,-0.96506 -2.5420862,-0.19685 -0.2531822,0.0632 -0.4247211,-0.30545 -0.6015977,-0.49596 -0.7717848,-0.83128 -0.2256255,-0.91062 -0.2297471,-1.98613 -0.00398,-1.03829 -1.1022216,-1.56312 -0.9591146,-2.41846 0.10337,-0.61784 1.2037904,-0.80016 1.2236979,-1.42627 0.021546,-0.67766 -1.2650449,-0.94798 -1.2236979,-1.62471 0.030014,-0.49124 0.9537734,-0.57553 1.0252604,-1.06247 0.1083217,-0.73784 -1.2107939,-1.41569 -1.0252604,-1.98851 0.1855335,-0.57282 1.2606174,-0.9961 1.2236979,-1.69085 -0.032363,-0.60901 -1.0052547,-0.79073 -1.2236979,-1.36013 -0.116016,-0.74544 -0.093255,-1.46798 0.5123079,-1.78509 2.1540182,-1.12798 -0.3262165,-1.98374 0.1805961,-2.0179 2.0098186,-0.13545 1.1167174,-1.1 1.78868,-1.47177 0.8469497,-0.46858 1.3786001,0.18321 2.082472,0.27657 z"
       id="rect822"
       inkscape:connector-curvature="0"
       sodipodi:nodetypes="czasssssssscssasaaaaaaascsaaaassassssssaaaazacsssc" />
    <path
       style="opacity:1;vector-effect:none;fill:#236119;fill-opacity:0.77880186;stroke:none;stroke-width:0.44999999;stroke-linecap:round;stroke-linejoin:miter;stroke-miterlimit:4;stroke-dasharray:none;stroke-dashoffset:0;stroke-opacity:1;paint-order:normal"
       id="path825"
       d="m 15.775715,277.83282 c -0.533241,0.33467 -0.981959,0.79122 -1.386138,1.26999 -0.109613,0.12984 -0.211911,0.26569 -0.317867,0.39853 -0.343529,0.44841 -0.645544,0.94087 -1.094999,1.29525 -0.436675,0.3443 -1.438151,0.86206 -1.695347,1.00826 -0.923654,0.45264 -1.8441183,0.91193 -2.7723883,1.35505 0,0 0.7950626,-0.63308 0.7950626,-0.63308 v 0 c 0.9344687,-0.43668 1.8584777,-0.89573 2.7763997,-1.36615 -0.147333,0.0897 -0.2825,0.2034 -0.441999,0.26905 -0.132032,0.0543 0.243779,-0.14944 0.358366,-0.23462 0.465752,-0.34623 0.787019,-0.83335 1.132235,-1.29036 0.469796,-0.59983 0.9573,-1.19968 1.572889,-1.65766 0,0 1.073786,-0.41426 1.073786,-0.41426 z"
       inkscape:connector-curvature="0" />
    <path
       style="opacity:1;vector-effect:none;fill:#236119;fill-opacity:0.77880183;stroke:none;stroke-width:0.44999999;stroke-linecap:round;stroke-linejoin:miter;stroke-miterlimit:4;stroke-dasharray:none;stroke-dashoffset:0;stroke-opacity:1;paint-order:normal"
       id="path827"
       d="m 10.234481,276.83559 c -0.151272,0.0999 -0.3428878,0.19315 -0.4091577,0.37605 -0.014174,0.0391 -0.01579,0.0817 -0.023683,0.12255 0.00899,0.0454 0.010528,0.0928 0.026968,0.13603 0.1152433,0.30284 0.4260207,0.49332 0.7232877,0.57846 0.125036,0.0358 0.255335,0.0497 0.383002,0.0745 0.869948,0.0665 1.716363,-0.17264 2.563667,-0.32611 0.112692,-0.0204 0.226441,-0.0345 0.339662,-0.0517 0.136607,0.005 0.2454,-0.0305 0.339217,0.0898 0.06458,0.0827 0.04932,0.18581 0.06638,0.27973 0.02796,0.15393 0.02424,0.11803 0.126338,0.2366 0.0614,0.0257 0.119858,0.06 0.184195,0.077 0.234279,0.062 0.473403,0.0668 0.714293,0.0535 0.381967,-0.0211 0.77833,-0.0881 1.149965,-0.17153 0.233392,-0.0524 0.463306,-0.1192 0.694959,-0.17881 0.972831,-0.31417 0.491215,-0.14167 1.444759,-0.51774 0,0 -0.749083,0.58802 -0.749083,0.58802 v 0 c -0.961431,0.37103 -0.474556,0.19893 -1.46078,0.51586 -0.645732,0.16912 -1.257062,0.33631 -1.927313,0.37967 -0.24654,0.0159 -0.544964,0.015 -0.788563,-0.0577 -0.07987,-0.0239 -0.149854,-0.0731 -0.224782,-0.10957 -0.0401,-0.0482 -0.08899,-0.0902 -0.120304,-0.14453 -0.05573,-0.0967 -0.04679,-0.16394 -0.0578,-0.26616 -0.0026,-0.024 0.0029,-0.0516 -0.01051,-0.0717 -0.04854,-0.0731 -0.1887,-0.0537 -0.243939,-0.0576 -0.102734,0.0118 -0.205958,0.0199 -0.308204,0.0353 -0.861396,0.13017 -1.717806,0.37396 -2.597487,0.30154 -0.1375864,-0.0265 -0.2780571,-0.041 -0.4127586,-0.0795 -0.3375173,-0.0967 -0.6684381,-0.31276 -0.8175495,-0.64184 -0.024313,-0.0537 -0.033562,-0.11294 -0.050344,-0.16941 0.00225,-0.0508 -0.00241,-0.10245 0.00678,-0.1525 0.03623,-0.19732 0.1967087,-0.33049 0.3604524,-0.4262 0,0 1.0783347,-0.42192 1.0783347,-0.42192 z"
       inkscape:connector-curvature="0" />
    <path
       style="opacity:1;vector-effect:none;fill:#236119;fill-opacity:0.77880183;stroke:none;stroke-width:0.44999999;stroke-linecap:round;stroke-linejoin:miter;stroke-miterlimit:4;stroke-dasharray:none;stroke-dashoffset:0;stroke-opacity:1;paint-order:normal"
       id="path829"
       d="m 23.438324,277.2292 c -0.0068,0.54678 -0.0033,1.06965 0.230007,1.58112 0.06726,0.14748 0.161387,0.28116 0.24208,0.42174 0.115901,0.12315 0.217903,0.26105 0.347702,0.36945 0.444719,0.3714 1.000919,0.54438 1.571481,0.58619 0.505208,0.037 0.762821,-0.0213 1.263227,-0.0847 0.855072,-0.13539 1.655983,-0.48837 2.503302,-0.65482 0.124786,-0.0245 0.251336,-0.039 0.377003,-0.0585 0.687342,-0.0642 1.378307,-0.0706 2.067369,-0.11028 0,0 -0.847246,0.62252 -0.847246,0.62252 v 0 c -0.690298,0.0342 -1.383054,0.0457 -2.069999,0.12617 -0.122851,0.0205 -0.246402,0.0371 -0.368552,0.0614 -0.826721,0.16442 -1.617394,0.48045 -2.453722,0.60336 -0.513345,0.058 -0.769991,0.11319 -1.287605,0.0677 -0.593234,-0.0521 -1.167254,-0.2405 -1.629047,-0.62712 -0.135836,-0.11373 -0.243524,-0.25737 -0.365287,-0.38605 -0.08637,-0.14463 -0.185168,-0.28251 -0.259095,-0.43387 -0.236549,-0.48431 -0.28897,-1.0133 -0.338622,-1.54065 0,0 1.017004,-0.54373 1.017004,-0.54373 z"
       inkscape:connector-curvature="0" />
    <path
       style="opacity:1;vector-effect:none;fill:#236119;fill-opacity:0.77880183;stroke:none;stroke-width:0.44999999;stroke-linecap:round;stroke-linejoin:miter;stroke-miterlimit:4;stroke-dasharray:none;stroke-dashoffset:0;stroke-opacity:1;paint-order:normal"
       id="path831"
       d="m 36.351801,277.9307 c -0.301326,0.25886 -0.609484,0.67826 -0.649608,1.08351 -0.0093,0.0941 0.01312,0.1886 0.01968,0.2829 0.04618,0.0825 0.07453,0.17794 0.138539,0.24754 0.172691,0.18778 0.434152,0.28036 0.672587,0.33613 0.529502,0.12386 1.080013,0.0952 1.618067,0.0829 0.27672,0.0111 0.78998,-0.0875 1.041022,0.0994 0.17236,0.12829 0.178749,0.43022 0.207531,0.61973 0.09334,0.30433 0.02829,0.15923 0.196659,0.43462 0,0 -0.948269,0.5513 -0.948269,0.5513 v 0 c -0.187833,-0.30078 -0.114459,-0.14397 -0.223901,-0.46865 -0.01328,-0.0746 -0.0258,-0.14927 -0.03985,-0.22369 -0.01812,-0.096 -0.02477,-0.22827 -0.113657,-0.29785 -0.222801,-0.17442 -0.693262,-0.0988 -0.940049,-0.11678 -0.550701,0.004 -1.120913,0.0312 -1.662269,-0.0956 -0.273637,-0.064 -0.550902,-0.16645 -0.746291,-0.38111 -0.074,-0.0813 -0.108196,-0.19139 -0.162293,-0.28709 -0.01087,-0.10511 -0.03844,-0.20982 -0.03259,-0.31532 0.0059,-0.10613 0.03535,-0.21032 0.06735,-0.31167 0.09657,-0.3059 0.28073,-0.57439 0.490889,-0.81231 0,0 1.066451,-0.42797 1.066451,-0.42797 z"
       inkscape:connector-curvature="0" />
    <path
       style="opacity:1;vector-effect:none;fill:#236119;fill-opacity:0.77880183;stroke:none;stroke-width:0.44999999;stroke-linecap:round;stroke-linejoin:miter;stroke-miterlimit:4;stroke-dasharray:none;stroke-dashoffset:0;stroke-opacity:1;paint-order:normal"
       id="path833"
       d="m 36.298588,283.46665 c 0.452734,0.12995 0.53077,0.60715 0.609695,1.00755 0.05663,0.36098 0.02817,0.72627 0.03888,1.08935 0.0033,0.10998 0.01331,0.21966 0.01998,0.32949 0,0 -0.955318,0.49316 -0.955318,0.49316 v 0 c -0.0052,-0.1128 -0.01331,-0.2255 -0.01551,-0.3384 -0.0069,-0.3544 0.01955,-0.71108 -0.04058,-1.06295 -0.06719,-0.29549 -0.141055,-0.75369 -0.500872,-0.83443 -0.02957,-0.007 -0.06053,-0.003 -0.0908,-0.005 0,0 0.934513,-0.67896 0.934513,-0.67896 z"
       inkscape:connector-curvature="0" />
    <path
       style="opacity:1;vector-effect:none;fill:#236119;fill-opacity:0.77880183;stroke:none;stroke-width:0.44999999;stroke-linecap:round;stroke-linejoin:miter;stroke-miterlimit:4;stroke-dasharray:none;stroke-dashoffset:0;stroke-opacity:1;paint-order:normal"
       id="path835"
       d="m 37.758143,287.6191 c -0.603953,0.78535 -1.282509,1.50914 -1.972399,2.21869 -0.579351,0.55376 -0.289632,0.29177 -0.867037,0.78831 0,0 -0.937078,0.37892 -0.937078,0.37892 v 0 c 0.597538,-0.4952 0.299892,-0.23347 0.890873,-0.78753 0.655516,-0.67207 1.31055,-1.35669 1.835214,-2.13879 0,0 1.050427,-0.4596 1.050427,-0.4596 z"
       inkscape:connector-curvature="0" />
    <path
       style="opacity:1;vector-effect:none;fill:#236119;fill-opacity:0.77880183;stroke:none;stroke-width:0.44999999;stroke-linecap:round;stroke-linejoin:miter;stroke-miterlimit:4;stroke-dasharray:none;stroke-dashoffset:0;stroke-opacity:1;paint-order:normal"
       id="path837"
       d="m 31.253905,287.02623 c 0.0019,0.0501 0.01193,0.1006 0.0058,0.15039 -0.02154,0.17542 -0.111909,0.43341 -0.170847,0.58526 -0.171342,0.44145 -0.393269,0.85319 -0.62398,1.26544 -0.193657,0.28868 -0.434436,0.68001 -0.745763,0.86299 -0.396,0.23275 -0.895155,0.73731 -1.431578,0.62386 -0.07914,-0.0167 -0.1504,-0.0596 -0.2256,-0.0894 -0.197005,-0.1107 -0.390261,-0.25223 -0.629336,-0.23935 -0.332974,0.0179 -0.668562,0.24365 -0.949846,0.3967 0.156166,-0.0899 0.6254,-0.3582 0.468497,-0.26962 -0.648806,0.36628 -1.487805,0.93994 -2.269126,1.12792 -0.439756,0.1058 -0.497167,0.0708 -0.940104,0.0465 -0.669629,-0.1235 -1.096349,-0.46194 -1.616974,-0.86476 0,0 0.884191,-0.557 0.884191,-0.557 v 0 c 0.510925,0.40047 0.911472,0.71082 1.576467,0.81386 0.150475,0.004 0.301365,0.0224 0.451426,0.0107 0.324194,-0.0253 0.622333,-0.12003 0.92084,-0.24374 0.156818,-0.065 0.352446,-0.35199 0.459259,-0.22006 0.10497,0.12966 -0.574806,0.33887 -0.429702,0.25656 0.43875,-0.24887 0.873808,-0.50419 1.310712,-0.75629 0.320942,-0.16853 0.657987,-0.38702 1.03786,-0.37387 0.239543,0.008 0.434745,0.15346 0.641492,0.25302 0.06738,0.0199 0.132294,0.0521 0.202148,0.0596 0.354449,0.038 0.768276,-0.31591 -0.460856,0.42448 -0.09532,0.0574 0.188393,-0.12019 0.271685,-0.19398 0.24374,-0.21592 0.337594,-0.38007 0.529208,-0.64645 0.301786,-0.52522 0.653031,-1.14251 0.730253,-1.75489 0.004,-0.0318 -1.6e-5,-0.0642 -2.4e-5,-0.0963 0,0 1.003885,-0.5716 1.003885,-0.5716 z"
       inkscape:connector-curvature="0" />
    <path
       style="opacity:1;vector-effect:none;fill:#236119;fill-opacity:0.77880183;stroke:none;stroke-width:0.44999999;stroke-linecap:round;stroke-linejoin:miter;stroke-miterlimit:4;stroke-dasharray:none;stroke-dashoffset:0;stroke-opacity:1;paint-order:normal"
       id="path839"
       d="m 16.305217,289.51614 c -0.207263,0.18268 -0.31155,0.44861 -0.500009,0.64882 -0.05613,0.0596 -0.120315,0.11112 -0.180473,0.16668 -0.514718,0.32534 -0.680645,0.43977 -1.45838,0.7769 -0.107202,0.0465 -0.230285,0.0418 -0.346731,0.0514 -0.411436,0.0339 -0.815131,-0.0218 -1.221697,-0.0756 -0.470276,-0.0755 -0.949303,-0.1864 -1.425647,-0.0908 -0.245436,0.0492 -0.319159,0.0972 -0.545776,0.19822 -0.386879,0.18843 -0.7857867,0.38041 -1.2204447,0.42397 -0.3086256,0.0309 -0.3569679,2.1e-4 -0.6569615,-0.0553 -0.09908,-0.0418 -0.2032505,-0.0732 -0.2972385,-0.12544 -0.4480615,-0.24914 -0.7367894,-0.70652 -1.042525,-1.10108 -0.1746572,-0.19575 -0.087426,-0.10925 -0.2579579,-0.26322 0,0 0.957625,-0.58718 0.957625,-0.58718 v 0 c 0.1606487,0.17537 0.078397,0.0792 0.2440374,0.29071 0.2802363,0.39074 0.5548963,0.83271 0.9973312,1.05902 0.089497,0.0458 0.1879153,0.0715 0.2818731,0.10721 0.2912909,0.0413 0.3332094,0.0677 0.6305409,0.0259 0.433426,-0.061 0.824409,-0.26842 1.217083,-0.44735 0.238496,-0.0919 0.307159,-0.13403 0.562104,-0.16979 0.475612,-0.0667 0.946476,0.061 1.413895,0.12805 0.407179,0.0477 0.80841,0.094 1.218243,0.0385 0.116847,-0.0158 0.422544,-0.1626 0.346169,-0.0728 -0.16748,0.19699 -0.438489,0.27491 -0.647475,0.42715 -0.07062,0.0515 0.15404,-0.0825 0.23106,-0.12379 0.06021,-0.0493 0.124547,-0.0939 0.180628,-0.14778 0.193118,-0.18564 0.294472,-0.43569 0.450492,-0.64865 0,0 1.070234,-0.43371 1.070234,-0.43371 z"
       inkscape:connector-curvature="0" />
    <path
       style="opacity:1;vector-effect:none;fill:#236119;fill-opacity:0.77880183;stroke:none;stroke-width:0.44999999;stroke-linecap:round;stroke-linejoin:miter;stroke-miterlimit:4;stroke-dasharray:none;stroke-dashoffset:0;stroke-opacity:1;paint-order:normal"
       id="path841"
       d="m 10.449896,284.51924 c -0.03316,0.0394 -0.0712,0.0752 -0.09947,0.11828 -0.216282,0.32947 -0.324393,0.76915 -0.255275,1.16032 0.01913,0.1083 0.06767,0.20928 0.101509,0.31392 0.06527,0.0913 0.116714,0.1943 0.195799,0.27394 0.515953,0.51962 1.436559,0.51363 2.112206,0.53007 0.386506,0.0161 0.81014,-0.0256 1.167185,0.16255 0.213953,0.11276 0.289849,0.24122 0.438846,0.4218 0.06525,0.0791 0.13046,0.1582 0.195691,0.23731 0.312257,0.25148 0.138962,0.15508 0.520678,0.28775 0,0 -0.895818,0.60221 -0.895818,0.60221 v 0 c -0.40701,-0.16832 -0.223484,-0.0561 -0.553014,-0.33262 -0.06618,-0.0784 -0.132088,-0.15699 -0.198547,-0.23513 -0.135609,-0.15946 -0.211349,-0.27749 -0.401856,-0.37661 -0.338824,-0.17628 -0.741133,-0.14268 -1.107625,-0.16488 -0.719264,-0.0264 -1.655912,-0.0321 -2.1991161,-0.58864 -0.085952,-0.0881 -0.1427228,-0.20052 -0.2140844,-0.30077 -0.037681,-0.11306 -0.089571,-0.22234 -0.113044,-0.33918 -0.090648,-0.4512 0.026093,-0.93262 0.2421101,-1.32967 0,0 1.0638234,-0.44065 1.0638234,-0.44065 z"
       inkscape:connector-curvature="0" />
    <path
       style="opacity:1;vector-effect:none;fill:#236119;fill-opacity:0.77880183;stroke:none;stroke-width:0.44999999;stroke-linecap:round;stroke-linejoin:miter;stroke-miterlimit:4;stroke-dasharray:none;stroke-dashoffset:0;stroke-opacity:1;paint-order:normal"
       id="path843"
       d="m 6.6863821,278.89613 c -0.4713052,-0.0745 -0.6292847,0.22913 0.7982815,-0.54065 0.013724,-0.007 -0.032365,0.01 -0.040845,0.0228 -0.021161,0.0326 -0.029335,0.0721 -0.044003,0.10812 -0.1914845,0.52029 -0.5329134,0.96512 -0.7805629,1.45738 -0.046392,0.0922 -0.084092,0.18854 -0.1261385,0.28282 -0.021413,0.11293 -0.084552,0.24063 0.012449,0.3437 0.069393,0.0737 0.3019062,0.11998 0.3733098,0.13819 0.4338342,0.11061 0.1233551,0.0166 0.56227,0.16148 0.086139,0.0479 0.180009,0.0839 0.2584159,0.14358 0.2610676,0.19874 0.3875474,0.4959 0.4077169,0.81774 0.017965,0.28668 -0.034627,0.45527 -0.089927,0.73436 -0.016224,0.059 -0.1614506,0.57863 -0.175903,0.66226 -0.013959,0.0808 -0.011464,0.16357 -0.017195,0.24536 0,0 -0.9808162,0.48988 -0.9808162,0.48988 v 0 c 0.0081,-0.0903 0.00706,-0.18192 0.024294,-0.27095 0.00755,-0.039 0.1858261,-0.64519 0.1908479,-0.66237 0.057539,-0.26735 0.1088281,-0.41714 0.095291,-0.69156 -0.014354,-0.29094 -0.1250673,-0.55503 -0.3658415,-0.7292 -0.074495,-0.0539 -0.1627259,-0.0856 -0.244089,-0.12846 -0.7286358,-0.22197 0.1643637,0.0428 -0.5708528,-0.15212 -0.1503204,-0.0399 -0.3429296,-0.079 -0.4475017,-0.21522 -0.117718,-0.15331 -0.049217,-0.27284 -0.014347,-0.43829 0.046366,-0.0992 0.089084,-0.20022 0.1390967,-0.29765 0.2402141,-0.46796 0.5609254,-0.89984 0.721768,-1.40533 0.00803,-0.0378 0.01814,-0.0752 0.02409,-0.11336 0.00445,-0.0286 -0.017494,-0.0711 0.00704,-0.0864 0.9268203,-0.57665 0.6917605,-0.60002 1.2272412,-0.54425 0,0 -0.9440889,0.66814 -0.9440893,0.66814 z"
       inkscape:connector-curvature="0" />
    <path
       style="opacity:1;vector-effect:none;fill:#236119;fill-opacity:0.77880183;stroke:none;stroke-width:0.44999999;stroke-linecap:round;stroke-linejoin:miter;stroke-miterlimit:4;stroke-dasharray:none;stroke-dashoffset:0;stroke-opacity:1;paint-order:normal"
       id="path845"
       d="m 6.4025966,288.48072 c -0.063824,0.45423 0.1763202,0.84824 0.3992494,1.22251 0.3270096,0.48133 0.5826342,1.0288 1.0092211,1.43571 0.086109,0.0821 0.1845516,0.15028 0.2768272,0.22543 0.1076468,0.0637 0.2117508,0.13374 0.3229401,0.19099 0.5738717,0.2955 1.2705487,0.48395 1.8989316,0.6248 0,0 -0.8753971,0.60541 -0.8753971,0.60541 v 0 c -0.384411,-0.096 -0.7635976,-0.20335 -1.1378872,-0.33438 -0.2419866,-0.0847 -0.5478211,-0.19981 -0.7764835,-0.31907 -0.1158703,-0.0604 -0.2240704,-0.13456 -0.3361055,-0.20184 -0.095334,-0.0797 -0.1968786,-0.15244 -0.2860035,-0.239 -0.4270928,-0.41481 -0.6896444,-0.96509 -1.0329992,-1.4437 -0.2430148,-0.38413 -0.4901341,-0.7829 -0.4915484,-1.25316 0,0 1.029255,-0.5137 1.029255,-0.5137 z"
       inkscape:connector-curvature="0" />
    <path
       style="opacity:1;vector-effect:none;fill:#236119;fill-opacity:0.77880183;stroke:none;stroke-width:0.44999999;stroke-linecap:round;stroke-linejoin:miter;stroke-miterlimit:4;stroke-dasharray:none;stroke-dashoffset:0;stroke-opacity:1;paint-order:normal"
       id="path847"
       d="m 15.967297,284.27974 c 0.08432,0.0363 0.08986,0.0494 0.194233,0.0393 0.147991,-0.0143 0.254887,-0.0622 0.390813,-0.12911 0.108406,-0.0533 0.421554,-0.23599 0.318898,-0.17228 -0.141551,0.0879 -0.290491,0.1632 -0.435736,0.2448 0.8666,-0.52438 1.727967,-1.06736 2.642623,-1.50639 0.252132,-0.12102 0.675324,-0.25489 0.968316,-0.12659 0.121804,0.0533 0.194465,0.1814 0.291698,0.27211 0.05801,0.14727 0.128559,0.29021 0.174035,0.44183 0.01304,0.0435 0.235491,1.07092 0.242876,1.09957 0.08781,0.34065 0.192413,0.67469 0.354466,0.98847 0.06634,0.12845 0.153709,0.2449 0.230564,0.36735 0.08412,0.0922 0.168237,0.18445 0.252356,0.27668 0,0 -0.909259,0.5482 -0.909259,0.5482 v 0 c -0.08244,-0.10032 -0.164883,-0.20063 -0.247324,-0.30095 -0.07413,-0.12988 -0.158154,-0.2546 -0.222388,-0.38966 -0.154676,-0.32522 -0.254307,-0.6656 -0.345716,-1.01268 -0.05774,-0.21923 -0.188566,-0.8418 -0.265041,-1.06753 -0.04557,-0.13451 -0.114383,-0.25999 -0.171575,-0.38999 -0.240578,-0.21553 -0.244406,-0.30695 -0.612959,-0.2543 -0.174285,0.0249 -0.328098,0.16922 -0.503824,0.15849 -0.0952,-0.006 0.311839,-0.21712 0.226038,-0.17546 -0.202113,0.0981 -0.945055,0.57285 -1.152949,0.70379 -0.448061,0.26255 -0.893361,0.52986 -1.344184,0.78763 -0.238707,0.13649 -0.518714,0.29967 -0.806598,0.28963 -0.112147,-0.004 -0.150774,-0.0322 -0.24427,-0.0763 0,0 0.974907,-0.61662 0.974907,-0.61662 z"
       inkscape:connector-curvature="0" />
    <path
       style="opacity:1;vector-effect:none;fill:#236119;fill-opacity:0.77880183;stroke:none;stroke-width:0.44999999;stroke-linecap:round;stroke-linejoin:miter;stroke-miterlimit:4;stroke-dasharray:none;stroke-dashoffset:0;stroke-opacity:1;paint-order:normal"
       id="path849"
       d="m 18.093831,285.19741 c -0.100789,0.27253 -0.11166,0.58485 -0.04114,0.86689 0.02238,0.0895 0.06001,0.17446 0.09002,0.26169 0.146661,0.23132 0.16078,0.30398 0.398652,0.46521 0.43361,0.29389 1.055228,0.35658 1.559405,0.44588 0.387899,0.0766 0.767675,0.18656 1.102575,0.40362 0.215731,0.13983 0.358415,0.28857 0.546756,0.46051 0.0868,0.0792 0.174311,0.15769 0.261467,0.23654 0.245962,0.17025 0.318279,0.2553 0.62093,0.32122 0.459991,0.10018 0.94049,-0.02 1.371669,-0.17645 0.180314,-0.0654 0.353001,-0.1502 0.529502,-0.2253 0.172015,-0.094 0.360331,-0.16295 0.516046,-0.28203 0.112105,-0.0857 -0.414304,0.31796 -0.383058,0.18033 0.0397,-0.17488 0.28578,-0.21743 0.41879,-0.33771 0.241965,-0.21881 0.474305,-0.47683 0.648606,-0.75415 0.08168,-0.12996 0.140875,-0.27276 0.211313,-0.40914 0.162665,-0.45899 0.209944,-0.81711 0.08965,-1.2958 -0.104344,-0.41523 -0.323115,-0.76011 -0.550259,-1.1145 -0.06581,-0.0948 -0.132004,-0.18941 -0.197423,-0.28451 -0.105548,-0.15345 -0.194585,-0.27793 -0.283666,-0.43924 -0.06229,-0.11281 -0.103438,-0.23652 -0.166389,-0.34896 -0.03103,-0.0554 -0.07061,-0.10563 -0.105907,-0.15845 -0.05898,-0.0485 -0.111909,-0.10547 -0.176949,-0.14548 -0.205898,-0.12664 -0.419012,-0.1863 -0.654742,-0.23795 -0.490702,-0.1075 -0.992173,-0.13005 -1.491654,-0.16172 -0.15288,-0.0119 -0.30576,-0.0237 -0.45864,-0.0356 0,0 0.848081,-0.60491 0.848081,-0.60491 v 0 c 0.147954,0.0145 0.295907,0.0291 0.443861,0.0436 0.509606,0.0362 1.024941,0.0594 1.526974,0.16184 0.256784,0.0524 0.492825,0.11444 0.718141,0.25066 0.07517,0.0454 0.136354,0.11075 0.20453,0.16613 0.03987,0.0578 0.08514,0.11222 0.119618,0.17338 0.06185,0.10973 0.09627,0.23293 0.150311,0.34671 0.08525,0.17952 0.14268,0.27364 0.250944,0.44844 0.06118,0.0988 0.12476,0.19606 0.18714,0.29408 0.223227,0.36764 0.447045,0.73728 0.557305,1.15851 0.08034,0.30692 0.105171,0.59697 0.05554,0.91173 -0.02393,0.15179 -0.08081,0.29652 -0.121218,0.44478 -0.201117,0.40833 -0.204576,0.47486 -0.502044,0.83243 -0.69591,0.83654 -1.700679,1.3184 -2.644227,1.82011 -0.181759,0.0743 -0.35963,0.15894 -0.545274,0.22292 -0.460527,0.15871 -0.965935,0.27148 -1.450708,0.15005 -0.311623,-0.0781 -0.39486,-0.17191 -0.646158,-0.35138 -0.08748,-0.0789 -0.175118,-0.15767 -0.262437,-0.23677 -0.177956,-0.16121 -0.32525,-0.31032 -0.529112,-0.44024 -0.324646,-0.2069 -0.693696,-0.31131 -1.067294,-0.38729 -0.530181,-0.0962 -1.160716,-0.1667 -1.61521,-0.47947 -0.253263,-0.17429 -0.276374,-0.25858 -0.437783,-0.50361 -0.03523,-0.0915 -0.07753,-0.18055 -0.105675,-0.27445 -0.08659,-0.28888 -0.09072,-0.59968 -0.03888,-0.89467 0,0 1.048019,-0.48746 1.048019,-0.48746 z"
       inkscape:connector-curvature="0" />
    <path
       style="opacity:1;vector-effect:none;fill:#236119;fill-opacity:0.77880183;stroke:none;stroke-width:0.44999999;stroke-linecap:round;stroke-linejoin:miter;stroke-miterlimit:4;stroke-dasharray:none;stroke-dashoffset:0;stroke-opacity:1;paint-order:normal"
       id="path851"
       d="m 30.859279,282.91121 c -0.123079,0.23821 -0.08,0.52432 0.06496,0.74581 0.04184,0.0639 0.09859,0.11675 0.14788,0.17513 0.400662,0.37575 0.98982,0.38199 1.442085,0.66317 0.100992,0.0628 0.18536,0.14902 0.278038,0.22354 0.281442,0.31412 0.333896,0.65965 0.468122,1.03918 0.04326,0.12233 0.08218,0.24767 0.144737,0.36134 0.181838,0.33039 0.246489,0.32252 0.552101,0.53676 0.459499,0.15336 0.467963,0.19002 0.981043,0.20984 0.196774,0.008 0.39365,-0.0122 0.590476,-0.0183 0,0 -0.807688,0.59013 -0.807688,0.59013 v 0 c -0.202996,0.005 -0.406159,0.0232 -0.608994,0.0138 -0.550513,-0.0254 -0.547119,-0.0614 -1.041609,-0.23147 -0.332277,-0.23988 -0.391467,-0.22509 -0.589357,-0.58443 -0.238024,-0.43222 -0.241866,-0.97411 -0.596638,-1.34597 -0.08717,-0.0679 -0.1667,-0.14692 -0.261509,-0.20365 -0.100147,-0.0599 -0.210481,-0.10144 -0.319219,-0.14382 -0.407805,-0.15897 -0.842349,-0.23089 -1.174986,-0.54252 -0.05535,-0.0649 -0.117837,-0.12439 -0.166052,-0.19477 -0.162529,-0.23726 -0.229929,-0.53878 -0.155888,-0.81755 0,0 1.0525,-0.47618 1.0525,-0.47618 z"
       inkscape:connector-curvature="0" />
    <path
       style="opacity:1;vector-effect:none;fill:#389b29;fill-opacity:0.77880186;stroke:none;stroke-width:0.44999999;stroke-linecap:round;stroke-linejoin:miter;stroke-miterlimit:4;stroke-dasharray:none;stroke-dashoffset:0;stroke-opacity:1;paint-order:normal"
       id="path853"
       d="m 18.654887,280.86154 c -0.03698,-0.13533 -0.0967,-0.26342 -0.124033,-0.40156 -0.01663,-0.084 -0.01761,-0.13498 -0.02337,-0.219 -0.0043,-0.0424 -0.0034,-0.12231 -0.03736,-0.16005 -0.04886,-0.0543 -0.155147,-0.0592 -0.214213,-0.0575 -0.234436,0.007 -0.308512,0.0505 -0.547084,0.1239 -0.124622,0.059 -0.484684,0.25915 -0.373867,0.17709 0.144799,-0.10723 0.370451,-0.39877 0.477309,-0.2537 0.10578,0.14361 -0.286281,0.21357 -0.419547,0.33211 -0.278768,0.24798 -0.522802,0.52131 -0.744288,0.82119 -0.106183,0.14377 -0.197899,0.29767 -0.296848,0.44651 -0.307554,0.48399 -0.528603,1.01416 -0.795102,1.52003 -0.158823,0.30149 -0.165625,0.29991 -0.346726,0.58691 -0.210679,0.31254 -0.475156,0.57989 -0.753961,0.83119 -0.08992,0.0811 -0.462976,0.39414 -0.560132,0.48728 -0.06094,0.0584 -0.114686,0.12394 -0.172029,0.18591 -0.01489,0.04 -0.02977,0.08 -0.04466,0.12007 0,0 -1.018652,0.47833 -1.018652,0.47833 v 0 c 0.01804,-0.0586 0.03608,-0.1172 0.05413,-0.17581 0.06356,-0.0687 0.123059,-0.14133 0.190694,-0.20598 0.120175,-0.11489 0.451377,-0.38327 0.570795,-0.48815 0.275739,-0.24219 0.538861,-0.49905 0.750555,-0.80073 0.06168,-0.094 0.126056,-0.18625 0.18503,-0.28196 0.368611,-0.5982 0.63323,-1.25421 1.008596,-1.84882 0.260759,-0.40112 0.325894,-0.5316 0.64286,-0.89579 0.669759,-0.76954 1.556093,-1.30239 2.495062,-1.69009 0.251537,-0.069 0.700383,-0.23822 0.909791,0.0281 0.04714,0.06 0.04558,0.12752 0.05396,0.1978 8.47e-4,0.0698 -8.2e-4,0.13117 0.01018,0.20066 0.02123,0.13397 0.08044,0.25716 0.133285,0.38065 0,0 -1.010375,0.56135 -1.010375,0.56135 z"
       inkscape:connector-curvature="0" />
    <path
       style="opacity:1;vector-effect:none;fill:#389b29;fill-opacity:0.77880183;stroke:none;stroke-width:0.44999999;stroke-linecap:round;stroke-linejoin:miter;stroke-miterlimit:4;stroke-dasharray:none;stroke-dashoffset:0;stroke-opacity:1;paint-order:normal"
       id="path855"
       d="m 11.247207,276.62156 c 0.427237,0.18112 0.874288,0.30892 1.328861,0.4006 0.164882,0.0333 0.331298,0.0584 0.496946,0.0876 0.779587,0.14593 1.579615,0.14486 2.359157,0.28902 0.103168,0.0191 0.20465,0.0464 0.306975,0.0695 0.264527,0.073 0.486467,0.20092 0.657783,0.41888 0.0593,0.0754 0.103615,0.16155 0.155423,0.24232 0,0 -0.941718,0.55139 -0.941718,0.55139 v 0 c -0.05012,-0.0732 -0.0935,-0.15159 -0.150351,-0.21975 -0.162071,-0.19431 -0.372138,-0.30666 -0.611832,-0.37692 -0.09661,-0.0241 -0.192395,-0.0517 -0.289821,-0.0722 -0.765871,-0.16119 -1.553687,-0.18464 -2.324574,-0.31364 -0.457323,-0.072 -0.526841,-0.076 -0.963249,-0.16993 -0.285475,-0.0615 -0.561239,-0.14581 -0.842331,-0.22265 -0.04321,-0.0118 -0.08694,-0.0217 -0.130404,-0.0325 0,0 0.949135,-0.6517 0.949135,-0.6517 z"
       inkscape:connector-curvature="0" />
    <path
       style="opacity:1;vector-effect:none;fill:#389b29;fill-opacity:0.77880183;stroke:none;stroke-width:0.44999999;stroke-linecap:round;stroke-linejoin:miter;stroke-miterlimit:4;stroke-dasharray:none;stroke-dashoffset:0;stroke-opacity:1;paint-order:normal"
       id="path857"
       d="m 36.561084,286.86227 c -0.239951,0.77406 -0.483132,1.547 -0.715558,2.32337 -0.05576,0.19642 -0.158189,0.5196 -0.183695,0.73462 -0.0097,0.0815 -0.03076,0.26209 0.07409,0.32302 0.04692,0.0273 0.299331,2.6e-4 0.318691,-0.001 0.135773,-0.003 0.449918,-0.0692 0.496684,0.14297 0.01638,0.0743 0.0021,0.15665 -0.02815,0.22641 -0.09837,0.22667 -0.371661,0.47269 -0.527445,0.63515 -0.375052,0.32358 -0.504626,0.45378 -0.920131,0.73565 -0.157879,0.1071 -0.325135,0.19968 -0.487703,0.29953 0,0 -0.939819,0.36271 -0.939819,0.36271 v 0 c 0.165775,-0.0977 0.336627,-0.18735 0.497329,-0.29322 0.402643,-0.26528 0.532384,-0.39621 0.890273,-0.70456 0.236059,-0.24692 0.306134,-0.29403 0.478369,-0.55328 0.02567,-0.0387 0.05991,-0.0775 0.06372,-0.12374 0.0076,-0.0917 -0.202591,-0.0823 -0.206272,-0.0824 -0.07181,-0.002 -0.143562,0.006 -0.215341,0.009 -0.137957,-0.005 -0.283798,0.0183 -0.395857,-0.092 -0.112119,-0.11043 -0.08828,-0.28612 -0.0655,-0.41894 0.03297,-0.19224 0.165208,-0.58972 0.218064,-0.75877 0.230161,-0.74736 0.46835,-1.49665 0.615733,-2.26553 0,0 1.032513,-0.49893 1.032513,-0.49893 z"
       inkscape:connector-curvature="0" />
    <path
       style="opacity:1;vector-effect:none;fill:#389b29;fill-opacity:0.77880183;stroke:none;stroke-width:0.44999999;stroke-linecap:round;stroke-linejoin:miter;stroke-miterlimit:4;stroke-dasharray:none;stroke-dashoffset:0;stroke-opacity:1;paint-order:normal"
       id="path859"
       d="m 26.106408,292.61118 c 0.01747,-0.0458 0.04876,-0.11253 0.04349,-0.16393 -0.02225,-0.21704 -0.548203,-0.31114 -0.684721,-0.34936 -0.780604,-0.16834 -1.568672,-0.29808 -2.349053,-0.46774 -0.590587,-0.1284 -0.750092,-0.17195 -1.328966,-0.31486 -0.931422,-0.21134 -1.806328,-0.59426 -2.691467,-0.94147 -0.392349,-0.14838 -0.799812,-0.24949 -1.215274,-0.30625 -0.140239,-0.0192 -0.281662,-0.0283 -0.422492,-0.0425 0,0 0.855532,-0.60753 0.855532,-0.60753 v 0 c 0.141518,0.0165 0.283642,0.0285 0.424553,0.0496 0.421848,0.0632 0.837163,0.16495 1.235734,0.31803 0.865464,0.3473 1.715045,0.74374 2.623249,0.97178 0.59061,0.15273 0.708329,0.19028 1.316456,0.31763 0.805134,0.16861 1.620029,0.27819 2.43018,0.41832 0.266649,0.0635 0.738631,0.10913 0.827251,0.44304 0.01633,0.0615 -0.0038,0.12839 -0.01645,0.18773 0,0 -1.04802,0.48746 -1.04802,0.48746 z"
       inkscape:connector-curvature="0" />
    <path
       style="opacity:1;vector-effect:none;fill:#389b29;fill-opacity:0.77880183;stroke:none;stroke-width:0.44999999;stroke-linecap:round;stroke-linejoin:miter;stroke-miterlimit:4;stroke-dasharray:none;stroke-dashoffset:0;stroke-opacity:1;paint-order:normal"
       id="path861"
       d="m 14.939274,292.09381 c -0.374843,0.16761 -0.739901,0.35549 -1.119838,0.51211 -0.120068,0.0495 -0.241799,0.0949 -0.362699,0.14229 -0.497013,0.18166 -1.017139,0.31474 -1.548981,0.32664 -0.256796,0.006 -0.409542,-0.0194 -0.66127,-0.0475 -0.306107,-0.0458 -0.611419,-0.0442 -0.915579,0.0147 -0.3341448,0.0646 -0.6593397,0.1816 -0.9840784,0.28098 -0.2714448,0.0766 -0.5559872,0.13962 -0.8358566,0.0603 -0.2556198,-0.0724 -0.4668803,-0.2642 -0.6754738,-0.41798 -0.353894,-0.25875 -0.7627914,-0.41686 -1.1655219,-0.58043 0,0 0.8979239,-0.5995 0.8979239,-0.5995 v 0 c 0.4066521,0.17527 0.8199805,0.3424 1.1865067,0.59556 0.2025481,0.13928 0.4088569,0.31071 0.6553335,0.36606 0.2654488,0.0596 0.5325774,-0.0102 0.7872016,-0.0808 0.328928,-0.0988 0.658959,-0.21273 0.998824,-0.26885 0.310488,-0.0513 0.621679,-0.0419 0.932088,0.004 0.252721,0.0267 0.3793,0.0487 0.63736,0.0397 0.525322,-0.0183 1.035693,-0.15991 1.523621,-0.3474 0.528709,-0.21664 1.045408,-0.45819 1.552547,-0.72154 0,0 -0.902108,0.7216 -0.902108,0.7216 z"
       inkscape:connector-curvature="0" />
    <path
       style="opacity:1;vector-effect:none;fill:#389b29;fill-opacity:0.77880183;stroke:none;stroke-width:0.44999999;stroke-linecap:round;stroke-linejoin:miter;stroke-miterlimit:4;stroke-dasharray:none;stroke-dashoffset:0;stroke-opacity:1;paint-order:normal"
       id="path863"
       d="m 5.5141358,291.14576 c -0.042765,-0.29559 -0.030956,-0.59594 -0.028995,-0.89352 0.00319,-0.4847 0.00325,-0.30356 -0.00494,-0.80232 -0.022039,-0.53559 -0.041837,-1.07976 0.127381,-1.59665 0.1184794,-0.36191 0.2180815,-0.50592 0.4021786,-0.84342 0.5206018,-0.84094 1.1184993,-1.63013 1.7504401,-2.38969 0,0 0.9601841,-0.4074 0.9601841,-0.4074 v 0 c -0.2063732,0.24241 -0.3962474,0.46103 -0.5938126,0.71148 -0.4200866,0.53253 -0.8098856,1.09043 -1.173095,1.66296 -0.1805099,0.32717 -0.2739504,0.46097 -0.3934823,0.81037 -0.173429,0.50695 -0.1667171,1.04368 -0.1427374,1.57187 0.0092,0.26408 0.01738,0.5282 0.026989,0.79227 0.00888,0.24405 0.013152,0.49325 0.059569,0.73417 0.00653,0.0339 0.018288,0.0666 0.027431,0.0999 0,0 -1.0171102,0.55003 -1.0171102,0.55003 z"
       inkscape:connector-curvature="0" />
    <path
       style="opacity:1;vector-effect:none;fill:#389b29;fill-opacity:0.77880183;stroke:none;stroke-width:0.44999999;stroke-linecap:round;stroke-linejoin:miter;stroke-miterlimit:4;stroke-dasharray:none;stroke-dashoffset:0;stroke-opacity:1;paint-order:normal"
       id="path865"
       d="m 22.579216,276.59671 c 0.507275,-0.16263 1.028198,0.0247 1.517359,0.16479 0.816973,0.2527 1.649174,0.45542 2.495147,0.58307 0.614027,0.0927 0.862284,0.10745 1.476593,0.1652 0.849569,0.0639 0.443065,0.0276 1.219756,0.10626 0,0 -0.828569,0.5872 -0.828569,0.5872 v 0 c -0.74326,-0.10141 -0.351344,-0.055 -1.176282,-0.13479 -0.575066,-0.0597 -0.902355,-0.0876 -1.47804,-0.17236 -0.867007,-0.12772 -1.722277,-0.3205 -2.569847,-0.54149 -0.511024,-0.11793 -1.058189,-0.2776 -1.560376,-0.0413 0,0 0.904259,-0.71661 0.904259,-0.71661 z"
       inkscape:connector-curvature="0" />
    <path
       style="opacity:1;vector-effect:none;fill:#389b29;fill-opacity:0.77880183;stroke:none;stroke-width:0.44999999;stroke-linecap:round;stroke-linejoin:miter;stroke-miterlimit:4;stroke-dasharray:none;stroke-dashoffset:0;stroke-opacity:1;paint-order:normal"
       id="path867"
       d="m 27.770702,282.9469 c -0.04056,0.01 -0.08174,0.0176 -0.121673,0.0299 -0.05833,0.0179 -0.116453,0.0369 -0.172792,0.0602 -0.06658,0.0276 -0.257526,0.12919 -0.195453,0.0925 0.250623,-0.14797 0.500369,-0.29871 0.761684,-0.42687 0.05443,-0.0267 -0.09753,0.0738 -0.13643,0.12024 -0.02711,0.0324 -0.0389,0.075 -0.05836,0.11251 0.01018,0.0319 0.01056,0.0688 0.03055,0.0956 0.06579,0.0884 0.250125,0.19555 0.327027,0.24731 0.07928,0.0534 0.161178,0.10314 0.237083,0.1612 0.25148,0.19237 0.214755,0.17748 0.403725,0.42373 0.141141,0.35964 0.09443,0.17256 0.138132,0.56175 0,0 -0.966293,0.50421 -0.966293,0.50421 v 0 c -0.02845,-0.35241 0.0091,-0.18318 -0.109913,-0.50833 -0.173668,-0.22999 -0.13877,-0.21794 -0.381686,-0.39401 -0.180661,-0.13094 -0.505671,-0.26745 -0.635857,-0.44814 -0.03557,-0.0494 -0.04437,-0.11331 -0.06655,-0.16996 0.04524,-0.14227 0.04335,-0.21522 0.186523,-0.30598 0.531146,-0.33668 1.060729,-0.70463 1.679471,-0.84723 0,0 -0.919185,0.69131 -0.919185,0.69131 z"
       inkscape:connector-curvature="0" />
    <path
       style="opacity:1;vector-effect:none;fill:#389b29;fill-opacity:0.77880183;stroke:none;stroke-width:0.44999999;stroke-linecap:round;stroke-linejoin:miter;stroke-miterlimit:4;stroke-dasharray:none;stroke-dashoffset:0;stroke-opacity:1;paint-order:normal"
       id="path869"
       d="m 22.652674,282.54213 c -0.239763,0.11042 -0.493886,0.19882 -0.75348,0.24938 -0.08218,0.016 -0.165711,0.0241 -0.248566,0.0361 -0.226703,0.0266 -0.448517,0.005 -0.667395,-0.0562 -0.111507,-0.0314 -0.216071,-0.0855 -0.32851,-0.11337 -0.04461,-0.0111 -0.09124,-0.0112 -0.136857,-0.0169 -0.296786,0.0951 -1.254086,0.40939 0.763579,-0.4313 0.04611,-0.0192 -0.06068,0.083 -0.07123,0.13184 -0.01517,0.0702 -0.01441,0.14439 -0.0038,0.21542 0.0388,0.26007 0.135928,0.41571 0.247887,0.6567 0.220742,0.43612 0.534908,0.81366 0.78565,1.23115 0.114151,0.19006 0.281948,0.45981 0.272943,0.70241 -0.004,0.10816 -0.06487,0.20652 -0.0973,0.30978 -0.09825,0.0904 -0.180606,0.20202 -0.294755,0.27132 -0.439341,0.26671 -0.891497,0.51431 -1.357268,0.73159 -0.185747,0.0867 -0.391003,0.12361 -0.589054,0.1764 -0.675219,0.17997 -1.365814,0.30271 -2.050838,0.438 -0.757525,0.14993 -1.5187,0.30395 -2.243618,0.57544 0,0 0.890644,-0.6924 0.890644,-0.6924 v 0 c 0.699094,-0.20584 1.415332,-0.3418 2.131765,-0.47213 0.688769,-0.13283 1.382958,-0.25671 2.056433,-0.4568 0.205007,-0.0609 0.419571,-0.30885 0.607413,-0.20661 0.15408,0.0839 -0.284793,0.20501 -0.430282,0.30302 -0.100976,0.068 0.197801,-0.14202 0.296701,-0.21303 0.04306,-0.0866 0.113831,-0.16425 0.129183,-0.25972 0.03805,-0.2366 -0.107595,-0.49812 -0.213527,-0.68638 -0.241203,-0.42867 -0.567432,-0.80226 -0.810643,-1.22973 -0.135898,-0.24971 -0.240754,-0.40102 -0.312023,-0.67179 -0.178126,-0.67675 0.514062,-1.07096 1.217702,-1.07001 0.04775,0.0117 0.09628,0.0206 0.143258,0.0351 0.225795,0.0698 0.07088,0.0444 0.3124,0.10649 0.207625,0.0534 0.417294,0.063 0.629667,0.031 0.08161,-0.0156 0.164023,-0.0274 0.244826,-0.0467 0.274042,-0.0655 0.532389,-0.17785 0.789228,-0.29073 0,0 -0.910122,0.71248 -0.910122,0.71248 z"
       inkscape:connector-curvature="0" />
    <path
       style="opacity:1;vector-effect:none;fill:#389b29;fill-opacity:0.77880183;stroke:none;stroke-width:0.44999999;stroke-linecap:round;stroke-linejoin:miter;stroke-miterlimit:4;stroke-dasharray:none;stroke-dashoffset:0;stroke-opacity:1;paint-order:normal"
       id="path871"
       d="m 25.687026,285.38048 c 0.01621,0.0244 0.03001,0.0507 0.04864,0.0733 0.120181,0.14612 0.274233,0.26539 0.412059,0.39332 0.211924,0.19671 0.219263,0.2103 0.42785,0.42565 0.332475,0.3493 0.64875,0.74282 1.115728,0.91755 0.346074,0.12948 0.505876,0.10993 0.877708,0.13325 0.173214,-0.0131 0.346428,-0.0262 0.519641,-0.0394 0,0 -0.820938,0.60531 -0.820938,0.60531 v 0 c -0.179336,0.0117 -0.358672,0.0234 -0.538008,0.0351 -0.397617,-0.0295 -0.556307,-0.009 -0.924452,-0.15401 -0.473227,-0.18618 -0.800163,-0.586 -1.150286,-0.93366 -0.21693,-0.2098 -0.218973,-0.21898 -0.441287,-0.40742 -0.179619,-0.15225 -0.377653,-0.28829 -0.528556,-0.47118 0,0 1.001901,-0.57786 1.001901,-0.57786 z"
       inkscape:connector-curvature="0" />
    <path
       style="opacity:1;vector-effect:none;fill:#389b29;fill-opacity:0.77880183;stroke:none;stroke-width:0.44999999;stroke-linecap:round;stroke-linejoin:miter;stroke-miterlimit:4;stroke-dasharray:none;stroke-dashoffset:0;stroke-opacity:1;paint-order:normal"
       id="path873"
       d="m 33.245704,291.20426 c 0.651737,0.0846 1.312174,0.0637 1.967674,0.0534 0.405588,0.0185 1.028002,-0.0543 1.326613,0.29699 0.132186,0.15549 0.142412,0.30776 0.186336,0.49754 0.02653,0.15557 0.05083,0.36502 0.11879,0.51236 0.02976,0.0645 0.08002,0.11745 0.120031,0.17617 0,0 -0.954146,0.55726 -0.954146,0.55726 v 0 c -0.04263,-0.0692 -0.09514,-0.13317 -0.127897,-0.20753 -0.06893,-0.15652 -0.0929,-0.35318 -0.121933,-0.51898 -0.03443,-0.15447 -0.04609,-0.30296 -0.152361,-0.43071 -0.26425,-0.31764 -0.878945,-0.25147 -1.23839,-0.26827 -0.68649,0.0147 -1.374333,0.0358 -2.060252,-0.007 0,0 0.935535,-0.66094 0.935535,-0.66094 z"
       inkscape:connector-curvature="0" />
    <path
       style="opacity:1;vector-effect:none;fill:#389b29;fill-opacity:0.77880183;stroke:none;stroke-width:0.44999999;stroke-linecap:round;stroke-linejoin:miter;stroke-miterlimit:4;stroke-dasharray:none;stroke-dashoffset:0;stroke-opacity:1;paint-order:normal"
       id="path875"
       d="m 38.884133,291.80141 c 0.02984,-0.0209 0.05968,-0.0419 0.08952,-0.0628 0,0 1.059955,-0.42101 1.059955,-0.42101 v 0 c -0.02484,0.0197 -0.0497,0.0395 -0.07455,0.0592 0,0 -1.074931,0.4246 -1.074931,0.4246 z"
       inkscape:connector-curvature="0" />
    <path
       style="opacity:1;vector-effect:none;fill:#389b29;fill-opacity:0.77880183;stroke:none;stroke-width:0.44999999;stroke-linecap:round;stroke-linejoin:miter;stroke-miterlimit:4;stroke-dasharray:none;stroke-dashoffset:0;stroke-opacity:1;paint-order:normal"
       id="path877"
       d="m 37.083938,282.55247 c -0.28874,-0.13326 -0.623954,-0.1121 -0.934078,-0.12573 -0.121435,-0.005 -0.242781,-0.0126 -0.364175,-0.0189 0,0 0.863809,-0.62276 0.863809,-0.62276 v 0 c 0.125542,0.003 0.251077,0.006 0.376627,0.008 0.344757,0.007 0.712523,-0.0148 1.032989,0.13468 0,0 -0.975172,0.62439 -0.975172,0.62439 z"
       inkscape:connector-curvature="0" />
    <path
       style="opacity:1;vector-effect:none;fill:#389b29;fill-opacity:0.77880183;stroke:none;stroke-width:0.44999999;stroke-linecap:round;stroke-linejoin:miter;stroke-miterlimit:4;stroke-dasharray:none;stroke-dashoffset:0;stroke-opacity:1;paint-order:normal"
       id="path879"
       d="m 31.692933,280.77214 c -0.02966,-0.0255 -0.05932,-0.0511 -0.08899,-0.0766 0,0 0.960213,-0.60953 0.960213,-0.60953 v 0 c 0.0316,0.0188 0.06319,0.0377 0.09479,0.0566 0,0 -0.966015,0.62961 -0.966015,0.62961 z"
       inkscape:connector-curvature="0" />
    <path
       style="opacity:1;vector-effect:none;fill:#389b29;fill-opacity:0.77880183;stroke:none;stroke-width:0.44999999;stroke-linecap:round;stroke-linejoin:miter;stroke-miterlimit:4;stroke-dasharray:none;stroke-dashoffset:0;stroke-opacity:1;paint-order:normal"
       id="path881"
       d="m 33.207345,277.94469 c -0.185524,0.0298 -0.08297,0.0128 -0.307536,0.0516 0,0 0.889283,-0.67253 0.889283,-0.67253 v 0 c 0.243205,-0.0521 0.130723,-0.0266 0.337674,-0.0752 0,0 -0.919421,0.69614 -0.919421,0.69614 z"
       inkscape:connector-curvature="0" />
    <path
       style="opacity:1;vector-effect:none;fill:#389b29;fill-opacity:0.77880183;stroke:none;stroke-width:0.44999999;stroke-linecap:round;stroke-linejoin:miter;stroke-miterlimit:4;stroke-dasharray:none;stroke-dashoffset:0;stroke-opacity:1;paint-order:normal"
       id="path883"
       d="m 31.237887,278.07663 c -0.230622,-0.0853 -0.477092,-0.10929 -0.71918,-0.13985 0,0 0.889095,-0.6306 0.889095,-0.6306 v 0 c 0.266071,0.0275 0.536274,0.0488 0.793128,0.12866 0,0 -0.963043,0.64179 -0.963043,0.64179 z"
       inkscape:connector-curvature="0" />
    <path
       style="opacity:1;vector-effect:none;fill:#389b29;fill-opacity:0.77880183;stroke:none;stroke-width:0.44999999;stroke-linecap:round;stroke-linejoin:miter;stroke-miterlimit:4;stroke-dasharray:none;stroke-dashoffset:0;stroke-opacity:1;paint-order:normal"
       id="path885"
       d="m 18.148458,277.65102 c 0.0096,-0.17984 0.02245,-0.39592 -0.101704,-0.54559 -0.09948,-0.11992 -0.180215,-0.11729 -0.325676,-0.16026 -0.08561,10e-4 -0.172022,-0.008 -0.256829,0.003 -0.100683,0.014 -0.200652,0.038 -0.296034,0.0731 -0.108489,0.04 -0.413819,0.20619 -0.31229,0.15089 0.194529,-0.10595 0.369952,-0.30281 0.591464,-0.30295 0.147746,-9e-5 -0.222961,0.19471 -0.323702,0.30279 -0.113008,0.12123 -0.210804,0.2558 -0.316206,0.3837 -0.432998,0.61236 -0.219128,0.29749 -0.640507,0.94537 0,0 -0.919552,0.40436 -0.919552,0.40436 v 0 c 0.406859,-0.64563 0.202304,-0.33096 0.612809,-0.94457 0.128246,-0.16809 0.413201,-0.57326 0.60148,-0.7036 0.395253,-0.27364 0.813994,-0.51231 1.232065,-0.74963 0.190512,-0.10814 0.436322,-0.18393 0.655969,-0.19966 0.09563,-0.007 0.191438,0.0109 0.287157,0.0163 0.07594,0.0289 0.157698,0.0457 0.227812,0.0867 0.253061,0.14823 0.299954,0.45033 0.311559,0.71582 0,0 -1.027815,0.5237 -1.027815,0.5237 z"
       inkscape:connector-curvature="0" />
    <path
       style="opacity:1;vector-effect:none;fill:#389b29;fill-opacity:0.77880183;stroke:none;stroke-width:0.44999999;stroke-linecap:round;stroke-linejoin:miter;stroke-miterlimit:4;stroke-dasharray:none;stroke-dashoffset:0;stroke-opacity:1;paint-order:normal"
       id="path887"
       d="m 9.7443695,282.41885 c -0.2279374,0.1045 -0.483944,0.22791 -0.7429719,0.17816 -0.062907,-0.0121 -0.1209416,-0.0423 -0.1814121,-0.0634 -0.2327108,-0.17154 -0.1229106,-0.0721 -0.3255746,-0.30242 0,0 0.9450086,-0.57446 0.9450086,-0.57446 v 0 c 0.1923878,0.19428 0.089419,0.11482 0.3037565,0.24489 0.054413,0.0119 0.1076785,0.0318 0.1632376,0.0358 0.2632164,0.0191 0.5114284,-0.12588 0.7352624,-0.24275 0,0 -0.8973065,0.72418 -0.8973065,0.72418 z"
       inkscape:connector-curvature="0" />
    <path
       style="opacity:1;vector-effect:none;fill:#389b29;fill-opacity:0.77880183;stroke:none;stroke-width:0.44999999;stroke-linecap:round;stroke-linejoin:miter;stroke-miterlimit:4;stroke-dasharray:none;stroke-dashoffset:0;stroke-opacity:1;paint-order:normal"
       id="path889"
       d="m 7.6391554,280.18872 c 0.058453,-0.25947 0.1701998,-0.61731 0.070765,-0.87741 -0.015176,-0.0397 -0.046267,-0.0713 -0.069401,-0.10694 0,0 0.9759455,-0.56572 0.9759455,-0.56572 v 0 c 0.027136,0.048 0.062561,0.0923 0.081407,0.1441 0.1055428,0.29039 0.00301,0.61347 -0.026204,0.90705 0,0 -1.0325137,0.49892 -1.0325137,0.49892 z"
       inkscape:connector-curvature="0" />
    <path
       style="opacity:1;vector-effect:none;fill:#28701d;fill-opacity:0.77880186;stroke:none;stroke-width:0.44999999;stroke-linecap:round;stroke-linejoin:miter;stroke-miterlimit:4;stroke-dasharray:none;stroke-dashoffset:0;stroke-opacity:1;paint-order:normal"
       id="path891"
       d="m 7.7481124,281.04778 c -0.1951429,0.22571 -0.4228132,0.44761 -0.5344316,0.73093 -0.020645,0.0524 -0.028876,0.10888 -0.043314,0.16333 0.00175,0.0497 0.00348,0.0993 0.00522,0.14901 0,0 -0.9972347,0.51612 -0.9972347,0.51612 v 0 c -0.00523,-0.06 -0.010467,-0.11997 -0.0157,-0.17995 0.012451,-0.0629 0.017306,-0.1278 0.037357,-0.18871 0.093211,-0.28316 0.3112088,-0.50635 0.484659,-0.74064 0,0 1.0634482,-0.45009 1.0634482,-0.45009 z"
       inkscape:connector-curvature="0" />
    <path
       style="opacity:1;vector-effect:none;fill:#194512;fill-opacity:0.77880186;stroke:none;stroke-width:0.44999999;stroke-linecap:round;stroke-linejoin:miter;stroke-miterlimit:4;stroke-dasharray:none;stroke-dashoffset:0;stroke-opacity:1;paint-order:normal"
       id="path893"
       d="m 37.635813,277.86736 c -0.278762,-0.0471 -0.558715,-0.0836 -0.839602,-0.11539 0,0 0.895789,-0.63548 0.895789,-0.63548 v 0 c 0.293201,0.0334 0.586529,0.0739 0.881819,0.0823 0,0 -0.938006,0.66859 -0.938006,0.66859 z"
       inkscape:connector-curvature="0" />
    <path
       style="opacity:1;vector-effect:none;fill:#194512;fill-opacity:0.77880183;stroke:none;stroke-width:0.44999999;stroke-linecap:round;stroke-linejoin:miter;stroke-miterlimit:4;stroke-dasharray:none;stroke-dashoffset:0;stroke-opacity:1;paint-order:normal"
       id="path895"
       d="m 7.3860039,276.86592 c -0.00599,0.0266 -0.011983,0.0533 -0.017976,0.0799 0,0 -1.0265796,0.50809 -1.0265796,0.50809 v 0 c 5.821e-4,-0.0295 0.00116,-0.0589 0.00172,-0.0884 0,0 1.0428279,-0.49956 1.0428279,-0.49956 z"
       inkscape:connector-curvature="0" />
    <path
       style="opacity:1;vector-effect:none;fill:#194512;fill-opacity:0.77880183;stroke:none;stroke-width:0.44999999;stroke-linecap:round;stroke-linejoin:miter;stroke-miterlimit:4;stroke-dasharray:none;stroke-dashoffset:0;stroke-opacity:1;paint-order:normal"
       id="path897"
       d="m 6.6469184,282.11828 c 0.023101,0.13286 0.032023,0.2669 0.041233,0.40123 0,0 -0.9933125,0.51774 -0.9933125,0.51774 v 0 c -0.014645,-0.12323 -0.02873,-0.24547 -0.064529,-0.36482 0,0 1.0166085,-0.55415 1.0166085,-0.55415 z"
       inkscape:connector-curvature="0" />
    <path
       style="opacity:1;vector-effect:none;fill:#194512;fill-opacity:0.77880183;stroke:none;stroke-width:0.44999999;stroke-linecap:round;stroke-linejoin:miter;stroke-miterlimit:4;stroke-dasharray:none;stroke-dashoffset:0;stroke-opacity:1;paint-order:normal"
       id="path899"
       d="m 6.1047438,289.40001 c 0.03708,0.0155 0.07416,0.031 0.1112403,0.0465 0,0 -0.939525,0.63479 -0.939525,0.63479 v 0 c -0.041934,-0.0126 -0.083867,-0.0251 -0.1258007,-0.0377 0,0 0.9540854,-0.64358 0.9540854,-0.64358 z"
       inkscape:connector-curvature="0" />
    <path
       style="opacity:1;vector-effect:none;fill:#194512;fill-opacity:0.77880183;stroke:none;stroke-width:0.44999999;stroke-linecap:round;stroke-linejoin:miter;stroke-miterlimit:4;stroke-dasharray:none;stroke-dashoffset:0;stroke-opacity:1;paint-order:normal"
       id="path901"
       d="m 8.3032876,287.18715 c -0.076043,-0.10764 -0.1332341,-0.22821 -0.1128673,-0.36496 0.00784,-0.0526 0.033485,-0.101 0.050227,-0.1515 0,0 1.0265711,-0.47016 1.0265711,-0.47016 v 0 c -0.021836,0.0364 -0.051221,0.0693 -0.065507,0.10932 -0.03962,0.11096 0.012925,0.20346 0.085905,0.28203 0,0 -0.9843294,0.59527 -0.9843288,0.59527 z"
       inkscape:connector-curvature="0" />
    <path
       style="opacity:1;vector-effect:none;fill:#194512;fill-opacity:0.77880183;stroke:none;stroke-width:0.44999999;stroke-linecap:round;stroke-linejoin:miter;stroke-miterlimit:4;stroke-dasharray:none;stroke-dashoffset:0;stroke-opacity:1;paint-order:normal"
       id="path903"
       d="m 11.72541,285.58462 c 0.357404,-0.11236 0.707625,-0.24615 1.058953,-0.37589 0,0 -0.851455,0.66629 -0.851455,0.66629 v 0 c -0.372713,0.14022 -0.745931,0.27921 -1.11762,0.42209 0,0 0.910122,-0.71249 0.910122,-0.71249 z"
       inkscape:connector-curvature="0" />
    <path
       style="opacity:1;vector-effect:none;fill:#194512;fill-opacity:0.77880183;stroke:none;stroke-width:0.44999999;stroke-linecap:round;stroke-linejoin:miter;stroke-miterlimit:4;stroke-dasharray:none;stroke-dashoffset:0;stroke-opacity:1;paint-order:normal"
       id="path905"
       d="m 13.9249,284.25372 c -0.466283,-0.17968 -0.927045,-0.37249 -1.380328,-0.58288 -0.09081,-0.0437 -0.181618,-0.0875 -0.272427,-0.13123 0,0 0.905446,-0.59721 0.905446,-0.59721 v 0 c 0.08936,0.0438 0.178717,0.0877 0.268076,0.1315 0.463886,0.21281 0.937594,0.40926 1.434468,0.5317 0,0 -0.955235,0.64812 -0.955235,0.64812 z"
       inkscape:connector-curvature="0" />
    <path
       style="opacity:1;vector-effect:none;fill:#194512;fill-opacity:0.77880183;stroke:none;stroke-width:0.44999999;stroke-linecap:round;stroke-linejoin:miter;stroke-miterlimit:4;stroke-dasharray:none;stroke-dashoffset:0;stroke-opacity:1;paint-order:normal"
       id="path907"
       d="m 12.935,293.74403 c -0.134597,-0.11636 -0.05623,-0.0562 -0.240354,-0.17354 0,0 0.937161,-0.60622 0.937161,-0.60622 v 0 c 0.212493,0.12109 0.118578,0.06 0.284986,0.17812 0,0 -0.981793,0.60164 -0.981793,0.60164 z"
       inkscape:connector-curvature="0" />
    <path
       style="opacity:1;vector-effect:none;fill:#194512;fill-opacity:0.77880183;stroke:none;stroke-width:0.44999999;stroke-linecap:round;stroke-linejoin:miter;stroke-miterlimit:4;stroke-dasharray:none;stroke-dashoffset:0;stroke-opacity:1;paint-order:normal"
       id="path909"
       d="m 12.071151,292.21562 c 0.384334,-0.13378 0.775231,-0.2482 1.163225,-0.37096 0.388388,-0.11216 0.183615,-0.0576 0.615008,-0.16118 0,0 -0.849107,0.65011 -0.849107,0.65011 v 0 c -0.444733,0.1212 -0.233883,0.0595 -0.633162,0.183 -0.401736,0.12889 -0.809043,0.24584 -1.198,0.41044 0,0 0.902036,-0.71141 0.902036,-0.71141 z"
       inkscape:connector-curvature="0" />
    <path
       style="opacity:1;vector-effect:none;fill:#194512;fill-opacity:0.77880183;stroke:none;stroke-width:0.44999999;stroke-linecap:round;stroke-linejoin:miter;stroke-miterlimit:4;stroke-dasharray:none;stroke-dashoffset:0;stroke-opacity:1;paint-order:normal"
       id="path911"
       d="m 18.113434,292.17692 c 0.226695,0.15178 0.508935,0.17434 0.771059,0.21318 0,0 -0.879015,0.62058 -0.879015,0.62058 v 0 c -0.295446,-0.0372 -0.603948,-0.0605 -0.867374,-0.21369 0,0 0.97533,-0.62007 0.97533,-0.62007 z"
       inkscape:connector-curvature="0" />
    <path
       style="opacity:1;vector-effect:none;fill:#194512;fill-opacity:0.77880183;stroke:none;stroke-width:0.44999999;stroke-linecap:round;stroke-linejoin:miter;stroke-miterlimit:4;stroke-dasharray:none;stroke-dashoffset:0;stroke-opacity:1;paint-order:normal"
       id="path913"
       d="m 22.079043,292.93818 c 0.159757,0.0193 0.318892,-0.0163 0.475724,-0.0408 0,0 -0.878019,0.6591 -0.878019,0.6591 v 0 c -0.182671,0.0289 -0.367794,0.0723 -0.552985,0.0359 0,0 0.95528,-0.65423 0.95528,-0.65423 z"
       inkscape:connector-curvature="0" />
    <path
       style="opacity:1;vector-effect:none;fill:#194512;fill-opacity:0.77880183;stroke:none;stroke-width:0.44999999;stroke-linecap:round;stroke-linejoin:miter;stroke-miterlimit:4;stroke-dasharray:none;stroke-dashoffset:0;stroke-opacity:1;paint-order:normal"
       id="path915"
       d="m 23.62889,291.62628 c 0.176284,-0.25984 0.35822,-0.51517 0.528034,-0.77945 0,0 1.000248,-0.44164 1.000248,-0.44164 v 0 c -0.151406,0.25401 -0.312933,0.50103 -0.471886,0.75019 0,0 -1.056396,0.4709 -1.056396,0.4709 z"
       inkscape:connector-curvature="0" />
    <path
       style="opacity:1;vector-effect:none;fill:#194512;fill-opacity:0.77880183;stroke:none;stroke-width:0.44999999;stroke-linecap:round;stroke-linejoin:miter;stroke-miterlimit:4;stroke-dasharray:none;stroke-dashoffset:0;stroke-opacity:1;paint-order:normal"
       id="path917"
       d="m 20.727228,290.9626 c -0.38011,-0.071 -0.775674,-0.13174 -1.101448,-0.35864 -0.09604,-0.0669 -0.174456,-0.15607 -0.261684,-0.2341 0,0 0.912146,-0.56713 0.912146,-0.56713 v 0 c 0.08212,0.0707 0.155734,0.15261 0.246353,0.21197 0.335212,0.2196 0.745455,0.26169 1.134359,0.28124 0,0 -0.929726,0.66666 -0.929726,0.66666 z"
       inkscape:connector-curvature="0" />
    <path
       style="opacity:1;vector-effect:none;fill:#194512;fill-opacity:0.77880183;stroke:none;stroke-width:0.44999999;stroke-linecap:round;stroke-linejoin:miter;stroke-miterlimit:4;stroke-dasharray:none;stroke-dashoffset:0;stroke-opacity:1;paint-order:normal"
       id="path919"
       d="m 17.518981,287.02734 c -0.142953,-0.3525 -0.116238,-0.75495 -0.01317,-1.1159 0.02719,-0.0952 0.06757,-0.18618 0.101352,-0.27927 0.05573,-0.0904 0.111452,-0.18078 0.167178,-0.27117 0,0 0.99086,-0.43467 0.99086,-0.43467 v 0 c -0.05722,0.0826 -0.114449,0.16522 -0.171673,0.24782 -0.03534,0.0877 -0.07781,0.17287 -0.106029,0.26313 -0.0833,0.26644 -0.126738,0.62876 -0.03342,0.89936 0.01367,0.0396 0.03818,0.0747 0.05727,0.11204 0,0 -0.992365,0.57866 -0.992365,0.57866 z"
       inkscape:connector-curvature="0" />
    <path
       style="opacity:1;vector-effect:none;fill:#194512;fill-opacity:0.77880183;stroke:none;stroke-width:0.44999999;stroke-linecap:round;stroke-linejoin:miter;stroke-miterlimit:4;stroke-dasharray:none;stroke-dashoffset:0;stroke-opacity:1;paint-order:normal"
       id="path921"
       d="m 20.707088,284.09 c -0.07654,-0.21297 -0.04616,-0.44159 -0.02798,-0.66171 0,0 0.993772,-0.4971 0.993772,-0.4971 v 0 c -0.01263,0.19241 -0.04531,0.40164 0.03376,0.58392 0,0 -0.999545,0.57489 -0.999545,0.57489 z"
       inkscape:connector-curvature="0" />
    <path
       style="opacity:1;vector-effect:none;fill:#194512;fill-opacity:0.77880183;stroke:none;stroke-width:0.44999999;stroke-linecap:round;stroke-linejoin:miter;stroke-miterlimit:4;stroke-dasharray:none;stroke-dashoffset:0;stroke-opacity:1;paint-order:normal"
       id="path923"
       d="m 19.439473,281.01901 c -0.05547,-0.0806 -0.132323,-0.16349 -0.144774,-0.26571 -0.0043,-0.0351 0.0057,-0.0705 0.0086,-0.10578 0,0 1.038302,-0.48716 1.038302,-0.48716 v 0 c -0.01409,0.015 -0.03774,0.0248 -0.04226,0.0449 -0.01648,0.0729 0.0854,0.17247 0.126852,0.2181 0,0 -0.986699,0.59565 -0.986699,0.59565 z"
       inkscape:connector-curvature="0" />
    <path
       style="opacity:1;vector-effect:none;fill:#194512;fill-opacity:0.77880183;stroke:none;stroke-width:0.44999999;stroke-linecap:round;stroke-linejoin:miter;stroke-miterlimit:4;stroke-dasharray:none;stroke-dashoffset:0;stroke-opacity:1;paint-order:normal"
       id="path925"
       d="m 20.834722,280.42679 c -0.283309,0.0454 -0.124657,0.0181 -0.475418,0.0851 0,0 0.862464,-0.65446 0.862464,-0.65446 v 0 c 0.384026,-0.0883 0.208739,-0.0475 0.52597,-0.12191 0,0 -0.913016,0.69129 -0.913016,0.69129 z"
       inkscape:connector-curvature="0" />
    <path
       style="opacity:1;vector-effect:none;fill:#194512;fill-opacity:0.77880183;stroke:none;stroke-width:0.44999999;stroke-linecap:round;stroke-linejoin:miter;stroke-miterlimit:4;stroke-dasharray:none;stroke-dashoffset:0;stroke-opacity:1;paint-order:normal"
       id="path927"
       d="m 18.737923,279.1396 c -0.235555,-0.0304 -0.473946,-0.0234 -0.710744,-0.023 0,0 0.870423,-0.63462 0.870423,-0.63462 v 0 c 0.256994,-0.008 0.513924,-0.0145 0.771008,-0.0185 0,0 -0.930687,0.67618 -0.930687,0.67618 z"
       inkscape:connector-curvature="0" />
    <path
       style="opacity:1;vector-effect:none;fill:#194512;fill-opacity:0.77880183;stroke:none;stroke-width:0.44999999;stroke-linecap:round;stroke-linejoin:miter;stroke-miterlimit:4;stroke-dasharray:none;stroke-dashoffset:0;stroke-opacity:1;paint-order:normal"
       id="path929"
       d="m 12.255962,280.21877 c -0.07602,0.0253 -0.153052,0.0477 -0.22807,0.0758 -0.110627,0.0415 -0.221036,0.0839 -0.328596,0.13281 -0.127322,0.0578 -0.49169,0.26494 -0.375516,0.18709 1.329428,-0.89088 0.304882,-0.11321 0.25812,-0.0766 0,0 -0.988987,0.39704 -0.988987,0.39704 v 0 c 0.09711,-0.0797 0.184966,-0.17227 0.291317,-0.23916 0.725633,-0.45641 1.458844,-0.88938 2.267707,-1.17519 0,0 -0.895975,0.69822 -0.895975,0.69822 z"
       inkscape:connector-curvature="0" />
    <path
       style="opacity:1;vector-effect:none;fill:#194512;fill-opacity:0.77880183;stroke:none;stroke-width:0.44999999;stroke-linecap:round;stroke-linejoin:miter;stroke-miterlimit:4;stroke-dasharray:none;stroke-dashoffset:0;stroke-opacity:1;paint-order:normal"
       id="path931"
       d="m 10.019071,281.71924 c -0.199074,0.15605 -0.4658653,0.353 -0.4511751,0.64142 0.00411,0.0807 0.044848,0.15518 0.067272,0.23277 0,0 -0.9586192,0.52746 -0.9586192,0.52746 v 0 c -0.033157,-0.0914 -0.085867,-0.17785 -0.09947,-0.27409 -0.041545,-0.29389 0.1696259,-0.52814 0.3755411,-0.69958 0,0 1.0664512,-0.42798 1.0664512,-0.42798 z"
       inkscape:connector-curvature="0" />
    <path
       style="opacity:1;vector-effect:none;fill:#194512;fill-opacity:0.77880183;stroke:none;stroke-width:0.44999999;stroke-linecap:round;stroke-linejoin:miter;stroke-miterlimit:4;stroke-dasharray:none;stroke-dashoffset:0;stroke-opacity:1;paint-order:normal"
       id="path933"
       d="m 11.140397,286.18822 c -0.440915,0.23594 0.508497,-0.30413 0.770729,-0.44163 0.03791,-0.0199 -0.07041,0.0516 -0.09432,0.0871 -0.02299,0.0342 -0.02829,0.0774 -0.04244,0.11602 0,0 -1.016187,0.49132 -1.016187,0.49132 v 0 c 0.0058,-0.0553 -7.67e-4,-0.11324 0.01728,-0.16579 0.01567,-0.0456 0.04028,-0.094 0.08087,-0.12001 0.80641,-0.51752 0.730749,-0.48043 1.195644,-0.67525 0,0 -0.91158,0.7082 -0.91158,0.7082 z"
       inkscape:connector-curvature="0" />
    <path
       style="opacity:1;vector-effect:none;fill:#194512;fill-opacity:0.77880183;stroke:none;stroke-width:0.44999999;stroke-linecap:round;stroke-linejoin:miter;stroke-miterlimit:4;stroke-dasharray:none;stroke-dashoffset:0;stroke-opacity:1;paint-order:normal"
       id="path935"
       d="m 17.09013,286.45294 c 0.242468,0.31058 0.565342,0.56155 0.901737,0.7633 0.175761,0.10542 0.361345,0.19352 0.542017,0.29028 0,0 -0.829021,0.54493 -0.829021,0.54493 v 0 c -0.193626,-0.0925 -0.391277,-0.17697 -0.580877,-0.27745 -0.369018,-0.19555 -0.717195,-0.43821 -1.020554,-0.72541 0,0 0.986698,-0.59565 0.986698,-0.59565 z"
       inkscape:connector-curvature="0" />
    <path
       style="opacity:1;vector-effect:none;fill:#194512;fill-opacity:0.77880183;stroke:none;stroke-width:0.44999999;stroke-linecap:round;stroke-linejoin:miter;stroke-miterlimit:4;stroke-dasharray:none;stroke-dashoffset:0;stroke-opacity:1;paint-order:normal"
       id="path937"
       d="m 28.164528,288.64516 c 0.137915,0.22077 0.365503,0.36304 0.60692,0.45081 0.11762,0.0428 0.241107,0.0673 0.361661,0.10087 0,0 -0.873633,0.59985 -0.873633,0.59985 v 0 c -0.129602,-0.0346 -0.262001,-0.0601 -0.388806,-0.10388 -0.270247,-0.0933 -0.518947,-0.24432 -0.705197,-0.46224 0,0 0.999055,-0.58541 0.999055,-0.58541 z"
       inkscape:connector-curvature="0" />
    <path
       style="opacity:1;vector-effect:none;fill:#194512;fill-opacity:0.77880183;stroke:none;stroke-width:0.44999999;stroke-linecap:round;stroke-linejoin:miter;stroke-miterlimit:4;stroke-dasharray:none;stroke-dashoffset:0;stroke-opacity:1;paint-order:normal"
       id="path939"
       d="m 31.905081,288.78728 c 0.325927,0.14931 0.67147,0.24704 1.01473,0.347 0,0 -0.887711,0.60898 -0.887711,0.60898 v 0 c -0.365715,-0.0964 -0.731142,-0.19438 -1.090065,-0.3142 0,0 0.963046,-0.64178 0.963046,-0.64178 z"
       inkscape:connector-curvature="0" />
    <path
       style="opacity:1;vector-effect:none;fill:#194512;fill-opacity:0.77880183;stroke:none;stroke-width:0.44999999;stroke-linecap:round;stroke-linejoin:miter;stroke-miterlimit:4;stroke-dasharray:none;stroke-dashoffset:0;stroke-opacity:1;paint-order:normal"
       id="path941"
       d="m 31.699011,290.0413 c -0.03919,-0.0327 -0.09209,-0.0623 -0.08668,-0.12683 0.0035,-0.0412 0.0141,-0.0917 0.04891,-0.11407 0.364603,-0.23419 0.753221,-0.42869 1.129831,-0.64304 0,0 -0.873201,0.69858 -0.873201,0.69858 v 0 c 0.268589,-0.16023 0.546978,-0.30508 0.80577,-0.48071 0.139874,-0.0949 -0.109919,-4.5e-4 -0.106585,0.003 0.01196,0.0137 0.03134,0.0185 0.04701,0.0277 0,0 -0.965049,0.63497 -0.965049,0.63497 z"
       inkscape:connector-curvature="0" />
    <path
       style="opacity:1;vector-effect:none;fill:#194512;fill-opacity:0.77880183;stroke:none;stroke-width:0.44999999;stroke-linecap:round;stroke-linejoin:miter;stroke-miterlimit:4;stroke-dasharray:none;stroke-dashoffset:0;stroke-opacity:1;paint-order:normal"
       id="path943"
       d="m 30.058724,288.53142 c -0.07533,-0.042 -0.165627,-0.0765 -0.199584,-0.16844 -0.0232,-0.0629 -0.01363,-0.13339 -0.02042,-0.20008 0,0 0.999278,-0.51378 0.999278,-0.51378 v 0 c -0.01209,0.17561 -0.02217,0.17339 0.158737,0.2137 0,0 -0.938004,0.6686 -0.938004,0.6686 z"
       inkscape:connector-curvature="0" />
    <path
       style="opacity:1;vector-effect:none;fill:#194512;fill-opacity:0.77880183;stroke:none;stroke-width:0.44999999;stroke-linecap:round;stroke-linejoin:miter;stroke-miterlimit:4;stroke-dasharray:none;stroke-dashoffset:0;stroke-opacity:1;paint-order:normal"
       id="path945"
       d="m 29.170273,282.12885 c -0.508452,-0.0495 -1.020283,-0.0291 -1.528959,-0.0711 0,0 0.907081,-0.64248 0.907081,-0.64248 v 0 c 0.06223,0.0104 0.123886,0.0252 0.186699,0.0311 0.449513,0.0423 0.903963,0.0179 1.35439,0.0146 0,0 -0.919211,0.66785 -0.919211,0.66785 z"
       inkscape:connector-curvature="0" />
    <path
       style="opacity:1;vector-effect:none;fill:#194512;fill-opacity:0.77880183;stroke:none;stroke-width:0.44999999;stroke-linecap:round;stroke-linejoin:miter;stroke-miterlimit:4;stroke-dasharray:none;stroke-dashoffset:0;stroke-opacity:1;paint-order:normal"
       id="path947"
       d="m 26.884354,281.90941 c -0.123763,-0.0155 -0.259675,0.005 -0.379141,-0.0398 -0.03203,-0.012 -0.05743,-0.0372 -0.08615,-0.0558 0,0 0.962481,-0.62308 0.962481,-0.62308 v 0 c 0.0175,0.009 0.03345,0.022 0.05252,0.0269 0.122279,0.0309 0.252463,0.0164 0.37602,0.006 0,0 -0.925728,0.68549 -0.925728,0.68549 z"
       inkscape:connector-curvature="0" />
    <path
       style="opacity:1;vector-effect:none;fill:#194512;fill-opacity:0.77880183;stroke:none;stroke-width:0.44999999;stroke-linecap:round;stroke-linejoin:miter;stroke-miterlimit:4;stroke-dasharray:none;stroke-dashoffset:0;stroke-opacity:1;paint-order:normal"
       id="path949"
       d="m 24.072281,279.53307 c -0.652228,-0.14323 -1.317242,-0.21497 -1.983195,-0.25108 0,0 0.881497,-0.62707 0.881497,-0.62707 v 0 c 0.673628,0.10266 1.353634,0.15894 2.031751,0.22336 0,0 -0.930053,0.65479 -0.930053,0.65479 z"
       inkscape:connector-curvature="0" />
    <path
       style="opacity:1;vector-effect:none;fill:#194512;fill-opacity:0.77880183;stroke:none;stroke-width:0.44999999;stroke-linecap:round;stroke-linejoin:miter;stroke-miterlimit:4;stroke-dasharray:none;stroke-dashoffset:0;stroke-opacity:1;paint-order:normal"
       id="path951"
       d="m 27.464401,279.98431 c 0.307711,-0.17361 0.60851,-0.36008 0.923133,-0.52082 0.01633,-0.008 -0.02012,0.0391 -0.0097,0.0541 0.03032,0.0438 0.07482,0.0773 0.120113,0.10533 0.100552,0.0621 0.209813,0.10895 0.31472,0.16342 0,0 -0.886029,0.5858 -0.886029,0.5858 v 0 c -0.194182,-0.0841 -0.423851,-0.13918 -0.558441,-0.32222 -0.02903,-0.0395 -0.07577,-0.11188 -0.03729,-0.14223 0.318421,-0.25109 0.688555,-0.42854 1.032832,-0.64281 0,0 -0.899355,0.7194 -0.899355,0.7194 z"
       inkscape:connector-curvature="0" />
    <path
       style="opacity:1;vector-effect:none;fill:#194512;fill-opacity:0.77880183;stroke:none;stroke-width:0.44999999;stroke-linecap:round;stroke-linejoin:miter;stroke-miterlimit:4;stroke-dasharray:none;stroke-dashoffset:0;stroke-opacity:1;paint-order:normal"
       id="path953"
       d="m 32.930157,283.38005 c -0.354643,0.24108 -0.09122,0.0591 0.842637,-0.46104 0,0 -1.050896,0.44692 -1.050896,0.44692 v 0 c 1.060085,-0.67305 0.653682,-0.5076 1.120791,-0.6904 0,0 -0.912532,0.70452 -0.912532,0.70452 z"
       inkscape:connector-curvature="0" />
    <path
       style="opacity:1;vector-effect:none;fill:#194512;fill-opacity:0.77880183;stroke:none;stroke-width:0.44999999;stroke-linecap:round;stroke-linejoin:miter;stroke-miterlimit:4;stroke-dasharray:none;stroke-dashoffset:0;stroke-opacity:1;paint-order:normal"
       id="path955"
       d="m 32.736148,282.51833 c -0.03289,0.003 -0.06652,0.003 -0.09867,0.0103 -0.0363,0.009 -0.137509,0.0572 -0.105134,0.0386 0.918411,-0.52727 0.825436,-0.84091 0.922911,-0.48289 0,0 -0.996487,0.56083 -0.996487,0.56083 v 0 c -0.02262,-0.0487 -0.109945,-0.11282 -0.06784,-0.14618 0.50895,-0.40329 0.764247,-0.59992 1.271596,-0.66794 0,0 -0.92637,0.68726 -0.92637,0.68726 z"
       inkscape:connector-curvature="0" />
    <path
       style="opacity:1;vector-effect:none;fill:#194512;fill-opacity:0.77880183;stroke:none;stroke-width:0.44999999;stroke-linecap:round;stroke-linejoin:miter;stroke-miterlimit:4;stroke-dasharray:none;stroke-dashoffset:0;stroke-opacity:1;paint-order:normal"
       id="path957"
       d="m 37.723057,285.57155 c -0.09832,0.32359 -0.166994,0.65543 -0.228404,0.9877 -0.05174,0.27994 -0.10922,0.60954 -0.130934,0.89424 -0.01003,0.13156 -0.0071,0.2638 -0.01061,0.3957 0,0 -0.942494,0.47595 -0.942494,0.47595 v 0 c 0.0061,-0.13643 0.0071,-0.2732 0.01844,-0.40931 0.05164,-0.62089 0.187981,-1.23188 0.264948,-1.84957 0,0 1.029042,-0.49471 1.029042,-0.49471 z"
       inkscape:connector-curvature="0" />
    <path
       style="opacity:1;vector-effect:none;fill:#194512;fill-opacity:0.77880183;stroke:none;stroke-width:0.44999999;stroke-linecap:round;stroke-linejoin:miter;stroke-miterlimit:4;stroke-dasharray:none;stroke-dashoffset:0;stroke-opacity:1;paint-order:normal"
       id="path959"
       d="m 38.072931,290.18915 c 0.01937,0.22656 0.235292,0.33285 0.406236,0.44033 0,0 -0.919146,0.59393 -0.919146,0.59393 v 0 c -0.232175,-0.137 -0.434943,-0.23531 -0.516311,-0.50984 0,0 1.029221,-0.52442 1.029221,-0.52442 z"
       inkscape:connector-curvature="0" />
    <path
       style="opacity:1;vector-effect:none;fill:#194512;fill-opacity:0.77880183;stroke:none;stroke-width:0.44999999;stroke-linecap:round;stroke-linejoin:miter;stroke-miterlimit:4;stroke-dasharray:none;stroke-dashoffset:0;stroke-opacity:1;paint-order:normal"
       id="path961"
       d="m 38.962135,292.43262 c -0.184258,0.11303 -0.516361,0.30884 -0.588465,0.52401 -0.01037,0.0309 0.0084,0.0647 0.01254,0.097 0,0 -0.998706,0.53025 -0.998706,0.53025 v 0 c -0.01114,-0.0576 -0.0431,-0.11498 -0.03338,-0.17286 0.03548,-0.21121 0.368332,-0.45215 0.537001,-0.56673 0,0 1.071015,-0.41168 1.071015,-0.41168 z"
       inkscape:connector-curvature="0" />
    <path
       style="opacity:1;vector-effect:none;fill:#194512;fill-opacity:0.77880183;stroke:none;stroke-width:0.44999999;stroke-linecap:round;stroke-linejoin:miter;stroke-miterlimit:4;stroke-dasharray:none;stroke-dashoffset:0;stroke-opacity:1;paint-order:normal"
       id="path963"
       d="m 39.620146,291.53619 c -0.287554,-0.12341 -0.588944,-0.21303 -0.872503,-0.3463 -0.128736,-0.0605 -0.251373,-0.13322 -0.377058,-0.19983 0,0 0.878221,-0.57613 0.878221,-0.57613 v 0 c 0.124423,0.0627 0.24516,0.13334 0.373269,0.18814 0.303707,0.12989 0.62698,0.20726 0.94506,0.2916 0,0 -0.946989,0.64252 -0.946989,0.64252 z"
       inkscape:connector-curvature="0" />
    <path
       style="opacity:1;vector-effect:none;fill:#194512;fill-opacity:0.77880183;stroke:none;stroke-width:0.44999999;stroke-linecap:round;stroke-linejoin:miter;stroke-miterlimit:4;stroke-dasharray:none;stroke-dashoffset:0;stroke-opacity:1;paint-order:normal"
       id="path965"
       d="m 39.443883,286.75163 c -0.03064,0.007 -0.06163,0.0128 -0.09191,0.0213 -0.08311,0.0233 -0.19091,0.0604 -0.268113,0.0964 -0.04202,0.0196 -0.162446,0.0895 -0.122124,0.0666 0.300461,-0.17061 0.601705,-0.33985 0.902557,-0.50978 0,0 -1.061537,0.42655 -1.061537,0.42655 v 0 c 0.347392,-0.2075 0.692269,-0.41927 1.04218,-0.6225 0.157158,-0.0913 0.343583,-0.11973 0.509072,-0.19104 0,0 -0.910122,0.71249 -0.910122,0.71249 z"
       inkscape:connector-curvature="0" />
    <path
       style="opacity:1;vector-effect:none;fill:#194512;fill-opacity:0.77880183;stroke:none;stroke-width:0.44999999;stroke-linecap:round;stroke-linejoin:miter;stroke-miterlimit:4;stroke-dasharray:none;stroke-dashoffset:0;stroke-opacity:1;paint-order:normal"
       id="path967"
       d="m 38.444684,286.94094 c -0.13291,-0.0268 -0.06148,-0.007 -0.212304,-0.0663 0,0 0.937128,-0.63807 0.937128,-0.63807 v 0 c 0.15132,0.0354 0.07808,0.0244 0.219265,0.0362 0,0 -0.944089,0.66815 -0.944089,0.66815 z"
       inkscape:connector-curvature="0" />
    <path
       style="opacity:1;vector-effect:none;fill:#194512;fill-opacity:0.77880183;stroke:none;stroke-width:0.44999999;stroke-linecap:round;stroke-linejoin:miter;stroke-miterlimit:4;stroke-dasharray:none;stroke-dashoffset:0;stroke-opacity:1;paint-order:normal"
       id="path969"
       d="m 39.229089,281.19804 c -0.158887,-0.0232 -0.321844,-0.0245 -0.479634,-0.0555 -0.06725,-0.0132 -0.212418,-0.0419 -0.256005,-0.11818 -0.02281,-0.0399 -0.01455,-0.0908 -0.02183,-0.13623 0.03281,-0.0541 0.06562,-0.1081 0.09842,-0.16215 0,0 1.032825,-0.44133 1.032825,-0.44133 v 0 c -0.03536,0.0313 -0.07071,0.0625 -0.106074,0.0938 -0.04413,0.0412 -0.07281,0.0441 0.02296,0.0826 0.199565,0.0803 0.432208,0.0523 0.641303,0.0599 0,0 -0.931963,0.67711 -0.931963,0.67711 z"
       inkscape:connector-curvature="0" />
    <path
       style="opacity:1;vector-effect:none;fill:#194512;fill-opacity:0.77880183;stroke:none;stroke-width:0.44999999;stroke-linecap:round;stroke-linejoin:miter;stroke-miterlimit:4;stroke-dasharray:none;stroke-dashoffset:0;stroke-opacity:1;paint-order:normal"
       id="path971"
       d="m 39.061029,278.81817 c -0.495163,-0.001 -0.991836,0.0383 -1.47913,0.1281 -0.128257,0.0236 -0.254436,0.0574 -0.381653,0.0861 0,0 0.846304,-0.64137 0.846304,-0.64137 v 0 c 0.640556,-0.117 1.285817,-0.19626 1.934792,-0.24982 0,0 -0.920313,0.67694 -0.920313,0.67694 z"
       inkscape:connector-curvature="0" />
    <path
       style="opacity:1;vector-effect:none;fill:#194512;fill-opacity:0.77880183;stroke:none;stroke-width:0.44999999;stroke-linecap:round;stroke-linejoin:miter;stroke-miterlimit:4;stroke-dasharray:none;stroke-dashoffset:0;stroke-opacity:1;paint-order:normal"
       id="path973"
       d="m 36.242999,279.01907 c -0.419333,0.0401 -0.834758,0.11176 -1.251648,0.17085 0,0 0.857062,-0.64122 0.857062,-0.64122 v 0 c 0.436417,-0.0611 0.871402,-0.13144 1.304732,-0.21182 0,0 -0.910146,0.68219 -0.910146,0.68219 z"
       inkscape:connector-curvature="0" />
    <path
       style="opacity:1;vector-effect:none;fill:#194512;fill-opacity:0.77880183;stroke:none;stroke-width:0.44999999;stroke-linecap:round;stroke-linejoin:miter;stroke-miterlimit:4;stroke-dasharray:none;stroke-dashoffset:0;stroke-opacity:1;paint-order:normal"
       id="path975"
       d="m 26.334843,278.29955 c -0.01169,3e-4 -0.02337,6.1e-4 -0.03506,9e-4 0,0 0.938282,-0.6817 0.938282,-0.6817 v 0 c 0.01085,2.9e-4 0.02171,6.1e-4 0.03256,9e-4 0,0 -0.935787,0.67989 -0.935787,0.67989 z"
       inkscape:connector-curvature="0" />
    <path
       style="opacity:1;vector-effect:none;fill:#194512;fill-opacity:0.77880183;stroke:none;stroke-width:0.44999999;stroke-linecap:round;stroke-linejoin:miter;stroke-miterlimit:4;stroke-dasharray:none;stroke-dashoffset:0;stroke-opacity:1;paint-order:normal"
       id="path977"
       d="m 22.426129,277.87755 c -0.222241,0.0648 -0.42149,0.18162 -0.621293,0.29475 0,0 0.851599,-0.68655 0.851599,-0.68655 v 0 c 0.217678,-0.11578 0.43629,-0.22939 0.669214,-0.31239 0,0 -0.89952,0.70419 -0.89952,0.70419 z"
       inkscape:connector-curvature="0" />
    <path
       style="opacity:1;vector-effect:none;fill:#194512;fill-opacity:0.77880183;stroke:none;stroke-width:0.44999999;stroke-linecap:round;stroke-linejoin:miter;stroke-miterlimit:4;stroke-dasharray:none;stroke-dashoffset:0;stroke-opacity:1;paint-order:normal"
       id="path979"
       d="m 20.114805,278.95321 c -0.04168,0.0202 -0.08413,0.0389 -0.125049,0.0607 -0.06426,0.0341 -0.254301,0.14141 -0.190367,0.1067 0.239758,-0.13013 0.466317,-0.28742 0.717853,-0.393 0.07844,-0.0329 -0.133852,0.10664 -0.189312,0.17114 -0.12545,0.14591 -0.101937,0.13289 -0.08245,0.28269 0,0 -0.993839,0.5269 -0.993839,0.5269 v 0 c -0.01182,-0.0639 -0.0457,-0.12751 -0.03546,-0.19167 0.02118,-0.13269 0.182362,-0.32144 0.283634,-0.3884 0.4832,-0.31951 0.994134,-0.6272 1.515889,-0.8902 0,0 -0.900898,0.71518 -0.900898,0.71518 z"
       inkscape:connector-curvature="0" />
    <path
       style="opacity:1;vector-effect:none;fill:#194512;fill-opacity:0.77880183;stroke:none;stroke-width:0.44999999;stroke-linecap:round;stroke-linejoin:miter;stroke-miterlimit:4;stroke-dasharray:none;stroke-dashoffset:0;stroke-opacity:1;paint-order:normal"
       id="path981"
       d="m 15.967919,280.11271 c -0.107163,0.0573 -0.442587,0.18195 -0.32149,0.17187 0.134284,-0.0112 0.451131,-0.27838 0.364197,-0.17542 -0.170872,0.20235 -0.42863,0.31247 -0.627561,0.48731 -0.620005,0.54495 -0.655571,0.65491 -1.161061,1.30619 0,0 -0.845945,0.36366 -0.845945,0.36366 v 0 c 0.176796,-0.23514 0.33928,-0.48175 0.530388,-0.70541 0.278033,-0.32539 0.809219,-0.84152 1.175913,-1.08905 0.736953,-0.49747 1.116644,-0.70067 1.76284,-1.05875 0,0 -0.877281,0.6996 -0.877281,0.6996 z"
       inkscape:connector-curvature="0" />
    <path
       style="opacity:1;vector-effect:none;fill:#194512;fill-opacity:0.77880183;stroke:none;stroke-width:0.44999999;stroke-linecap:round;stroke-linejoin:miter;stroke-miterlimit:4;stroke-dasharray:none;stroke-dashoffset:0;stroke-opacity:1;paint-order:normal"
       id="path983"
       d="m 13.637498,287.29179 c -0.182288,0.52829 -0.453893,1.08556 -0.488716,1.6495 -0.0067,0.10859 0.01104,0.21732 0.01656,0.32598 0.03168,0.082 0.06337,0.16404 0.09505,0.24605 0,0 -0.953561,0.52831 -0.953561,0.52831 v 0 c -0.03203,-0.0942 -0.06406,-0.1884 -0.09609,-0.28259 -0.0046,-0.11709 -0.02094,-0.23431 -0.01365,-0.35126 0.03498,-0.56121 0.28096,-1.08165 0.407156,-1.623 0,0 1.033255,-0.49299 1.033255,-0.49299 z"
       inkscape:connector-curvature="0" />
    <path
       style="opacity:1;vector-effect:none;fill:#194512;fill-opacity:0.77880183;stroke:none;stroke-width:0.44999999;stroke-linecap:round;stroke-linejoin:miter;stroke-miterlimit:4;stroke-dasharray:none;stroke-dashoffset:0;stroke-opacity:1;paint-order:normal"
       id="path985"
       d="m 11.244273,290.22292 c 2.266763,-1.26796 0.797093,-0.61831 0.744346,-0.31715 -0.0221,0.12618 0.04974,0.18624 0.114143,0.28484 0,0 -0.958301,0.56324 -0.958301,0.56324 v 0 c -0.09732,-0.13655 -0.17317,-0.19569 -0.179362,-0.36926 -0.01776,-0.49777 1.339501,-0.78439 1.181282,-0.88327 0,0 -0.902108,0.7216 -0.902108,0.7216 z"
       inkscape:connector-curvature="0" />
    <path
       style="opacity:1;vector-effect:none;fill:#194512;fill-opacity:0.77880183;stroke:none;stroke-width:0.44999999;stroke-linecap:round;stroke-linejoin:miter;stroke-miterlimit:4;stroke-dasharray:none;stroke-dashoffset:0;stroke-opacity:1;paint-order:normal"
       id="path987"
       d="m 11.086453,290.18872 c -0.721979,-0.16418 -1.4681664,-0.0635 -2.1993999,-0.0506 -0.1661744,0.003 -0.3323788,-0.004 -0.4985681,-0.006 -0.119053,-0.0246 -0.2381059,-0.0492 -0.3571589,-0.0739 0,0 0.8817927,-0.61074 0.8817927,-0.61074 v 0 c 0.1039043,0.0266 0.2078085,0.0531 0.3117128,0.0797 0.1582618,0.005 0.3164493,0.0163 0.4747858,0.0151 0.7750926,-0.006 1.5553706,-0.11831 2.3279786,-0.003 0,0 -0.941143,0.64917 -0.941143,0.64917 z"
       inkscape:connector-curvature="0" />
    <path
       style="opacity:1;vector-effect:none;fill:#194512;fill-opacity:0.77880183;stroke:none;stroke-width:0.44999999;stroke-linecap:round;stroke-linejoin:miter;stroke-miterlimit:4;stroke-dasharray:none;stroke-dashoffset:0;stroke-opacity:1;paint-order:normal"
       id="path989"
       d="m 9.7126891,285.96042 c -0.080443,0.0611 -0.1344006,0.0951 -0.1996998,0.17899 -0.029651,0.0381 -0.049457,0.0829 -0.074186,0.12434 0,0 -1.0257578,0.46463 -1.0257578,0.46463 v 0 c 0.020614,-0.0503 0.035012,-0.10352 0.061843,-0.15075 0.040896,-0.072 0.1057344,-0.1335 0.1628717,-0.19262 0,0 1.0749293,-0.42459 1.0749289,-0.42459 z"
       inkscape:connector-curvature="0" />
  </g>
</svg>
