<?xml version="1.0" encoding="UTF-8" standalone="no"?>
<!-- Created with Inkscape (http://www.inkscape.org/) -->

<svg
   xmlns:dc="http://purl.org/dc/elements/1.1/"
   xmlns:cc="http://creativecommons.org/ns#"
   xmlns:rdf="http://www.w3.org/1999/02/22-rdf-syntax-ns#"
   xmlns:svg="http://www.w3.org/2000/svg"
   xmlns="http://www.w3.org/2000/svg"
   xmlns:sodipodi="http://sodipodi.sourceforge.net/DTD/sodipodi-0.dtd"
   xmlns:inkscape="http://www.inkscape.org/namespaces/inkscape"
   width="150"
   height="25"
   viewBox="0 0 39.6875 6.6145831"
   version="1.1"
   id="svg8"
   inkscape:version="0.92.2 5c3e80d, 2017-08-06"
   sodipodi:docname="concrete_wall.svg"
   inkscape:export-filename="/home/lmb/Projects/LD40-MetalFear/src/images/obstacles/concrete_wall.png"
   inkscape:export-xdpi="95.949997"
   inkscape:export-ydpi="95.949997">
  <defs
     id="defs2" />
  <sodipodi:namedview
     id="base"
     pagecolor="#ffffff"
     bordercolor="#666666"
     borderopacity="1.0"
     inkscape:pageopacity="0.0"
     inkscape:pageshadow="2"
     inkscape:zoom="8"
     inkscape:cx="70.31734"
     inkscape:cy="15.043103"
     inkscape:document-units="px"
     inkscape:current-layer="layer1"
     showgrid="false"
     units="px"
     inkscape:window-width="1918"
     inkscape:window-height="1058"
     inkscape:window-x="0"
     inkscape:window-y="20"
     inkscape:window-maximized="1"
     fit-margin-top="0"
     fit-margin-left="0"
     fit-margin-right="0"
     fit-margin-bottom="0" />
  <metadata
     id="metadata5">
    <rdf:RDF>
      <cc:Work
         rdf:about="">
        <dc:format>image/svg+xml</dc:format>
        <dc:type
           rdf:resource="http://purl.org/dc/dcmitype/StillImage" />
        <dc:title></dc:title>
      </cc:Work>
    </rdf:RDF>
  </metadata>
  <g
     inkscape:label="Layer 1"
     inkscape:groupmode="layer"
     id="layer1"
     transform="translate(-2.9469174,-288.74428)">
    <rect
       style="opacity:1;vector-effect:none;fill:#b3b3b3;fill-opacity:1;stroke:#676767;stroke-width:0.44979167;stroke-linecap:round;stroke-linejoin:round;stroke-miterlimit:4;stroke-dasharray:none;stroke-dashoffset:0;stroke-opacity:1;paint-order:normal"
       id="rect896"
       width="39.237705"
       height="6.1647916"
       x="3.1718132"
       y="288.96918"
       ry="0"
       rx="0" />
    <path
       style="opacity:1;vector-effect:none;fill:#7a7a7a;fill-opacity:0.31336406;stroke:none;stroke-width:0.44979167;stroke-linecap:round;stroke-linejoin:round;stroke-miterlimit:4;stroke-dasharray:none;stroke-dashoffset:0;stroke-opacity:1;paint-order:normal"
       id="path2378"
       d="m 5.9384428,290.01031 c 0.2055228,0.15225 0.4458251,0.24766 0.6808738,0.34348 0,0 -0.7376237,0.496 -0.7376237,0.496 v 0 c -0.2624601,-0.0931 -0.5249449,-0.18782 -0.7777819,-0.30514 0,0 0.8345318,-0.53434 0.8345318,-0.53434 z"
       inkscape:connector-curvature="0" />
    <path
       style="opacity:1;vector-effect:none;fill:#7a7a7a;fill-opacity:0.31336407;stroke:none;stroke-width:0.44979167;stroke-linecap:round;stroke-linejoin:round;stroke-miterlimit:4;stroke-dasharray:none;stroke-dashoffset:0;stroke-opacity:1;paint-order:normal"
       id="path2380"
       d="m 7.9065597,290.89923 c -0.1232757,0.1229 -0.2443276,0.24912 -0.3520451,0.38616 -0.049265,0.0627 -0.093898,0.12885 -0.1408469,0.19328 0,0 -0.8171818,0.35574 -0.8171818,0.35574 v 0 c 0.042724,-0.0648 0.083641,-0.13092 0.1281713,-0.19454 0.086739,-0.12393 0.1853983,-0.23851 0.2748759,-0.36031 0,0 0.9070266,-0.38033 0.9070266,-0.38033 z"
       inkscape:connector-curvature="0" />
    <path
       style="opacity:1;vector-effect:none;fill:#7a7a7a;fill-opacity:0.31336407;stroke:none;stroke-width:0.44979167;stroke-linecap:round;stroke-linejoin:round;stroke-miterlimit:4;stroke-dasharray:none;stroke-dashoffset:0;stroke-opacity:1;paint-order:normal"
       id="path2382"
       d="m 4.8833003,292.08779 c -0.07901,0.17286 -0.1047349,0.36134 -0.1319631,0.54742 0,0 -0.8172119,0.40562 -0.8172119,0.40562 v 0 c 0.011382,-0.17682 0.023257,-0.35396 0.053044,-0.52887 0,0 0.8961314,-0.42417 0.896131,-0.42417 z"
       inkscape:connector-curvature="0" />
    <path
       style="opacity:1;vector-effect:none;fill:#7a7a7a;fill-opacity:0.31336407;stroke:none;stroke-width:0.44979167;stroke-linecap:round;stroke-linejoin:round;stroke-miterlimit:4;stroke-dasharray:none;stroke-dashoffset:0;stroke-opacity:1;paint-order:normal"
       id="path2384"
       d="m 4.6294866,294.06184 c -0.010843,0.0492 -0.00765,0.10243 0.030915,0.14086 0.019104,0.019 0.044916,0.0299 0.067374,0.0448 0,0 -0.8075316,0.51405 -0.8075316,0.51405 v 0 c -0.03189,-0.0234 -0.067453,-0.0425 -0.095669,-0.0702 -0.052273,-0.0514 -0.074754,-0.1193 -0.086896,-0.18895 0,0 0.8918083,-0.44051 0.8918083,-0.44051 z"
       inkscape:connector-curvature="0" />
    <path
       style="opacity:1;vector-effect:none;fill:#7a7a7a;fill-opacity:0.31336407;stroke:none;stroke-width:0.44979167;stroke-linecap:round;stroke-linejoin:round;stroke-miterlimit:4;stroke-dasharray:none;stroke-dashoffset:0;stroke-opacity:1;paint-order:normal"
       id="path2386"
       d="m 7.4664986,293.75729 c 0.1687902,0.0309 0.3407161,0.0354 0.5118338,0.0389 0,0 -0.7465068,0.54228 -0.7465068,0.54228 v 0 c -0.1897218,0.003 -0.3794331,-10e-4 -0.5690073,0.003 0,0 0.8036803,-0.58391 0.8036803,-0.58391 z"
       inkscape:connector-curvature="0" />
    <path
       style="opacity:1;vector-effect:none;fill:#7a7a7a;fill-opacity:0.31336407;stroke:none;stroke-width:0.44979167;stroke-linecap:round;stroke-linejoin:round;stroke-miterlimit:4;stroke-dasharray:none;stroke-dashoffset:0;stroke-opacity:1;paint-order:normal"
       id="path2388"
       d="m 11.508788,293.01372 c -0.28699,0.18583 -0.617293,0.40033 -0.891934,0.51518 -0.03882,0.0162 -0.03804,-0.0751 -0.05705,-0.1126 0,0 0.903062,-0.42551 0.903062,-0.42551 v 0 c -0.02208,-0.0279 -0.03368,-0.0983 -0.06624,-0.0838 -0.378365,0.16786 -1.114554,0.67585 -0.815202,0.46962 0,0 0.927368,-0.36285 0.927368,-0.36285 z"
       inkscape:connector-curvature="0" />
    <path
       style="opacity:1;vector-effect:none;fill:#7a7a7a;fill-opacity:0.31336407;stroke:none;stroke-width:0.44979167;stroke-linecap:round;stroke-linejoin:round;stroke-miterlimit:4;stroke-dasharray:none;stroke-dashoffset:0;stroke-opacity:1;paint-order:normal"
       id="path2390"
       d="m 8.727026,291.74308 c -0.070476,-0.0938 -0.1491882,-0.18414 -0.2422559,-0.25645 -0.029809,-0.0232 -0.062448,-0.0424 -0.093671,-0.0636 0,0 0.7997381,-0.50985 0.7997381,-0.50985 v 0 c 0.033355,0.0237 0.067642,0.0461 0.1000656,0.0711 0.098181,0.0756 0.1834042,0.16657 0.2837342,0.23944 0,0 -0.8476107,0.51941 -0.8476107,0.51941 z"
       inkscape:connector-curvature="0" />
    <path
       style="opacity:1;vector-effect:none;fill:#7a7a7a;fill-opacity:0.31336407;stroke:none;stroke-width:0.44979167;stroke-linecap:round;stroke-linejoin:round;stroke-miterlimit:4;stroke-dasharray:none;stroke-dashoffset:0;stroke-opacity:1;paint-order:normal"
       id="path2392"
       d="m 7.9150565,291.26309 c -0.016669,0.0263 -0.033338,0.0525 -0.050007,0.0788 0,0 -0.8780661,0.39763 -0.8780661,0.39763 v 0 c 0.00881,-0.0251 0.017621,-0.0503 0.026432,-0.0754 0,0 0.9016413,-0.40096 0.9016413,-0.40096 z"
       inkscape:connector-curvature="0" />
    <path
       style="opacity:1;vector-effect:none;fill:#7a7a7a;fill-opacity:0.31336407;stroke:none;stroke-width:0.44979167;stroke-linecap:round;stroke-linejoin:round;stroke-miterlimit:4;stroke-dasharray:none;stroke-dashoffset:0;stroke-opacity:1;paint-order:normal"
       id="path2394"
       d="m 7.5447333,292.57996 c -0.070317,-0.0123 -0.1404954,-0.0182 -0.2116955,-0.0223 0,0 0.7796617,-0.56066 0.7796617,-0.56066 v 0 c 0.080665,0.003 0.1613321,0.007 0.2420649,0.008 0,0 -0.8100311,0.57494 -0.8100311,0.57494 z"
       inkscape:connector-curvature="0" />
    <path
       style="opacity:1;vector-effect:none;fill:#7a7a7a;fill-opacity:0.31336407;stroke:none;stroke-width:0.44979167;stroke-linecap:round;stroke-linejoin:round;stroke-miterlimit:4;stroke-dasharray:none;stroke-dashoffset:0;stroke-opacity:1;paint-order:normal"
       id="path2396"
       d="m 3.8482535,290.7245 c -0.029219,-0.004 -0.097818,-0.0297 -0.123957,-0.0111 -0.00913,0.007 -0.020708,0.0375 -0.011067,0.0318 0.2812334,-0.16732 0.5549487,-0.34696 0.832423,-0.52044 0,0 -0.8667779,0.47971 -0.8667779,0.47971 v 0 c 1.8128581,-1.292 0.4624413,-0.65988 0.844437,-0.56751 0.047051,0.0114 0.096217,0.0129 0.1435253,0.0229 0,0 -0.8185832,0.56462 -0.8185832,0.56462 z"
       inkscape:connector-curvature="0" />
    <path
       style="opacity:1;vector-effect:none;fill:#7a7a7a;fill-opacity:0.31336407;stroke:none;stroke-width:0.44979167;stroke-linecap:round;stroke-linejoin:round;stroke-miterlimit:4;stroke-dasharray:none;stroke-dashoffset:0;stroke-opacity:1;paint-order:normal"
       id="path2398"
       d="m 11.693918,289.98264 c 0.009,0.0203 0.01489,0.0424 0.02712,0.061 0.09733,0.14781 0.21951,0.18209 0.37653,0.24787 0,0 -0.745758,0.50084 -0.745758,0.50084 v 0 c -0.07456,-0.0268 -0.15178,-0.0472 -0.22367,-0.0805 -0.119561,-0.0554 -0.220098,-0.13988 -0.296135,-0.24628 0,0 0.861909,-0.48293 0.861909,-0.48293 z"
       inkscape:connector-curvature="0" />
    <path
       style="opacity:1;vector-effect:none;fill:#7a7a7a;fill-opacity:0.31336407;stroke:none;stroke-width:0.44979167;stroke-linecap:round;stroke-linejoin:round;stroke-miterlimit:4;stroke-dasharray:none;stroke-dashoffset:0;stroke-opacity:1;paint-order:normal"
       id="path2400"
       d="m 16.644172,289.82582 c 0.153735,0.0704 0.317369,0.12219 0.483577,0.15363 0.08186,0.0155 0.164854,0.0243 0.247281,0.0364 0,0 -0.717119,0.50779 -0.717119,0.50779 v 0 c -0.09089,-0.009 -0.182089,-0.0154 -0.272672,-0.0272 -0.189279,-0.0245 -0.373399,-0.0726 -0.55981,-0.11156 0,0 0.818743,-0.55914 0.818743,-0.55914 z"
       inkscape:connector-curvature="0" />
    <path
       style="opacity:1;vector-effect:none;fill:#7a7a7a;fill-opacity:0.31336407;stroke:none;stroke-width:0.44979167;stroke-linecap:round;stroke-linejoin:round;stroke-miterlimit:4;stroke-dasharray:none;stroke-dashoffset:0;stroke-opacity:1;paint-order:normal"
       id="path2402"
       d="m 21.892855,290.23619 c 0.08697,0.10669 0.201243,0.18171 0.312213,0.26044 0,0 -0.766653,0.49329 -0.766653,0.49329 v 0 c -0.13044,-0.0744 -0.260406,-0.14893 -0.384704,-0.23341 0,0 0.839144,-0.52032 0.839144,-0.52032 z"
       inkscape:connector-curvature="0" />
    <path
       style="opacity:1;vector-effect:none;fill:#7a7a7a;fill-opacity:0.31336407;stroke:none;stroke-width:0.44979167;stroke-linecap:round;stroke-linejoin:round;stroke-miterlimit:4;stroke-dasharray:none;stroke-dashoffset:0;stroke-opacity:1;paint-order:normal"
       id="path2404"
       d="m 42.175024,289.66108 c -0.06486,0.0364 -0.0325,0.014 -0.09533,0.0695 0,0 -1.279827,0.54254 -1.279827,0.54254 v 0 c 0.04468,-0.0712 0.02334,-0.0384 0.06366,-0.0989 0,0 1.311498,-0.51315 1.311498,-0.51315 z"
       inkscape:connector-curvature="0" />
    <path
       style="opacity:1;vector-effect:none;fill:#7a7a7a;fill-opacity:0.31336407;stroke:none;stroke-width:0.44979167;stroke-linecap:round;stroke-linejoin:round;stroke-miterlimit:4;stroke-dasharray:none;stroke-dashoffset:0;stroke-opacity:1;paint-order:normal"
       id="path2406"
       d="m 38.562514,291.25095 c -0.104222,-0.007 -0.211228,0.004 -0.315026,-0.009 0,0 1.154414,-0.81803 1.154414,-0.81803 v 0 c 0.09613,0.01 0.192918,0.008 0.287896,-0.0115 0,0 -1.127284,0.83824 -1.127284,0.83824 z"
       inkscape:connector-curvature="0" />
    <path
       style="opacity:1;vector-effect:none;fill:#7a7a7a;fill-opacity:0.31336407;stroke:none;stroke-width:0.44979167;stroke-linecap:round;stroke-linejoin:round;stroke-miterlimit:4;stroke-dasharray:none;stroke-dashoffset:0;stroke-opacity:1;paint-order:normal"
       id="path2408"
       d="m 37.40919,290.87768 c -0.246637,0.0902 -0.474131,0.22453 -0.701286,0.35435 0,0 1.000892,-0.80902 1.000892,-0.80902 v 0 c 0.261956,-0.14665 0.52447,-0.29436 0.803397,-0.40704 0,0 -1.103003,0.86171 -1.103003,0.86171 z"
       inkscape:connector-curvature="0" />
    <path
       style="opacity:1;vector-effect:none;fill:#7a7a7a;fill-opacity:0.31336407;stroke:none;stroke-width:0.44979167;stroke-linecap:round;stroke-linejoin:round;stroke-miterlimit:4;stroke-dasharray:none;stroke-dashoffset:0;stroke-opacity:1;paint-order:normal"
       id="path2410"
       d="m 34.839025,291.7425 c -0.210196,0.0787 -0.413068,0.17644 -0.623909,0.2534 -0.07756,0.0283 -0.156779,0.0518 -0.235167,0.0778 0,0 1.02711,-0.80028 1.02711,-0.80028 v 0 c 0.07758,-0.0285 0.155959,-0.055 0.232746,-0.0856 0.237643,-0.0947 0.468032,-0.20734 0.699003,-0.31688 0,0 -1.099783,0.87156 -1.099783,0.87156 z"
       inkscape:connector-curvature="0" />
    <path
       style="opacity:1;vector-effect:none;fill:#7a7a7a;fill-opacity:0.31336407;stroke:none;stroke-width:0.44979167;stroke-linecap:round;stroke-linejoin:round;stroke-miterlimit:4;stroke-dasharray:none;stroke-dashoffset:0;stroke-opacity:1;paint-order:normal"
       id="path2412"
       d="m 30.841959,291.25374 c -0.152519,0.0135 -0.304461,0.033 -0.456533,0.0507 0,0 1.063154,-0.79469 1.063154,-0.79469 v 0 c 0.170799,-0.0266 0.341572,-0.0535 0.510233,-0.0919 0,0 -1.116854,0.83591 -1.116854,0.83591 z"
       inkscape:connector-curvature="0" />
    <path
       style="opacity:1;vector-effect:none;fill:#7a7a7a;fill-opacity:0.31336407;stroke:none;stroke-width:0.44979167;stroke-linecap:round;stroke-linejoin:round;stroke-miterlimit:4;stroke-dasharray:none;stroke-dashoffset:0;stroke-opacity:1;paint-order:normal"
       id="path2414"
       d="m 28.565357,290.99895 c -0.442401,-0.0462 -0.889481,-0.0267 -1.333619,-0.0242 0,0 1.023731,-0.74542 1.023731,-0.74542 v 0 c 0.485442,-0.007 0.970096,-0.0363 1.455444,-0.0434 0,0 -1.145556,0.81308 -1.145556,0.81308 z"
       inkscape:connector-curvature="0" />
    <path
       style="opacity:1;vector-effect:none;fill:#7a7a7a;fill-opacity:0.31336407;stroke:none;stroke-width:0.44979167;stroke-linecap:round;stroke-linejoin:round;stroke-miterlimit:4;stroke-dasharray:none;stroke-dashoffset:0;stroke-opacity:1;paint-order:normal"
       id="path2416"
       d="m 25.09083,290.71047 c -0.197523,-0.0188 -0.398565,-0.0266 -0.596206,-0.003 -0.05099,0.006 -0.10105,0.0182 -0.151575,0.0274 0,0 1.08168,-0.80703 1.08168,-0.80703 v 0 c 0.266287,-0.0192 0.533365,-0.0202 0.799575,-0.0405 0,0 -1.133474,0.82352 -1.133474,0.82352 z"
       inkscape:connector-curvature="0" />
    <path
       style="opacity:1;vector-effect:none;fill:#7a7a7a;fill-opacity:0.31336407;stroke:none;stroke-width:0.44979167;stroke-linecap:round;stroke-linejoin:round;stroke-miterlimit:4;stroke-dasharray:none;stroke-dashoffset:0;stroke-opacity:1;paint-order:normal"
       id="path2418"
       d="m 26.314415,290.94556 c 0.177359,0.0987 0.370065,0.16705 0.559373,0.23861 0,0 -1.078535,0.73186 -1.078535,0.73186 v 0 c -0.217351,-0.0634 -0.434878,-0.12615 -0.652115,-0.18991 0,0 1.171277,-0.78056 1.171277,-0.78056 z"
       inkscape:connector-curvature="0" />
    <path
       style="opacity:1;vector-effect:none;fill:#7a7a7a;fill-opacity:0.31336407;stroke:none;stroke-width:0.44979167;stroke-linecap:round;stroke-linejoin:round;stroke-miterlimit:4;stroke-dasharray:none;stroke-dashoffset:0;stroke-opacity:1;paint-order:normal"
       id="path2420"
       d="m 25.765194,293.40217 c -0.316948,0.11324 -0.63696,0.21722 -0.959687,0.31265 0,0 1.030217,-0.79565 1.030217,-0.79565 v 0 c 0.347711,-0.10712 0.694604,-0.22286 1.021308,-0.38479 0,0 -1.091838,0.86779 -1.091838,0.86779 z"
       inkscape:connector-curvature="0" />
    <path
       style="opacity:1;vector-effect:none;fill:#7a7a7a;fill-opacity:0.31336407;stroke:none;stroke-width:0.44979167;stroke-linecap:round;stroke-linejoin:round;stroke-miterlimit:4;stroke-dasharray:none;stroke-dashoffset:0;stroke-opacity:1;paint-order:normal"
       id="path2422"
       d="m 24.327857,293.64196 c -0.494236,0.31114 -0.986091,0.6346 -1.525719,0.8595 0,0 1.059036,-0.84119 1.059036,-0.84119 v 0 c 0.693125,-0.34709 -1.416138,0.8169 -0.834735,0.49432 0,0 1.301418,-0.51263 1.301418,-0.51263 z"
       inkscape:connector-curvature="0" />
    <path
       style="opacity:1;vector-effect:none;fill:#7a7a7a;fill-opacity:0.31336407;stroke:none;stroke-width:0.44979167;stroke-linecap:round;stroke-linejoin:round;stroke-miterlimit:4;stroke-dasharray:none;stroke-dashoffset:0;stroke-opacity:1;paint-order:normal"
       id="path2424"
       d="m 20.257492,292.97376 c -0.02721,-0.007 -0.05411,-0.0149 -0.08163,-0.0202 -0.06517,-0.0126 -0.236234,-0.036 -0.294025,-0.044 -0.166437,-0.0233 -0.332202,-0.047 -0.497717,-0.0762 -0.159526,-0.0369 -0.0846,-0.016 -0.225297,-0.0609 0,0 1.138281,-0.77193 1.138281,-0.77193 v 0 c 0.119577,0.0426 0.05484,0.0221 0.194861,0.0595 0.302133,0.0628 0.608899,0.0889 0.916301,0.11187 0,0 -1.15077,0.80187 -1.15077,0.80187 z"
       inkscape:connector-curvature="0" />
    <path
       style="opacity:1;vector-effect:none;fill:#7a7a7a;fill-opacity:0.31336407;stroke:none;stroke-width:0.44979167;stroke-linecap:round;stroke-linejoin:round;stroke-miterlimit:4;stroke-dasharray:none;stroke-dashoffset:0;stroke-opacity:1;paint-order:normal"
       id="path2426"
       d="m 19.213272,292.18128 c 0.04875,0.0841 -0.07648,-0.003 -0.05841,0.004 0.02059,0.008 0.03944,0.0206 0.05916,0.031 0.05522,0.0216 0.110439,0.0432 0.165658,0.0648 0,0 -1.095965,0.74147 -1.095965,0.74147 v 0 c -0.153719,-0.0486 -0.371401,-0.0836 -0.401724,-0.28158 -0.0029,-0.0187 0.01484,-0.0349 0.02226,-0.0523 0,0 1.309027,-0.50775 1.309027,-0.50775 z"
       inkscape:connector-curvature="0" />
    <path
       style="opacity:1;vector-effect:none;fill:#7a7a7a;fill-opacity:0.31336407;stroke:none;stroke-width:0.44979167;stroke-linecap:round;stroke-linejoin:round;stroke-miterlimit:4;stroke-dasharray:none;stroke-dashoffset:0;stroke-opacity:1;paint-order:normal"
       id="path2428"
       d="m 18.809488,294.64242 c -0.160674,0.0145 -0.320713,0.0122 -0.481706,0.008 0,0 1.071403,-0.78043 1.071403,-0.78043 v 0 c 0.174286,-0.009 0.349108,-0.0164 0.515016,-0.0777 0,0 -1.104713,0.85057 -1.104713,0.85057 z"
       inkscape:connector-curvature="0" />
    <path
       style="opacity:1;vector-effect:none;fill:#7a7a7a;fill-opacity:0.31336407;stroke:none;stroke-width:0.44979167;stroke-linecap:round;stroke-linejoin:round;stroke-miterlimit:4;stroke-dasharray:none;stroke-dashoffset:0;stroke-opacity:1;paint-order:normal"
       id="path2430"
       d="m 16.95487,291.49266 c -0.121893,0.0661 -0.228859,0.15837 -0.298682,0.27964 -0.0152,0.0264 -0.02529,0.0554 -0.03794,0.0831 0,0 -1.244167,0.58017 -1.244167,0.58017 v 0 c 0.01057,-0.0361 0.01773,-0.0734 0.03171,-0.10827 0.05147,-0.12847 0.139445,-0.24078 0.243113,-0.33084 0,0 1.305964,-0.50384 1.305964,-0.50384 z"
       inkscape:connector-curvature="0" />
    <path
       style="opacity:1;vector-effect:none;fill:#7a7a7a;fill-opacity:0.31336407;stroke:none;stroke-width:0.44979167;stroke-linecap:round;stroke-linejoin:round;stroke-miterlimit:4;stroke-dasharray:none;stroke-dashoffset:0;stroke-opacity:1;paint-order:normal"
       id="path2432"
       d="m 13.875025,294.00001 c -0.107248,0.0401 -0.211455,0.0882 -0.321804,0.11981 -0.04725,0.0136 -0.09572,0.0224 -0.143578,0.0336 0,0 1.072255,-0.82391 1.072255,-0.82391 v 0 c 0.168276,-0.0536 0.333575,-0.11675 0.484452,-0.21029 0,0 -1.091325,0.88076 -1.091325,0.88076 z"
       inkscape:connector-curvature="0" />
    <path
       style="opacity:1;vector-effect:none;fill:#7a7a7a;fill-opacity:0.31336407;stroke:none;stroke-width:0.44979167;stroke-linecap:round;stroke-linejoin:round;stroke-miterlimit:4;stroke-dasharray:none;stroke-dashoffset:0;stroke-opacity:1;paint-order:normal"
       id="path2434"
       d="m 12.479827,292.49598 c 0.0834,-0.094 0.03443,-0.0484 0.150847,-0.13237 0,0 1.27946,-0.49358 1.27946,-0.49358 v 0 c -0.105821,0.0497 -0.05882,0.0256 -0.141882,0.0707 0,0 -1.288425,0.55523 -1.288425,0.55523 z"
       inkscape:connector-curvature="0" />
    <path
       style="opacity:1;vector-effect:none;fill:#7a7a7a;fill-opacity:0.31336407;stroke:none;stroke-width:0.44979167;stroke-linecap:round;stroke-linejoin:round;stroke-miterlimit:4;stroke-dasharray:none;stroke-dashoffset:0;stroke-opacity:1;paint-order:normal"
       id="path2436"
       d="m 14.620885,290.62785 c -0.03342,0.0496 -0.02899,0.0752 -0.0087,0.12782 0,0 -1.209376,0.68314 -1.209376,0.68314 v 0 c -0.03609,-0.0729 -0.06625,-0.13954 -0.06093,-0.22324 0,0 1.278963,-0.58772 1.278963,-0.58772 z"
       inkscape:connector-curvature="0" />
    <path
       style="opacity:1;vector-effect:none;fill:#7a7a7a;fill-opacity:0.31336407;stroke:none;stroke-width:0.44979167;stroke-linecap:round;stroke-linejoin:round;stroke-miterlimit:4;stroke-dasharray:none;stroke-dashoffset:0;stroke-opacity:1;paint-order:normal"
       id="path2438"
       d="m 13.482016,290.55775 c -0.09391,-0.0242 -0.24769,-0.0822 -0.342787,-0.0546 -0.01843,0.005 -0.06209,0.0449 -0.04557,0.0352 0.394554,-0.23321 0.786695,-0.47048 1.180043,-0.70572 0,0 -1.252104,0.6361 -1.252104,0.6361 v 0 c 0.393639,-0.25962 0.780413,-0.52997 1.180916,-0.77886 0.01662,-0.0103 0.0387,0.006 0.05804,0.009 0.126487,0.0195 0.252198,0.0438 0.379121,0.0606 0,0 -1.157651,0.7985 -1.157651,0.7985 z"
       inkscape:connector-curvature="0" />
    <path
       style="opacity:1;vector-effect:none;fill:#7a7a7a;fill-opacity:0.31336407;stroke:none;stroke-width:0.44979167;stroke-linecap:round;stroke-linejoin:round;stroke-miterlimit:4;stroke-dasharray:none;stroke-dashoffset:0;stroke-opacity:1;paint-order:normal"
       id="path2440"
       d="m 16.193383,293.14752 c 0.02157,-3.7e-4 0.04315,-7.4e-4 0.06472,-10e-4 0,0 -1.121858,0.80872 -1.121858,0.80872 v 0 c -0.03229,-0.002 -0.06458,-0.005 -0.09687,-0.007 0,0 1.154014,-0.80048 1.154014,-0.80048 z"
       inkscape:connector-curvature="0" />
    <path
       style="opacity:1;vector-effect:none;fill:#7a7a7a;fill-opacity:0.31336407;stroke:none;stroke-width:0.44979167;stroke-linecap:round;stroke-linejoin:round;stroke-miterlimit:4;stroke-dasharray:none;stroke-dashoffset:0;stroke-opacity:1;paint-order:normal"
       id="path2442"
       d="m 25.119068,292.75305 c 0.01773,-0.004 0.03546,-0.008 0.05319,-0.0113 0,0 -1.120544,0.81632 -1.120544,0.81632 v 0 c -0.03149,-0.003 -0.06298,-0.006 -0.09448,-0.009 0,0 1.161833,-0.79568 1.161833,-0.79568 z"
       inkscape:connector-curvature="0" />
    <path
       style="opacity:1;vector-effect:none;fill:#7a7a7a;fill-opacity:0.31336407;stroke:none;stroke-width:0.44979167;stroke-linecap:round;stroke-linejoin:round;stroke-miterlimit:4;stroke-dasharray:none;stroke-dashoffset:0;stroke-opacity:1;paint-order:normal"
       id="path2444"
       d="m 28.278241,292.27028 c 0.262901,0.0559 0.534785,0.0245 0.799817,0.006 0,0 -1.017301,0.75274 -1.017301,0.75274 v 0 c -0.31049,0.0322 -0.62835,0.0799 -0.93928,0.026 0,0 1.156764,-0.78486 1.156764,-0.78486 z"
       inkscape:connector-curvature="0" />
    <path
       style="opacity:1;vector-effect:none;fill:#7a7a7a;fill-opacity:0.31336407;stroke:none;stroke-width:0.44979167;stroke-linecap:round;stroke-linejoin:round;stroke-miterlimit:4;stroke-dasharray:none;stroke-dashoffset:0;stroke-opacity:1;paint-order:normal"
       id="path2446"
       d="m 31.488013,292.50424 c 0.0259,-0.005 0.05181,-0.0108 0.07771,-0.0162 0,0 -1.092737,0.8407 -1.092737,0.8407 v 0 c -0.0316,0.0108 -0.06321,0.0216 -0.09481,0.0324 0,0 1.109842,-0.85686 1.109842,-0.85686 z"
       inkscape:connector-curvature="0" />
    <path
       style="opacity:1;vector-effect:none;fill:#7a7a7a;fill-opacity:0.31336407;stroke:none;stroke-width:0.44979167;stroke-linecap:round;stroke-linejoin:round;stroke-miterlimit:4;stroke-dasharray:none;stroke-dashoffset:0;stroke-opacity:1;paint-order:normal"
       id="path2448"
       d="m 33.969019,292.96088 c 0.02852,-0.008 0.05705,-0.0166 0.08557,-0.0249 0,0 -1.082797,0.84419 -1.082797,0.84419 v 0 c -0.03526,0.0141 -0.07052,0.0283 -0.105778,0.0425 0,0 1.103003,-0.86171 1.103003,-0.86171 z"
       inkscape:connector-curvature="0" />
    <path
       style="opacity:1;vector-effect:none;fill:#7a7a7a;fill-opacity:0.31336407;stroke:none;stroke-width:0.44979167;stroke-linecap:round;stroke-linejoin:round;stroke-miterlimit:4;stroke-dasharray:none;stroke-dashoffset:0;stroke-opacity:1;paint-order:normal"
       id="path2450"
       d="m 36.01143,293.06814 c 0.211223,0.0586 0.440077,0.037 0.656344,0.0323 0,0 -1.033938,0.75878 -1.033938,0.75878 v 0 c -0.261192,0.0186 -0.534604,0.0585 -0.79116,-0.0144 0,0 1.168754,-0.77663 1.168754,-0.77663 z"
       inkscape:connector-curvature="0" />
    <path
       style="opacity:1;vector-effect:none;fill:#7a7a7a;fill-opacity:0.31336407;stroke:none;stroke-width:0.44979167;stroke-linecap:round;stroke-linejoin:round;stroke-miterlimit:4;stroke-dasharray:none;stroke-dashoffset:0;stroke-opacity:1;paint-order:normal"
       id="path2452"
       d="m 40.330441,292.97926 c 0.123209,-0.0109 0.244835,-0.0354 0.366482,-0.0568 0,0 -1.066117,0.80709 -1.066117,0.80709 v 0 c -0.139329,0.0307 -0.278754,0.0608 -0.418301,0.0905 0,0 1.117936,-0.84078 1.117936,-0.84078 z"
       inkscape:connector-curvature="0" />
    <path
       style="opacity:1;vector-effect:none;fill:#7a7a7a;fill-opacity:0.31336407;stroke:none;stroke-width:0.44979167;stroke-linecap:round;stroke-linejoin:round;stroke-miterlimit:4;stroke-dasharray:none;stroke-dashoffset:0;stroke-opacity:1;paint-order:normal"
       id="path2454"
       d="m 40.957432,293.77887 c -0.06128,-0.006 -0.137829,0.0201 -0.196125,-0.009 -0.02395,-0.0119 -0.04014,-0.0353 -0.06021,-0.053 0,0 1.180523,-0.75479 1.180523,-0.75479 v 0 c 0.03096,-0.0123 -0.0077,0.002 0.06277,-0.009 0.06647,-0.01 0.06762,-0.0131 0.128812,-0.034 0,0 -1.115772,0.85909 -1.115772,0.85909 z"
       inkscape:connector-curvature="0" />
    <path
       style="opacity:1;vector-effect:none;fill:#7a7a7a;fill-opacity:0.31336407;stroke:none;stroke-width:0.44979167;stroke-linecap:round;stroke-linejoin:round;stroke-miterlimit:4;stroke-dasharray:none;stroke-dashoffset:0;stroke-opacity:1;paint-order:normal"
       id="path2456"
       d="m 37.546003,293.22863 c -0.04205,-0.004 -0.08411,-0.008 -0.126158,-0.0121 0,0 1.095256,-0.79756 1.095256,-0.79756 v 0 c 0.05048,-0.005 0.100965,-0.0101 0.151447,-0.0152 0,0 -1.120545,0.82486 -1.120545,0.82486 z"
       inkscape:connector-curvature="0" />
    <path
       style="opacity:1;vector-effect:none;fill:#7a7a7a;fill-opacity:0.31336407;stroke:none;stroke-width:0.44979167;stroke-linecap:round;stroke-linejoin:round;stroke-miterlimit:4;stroke-dasharray:none;stroke-dashoffset:0;stroke-opacity:1;paint-order:normal"
       id="path2458"
       d="m 35.790223,292.08379 c -0.0096,-0.0932 -0.0027,-0.0446 -0.0217,-0.1456 0,0 1.212726,-0.66014 1.212726,-0.66014 v 0 c 0.03768,0.1034 0.0232,0.0561 0.04612,0.14092 0,0 -1.237146,0.66482 -1.237146,0.66482 z"
       inkscape:connector-curvature="0" />
    <path
       style="opacity:1;vector-effect:none;fill:#7a7a7a;fill-opacity:0.31336407;stroke:none;stroke-width:0.44979167;stroke-linecap:round;stroke-linejoin:round;stroke-miterlimit:4;stroke-dasharray:none;stroke-dashoffset:0;stroke-opacity:1;paint-order:normal"
       id="path2460"
       d="m 34.052728,290.56908 c -0.08536,-10e-4 -0.03881,9.7e-4 -0.139544,-0.009 0,0 1.121537,-0.8066 1.121537,-0.8066 v 0 c 0.11121,1.8e-4 0.0575,-6.6e-4 0.161118,0.002 0,0 -1.143111,0.81324 -1.143111,0.81324 z"
       inkscape:connector-curvature="0" />
    <path
       style="opacity:1;vector-effect:none;fill:#7a7a7a;fill-opacity:0.31336407;stroke:none;stroke-width:0.44979167;stroke-linecap:round;stroke-linejoin:round;stroke-miterlimit:4;stroke-dasharray:none;stroke-dashoffset:0;stroke-opacity:1;paint-order:normal"
       id="path2462"
       d="m 32.95426,289.78473 c -0.103156,0.0225 -0.04666,0.007 -0.168153,0.0512 0,0 1.07665,-0.84143 1.07665,-0.84143 v 0 c 0.144153,-0.0529 0.07817,-0.027 0.198417,-0.0763 0,0 -1.106914,0.86654 -1.106914,0.86654 z"
       inkscape:connector-curvature="0" />
    <path
       style="opacity:1;vector-effect:none;fill:#7a7a7a;fill-opacity:0.31336407;stroke:none;stroke-width:0.44979167;stroke-linecap:round;stroke-linejoin:round;stroke-miterlimit:4;stroke-dasharray:none;stroke-dashoffset:0;stroke-opacity:1;paint-order:normal"
       id="path2464"
       d="m 33.008394,289.90775 c -0.06447,0.10065 -0.0327,0.0424 -0.08893,0.17805 0,0 -1.232784,0.58488 -1.232784,0.58488 v 0 c 0.02445,-0.14189 0.01138,-0.0786 0.0369,-0.19021 0,0 1.284812,-0.57272 1.284812,-0.57272 z"
       inkscape:connector-curvature="0" />
    <path
       style="opacity:1;vector-effect:none;fill:#7a7a7a;fill-opacity:0.31336407;stroke:none;stroke-width:0.44979167;stroke-linecap:round;stroke-linejoin:round;stroke-miterlimit:4;stroke-dasharray:none;stroke-dashoffset:0;stroke-opacity:1;paint-order:normal"
       id="path2466"
       d="m 31.791866,293.22171 c -0.09396,0.023 -0.187243,0.0486 -0.28095,0.0726 0,0 1.082362,-0.83207 1.082362,-0.83207 v 0 c 0.103418,-0.0309 0.207098,-0.0614 0.307274,-0.1019 0,0 -1.108686,0.86133 -1.108686,0.86133 z"
       inkscape:connector-curvature="0" />
    <path
       style="opacity:1;vector-effect:none;fill:#7a7a7a;fill-opacity:0.31336407;stroke:none;stroke-width:0.44979167;stroke-linecap:round;stroke-linejoin:round;stroke-miterlimit:4;stroke-dasharray:none;stroke-dashoffset:0;stroke-opacity:1;paint-order:normal"
       id="path2468"
       d="m 30.433008,292.62196 c -0.195953,-0.27032 -0.482764,-0.44733 -0.771096,-0.60383 0,0 1.108147,-0.72162 1.108147,-0.72162 v 0 c 0.302085,0.17474 0.591489,0.36785 0.85934,0.5923 0,0 -1.196391,0.73315 -1.196391,0.73315 z"
       inkscape:connector-curvature="0" />
    <path
       style="opacity:1;vector-effect:none;fill:#7a7a7a;fill-opacity:0.31336407;stroke:none;stroke-width:0.44979167;stroke-linecap:round;stroke-linejoin:round;stroke-miterlimit:4;stroke-dasharray:none;stroke-dashoffset:0;stroke-opacity:1;paint-order:normal"
       id="path2470"
       d="m 32.244121,292.03507 c -0.07289,-0.005 -0.03388,-0.003 -0.117054,-0.005 0,0 1.123574,-0.81633 1.123574,-0.81633 v 0 c 0.09147,-0.002 0.04761,-5.4e-4 0.131606,-0.005 0,0 -1.138126,0.82689 -1.138126,0.82689 z"
       inkscape:connector-curvature="0" />
    <path
       style="opacity:1;vector-effect:none;fill:#7a7a7a;fill-opacity:0.31336407;stroke:none;stroke-width:0.44979167;stroke-linecap:round;stroke-linejoin:round;stroke-miterlimit:4;stroke-dasharray:none;stroke-dashoffset:0;stroke-opacity:1;paint-order:normal"
       id="path2472"
       d="m 31.52175,292.34369 c -0.07545,7.4e-4 -0.03468,6e-5 -0.122301,0.002 0,0 1.115687,-0.82367 1.115687,-0.82367 v 0 c 0.09503,-0.0117 0.05031,-0.005 0.134274,-0.0196 0,0 -1.12766,0.84091 -1.12766,0.84091 z"
       inkscape:connector-curvature="0" />
    <path
       style="opacity:1;vector-effect:none;fill:#7a7a7a;fill-opacity:0.31336407;stroke:none;stroke-width:0.44979167;stroke-linecap:round;stroke-linejoin:round;stroke-miterlimit:4;stroke-dasharray:none;stroke-dashoffset:0;stroke-opacity:1;paint-order:normal"
       id="path2474"
       d="m 29.237485,293.4668 c -0.458353,0.31179 -0.03893,0.0287 -1.312555,0.76282 0,0 1.080213,-0.86927 1.080213,-0.86927 v 0 c -1.139623,0.66207 -1.491976,0.87969 -1.075012,0.62285 0,0 1.307354,-0.5164 1.307354,-0.5164 z"
       inkscape:connector-curvature="0" />
    <path
       style="opacity:1;vector-effect:none;fill:#7a7a7a;fill-opacity:0.31336407;stroke:none;stroke-width:0.44979167;stroke-linecap:round;stroke-linejoin:round;stroke-miterlimit:4;stroke-dasharray:none;stroke-dashoffset:0;stroke-opacity:1;paint-order:normal"
       id="path2476"
       d="m 24.638817,294.45902 c -0.01989,-0.002 -0.03978,-0.005 -0.05967,-0.007 0,0 1.124586,-0.82131 1.124586,-0.82131 v 0 c 0.02079,-0.003 0.04158,-0.007 0.06236,-0.01 0,0 -1.127283,0.83824 -1.127283,0.83824 z"
       inkscape:connector-curvature="0" />
    <path
       style="opacity:1;vector-effect:none;fill:#7a7a7a;fill-opacity:0.31336407;stroke:none;stroke-width:0.44979167;stroke-linecap:round;stroke-linejoin:round;stroke-miterlimit:4;stroke-dasharray:none;stroke-dashoffset:0;stroke-opacity:1;paint-order:normal"
       id="path2478"
       d="m 22.782087,293.25821 c -0.234579,-0.036 -0.469975,-0.0691 -0.694704,-0.14927 -0.05464,-0.0195 -0.10729,-0.0442 -0.160935,-0.0663 -0.177,-0.10163 -0.09663,-0.0445 -0.243026,-0.16861 0,0 1.155546,-0.71976 1.155546,-0.71976 v 0 c 0.117602,0.10403 0.05126,0.0554 0.201997,0.14183 0.04941,0.0192 0.09772,0.0416 0.148243,0.0577 0.234235,0.0746 0.485254,0.0942 0.729455,0.0787 0,0 -1.136576,0.82577 -1.136576,0.82577 z"
       inkscape:connector-curvature="0" />
    <path
       style="opacity:1;vector-effect:none;fill:#7a7a7a;fill-opacity:0.31336407;stroke:none;stroke-width:0.44979167;stroke-linecap:round;stroke-linejoin:round;stroke-miterlimit:4;stroke-dasharray:none;stroke-dashoffset:0;stroke-opacity:1;paint-order:normal"
       id="path2480"
       d="m 20.221939,291.81667 c -0.09329,-0.0282 -0.0448,-0.0133 -0.145454,-0.0449 0,0 1.139762,-0.78382 1.139762,-0.78382 v 0 c 0.101938,0.0219 0.05076,0.0133 0.15351,0.0259 0,0 -1.147818,0.8028 -1.147818,0.8028 z"
       inkscape:connector-curvature="0" />
    <path
       style="opacity:1;vector-effect:none;fill:#7a7a7a;fill-opacity:0.31336407;stroke:none;stroke-width:0.44979167;stroke-linecap:round;stroke-linejoin:round;stroke-miterlimit:4;stroke-dasharray:none;stroke-dashoffset:0;stroke-opacity:1;paint-order:normal"
       id="path2482"
       d="m 18.788978,291.05652 c -0.03422,-0.007 -0.06816,-0.0164 -0.102656,-0.0224 -0.106949,-0.0187 -0.214762,-0.0321 -0.321962,-0.0493 -0.17705,-0.0284 -0.353792,-0.0585 -0.530854,-0.0869 -0.154691,-0.0102 -0.08483,-0.0176 -0.21045,0.0108 0,0 1.113606,-0.81696 1.113606,-0.81696 v 0 c 0.123293,0.0165 0.05665,0.006 0.199546,0.0352 0.326482,0.0682 0.656959,0.11322 0.990591,0.12566 0,0 -1.137821,0.80385 -1.137821,0.80385 z"
       inkscape:connector-curvature="0" />
    <path
       style="opacity:1;vector-effect:none;fill:#7a7a7a;fill-opacity:0.31336407;stroke:none;stroke-width:0.44979167;stroke-linecap:round;stroke-linejoin:round;stroke-miterlimit:4;stroke-dasharray:none;stroke-dashoffset:0;stroke-opacity:1;paint-order:normal"
       id="path2484"
       d="m 17.31038,291.67635 c -0.219322,0.0763 -0.426474,0.18453 -0.634627,0.28662 0,0 1.026524,-0.82082 1.026524,-0.82082 v 0 c 0.233506,-0.1178 0.468709,-0.23153 0.707884,-0.33736 0,0 -1.099781,0.87156 -1.099781,0.87156 z"
       inkscape:connector-curvature="0" />
    <path
       style="opacity:1;vector-effect:none;fill:#7a7a7a;fill-opacity:0.31336407;stroke:none;stroke-width:0.44979167;stroke-linecap:round;stroke-linejoin:round;stroke-miterlimit:4;stroke-dasharray:none;stroke-dashoffset:0;stroke-opacity:1;paint-order:normal"
       id="path2486"
       d="m 14.758864,292.86435 c -0.02826,0.008 -0.05705,0.0137 -0.08479,0.0231 -0.07781,0.0265 -0.217992,0.0856 -0.286072,0.12013 -0.05826,0.0295 -0.227627,0.12822 -0.170873,0.0959 1.02594,-0.58434 1.254103,-0.76139 0.799443,-0.4276 -0.226706,0.16076 -0.373888,0.41023 -0.588128,0.58302 -0.03777,0.0305 -0.07951,0.0557 -0.119257,0.0835 -0.435907,0.23771 -0.871813,0.47541 -1.30772,0.71312 0,0 1.06005,-0.82986 1.06005,-0.82986 v 0 c -0.338129,0.20104 -0.676257,0.40208 -1.014386,0.60312 0.04254,-0.0211 0.08726,-0.0384 0.12763,-0.0634 0.24482,-0.15192 0.387532,-0.42122 0.611826,-0.59746 0.538207,-0.4469 0.148022,-0.13728 1.462699,-0.89469 0.194338,-0.11196 0.40632,-0.1862 0.611252,-0.27518 0,0 -1.101672,0.86632 -1.101672,0.86632 z"
       inkscape:connector-curvature="0" />
    <path
       style="opacity:1;vector-effect:none;fill:#7a7a7a;fill-opacity:0.31336407;stroke:none;stroke-width:0.44979167;stroke-linecap:round;stroke-linejoin:round;stroke-miterlimit:4;stroke-dasharray:none;stroke-dashoffset:0;stroke-opacity:1;paint-order:normal"
       id="path2488"
       d="m 9.1369174,293.88317 c -0.017735,-5.8e-4 -0.035468,-0.001 -0.053203,-0.002 0,0 1.1167956,-0.84089 1.1167956,-0.84089 v 0 c 0.01503,-0.006 0.03006,-0.0125 0.04509,-0.0187 0,0 -1.1086859,0.86133 -1.1086859,0.86133 z"
       inkscape:connector-curvature="0" />
    <path
       style="opacity:1;vector-effect:none;fill:#7a7a7a;fill-opacity:0.31336407;stroke:none;stroke-width:0.44979167;stroke-linecap:round;stroke-linejoin:round;stroke-miterlimit:4;stroke-dasharray:none;stroke-dashoffset:0;stroke-opacity:1;paint-order:normal"
       id="path2490"
       d="m 8.5713348,292.5411 c -0.00771,-0.14617 0.019301,-0.29544 0.09369,-0.42341 0.020497,-0.0353 0.037867,-0.0769 0.072369,-0.0987 0.4132299,-0.26056 0.8420256,-0.49557 1.2630382,-0.74336 0.04226,-0.003 0.08447,-0.0101 0.126787,-0.008 0.05756,0.002 0.230266,0.0371 0.284328,0.0454 0.171702,0.0265 0.146763,0.0205 0.323715,0.0284 0,0 -1.0875558,0.781 -1.0875558,0.781 v 0 c -0.058701,-0.004 -0.1174927,-0.006 -0.1761016,-0.0115 -0.1394701,-0.012 -0.2915351,-0.0497 -0.4315002,-0.0184 -0.036756,0.008 -0.07028,0.0271 -0.1054198,0.0407 0.355038,-0.21251 0.7083462,-0.42793 1.065114,-0.63752 0.031442,-0.0185 -0.06342,0.0377 -0.088761,0.0639 -0.08049,0.0833 -0.1151917,0.20798 -0.1027999,0.32042 0,0 -1.2369033,0.6613 -1.2369033,0.6613 z"
       inkscape:connector-curvature="0" />
    <path
       style="opacity:1;vector-effect:none;fill:#7a7a7a;fill-opacity:0.31336407;stroke:none;stroke-width:0.44979167;stroke-linecap:round;stroke-linejoin:round;stroke-miterlimit:4;stroke-dasharray:none;stroke-dashoffset:0;stroke-opacity:1;paint-order:normal"
       id="path2492"
       d="m 10.266991,291.7836 c -0.119032,-0.0208 -0.230781,-0.0342 -0.347762,-0.0672 0,0 1.135028,-0.78316 1.135028,-0.78316 v 0 c 0.119012,0.025 0.239464,0.0368 0.360552,0.0475 0,0 -1.147818,0.8028 -1.147818,0.8028 z"
       inkscape:connector-curvature="0" />
    <path
       style="opacity:1;vector-effect:none;fill:#7a7a7a;fill-opacity:0.31336407;stroke:none;stroke-width:0.44979167;stroke-linecap:round;stroke-linejoin:round;stroke-miterlimit:4;stroke-dasharray:none;stroke-dashoffset:0;stroke-opacity:1;paint-order:normal"
       id="path2494"
       d="m 8.6684912,290.66693 c -0.1256845,-0.0877 -0.2995996,-0.13953 -0.3993584,-0.26018 -0.017869,-0.0216 -0.029541,-0.0477 -0.044312,-0.0715 0,0 1.2061711,-0.69406 1.2061711,-0.69406 v 0 c 0.0057,0.0128 0.00859,0.0273 0.017113,0.0385 0.077927,0.10215 0.2657893,0.16777 0.3822917,0.21122 0,0 -1.1619063,0.77601 -1.1619063,0.77601 z"
       inkscape:connector-curvature="0" />
    <path
       style="opacity:1;vector-effect:none;fill:#7a7a7a;fill-opacity:0.31336407;stroke:none;stroke-width:0.44979167;stroke-linecap:round;stroke-linejoin:round;stroke-miterlimit:4;stroke-dasharray:none;stroke-dashoffset:0;stroke-opacity:1;paint-order:normal"
       id="path2496"
       d="m 7.6605411,290.07298 c -0.2906212,-0.0608 -0.5866177,-0.0915 -0.8815377,-0.12333 -0.1517761,-0.015 -0.082812,-0.0114 -0.2066914,-0.0141 0,0 1.1309122,-0.80102 1.1309122,-0.80102 v 0 c 0.1028039,0.0251 0.044083,0.012 0.1766478,0.037 0.3056506,0.0476 0.6142781,0.0823 0.9237789,0.0882 0,0 -1.1431098,0.81323 -1.1431098,0.81323 z"
       inkscape:connector-curvature="0" />
    <path
       style="opacity:1;vector-effect:none;fill:#7a7a7a;fill-opacity:0.31336407;stroke:none;stroke-width:0.44979167;stroke-linecap:round;stroke-linejoin:round;stroke-miterlimit:4;stroke-dasharray:none;stroke-dashoffset:0;stroke-opacity:1;paint-order:normal"
       id="path2498"
       d="m 7.9474545,291.86224 c -0.5809205,0.35729 -1.1493307,0.75392 -1.8039392,0.95698 -0.1923788,0.0597 -0.2222013,0.0609 -0.4135265,0.0996 -0.1902502,0.0215 -0.1037503,0.0184 -0.259165,0.016 0,0 1.1187557,-0.80835 1.1187557,-0.80835 v 0 c 0.1130327,0.005 0.04668,0.005 0.1987759,-0.0108 0.060054,-0.0133 0.1208193,-0.0237 0.1801622,-0.0398 0.1443855,-0.0393 0.2838503,-0.0907 0.4207261,-0.15097 0.063899,-0.0281 0.2482824,-0.12748 0.1884717,-0.0914 -0.3348468,0.20175 -0.6761223,0.39264 -1.0141836,0.58896 0.028433,-0.0174 0.056865,-0.0347 0.085298,-0.052 0,0 1.2986245,-0.50811 1.2986245,-0.50811 z"
       inkscape:connector-curvature="0" />
    <path
       style="opacity:1;vector-effect:none;fill:#7a7a7a;fill-opacity:0.31336407;stroke:none;stroke-width:0.44979167;stroke-linecap:round;stroke-linejoin:round;stroke-miterlimit:4;stroke-dasharray:none;stroke-dashoffset:0;stroke-opacity:1;paint-order:normal"
       id="path2500"
       d="m 7.7886339,293.30263 c 0.3586808,0.0132 0.7157667,-0.0458 1.0715095,-0.084 0.3216923,-0.0324 0.6484496,-0.0513 0.968593,0.006 0.1281028,0.023 0.2346476,0.0563 0.3590236,0.0916 0.324918,0.12264 0.671343,0.1149 1.012427,0.1318 0.05693,0.006 0.113868,0.0121 0.170802,0.0182 0,0 -1.091649,0.77727 -1.091649,0.77727 v 0 c -0.05544,-0.005 -0.110879,-0.009 -0.166318,-0.0142 -0.3554156,-0.0195 -0.6910189,-0.0295 -1.0299875,-0.15649 -0.1268283,-0.0365 -0.2029216,-0.062 -0.3345587,-0.0847 -0.3059187,-0.0527 -0.6176148,-0.0318 -0.9243264,0.002 -0.3923509,0.0497 -0.7847655,0.12243 -1.1810725,0.12575 0,0 1.145557,-0.81308 1.145557,-0.81308 z"
       inkscape:connector-curvature="0" />
    <path
       style="opacity:1;vector-effect:none;fill:#7a7a7a;fill-opacity:0.31336407;stroke:none;stroke-width:0.44979167;stroke-linecap:round;stroke-linejoin:round;stroke-miterlimit:4;stroke-dasharray:none;stroke-dashoffset:0;stroke-opacity:1;paint-order:normal"
       id="path2502"
       d="m 12.436167,293.71492 c 0.07619,0.0467 0.161501,0.0745 0.244994,0.10465 0,0 -1.129264,0.76471 -1.129264,0.76471 v 0 c -0.100429,-0.0329 -0.202276,-0.0636 -0.295936,-0.11369 0,0 1.180206,-0.75567 1.180206,-0.75567 z"
       inkscape:connector-curvature="0" />
    <path
       style="opacity:1;vector-effect:none;fill:#7a7a7a;fill-opacity:0.31336407;stroke:none;stroke-width:0.44979167;stroke-linecap:round;stroke-linejoin:round;stroke-miterlimit:4;stroke-dasharray:none;stroke-dashoffset:0;stroke-opacity:1;paint-order:normal"
       id="path2504"
       d="m 13.74363,293.92184 c 0.169893,0.0222 0.34532,0.046 0.516738,0.0259 0.04031,-0.005 0.07995,-0.0139 0.119928,-0.0209 0,0 -1.091417,0.81422 -1.091417,0.81422 v 0 c -0.04256,0.004 -0.08501,0.009 -0.127677,0.0105 -0.183719,0.008 -0.367428,-0.0187 -0.551047,-0.006 0,0 1.133475,-0.82352 1.133475,-0.82352 z"
       inkscape:connector-curvature="0" />
    <path
       style="opacity:1;vector-effect:none;fill:#7a7a7a;fill-opacity:0.31336407;stroke:none;stroke-width:0.44979167;stroke-linecap:round;stroke-linejoin:round;stroke-miterlimit:4;stroke-dasharray:none;stroke-dashoffset:0;stroke-opacity:1;paint-order:normal"
       id="path2506"
       d="m 11.349601,291.81258 c 0.0045,-0.1317 -0.0078,-0.26356 0.02221,-0.39268 0.01196,-0.0205 0.02392,-0.041 0.03588,-0.0614 0,0 1.291053,-0.5258 1.291053,-0.5258 v 0 c -0.01698,0.005 -0.03395,0.0104 -0.05092,0.0156 -0.01101,0.008 -0.02502,0.0135 -0.03303,0.0246 -0.04503,0.0628 -0.02202,0.21431 -0.02066,0.28808 0,0 -1.244533,0.65156 -1.244533,0.65156 z"
       inkscape:connector-curvature="0" />
    <path
       style="opacity:1;vector-effect:none;fill:#7a7a7a;fill-opacity:0.31336407;stroke:none;stroke-width:0.44979167;stroke-linecap:round;stroke-linejoin:round;stroke-miterlimit:4;stroke-dasharray:none;stroke-dashoffset:0;stroke-opacity:1;paint-order:normal"
       id="path2508"
       d="m 13.415562,290.24734 c 0.02024,8.8e-4 0.04049,0.002 0.06073,0.003 0,0 -1.109744,0.84262 -1.109744,0.84262 v 0 c -0.01843,0.009 -0.03686,0.0183 -0.05529,0.0275 0,0 1.1043,-0.87275 1.1043,-0.87275 z"
       inkscape:connector-curvature="0" />
    <path
       style="opacity:1;vector-effect:none;fill:#7a7a7a;fill-opacity:0.31336407;stroke:none;stroke-width:0.44979167;stroke-linecap:round;stroke-linejoin:round;stroke-miterlimit:4;stroke-dasharray:none;stroke-dashoffset:0;stroke-opacity:1;paint-order:normal"
       id="path2510"
       d="m 17.526738,292.21765 c 0.272791,0.16876 0.593166,0.23911 0.908505,0.27573 0.120351,0.014 0.241553,0.0193 0.362329,0.0289 0.427343,0.0293 0.856617,0.0138 1.284072,0.0385 0.265418,0.0153 0.523352,0.0378 0.779442,0.11434 0.108477,0.0324 0.21007,0.0846 0.315105,0.12683 0.230326,0.15623 0.282537,0.16615 0.45629,0.3798 0.05445,0.067 0.09556,0.14374 0.143335,0.21561 0,0 -1.125681,0.65606 -1.125681,0.65606 v 0 c -0.03998,-0.0667 -0.07298,-0.13819 -0.119944,-0.2002 -0.147161,-0.19432 -0.203328,-0.20849 -0.405295,-0.34826 -0.09541,-0.0399 -0.187465,-0.089 -0.286242,-0.11967 -0.237511,-0.0737 -0.49322,-0.0995 -0.739574,-0.11508 -0.43557,-0.0275 -0.872896,-0.009 -1.308775,-0.0261 -0.130342,-0.007 -0.260966,-0.009 -0.391026,-0.0199 -0.359407,-0.03 -0.71281,-0.10531 -1.047432,-0.24087 0,0 1.174891,-0.76574 1.174891,-0.76574 z"
       inkscape:connector-curvature="0" />
    <path
       style="opacity:1;vector-effect:none;fill:#7a7a7a;fill-opacity:0.31336407;stroke:none;stroke-width:0.44979167;stroke-linecap:round;stroke-linejoin:round;stroke-miterlimit:4;stroke-dasharray:none;stroke-dashoffset:0;stroke-opacity:1;paint-order:normal"
       id="path2512"
       d="m 17.395898,293.61856 c 0.257018,0.14872 0.562235,0.19648 0.850924,0.24612 0.08243,0.009 0.164865,0.0172 0.247297,0.0258 0,0 -1.057793,0.75253 -1.057793,0.75253 v 0 c -0.0873,-0.008 -0.174601,-0.0168 -0.261902,-0.0251 -0.327077,-0.0497 -0.665514,-0.0993 -0.964231,-0.24936 0,0 1.185705,-0.74995 1.185705,-0.74995 z"
       inkscape:connector-curvature="0" />
    <path
       style="opacity:1;vector-effect:none;fill:#7a7a7a;fill-opacity:0.31336407;stroke:none;stroke-width:0.44979167;stroke-linecap:round;stroke-linejoin:round;stroke-miterlimit:4;stroke-dasharray:none;stroke-dashoffset:0;stroke-opacity:1;paint-order:normal"
       id="path2514"
       d="m 25.675596,292.85338 c 0.198578,-0.0458 0.391811,-0.11601 0.585309,-0.18 0,0 -1.055739,0.82082 -1.055739,0.82082 v 0 c -0.215431,0.0741 -0.430278,0.15939 -0.656243,0.19504 0,0 1.126673,-0.83586 1.126673,-0.83586 z"
       inkscape:connector-curvature="0" />
    <path
       style="opacity:1;vector-effect:none;fill:#7a7a7a;fill-opacity:0.31336407;stroke:none;stroke-width:0.44979167;stroke-linecap:round;stroke-linejoin:round;stroke-miterlimit:4;stroke-dasharray:none;stroke-dashoffset:0;stroke-opacity:1;paint-order:normal"
       id="path2516"
       d="m 29.026394,292.92993 c 0.09725,0.0308 0.03875,0.0155 0.177464,0.0377 0,0 -1.107458,0.78227 -1.107458,0.78227 v 0 c -0.182994,-0.0209 -0.103043,-0.005 -0.241283,-0.0394 0,0 1.171277,-0.78056 1.171277,-0.78056 z"
       inkscape:connector-curvature="0" />
    <path
       style="opacity:1;vector-effect:none;fill:#7a7a7a;fill-opacity:0.31336407;stroke:none;stroke-width:0.44979167;stroke-linecap:round;stroke-linejoin:round;stroke-miterlimit:4;stroke-dasharray:none;stroke-dashoffset:0;stroke-opacity:1;paint-order:normal"
       id="path2518"
       d="m 32.962669,292.31041 c 0.404111,0.0245 0.808561,-0.0362 1.208346,-0.0872 0,0 -0.98371,0.73597 -0.98371,0.73597 v 0 c -0.45258,0.0695 -0.906894,0.15086 -1.365459,0.16433 0,0 1.140823,-0.81315 1.140823,-0.81315 z"
       inkscape:connector-curvature="0" />
    <path
       style="opacity:1;vector-effect:none;fill:#7a7a7a;fill-opacity:0.31336407;stroke:none;stroke-width:0.44979167;stroke-linecap:round;stroke-linejoin:round;stroke-miterlimit:4;stroke-dasharray:none;stroke-dashoffset:0;stroke-opacity:1;paint-order:normal"
       id="path2520"
       d="m 37.055828,291.8909 c 0.501367,-0.38981 1.06109,-0.71342 1.649693,-0.95263 0.160663,-0.0653 0.252061,-0.0954 0.416745,-0.15359 0.07063,-0.0235 0.141261,-0.047 0.211892,-0.0704 0,0 -1.038183,0.8072 -1.038183,0.8072 v 0 c -0.06895,0.0237 -0.137909,0.0473 -0.206862,0.0709 -0.183144,0.0699 -0.245049,0.0897 -0.422499,0.17241 -0.06122,0.0285 -0.239009,0.12561 -0.181158,0.0908 1.796256,-1.08221 1.226632,-0.7522 0.868971,-0.49244 0,0 -1.298599,0.52779 -1.298599,0.52779 z"
       inkscape:connector-curvature="0" />
    <path
       style="opacity:1;vector-effect:none;fill:#7a7a7a;fill-opacity:0.31336407;stroke:none;stroke-width:0.44979167;stroke-linecap:round;stroke-linejoin:round;stroke-miterlimit:4;stroke-dasharray:none;stroke-dashoffset:0;stroke-opacity:1;paint-order:normal"
       id="path2522"
       d="m 40.980163,291.83325 c -0.01392,0.0151 -0.02782,0.0302 -0.04174,0.0454 0,0 -1.282078,0.54877 -1.282078,0.54877 v 0 c 0.0096,-0.0146 0.01913,-0.0293 0.0287,-0.0439 0,0 1.295115,-0.55026 1.295115,-0.55026 z"
       inkscape:connector-curvature="0" />
    <path
       style="opacity:1;vector-effect:none;fill:#7a7a7a;fill-opacity:0.31336407;stroke:none;stroke-width:0.44979167;stroke-linecap:round;stroke-linejoin:round;stroke-miterlimit:4;stroke-dasharray:none;stroke-dashoffset:0;stroke-opacity:1;paint-order:normal"
       id="path2524"
       d="m 32.958097,294.52918 c -0.08159,0.0359 -0.03844,0.0162 -0.129215,0.0597 0,0 1.079053,-0.86324 1.079053,-0.86324 v 0 c 0.0988,-0.0514 0.05171,-0.0255 0.141488,-0.0772 0,0 -1.091326,0.88076 -1.091326,0.88076 z"
       inkscape:connector-curvature="0" />
    <path
       style="opacity:1;vector-effect:none;fill:#7a7a7a;fill-opacity:0.31336407;stroke:none;stroke-width:0.44979167;stroke-linecap:round;stroke-linejoin:round;stroke-miterlimit:4;stroke-dasharray:none;stroke-dashoffset:0;stroke-opacity:1;paint-order:normal"
       id="path2526"
       d="m 31.178117,294.90155 c -0.08763,-0.0225 -0.04066,-0.009 -0.140496,-0.0417 0,0 1.13701,-0.78628 1.13701,-0.78628 v 0 c 0.102473,0.0149 0.05276,0.0103 0.149042,0.0149 0,0 -1.145556,0.81308 -1.145556,0.81308 z"
       inkscape:connector-curvature="0" />
    <path
       style="opacity:1;vector-effect:none;fill:#7a7a7a;fill-opacity:0.31336407;stroke:none;stroke-width:0.44979167;stroke-linecap:round;stroke-linejoin:round;stroke-miterlimit:4;stroke-dasharray:none;stroke-dashoffset:0;stroke-opacity:1;paint-order:normal"
       id="path2528"
       d="m 29.022018,294.58192 c -0.206746,-0.12096 -0.42209,-0.22331 -0.642987,-0.3154 -0.237831,-0.0848 -0.116586,-0.0462 -0.363869,-0.11553 0,0 1.094251,-0.74915 1.094251,-0.74915 v 0 c 0.256505,0.0755 0.130216,0.035 0.378954,0.12103 0.158829,0.06 0.171153,0.0629 0.321794,0.12639 0.124497,0.0525 0.246803,0.11335 0.378044,0.1477 0,0 -1.166187,0.78496 -1.166187,0.78496 z"
       inkscape:connector-curvature="0" />
    <path
       style="opacity:1;vector-effect:none;fill:#7a7a7a;fill-opacity:0.31336407;stroke:none;stroke-width:0.44979167;stroke-linecap:round;stroke-linejoin:round;stroke-miterlimit:4;stroke-dasharray:none;stroke-dashoffset:0;stroke-opacity:1;paint-order:normal"
       id="path2530"
       d="m 23.977932,294.63255 c -0.01789,0.007 -0.03579,0.0136 -0.05368,0.0204 0,0 1.100545,-0.84987 1.100545,-0.84987 v 0 c 0.02379,-0.006 0.04757,-0.0115 0.07136,-0.0172 0,0 -1.118224,0.84666 -1.118224,0.84666 z"
       inkscape:connector-curvature="0" />
    <path
       style="opacity:1;vector-effect:none;fill:#7a7a7a;fill-opacity:0.31336407;stroke:none;stroke-width:0.44979167;stroke-linecap:round;stroke-linejoin:round;stroke-miterlimit:4;stroke-dasharray:none;stroke-dashoffset:0;stroke-opacity:1;paint-order:normal"
       id="path2532"
       d="m 10.678637,292.34404 c -5.56e-4,0.101 0.03634,0.19877 0.134104,0.24333 0.02352,0.0107 0.04989,0.0135 0.07483,0.0203 0,0 -0.532283,0.35957 -0.532283,0.35957 v 0 c -0.0283,-0.0122 -0.05857,-0.0206 -0.0849,-0.0366 -0.104869,-0.0638 -0.158234,-0.1723 -0.172384,-0.29074 0,0 0.580626,-0.29584 0.580626,-0.29584 z"
       inkscape:connector-curvature="0" />
    <path
       style="opacity:1;vector-effect:none;fill:#7a7a7a;fill-opacity:0.31336407;stroke:none;stroke-width:0.44979167;stroke-linecap:round;stroke-linejoin:round;stroke-miterlimit:4;stroke-dasharray:none;stroke-dashoffset:0;stroke-opacity:1;paint-order:normal"
       id="path2534"
       d="m 5.5618815,294.62801 c -0.00176,-0.0272 -0.00352,-0.0543 -0.00527,-0.0815 0,0 0.5716944,-0.2981 0.5716944,-0.2981 v 0 c 0.00289,0.0221 0.00577,0.0441 0.00866,0.0662 0,0 -0.5750806,0.31347 -0.5750806,0.31347 z"
       inkscape:connector-curvature="0" />
    <path
       style="opacity:1;vector-effect:none;fill:#7a7a7a;fill-opacity:0.31336407;stroke:none;stroke-width:0.44979167;stroke-linecap:round;stroke-linejoin:round;stroke-miterlimit:4;stroke-dasharray:none;stroke-dashoffset:0;stroke-opacity:1;paint-order:normal"
       id="path2536"
       d="m 5.7116132,293.59767 c -0.1349228,0.20337 -0.090819,0.14497 -0.5954072,0.34926 -0.0259,0.0105 -0.018149,-0.0529 -0.027223,-0.0793 0,0 0.5820451,-0.29847 0.5820451,-0.29847 v 0 c -0.2251876,-0.12435 -0.7562017,0.46953 -0.5595175,0.29106 0,0 0.6001028,-0.26257 0.6001028,-0.26257 z"
       inkscape:connector-curvature="0" />
    <path
       style="opacity:1;vector-effect:none;fill:#7a7a7a;fill-opacity:0.31336407;stroke:none;stroke-width:0.44979167;stroke-linecap:round;stroke-linejoin:round;stroke-miterlimit:4;stroke-dasharray:none;stroke-dashoffset:0;stroke-opacity:1;paint-order:normal"
       id="path2538"
       d="m 4.342184,290.67064 c -0.2433216,0.0845 0.1312741,-0.0433 0.5152812,-0.29918 0.013532,-0.009 -0.00777,-0.0316 -0.011651,-0.0474 0,0 -0.549465,0.35965 -0.549465,0.35965 v 0 c -0.016316,-0.0224 -0.071019,-0.0504 -0.048947,-0.0672 0.3721563,-0.28217 0.3749786,-0.27946 0.6143888,-0.34327 0,0 -0.5196068,0.39732 -0.5196068,0.39732 z"
       inkscape:connector-curvature="0" />
    <path
       style="opacity:1;vector-effect:none;fill:#7a7a7a;fill-opacity:0.31336407;stroke:none;stroke-width:0.44979167;stroke-linecap:round;stroke-linejoin:round;stroke-miterlimit:4;stroke-dasharray:none;stroke-dashoffset:0;stroke-opacity:1;paint-order:normal"
       id="path2540"
       d="m 33.696144,291.17672 c 0.157056,-0.0564 0.312785,-0.11611 0.468241,-0.17683 0,0 -0.489998,0.38488 -0.489998,0.38488 v 0 c -0.16429,0.0652 -0.329176,0.12888 -0.493085,0.195 0,0 0.514842,-0.40305 0.514842,-0.40305 z"
       inkscape:connector-curvature="0" />
    <path
       style="opacity:1;vector-effect:none;fill:#7a7a7a;fill-opacity:0.31336407;stroke:none;stroke-width:0.44979167;stroke-linecap:round;stroke-linejoin:round;stroke-miterlimit:4;stroke-dasharray:none;stroke-dashoffset:0;stroke-opacity:1;paint-order:normal"
       id="path2542"
       d="m 37.42633,290.27556 c 0.19142,-0.11106 0.376981,-0.14241 0.595055,-0.15318 0.277263,0.009 0.552659,-0.0144 0.825871,-0.0599 0.148825,-0.0149 0.307985,-0.0759 0.457451,-0.0295 0.07425,0.0231 0.08805,0.0479 0.143444,0.0996 0.200554,0.27316 0.456374,0.36094 0.756272,0.48921 0.05412,0.0244 0.108241,0.0489 0.162361,0.0733 0,0 -0.518186,0.34346 -0.518186,0.34346 v 0 c -0.05286,-0.0246 -0.105722,-0.0493 -0.158583,-0.0739 -0.300128,-0.12874 -0.575072,-0.2307 -0.787985,-0.49221 -0.01868,-0.0149 -0.03532,-0.0329 -0.05606,-0.0448 -0.141838,-0.0815 -0.354137,0.002 -0.503446,0.0136 -0.275286,0.0403 -0.551731,0.0562 -0.829964,0.0564 -0.04255,0.004 -0.08537,0.006 -0.127648,0.0122 -0.167082,0.0248 -0.32331,0.0903 -0.467228,0.17718 0,0 0.508649,-0.41152 0.508649,-0.41152 z"
       inkscape:connector-curvature="0" />
    <path
       style="opacity:1;vector-effect:none;fill:#7a7a7a;fill-opacity:0.31336407;stroke:none;stroke-width:0.44979167;stroke-linecap:round;stroke-linejoin:round;stroke-miterlimit:4;stroke-dasharray:none;stroke-dashoffset:0;stroke-opacity:1;paint-order:normal"
       id="path2544"
       d="m 40.767647,291.68149 c -0.09176,0.1418 -0.148879,0.30098 -0.149847,0.47122 -2.46e-4,0.0436 0.0054,0.087 0.0081,0.13046 0.0069,0.0434 0.01376,0.0868 0.02064,0.13022 0,0 -0.557615,0.29572 -0.557615,0.29572 v 0 c -0.0077,-0.045 -0.01543,-0.09 -0.02315,-0.13494 -0.0044,-0.0457 -0.01148,-0.0913 -0.01307,-0.13721 -0.006,-0.17214 0.03596,-0.33788 0.117356,-0.48909 0,0 0.597588,-0.26638 0.597588,-0.26638 z"
       inkscape:connector-curvature="0" />
    <path
       style="opacity:1;vector-effect:none;fill:#7a7a7a;fill-opacity:0.31336407;stroke:none;stroke-width:0.44979167;stroke-linecap:round;stroke-linejoin:round;stroke-miterlimit:4;stroke-dasharray:none;stroke-dashoffset:0;stroke-opacity:1;paint-order:normal"
       id="path2546"
       d="m 39.472567,293.8539 c -0.140946,0.0447 -0.277313,0.10291 -0.417391,0.15074 0,0 0.503296,-0.39225 0.503296,-0.39225 v 0 c 0.143737,-0.0517 0.285874,-0.10776 0.427722,-0.16441 0,0 -0.513627,0.40592 -0.513627,0.40592 z"
       inkscape:connector-curvature="0" />
    <path
       style="opacity:1;vector-effect:none;fill:#7a7a7a;fill-opacity:0.31336407;stroke:none;stroke-width:0.44979167;stroke-linecap:round;stroke-linejoin:round;stroke-miterlimit:4;stroke-dasharray:none;stroke-dashoffset:0;stroke-opacity:1;paint-order:normal"
       id="path2548"
       d="m 37.669558,294.56502 c -0.204083,0.011 -0.408421,0.008 -0.611219,-0.0177 0,0 0.521052,-0.36915 0.521052,-0.36915 v 0 c 0.204012,0.0231 0.410276,0.0245 0.614201,-0.002 0,0 -0.524034,0.38877 -0.524034,0.38877 z"
       inkscape:connector-curvature="0" />
    <path
       style="opacity:1;vector-effect:none;fill:#7a7a7a;fill-opacity:0.31336407;stroke:none;stroke-width:0.44979167;stroke-linecap:round;stroke-linejoin:round;stroke-miterlimit:4;stroke-dasharray:none;stroke-dashoffset:0;stroke-opacity:1;paint-order:normal"
       id="path2550"
       d="m 36.440323,294.39283 c -0.13675,-0.0115 -0.342535,0.009 -0.452163,-0.0904 -0.02117,-0.0191 -0.03182,-0.0473 -0.04773,-0.071 -2.65e-4,-0.0321 -0.0094,-0.0653 -0.0011,-0.0964 0.05012,-0.18745 0.305525,-0.34023 0.455273,-0.43834 0,0 0.578051,-0.22469 0.578051,-0.22469 v 0 c -0.159051,0.0978 -0.359521,0.2089 -0.456094,0.37716 -0.0098,0.0171 -0.01236,0.0375 -0.01855,0.0563 0.0092,0.0149 0.01402,0.0337 0.02761,0.0447 0.100658,0.082 0.318907,0.0572 0.441849,0.0596 0,0 -0.527196,0.38303 -0.527196,0.38303 z"
       inkscape:connector-curvature="0" />
    <path
       style="opacity:1;vector-effect:none;fill:#7a7a7a;fill-opacity:0.31336407;stroke:none;stroke-width:0.44979167;stroke-linecap:round;stroke-linejoin:round;stroke-miterlimit:4;stroke-dasharray:none;stroke-dashoffset:0;stroke-opacity:1;paint-order:normal"
       id="path2552"
       d="m 38.209597,293.40915 c 0.127153,0.0718 0.268779,0.10554 0.410591,0.13387 0,0 -0.523851,0.36422 -0.523851,0.36422 v 0 c -0.148426,-0.0328 -0.294659,-0.0737 -0.432655,-0.13889 0,0 0.545915,-0.3592 0.545915,-0.3592 z"
       inkscape:connector-curvature="0" />
    <path
       style="opacity:1;vector-effect:none;fill:#7a7a7a;fill-opacity:0.31336407;stroke:none;stroke-width:0.44979167;stroke-linecap:round;stroke-linejoin:round;stroke-miterlimit:4;stroke-dasharray:none;stroke-dashoffset:0;stroke-opacity:1;paint-order:normal"
       id="path2554"
       d="m 40.354285,294.00746 c 0.147021,0.13282 0.304964,0.1612 0.496533,0.18015 0.125466,0.004 0.250963,-0.002 0.375986,-0.0119 0.06856,-0.006 0.130887,-0.0154 0.198938,-0.005 0.06111,0.0493 0.02604,0.0579 0.106728,0.0515 0,0 -0.530379,0.37747 -0.530379,0.37747 v 0 c -0.0181,-0.004 -0.03698,-0.005 -0.05426,-0.0121 -0.01167,-0.005 -0.02146,-0.013 -0.03108,-0.021 -0.0062,-0.005 -0.0078,-0.0167 -0.01566,-0.0182 -0.0024,-4.7e-4 -0.0051,8e-5 -0.0076,1.1e-4 -0.185285,-0.011 -0.372128,0.0278 -0.557628,0.005 -0.0452,-0.006 -0.09078,-0.009 -0.135591,-0.017 -0.146354,-0.0267 -0.277294,-0.0894 -0.397578,-0.17533 0,0 0.55164,-0.35321 0.55164,-0.35321 z"
       inkscape:connector-curvature="0" />
    <path
       style="opacity:1;vector-effect:none;fill:#7a7a7a;fill-opacity:0.31336407;stroke:none;stroke-width:0.44979167;stroke-linecap:round;stroke-linejoin:round;stroke-miterlimit:4;stroke-dasharray:none;stroke-dashoffset:0;stroke-opacity:1;paint-order:normal"
       id="path2556"
       d="m 40.805654,292.15021 c -0.116705,-0.0435 -0.230849,-0.0906 -0.342069,-0.14672 0,0 0.532886,-0.35116 0.532886,-0.35116 v 0 c 0.114311,0.0546 0.231802,0.099 0.352791,0.13666 0,0 -0.543608,0.36122 -0.543608,0.36122 z"
       inkscape:connector-curvature="0" />
    <path
       style="opacity:1;vector-effect:none;fill:#7a7a7a;fill-opacity:0.31336407;stroke:none;stroke-width:0.44979167;stroke-linecap:round;stroke-linejoin:round;stroke-miterlimit:4;stroke-dasharray:none;stroke-dashoffset:0;stroke-opacity:1;paint-order:normal"
       id="path2558"
       d="m 39.042516,291.41851 c -0.16437,-0.073 -0.328121,-0.14742 -0.491027,-0.22367 0,0 0.519644,-0.34467 0.519644,-0.34467 v 0 c 0.168389,0.0743 0.337135,0.14881 0.511802,0.2074 0,0 -0.540419,0.36094 -0.540419,0.36094 z"
       inkscape:connector-curvature="0" />
    <path
       style="opacity:1;vector-effect:none;fill:#626262;fill-opacity:0.31336406;stroke:none;stroke-width:0.44979167;stroke-linecap:round;stroke-linejoin:round;stroke-miterlimit:4;stroke-dasharray:none;stroke-dashoffset:0;stroke-opacity:1;paint-order:normal"
       id="path2560"
       d="m 35.685183,290.82778 c -0.08714,0.003 -0.174066,0.01 -0.260818,0.0187 0,0 0.522711,-0.38608 0.522711,-0.38608 v 0 c 0.08753,-0.005 0.175149,-0.01 0.262141,-0.0213 0,0 -0.524034,0.38877 -0.524034,0.38877 z"
       inkscape:connector-curvature="0" />
    <path
       style="opacity:1;vector-effect:none;fill:#626262;fill-opacity:0.96774191;stroke:none;stroke-width:0.44979167;stroke-linecap:round;stroke-linejoin:round;stroke-miterlimit:4;stroke-dasharray:none;stroke-dashoffset:0;stroke-opacity:1;paint-order:normal"
       id="path2562"
       d="m 23.609794,290.46348 c -0.139739,-10e-4 -0.277697,0.0203 -0.414588,0.0457 0,0 0.508145,-0.3825 0.508145,-0.3825 v 0 c 0.142797,-0.0223 0.286104,-0.0386 0.430114,-0.051 0,0 -0.523671,0.38778 -0.523671,0.38778 z"
       inkscape:connector-curvature="0" />
    <path
       style="opacity:1;vector-effect:none;fill:#626262;fill-opacity:0.9677419;stroke:none;stroke-width:0.44979167;stroke-linecap:round;stroke-linejoin:round;stroke-miterlimit:4;stroke-dasharray:none;stroke-dashoffset:0;stroke-opacity:1;paint-order:normal"
       id="path2564"
       d="m 4.9290886,290.03737 c 0.00414,0.0154 0.00827,0.0308 0.012406,0.0462 0,0 -0.5701367,0.31327 -0.5701367,0.31327 v 0 c -0.00578,-0.0153 -0.011567,-0.0307 -0.01735,-0.046 0,0 0.5750806,-0.31347 0.5750807,-0.31347 z"
       inkscape:connector-curvature="0" />
    <path
       style="opacity:1;vector-effect:none;fill:#626262;fill-opacity:0.9677419;stroke:none;stroke-width:0.44979167;stroke-linecap:round;stroke-linejoin:round;stroke-miterlimit:4;stroke-dasharray:none;stroke-dashoffset:0;stroke-opacity:1;paint-order:normal"
       id="path2566"
       d="m 4.9929377,292.17164 c 0.00202,0.0222 0.00404,0.0445 0.00607,0.0667 0,0 -0.5716964,0.3015 -0.5716964,0.3015 v 0 c -0.00426,-0.0221 -0.00851,-0.0442 -0.012768,-0.0662 0,0 0.5783993,-0.30201 0.5783993,-0.30201 z"
       inkscape:connector-curvature="0" />
    <path
       style="opacity:1;vector-effect:none;fill:#626262;fill-opacity:0.9677419;stroke:none;stroke-width:0.44979167;stroke-linecap:round;stroke-linejoin:round;stroke-miterlimit:4;stroke-dasharray:none;stroke-dashoffset:0;stroke-opacity:1;paint-order:normal"
       id="path2568"
       d="m 5.9702026,293.37007 c 0.1427123,-0.019 0.282325,-0.0521 0.4221393,-0.0855 0,0 -0.4923121,0.37579 -0.4923121,0.37579 v 0 c -0.1492252,0.0362 -0.2984587,0.072 -0.449581,0.0996 0,0 0.5197538,-0.38988 0.5197538,-0.38988 z"
       inkscape:connector-curvature="0" />
    <path
       style="opacity:1;vector-effect:none;fill:#626262;fill-opacity:0.9677419;stroke:none;stroke-width:0.44979167;stroke-linecap:round;stroke-linejoin:round;stroke-miterlimit:4;stroke-dasharray:none;stroke-dashoffset:0;stroke-opacity:1;paint-order:normal"
       id="path2570"
       d="m 6.1446739,292.24325 c -0.060474,-0.10278 -0.02774,-0.0495 -0.098832,-0.15936 0,0 0.5504381,-0.32305 0.5504381,-0.32305 v 0 c 0.07589,0.10743 0.039496,0.0568 0.1089543,0.15222 0,0 -0.56056,0.33019 -0.5605604,0.33019 z"
       inkscape:connector-curvature="0" />
    <path
       style="opacity:1;vector-effect:none;fill:#626262;fill-opacity:0.9677419;stroke:none;stroke-width:0.44979167;stroke-linecap:round;stroke-linejoin:round;stroke-miterlimit:4;stroke-dasharray:none;stroke-dashoffset:0;stroke-opacity:1;paint-order:normal"
       id="path2572"
       d="m 8.2775209,291.33063 c 0.1561031,0.005 0.3122911,0.007 0.4684479,0.009 0,0 -0.5036116,0.36589 -0.5036116,0.36589 v 0 c -0.1642591,0.002 -0.3285439,0.004 -0.4927549,0.009 0,0 0.5279186,-0.38355 0.5279186,-0.38355 z"
       inkscape:connector-curvature="0" />
    <path
       style="opacity:1;vector-effect:none;fill:#626262;fill-opacity:0.9677419;stroke:none;stroke-width:0.44979167;stroke-linecap:round;stroke-linejoin:round;stroke-miterlimit:4;stroke-dasharray:none;stroke-dashoffset:0;stroke-opacity:1;paint-order:normal"
       id="path2574"
       d="m 11.514351,290.3614 c 0.05619,0.10682 0.128663,0.20067 0.207925,0.29099 0,0 -0.54401,0.32881 -0.54401,0.32881 v 0 c -0.08305,-0.0931 -0.160143,-0.18989 -0.230675,-0.29292 0,0 0.56676,-0.32688 0.56676,-0.32688 z"
       inkscape:connector-curvature="0" />
    <path
       style="opacity:1;vector-effect:none;fill:#626262;fill-opacity:0.9677419;stroke:none;stroke-width:0.44979167;stroke-linecap:round;stroke-linejoin:round;stroke-miterlimit:4;stroke-dasharray:none;stroke-dashoffset:0;stroke-opacity:1;paint-order:normal"
       id="path2576"
       d="m 10.780883,290.03123 c -0.06114,-0.0378 -0.129346,-0.0545 -0.198247,-0.0711 0,0 0.529389,-0.36416 0.529389,-0.36416 v 0 c 0.07435,0.0212 0.148395,0.0429 0.217417,0.0787 0,0 -0.548559,0.35659 -0.548559,0.35659 z"
       inkscape:connector-curvature="0" />
    <path
       style="opacity:1;vector-effect:none;fill:#626262;fill-opacity:0.9677419;stroke:none;stroke-width:0.44979167;stroke-linecap:round;stroke-linejoin:round;stroke-miterlimit:4;stroke-dasharray:none;stroke-dashoffset:0;stroke-opacity:1;paint-order:normal"
       id="path2578"
       d="m 9.1895383,290.17739 c -0.1252376,0.0313 -0.2458979,0.0693 -0.3630652,0.12358 0,0 0.5023929,-0.39691 0.5023929,-0.39691 v 0 c 0.1234366,-0.0481 0.2499821,-0.0855 0.3773591,-0.12176 0,0 -0.5166868,0.39509 -0.5166868,0.39509 z"
       inkscape:connector-curvature="0" />
    <path
       style="opacity:1;vector-effect:none;fill:#626262;fill-opacity:0.9677419;stroke:none;stroke-width:0.44979167;stroke-linecap:round;stroke-linejoin:round;stroke-miterlimit:4;stroke-dasharray:none;stroke-dashoffset:0;stroke-opacity:1;paint-order:normal"
       id="path2580"
       d="m 6.1055238,290.49285 c -0.026738,0.021 -0.093435,0.0474 -0.086642,0.0933 0.00275,0.0186 0.0171,0.0335 0.025651,0.0503 0,0 -0.558529,0.32141 -0.558529,0.32141 v 0 c -0.055295,-0.094 -0.096505,-0.15093 0.00952,-0.22638 0,0 0.6099983,-0.23868 0.6099983,-0.23868 z"
       inkscape:connector-curvature="0" />
    <path
       style="opacity:1;vector-effect:none;fill:#626262;fill-opacity:0.9677419;stroke:none;stroke-width:0.44979167;stroke-linecap:round;stroke-linejoin:round;stroke-miterlimit:4;stroke-dasharray:none;stroke-dashoffset:0;stroke-opacity:1;paint-order:normal"
       id="path2582"
       d="m 9.70353,293.28996 c 0.019394,0.0118 0.038788,0.0237 0.058182,0.0355 0,0 -0.5409197,0.35121 -0.5409197,0.35121 v 0 c -0.022918,-0.0126 -0.045836,-0.0253 -0.068753,-0.0379 0,0 0.5514906,-0.34882 0.5514906,-0.34882 z"
       inkscape:connector-curvature="0" />
    <path
       style="opacity:1;vector-effect:none;fill:#626262;fill-opacity:0.9677419;stroke:none;stroke-width:0.44979167;stroke-linecap:round;stroke-linejoin:round;stroke-miterlimit:4;stroke-dasharray:none;stroke-dashoffset:0;stroke-opacity:1;paint-order:normal"
       id="path2584"
       d="m 10.80852,292.7786 c -0.06706,-0.0334 -0.13742,-0.0379 -0.210612,-0.0402 0,0 0.523171,-0.37387 0.523171,-0.37387 v 0 c 0.07906,0.01 0.157119,0.021 0.231047,0.0529 0,0 -0.543606,0.36122 -0.543606,0.36122 z"
       inkscape:connector-curvature="0" />
    <path
       style="opacity:1;vector-effect:none;fill:#626262;fill-opacity:0.9677419;stroke:none;stroke-width:0.44979167;stroke-linecap:round;stroke-linejoin:round;stroke-miterlimit:4;stroke-dasharray:none;stroke-dashoffset:0;stroke-opacity:1;paint-order:normal"
       id="path2586"
       d="m 13.761868,292.54721 c 0.121848,-0.0124 0.244747,-0.0293 0.367533,-0.0192 0.03343,0.003 0.06639,0.01 0.09959,0.0145 0,0 -0.521804,0.36957 -0.521804,0.36957 v 0 c -0.157656,-0.015 -0.313847,-0.005 -0.469632,0.0249 0,0 0.524317,-0.38988 0.524317,-0.38988 z"
       inkscape:connector-curvature="0" />
    <path
       style="opacity:1;vector-effect:none;fill:#626262;fill-opacity:0.9677419;stroke:none;stroke-width:0.44979167;stroke-linecap:round;stroke-linejoin:round;stroke-miterlimit:4;stroke-dasharray:none;stroke-dashoffset:0;stroke-opacity:1;paint-order:normal"
       id="path2588"
       d="m 13.744328,293.95987 c -0.268198,0.15337 0.686153,-0.4148 0.458813,-0.26207 0,0 -0.600849,0.25919 -0.600849,0.25919 v 0 c 0.107786,-0.24036 0.432193,-0.27403 0.650683,-0.40864 0,0 -0.508647,0.41152 -0.508647,0.41152 z"
       inkscape:connector-curvature="0" />
    <path
       style="opacity:1;vector-effect:none;fill:#626262;fill-opacity:0.9677419;stroke:none;stroke-width:0.44979167;stroke-linecap:round;stroke-linejoin:round;stroke-miterlimit:4;stroke-dasharray:none;stroke-dashoffset:0;stroke-opacity:1;paint-order:normal"
       id="path2590"
       d="m 16.992054,292.92305 c 0.113749,-0.0443 0.229973,-0.0813 0.344334,-0.12394 0,0 -0.500536,0.39154 -0.500536,0.39154 v 0 c -0.119103,0.0439 -0.240516,0.0834 -0.354107,0.1406 0,0 0.510309,-0.4082 0.510309,-0.4082 z"
       inkscape:connector-curvature="0" />
    <path
       style="opacity:1;vector-effect:none;fill:#626262;fill-opacity:0.9677419;stroke:none;stroke-width:0.44979167;stroke-linecap:round;stroke-linejoin:round;stroke-miterlimit:4;stroke-dasharray:none;stroke-dashoffset:0;stroke-opacity:1;paint-order:normal"
       id="path2592"
       d="m 14.313802,290.31811 c 0.177235,0.0437 0.07662,0.0183 0.301566,0.0773 0,0 -0.506889,0.35147 -0.506889,0.35147 v 0 c -0.241151,-0.0454 -0.132627,-0.0283 -0.324967,-0.0549 0,0 0.53029,-0.3739 0.53029,-0.3739 z"
       inkscape:connector-curvature="0" />
    <path
       style="opacity:1;vector-effect:none;fill:#626262;fill-opacity:0.9677419;stroke:none;stroke-width:0.44979167;stroke-linecap:round;stroke-linejoin:round;stroke-miterlimit:4;stroke-dasharray:none;stroke-dashoffset:0;stroke-opacity:1;paint-order:normal"
       id="path2594"
       d="m 17.775344,291.35595 c -0.08252,0.0505 -0.142114,0.12317 -0.202459,0.19692 0,0 -0.584159,0.25163 -0.584159,0.25163 v 0 c 0.05242,-0.0759 0.103082,-0.15278 0.178546,-0.20837 0,0 0.608072,-0.24018 0.608072,-0.24018 z"
       inkscape:connector-curvature="0" />
    <path
       style="opacity:1;vector-effect:none;fill:#626262;fill-opacity:0.9677419;stroke:none;stroke-width:0.44979167;stroke-linecap:round;stroke-linejoin:round;stroke-miterlimit:4;stroke-dasharray:none;stroke-dashoffset:0;stroke-opacity:1;paint-order:normal"
       id="path2596"
       d="m 15.990746,291.09946 c 0.01077,-0.0196 0.01899,-0.0408 0.03231,-0.0588 0.148862,-0.20062 0.80017,-0.50391 0.803655,-0.5059 0,0 -0.494088,0.39702 -0.494088,0.39702 v 0 c 1.049483,-0.6207 0.373947,-0.24369 0.283085,-0.15254 -0.0129,0.0129 -0.0214,0.0296 -0.03211,0.0444 0,0 -0.59285,0.27575 -0.59285,0.27575 z"
       inkscape:connector-curvature="0" />
    <path
       style="opacity:1;vector-effect:none;fill:#626262;fill-opacity:0.9677419;stroke:none;stroke-width:0.44979167;stroke-linecap:round;stroke-linejoin:round;stroke-miterlimit:4;stroke-dasharray:none;stroke-dashoffset:0;stroke-opacity:1;paint-order:normal"
       id="path2598"
       d="m 19.855445,289.52751 c 0.06912,0.0833 0.03013,0.0394 0.118628,0.13008 0,0 -0.54336,0.33421 -0.54336,0.33421 v 0 c -0.09699,-0.0888 -0.05328,-0.0475 -0.13173,-0.12329 0,0 0.556462,-0.341 0.556462,-0.341 z"
       inkscape:connector-curvature="0" />
    <path
       style="opacity:1;vector-effect:none;fill:#626262;fill-opacity:0.9677419;stroke:none;stroke-width:0.44979167;stroke-linecap:round;stroke-linejoin:round;stroke-miterlimit:4;stroke-dasharray:none;stroke-dashoffset:0;stroke-opacity:1;paint-order:normal"
       id="path2600"
       d="m 21.274512,293.66683 c 0.01626,0.005 0.03251,0.0109 0.04876,0.0163 0,0 -0.536744,0.3653 -0.536744,0.3653 v 0 c -0.01814,-0.005 -0.03629,-0.011 -0.05443,-0.0165 0,0 0.542413,-0.3651 0.542414,-0.3651 z"
       inkscape:connector-curvature="0" />
    <path
       style="opacity:1;vector-effect:none;fill:#626262;fill-opacity:0.9677419;stroke:none;stroke-width:0.44979167;stroke-linecap:round;stroke-linejoin:round;stroke-miterlimit:4;stroke-dasharray:none;stroke-dashoffset:0;stroke-opacity:1;paint-order:normal"
       id="path2602"
       d="m 21.187527,294.3766 c 0.06526,-0.0263 0.03087,-0.0119 0.10302,-0.0435 0,0 -0.506901,0.40234 -0.506901,0.40234 v 0 c -0.0744,0.0349 -0.03959,0.0172 -0.104766,0.0526 0,0 0.508647,-0.41152 0.508647,-0.41152 z"
       inkscape:connector-curvature="0" />
    <path
       style="opacity:1;vector-effect:none;fill:#626262;fill-opacity:0.9677419;stroke:none;stroke-width:0.44979167;stroke-linecap:round;stroke-linejoin:round;stroke-miterlimit:4;stroke-dasharray:none;stroke-dashoffset:0;stroke-opacity:1;paint-order:normal"
       id="path2604"
       d="m 23.677348,293.85051 c 0.07837,-0.0387 0.156619,-0.0777 0.234833,-0.11674 0,0 -0.496964,0.39773 -0.496964,0.39773 v 0 c -0.08285,0.042 -0.165355,0.0848 -0.249396,0.12438 0,0 0.511527,-0.40537 0.511527,-0.40537 z"
       inkscape:connector-curvature="0" />
    <path
       style="opacity:1;vector-effect:none;fill:#626262;fill-opacity:0.9677419;stroke:none;stroke-width:0.44979167;stroke-linecap:round;stroke-linejoin:round;stroke-miterlimit:4;stroke-dasharray:none;stroke-dashoffset:0;stroke-opacity:1;paint-order:normal"
       id="path2606"
       d="m 24.275229,293.08509 c 0.102972,-0.0539 0.04746,-0.0237 0.165972,-0.0917 0,0 -0.494457,0.39981 -0.494457,0.39981 v 0 c -0.127693,0.0718 -0.06749,0.0391 -0.180267,0.0988 0,0 0.508752,-0.40695 0.508752,-0.40695 z"
       inkscape:connector-curvature="0" />
    <path
       style="opacity:1;vector-effect:none;fill:#626262;fill-opacity:0.9677419;stroke:none;stroke-width:0.44979167;stroke-linecap:round;stroke-linejoin:round;stroke-miterlimit:4;stroke-dasharray:none;stroke-dashoffset:0;stroke-opacity:1;paint-order:normal"
       id="path2608"
       d="m 20.471438,292.09643 c -0.02495,0.009 -0.04991,0.0183 -0.07486,0.0274 0,0 0.506551,-0.39503 0.506551,-0.39503 v 0 c 0.02828,-0.01 0.05656,-0.0194 0.08484,-0.0291 0,0 -0.516529,0.39671 -0.516529,0.39671 z"
       inkscape:connector-curvature="0" />
    <path
       style="opacity:1;vector-effect:none;fill:#626262;fill-opacity:0.9677419;stroke:none;stroke-width:0.44979167;stroke-linecap:round;stroke-linejoin:round;stroke-miterlimit:4;stroke-dasharray:none;stroke-dashoffset:0;stroke-opacity:1;paint-order:normal"
       id="path2610"
       d="m 17.73571,293.6999 c 0.01998,10e-4 0.03996,0.003 0.05994,0.004 0,0 -0.527448,0.37324 -0.527448,0.37324 v 0 c -0.02497,-0.004 -0.04994,-0.008 -0.07491,-0.0125 0,0 0.542413,-0.3651 0.542413,-0.3651 z"
       inkscape:connector-curvature="0" />
    <path
       style="opacity:1;vector-effect:none;fill:#626262;fill-opacity:0.9677419;stroke:none;stroke-width:0.44979167;stroke-linecap:round;stroke-linejoin:round;stroke-miterlimit:4;stroke-dasharray:none;stroke-dashoffset:0;stroke-opacity:1;paint-order:normal"
       id="path2612"
       d="m 17.824135,293.71735 c -0.05722,-0.18827 -0.08747,-0.38809 -0.06442,-0.58498 0.007,-0.0601 0.02383,-0.11858 0.03574,-0.17786 0,0 0.5598,-0.27011 0.5598,-0.27011 v 0 c -0.01348,0.056 -0.03229,0.11094 -0.04043,0.16795 -0.02643,0.18514 0.004,0.37618 0.07626,0.54735 0,0 -0.566941,0.31765 -0.566941,0.31765 z"
       inkscape:connector-curvature="0" />
    <path
       style="opacity:1;vector-effect:none;fill:#626262;fill-opacity:0.9677419;stroke:none;stroke-width:0.44979167;stroke-linecap:round;stroke-linejoin:round;stroke-miterlimit:4;stroke-dasharray:none;stroke-dashoffset:0;stroke-opacity:1;paint-order:normal"
       id="path2614"
       d="m 21.104692,291.81051 c 0.07985,0.11292 0.201401,0.18575 0.332593,0.22604 0.06038,0.0185 0.123297,0.0275 0.184945,0.0412 0,0 -0.507303,0.3516 -0.507303,0.3516 v 0 c -0.06594,-0.0151 -0.133216,-0.0253 -0.19783,-0.0454 -0.146019,-0.0453 -0.277692,-0.12664 -0.377556,-0.24232 0,0 0.565151,-0.33116 0.565151,-0.33116 z"
       inkscape:connector-curvature="0" />
    <path
       style="opacity:1;vector-effect:none;fill:#626262;fill-opacity:0.9677419;stroke:none;stroke-width:0.44979167;stroke-linecap:round;stroke-linejoin:round;stroke-miterlimit:4;stroke-dasharray:none;stroke-dashoffset:0;stroke-opacity:1;paint-order:normal"
       id="path2616"
       d="m 24.608351,292.48766 c 0.09544,-0.005 0.04218,-3.2e-4 0.159513,-0.0161 0,0 -0.511574,0.38207 -0.511574,0.38207 v 0 c -0.129276,0.0169 -0.07011,0.0114 -0.1773,0.0186 0,0 0.529361,-0.3846 0.529361,-0.3846 z"
       inkscape:connector-curvature="0" />
    <path
       style="opacity:1;vector-effect:none;fill:#626262;fill-opacity:0.9677419;stroke:none;stroke-width:0.44979167;stroke-linecap:round;stroke-linejoin:round;stroke-miterlimit:4;stroke-dasharray:none;stroke-dashoffset:0;stroke-opacity:1;paint-order:normal"
       id="path2618"
       d="m 29.085004,293.41682 c -0.0144,0.001 -0.0288,0.002 -0.0432,0.003 0,0 0.520995,-0.39171 0.520995,-0.39171 v 0 c 0.01373,-0.004 0.02745,-0.007 0.04117,-0.0109 0,0 -0.518962,0.39957 -0.518962,0.39957 z"
       inkscape:connector-curvature="0" />
    <path
       style="opacity:1;vector-effect:none;fill:#626262;fill-opacity:0.9677419;stroke:none;stroke-width:0.44979167;stroke-linecap:round;stroke-linejoin:round;stroke-miterlimit:4;stroke-dasharray:none;stroke-dashoffset:0;stroke-opacity:1;paint-order:normal"
       id="path2620"
       d="m 28.694326,293.56863 c -0.242952,0.16159 -0.502936,0.29849 -0.755342,0.44271 -0.01591,0.009 -0.111028,0.0648 -0.140424,0.0642 -0.01708,-3.4e-4 -0.03011,-0.0162 -0.04516,-0.0242 -0.02684,-0.12445 -0.02591,-0.0592 0.0056,-0.19577 0,0 0.575621,-0.27684 0.575621,-0.27684 v 0 c -0.02302,0.0971 0.0036,0.0714 -0.04078,0.10336 0.02199,-0.011 0.04494,-0.0199 0.06681,-0.0311 0.02588,-0.0132 0.05096,-0.028 0.07644,-0.042 -0.155753,0.0903 -0.311505,0.18066 -0.467257,0.27099 -0.02301,0.0134 0.04685,-0.0254 0.06932,-0.0396 0.01575,-0.01 0.03011,-0.022 0.04516,-0.033 0,0 0.609998,-0.23868 0.609998,-0.23868 z"
       inkscape:connector-curvature="0" />
    <path
       style="opacity:1;vector-effect:none;fill:#626262;fill-opacity:0.9677419;stroke:none;stroke-width:0.44979167;stroke-linecap:round;stroke-linejoin:round;stroke-miterlimit:4;stroke-dasharray:none;stroke-dashoffset:0;stroke-opacity:1;paint-order:normal"
       id="path2622"
       d="m 27.581883,292.76587 c -0.0835,-0.0204 -0.176221,-0.024 -0.248011,-0.0776 -0.0185,-0.0138 -0.03237,-0.0329 -0.04855,-0.0494 0,0 0.551971,-0.33969 0.551971,-0.33969 v 0 c 0.01225,0.0109 0.0228,0.0241 0.03674,0.0327 0.07085,0.0439 0.161187,0.0436 0.240664,0.0558 0,0 -0.532817,0.37818 -0.532817,0.37818 z"
       inkscape:connector-curvature="0" />
    <path
       style="opacity:1;vector-effect:none;fill:#626262;fill-opacity:0.9677419;stroke:none;stroke-width:0.44979167;stroke-linecap:round;stroke-linejoin:round;stroke-miterlimit:4;stroke-dasharray:none;stroke-dashoffset:0;stroke-opacity:1;paint-order:normal"
       id="path2624"
       d="m 25.233706,290.48384 c -0.02059,-0.002 -0.04118,-0.004 -0.06177,-0.007 0,0 0.526413,-0.37576 0.526413,-0.37576 v 0 c 0.02273,10e-4 0.04545,0.003 0.06818,0.004 0,0 -0.532817,0.37818 -0.532817,0.37818 z"
       inkscape:connector-curvature="0" />
    <path
       style="opacity:1;vector-effect:none;fill:#626262;fill-opacity:0.9677419;stroke:none;stroke-width:0.44979167;stroke-linecap:round;stroke-linejoin:round;stroke-miterlimit:4;stroke-dasharray:none;stroke-dashoffset:0;stroke-opacity:1;paint-order:normal"
       id="path2626"
       d="m 25.666111,292.2785 c -0.01129,-0.0116 -0.02258,-0.0232 -0.03387,-0.0348 0,0 0.553838,-0.34307 0.553838,-0.34307 v 0 c 0.01056,0.008 0.02111,0.0165 0.03167,0.0247 0,0 -0.55164,0.35321 -0.55164,0.35321 z"
       inkscape:connector-curvature="0" />
    <path
       style="opacity:1;vector-effect:none;fill:#626262;fill-opacity:0.9677419;stroke:none;stroke-width:0.44979167;stroke-linecap:round;stroke-linejoin:round;stroke-miterlimit:4;stroke-dasharray:none;stroke-dashoffset:0;stroke-opacity:1;paint-order:normal"
       id="path2628"
       d="m 27.186939,291.06368 c -0.01239,-0.006 -0.02477,-0.0114 -0.03715,-0.0171 0,0 0.542631,-0.36162 0.542631,-0.36162 v 0 c 0.0131,0.005 0.0262,0.0104 0.0393,0.0157 0,0 -0.54478,0.36305 -0.54478,0.36305 z"
       inkscape:connector-curvature="0" />
    <path
       style="opacity:1;vector-effect:none;fill:#626262;fill-opacity:0.9677419;stroke:none;stroke-width:0.44979167;stroke-linecap:round;stroke-linejoin:round;stroke-miterlimit:4;stroke-dasharray:none;stroke-dashoffset:0;stroke-opacity:1;paint-order:normal"
       id="path2630"
       d="m 30.203316,290.16931 c 0.07618,0.0307 0.03227,0.0146 0.132699,0.0456 0,0 -0.528939,0.36149 -0.528939,0.36149 v 0 c -0.113753,-0.0324 -0.06337,-0.0145 -0.152318,-0.0505 0,0 0.548558,-0.35659 0.548558,-0.35659 z"
       inkscape:connector-curvature="0" />
    <path
       style="opacity:1;vector-effect:none;fill:#626262;fill-opacity:0.9677419;stroke:none;stroke-width:0.44979167;stroke-linecap:round;stroke-linejoin:round;stroke-miterlimit:4;stroke-dasharray:none;stroke-dashoffset:0;stroke-opacity:1;paint-order:normal"
       id="path2632"
       d="m 32.549866,290.84853 c 0.184171,0.17994 0.450799,0.2577 0.698796,0.30029 0.07742,0.0133 0.156014,0.0186 0.234021,0.0278 0,0 -0.496117,0.35104 -0.496117,0.35104 v 0 c -0.07964,-0.0106 -0.159843,-0.0175 -0.238916,-0.0318 -0.268841,-0.0483 -0.546463,-0.13246 -0.758913,-0.3105 0,0 0.561129,-0.33689 0.561129,-0.33689 z"
       inkscape:connector-curvature="0" />
    <path
       style="opacity:1;vector-effect:none;fill:#626262;fill-opacity:0.9677419;stroke:none;stroke-width:0.44979167;stroke-linecap:round;stroke-linejoin:round;stroke-miterlimit:4;stroke-dasharray:none;stroke-dashoffset:0;stroke-opacity:1;paint-order:normal"
       id="path2634"
       d="m 33.832706,291.08956 c -0.09509,-0.0544 -0.200345,-0.084 -0.305226,-0.11253 0,0 0.527338,-0.36141 0.527338,-0.36141 v 0 c 0.111123,0.0324 0.222176,0.0662 0.326446,0.11736 0,0 -0.548558,0.35658 -0.548558,0.35658 z"
       inkscape:connector-curvature="0" />
    <path
       style="opacity:1;vector-effect:none;fill:#626262;fill-opacity:0.9677419;stroke:none;stroke-width:0.44979167;stroke-linecap:round;stroke-linejoin:round;stroke-miterlimit:4;stroke-dasharray:none;stroke-dashoffset:0;stroke-opacity:1;paint-order:normal"
       id="path2636"
       d="m 34.148108,290.67084 c 0.01371,-0.0152 0.02742,-0.0305 0.04113,-0.0457 0,0 0.601091,-0.24459 0.601091,-0.24459 v 0 c -0.01405,0.009 -0.02808,0.0185 -0.04212,0.0277 0,0 -0.600101,0.26257 -0.600101,0.26257 z"
       inkscape:connector-curvature="0" />
    <path
       style="opacity:1;vector-effect:none;fill:#626262;fill-opacity:0.9677419;stroke:none;stroke-width:0.44979167;stroke-linecap:round;stroke-linejoin:round;stroke-miterlimit:4;stroke-dasharray:none;stroke-dashoffset:0;stroke-opacity:1;paint-order:normal"
       id="path2638"
       d="m 37.412817,289.90193 c 0.02635,-5.8e-4 0.05272,-10e-4 0.07907,-0.002 0,0 -0.517578,0.38131 -0.517578,0.38131 v 0 c -0.02851,0.003 -0.05702,0.006 -0.08553,0.009 0,0 0.524033,-0.38877 0.524033,-0.38877 z"
       inkscape:connector-curvature="0" />
    <path
       style="opacity:1;vector-effect:none;fill:#626262;fill-opacity:0.9677419;stroke:none;stroke-width:0.44979167;stroke-linecap:round;stroke-linejoin:round;stroke-miterlimit:4;stroke-dasharray:none;stroke-dashoffset:0;stroke-opacity:1;paint-order:normal"
       id="path2640"
       d="m 40.086474,289.94104 c 0.07829,0.002 0.03558,0.001 0.12814,0.003 0,0 -0.521149,0.37864 -0.521149,0.37864 v 0 c -0.09786,0.002 -0.05242,6.8e-4 -0.136351,0.003 0,0 0.52936,-0.3846 0.52936,-0.3846 z"
       inkscape:connector-curvature="0" />
    <path
       style="opacity:1;vector-effect:none;fill:#626262;fill-opacity:0.9677419;stroke:none;stroke-width:0.44979167;stroke-linecap:round;stroke-linejoin:round;stroke-miterlimit:4;stroke-dasharray:none;stroke-dashoffset:0;stroke-opacity:1;paint-order:normal"
       id="path2642"
       d="m 40.994511,291.05722 c -0.193667,0.19431 -0.362876,0.25123 -0.675648,0.40336 -0.02043,0.01 -0.04498,-0.006 -0.06748,-0.01 0,0 0.523896,-0.38047 0.523896,-0.38047 v 0 c 0.251632,-0.0419 0.08043,-0.0204 -0.454967,0.29502 -0.01333,0.008 0.02671,-0.0159 0.03864,-0.0258 0.01156,-0.01 0.02096,-0.0215 0.03144,-0.0322 0,0 0.604118,-0.25024 0.604118,-0.25024 z"
       inkscape:connector-curvature="0" />
    <path
       style="opacity:1;vector-effect:none;fill:#626262;fill-opacity:0.9677419;stroke:none;stroke-width:0.44979167;stroke-linecap:round;stroke-linejoin:round;stroke-miterlimit:4;stroke-dasharray:none;stroke-dashoffset:0;stroke-opacity:1;paint-order:normal"
       id="path2644"
       d="m 38.09907,291.40988 c -0.112334,-0.0164 -0.202663,-0.0689 -0.287716,-0.14104 0,0 0.547558,-0.34352 0.547558,-0.34352 v 0 c 0.08147,0.0625 0.168597,0.10182 0.272976,0.10638 0,0 -0.532818,0.37818 -0.532818,0.37818 z"
       inkscape:connector-curvature="0" />
    <path
       style="opacity:1;vector-effect:none;fill:#626262;fill-opacity:0.9677419;stroke:none;stroke-width:0.44979167;stroke-linecap:round;stroke-linejoin:round;stroke-miterlimit:4;stroke-dasharray:none;stroke-dashoffset:0;stroke-opacity:1;paint-order:normal"
       id="path2646"
       d="m 36.226857,291.40507 c -0.01595,0.008 -0.03194,0.0165 -0.04791,0.0247 0.163645,-0.093 0.324729,-0.19069 0.490935,-0.27904 0.02463,-0.0131 -0.04564,0.0326 -0.06504,0.0526 -0.03571,0.0369 -0.06701,0.0833 -0.0697,0.13693 -0.0013,0.0251 0.0091,0.0493 0.01365,0.074 0.07933,0.10018 0.03023,0.0541 0.15326,0.13163 0,0 -0.532842,0.34178 -0.532842,0.34178 v 0 c -0.145497,-0.0985 -0.08516,-0.0406 -0.185163,-0.169 -0.0089,-0.0326 -0.0241,-0.0641 -0.02685,-0.0978 -0.0064,-0.0784 0.04284,-0.19417 0.111639,-0.2371 0.488889,-0.30508 0.411387,-0.26909 0.672856,-0.38182 0,0 -0.514842,0.40305 -0.514842,0.40305 z"
       inkscape:connector-curvature="0" />
    <path
       style="opacity:1;vector-effect:none;fill:#626262;fill-opacity:0.9677419;stroke:none;stroke-width:0.44979167;stroke-linecap:round;stroke-linejoin:round;stroke-miterlimit:4;stroke-dasharray:none;stroke-dashoffset:0;stroke-opacity:1;paint-order:normal"
       id="path2648"
       d="m 38.080107,292.34981 c 0.02016,0.007 0.04034,0.0141 0.0605,0.0212 0,0 -0.534673,0.36256 -0.534673,0.36256 v 0 c -0.02315,-0.007 -0.04629,-0.015 -0.06944,-0.0225 0,0 0.543608,-0.36122 0.543608,-0.36122 z"
       inkscape:connector-curvature="0" />
    <path
       style="opacity:1;vector-effect:none;fill:#626262;fill-opacity:0.9677419;stroke:none;stroke-width:0.44979167;stroke-linecap:round;stroke-linejoin:round;stroke-miterlimit:4;stroke-dasharray:none;stroke-dashoffset:0;stroke-opacity:1;paint-order:normal"
       id="path2650"
       d="m 39.823962,292.96806 c 0.05818,0.0791 0.15162,0.0725 0.240634,0.0779 0,0 -0.518435,0.36988 -0.518435,0.36988 v 0 c -0.117515,-0.0128 -0.208836,-0.0193 -0.287348,-0.11664 0,0 0.565149,-0.33116 0.565149,-0.33116 z"
       inkscape:connector-curvature="0" />
    <path
       style="opacity:1;vector-effect:none;fill:#626262;fill-opacity:0.9677419;stroke:none;stroke-width:0.44979167;stroke-linecap:round;stroke-linejoin:round;stroke-miterlimit:4;stroke-dasharray:none;stroke-dashoffset:0;stroke-opacity:1;paint-order:normal"
       id="path2652"
       d="m 41.492406,293.13982 c -0.07566,0.10123 -0.13772,0.1974 -0.128682,0.32771 0,0 -0.575027,0.30084 -0.575027,0.30084 v 0 c -0.0029,-0.0205 -0.0078,-0.0408 -0.0085,-0.0614 -0.0041,-0.11228 0.05536,-0.21474 0.112442,-0.30696 0,0 0.599811,-0.26014 0.599811,-0.26014 z"
       inkscape:connector-curvature="0" />
    <path
       style="opacity:1;vector-effect:none;fill:#626262;fill-opacity:0.9677419;stroke:none;stroke-width:0.44979167;stroke-linecap:round;stroke-linejoin:round;stroke-miterlimit:4;stroke-dasharray:none;stroke-dashoffset:0;stroke-opacity:1;paint-order:normal"
       id="path2654"
       d="m 38.884382,294.54546 c -0.114967,-0.0337 -0.05153,-0.0151 -0.190328,-0.0556 0,0 0.522507,-0.35983 0.522507,-0.35983 v 0 c 0.146529,0.0331 0.07919,0.0197 0.201689,0.042 0,0 -0.533868,0.37339 -0.533868,0.37339 z"
       inkscape:connector-curvature="0" />
    <path
       style="opacity:1;vector-effect:none;fill:#626262;fill-opacity:0.9677419;stroke:none;stroke-width:0.44979167;stroke-linecap:round;stroke-linejoin:round;stroke-miterlimit:4;stroke-dasharray:none;stroke-dashoffset:0;stroke-opacity:1;paint-order:normal"
       id="path2656"
       d="m 35.773702,294.18797 c -0.09656,-0.0216 -0.19481,-0.0436 -0.286083,-0.083 -0.08469,-0.0366 -0.142809,-0.0763 -0.221536,-0.12454 0,0 0.530567,-0.34383 0.530567,-0.34383 v 0 c 0.158334,0.0898 0.321151,0.16551 0.506661,0.17326 0,0 -0.529609,0.3781 -0.529609,0.3781 z"
       inkscape:connector-curvature="0" />
    <path
       style="opacity:1;vector-effect:none;fill:#626262;fill-opacity:0.9677419;stroke:none;stroke-width:0.44979167;stroke-linecap:round;stroke-linejoin:round;stroke-miterlimit:4;stroke-dasharray:none;stroke-dashoffset:0;stroke-opacity:1;paint-order:normal"
       id="path2658"
       d="m 33.768608,293.63267 c -0.101717,0.004 -0.192252,-0.007 -0.289684,-0.036 0,0 0.530698,-0.36554 0.530698,-0.36554 v 0 c 0.09525,0.0206 0.190267,0.0245 0.287626,0.0175 0,0 -0.52864,0.38408 -0.52864,0.38408 z"
       inkscape:connector-curvature="0" />
    <path
       style="opacity:1;vector-effect:none;fill:#626262;fill-opacity:0.9677419;stroke:none;stroke-width:0.44979167;stroke-linecap:round;stroke-linejoin:round;stroke-miterlimit:4;stroke-dasharray:none;stroke-dashoffset:0;stroke-opacity:1;paint-order:normal"
       id="path2660"
       d="m 32.306208,293.06991 c -0.02432,-7.1e-4 -0.04863,-10e-4 -0.07294,-0.002 0,0 0.521293,-0.37875 0.521293,-0.37875 v 0 c 0.02627,-7.1e-4 0.05256,-0.001 0.07885,-0.002 0,0 -0.527196,0.38303 -0.527196,0.38303 z"
       inkscape:connector-curvature="0" />
    <path
       style="opacity:1;vector-effect:none;fill:#626262;fill-opacity:0.9677419;stroke:none;stroke-width:0.44979167;stroke-linecap:round;stroke-linejoin:round;stroke-miterlimit:4;stroke-dasharray:none;stroke-dashoffset:0;stroke-opacity:1;paint-order:normal"
       id="path2662"
       d="m 31.214506,293.09632 c -0.02276,0.0848 0.0062,0.11686 0.05245,0.18625 0,0 -0.550921,0.32415 -0.550921,0.32415 v 0 c -0.05672,-0.0793 -0.09785,-0.12812 -0.09315,-0.22941 0,0 0.591627,-0.28099 0.591627,-0.28099 z"
       inkscape:connector-curvature="0" />
    <path
       style="opacity:1;vector-effect:none;fill:#626262;fill-opacity:0.9677419;stroke:none;stroke-width:0.44979167;stroke-linecap:round;stroke-linejoin:round;stroke-miterlimit:4;stroke-dasharray:none;stroke-dashoffset:0;stroke-opacity:1;paint-order:normal"
       id="path2664"
       d="m 31.430829,293.99679 c 0.0979,0.029 0.199292,0.0356 0.300376,0.0439 0,0 -0.513532,0.3668 -0.513532,0.3668 v 0 c -0.109805,-0.009 -0.220168,-0.0157 -0.327208,-0.044 0,0 0.540364,-0.36663 0.540364,-0.36663 z"
       inkscape:connector-curvature="0" />
    <path
       style="opacity:1;vector-effect:none;fill:#626262;fill-opacity:0.9677419;stroke:none;stroke-width:0.44979167;stroke-linecap:round;stroke-linejoin:round;stroke-miterlimit:4;stroke-dasharray:none;stroke-dashoffset:0;stroke-opacity:1;paint-order:normal"
       id="path2666"
       d="m 29.660081,291.9187 c -0.113316,-0.0466 -0.05021,-0.0204 -0.189193,-0.0788 0,0 0.525471,-0.35313 0.525471,-0.35313 v 0 c 0.149579,0.0522 0.0804,0.0288 0.20733,0.0707 0,0 -0.543608,0.36122 -0.543608,0.36122 z"
       inkscape:connector-curvature="0" />
    <path
       style="opacity:1;vector-effect:none;fill:#626262;fill-opacity:0.9677419;stroke:none;stroke-width:0.44979167;stroke-linecap:round;stroke-linejoin:round;stroke-miterlimit:4;stroke-dasharray:none;stroke-dashoffset:0;stroke-opacity:1;paint-order:normal"
       id="path2668"
       d="m 28.074204,291.23083 c -0.01737,-0.008 -0.03473,-0.0152 -0.0521,-0.0227 0,0 0.538355,-0.36182 0.538355,-0.36182 v 0 c 0.01804,0.006 0.03607,0.012 0.05411,0.0179 0,0 -0.540363,0.36663 -0.540363,0.36663 z"
       inkscape:connector-curvature="0" />
    <path
       style="opacity:1;vector-effect:none;fill:#626262;fill-opacity:0.9677419;stroke:none;stroke-width:0.44979167;stroke-linecap:round;stroke-linejoin:round;stroke-miterlimit:4;stroke-dasharray:none;stroke-dashoffset:0;stroke-opacity:1;paint-order:normal"
       id="path2670"
       d="m 28.146211,290.35846 c -0.137976,-10e-4 -0.274224,-0.0188 -0.404794,-0.0632 0,0 0.532004,-0.36219 0.532004,-0.36219 v 0 c 0.130654,0.0378 0.265512,0.0498 0.40143,0.0413 0,0 -0.52864,0.38408 -0.52864,0.38408 z"
       inkscape:connector-curvature="0" />
    <path
       style="opacity:1;vector-effect:none;fill:#626262;fill-opacity:0.9677419;stroke:none;stroke-width:0.44979167;stroke-linecap:round;stroke-linejoin:round;stroke-miterlimit:4;stroke-dasharray:none;stroke-dashoffset:0;stroke-opacity:1;paint-order:normal"
       id="path2672"
       d="m 23.279017,290.31851 c -0.02006,-0.002 -0.04012,-0.004 -0.06017,-0.007 0,0 0.526984,-0.37591 0.526984,-0.37591 v 0 c 0.02162,10e-4 0.04325,0.003 0.06487,0.004 0,0 -0.531679,0.37825 -0.531679,0.37825 z"
       inkscape:connector-curvature="0" />
    <path
       style="opacity:1;vector-effect:none;fill:#626262;fill-opacity:0.9677419;stroke:none;stroke-width:0.44979167;stroke-linecap:round;stroke-linejoin:round;stroke-miterlimit:4;stroke-dasharray:none;stroke-dashoffset:0;stroke-opacity:1;paint-order:normal"
       id="path2674"
       d="m 21.424876,289.93991 c -0.02472,0.004 -0.04972,0.008 -0.07416,0.0134 -0.03995,0.01 -0.140899,0.0405 -0.17781,0.057 -0.02591,0.0116 -0.09902,0.0557 -0.07427,0.0417 0.510111,-0.28709 0.634748,-0.40769 0.459592,-0.2455 0,0 -0.597727,0.25365 -0.597727,0.25365 v 0 c 0.164164,-0.24209 0.02926,-0.0581 0.639954,-0.40915 0.103981,-0.0598 0.230004,-0.0745 0.344389,-0.10226 0,0 -0.51997,0.39106 -0.51997,0.39106 z"
       inkscape:connector-curvature="0" />
    <path
       style="opacity:1;vector-effect:none;fill:#626262;fill-opacity:0.9677419;stroke:none;stroke-width:0.44979167;stroke-linecap:round;stroke-linejoin:round;stroke-miterlimit:4;stroke-dasharray:none;stroke-dashoffset:0;stroke-opacity:1;paint-order:normal"
       id="path2676"
       d="m 23.246742,291.74457 c 4.76e-4,0.0943 0.01231,0.11064 0.07532,0.17658 0,0 -0.549343,0.33323 -0.549343,0.33323 v 0 c -0.06889,-0.078 -0.09515,-0.1073 -0.107397,-0.21356 0,0 0.58142,-0.29625 0.58142,-0.29625 z"
       inkscape:connector-curvature="0" />
    <path
       style="opacity:1;vector-effect:none;fill:#626262;fill-opacity:0.9677419;stroke:none;stroke-width:0.44979167;stroke-linecap:round;stroke-linejoin:round;stroke-miterlimit:4;stroke-dasharray:none;stroke-dashoffset:0;stroke-opacity:1;paint-order:normal"
       id="path2678"
       d="m 22.427609,293.29879 c 0.02976,0.0609 0.01496,0.0293 0.04422,0.0947 0,0 -0.565424,0.31958 -0.565424,0.31958 v 0 c -0.02811,-0.0591 -0.01324,-0.0315 -0.04395,-0.0831 0,0 0.565151,-0.33116 0.565151,-0.33116 z"
       inkscape:connector-curvature="0" />
    <path
       style="opacity:1;vector-effect:none;fill:#626262;fill-opacity:0.9677419;stroke:none;stroke-width:0.44979167;stroke-linecap:round;stroke-linejoin:round;stroke-miterlimit:4;stroke-dasharray:none;stroke-dashoffset:0;stroke-opacity:1;paint-order:normal"
       id="path2680"
       d="m 21.304422,294.38646 c -0.0049,-0.0231 -0.0098,-0.0463 -0.01462,-0.0694 0,0 0.566998,-0.30821 0.566998,-0.30821 v 0 c 0.0077,0.0228 0.01536,0.0456 0.02304,0.0684 0,0 -0.575417,0.30922 -0.575417,0.30922 z"
       inkscape:connector-curvature="0" />
    <path
       style="opacity:1;vector-effect:none;fill:#626262;fill-opacity:0.9677419;stroke:none;stroke-width:0.44979167;stroke-linecap:round;stroke-linejoin:round;stroke-miterlimit:4;stroke-dasharray:none;stroke-dashoffset:0;stroke-opacity:1;paint-order:normal"
       id="path2682"
       d="m 9.8747676,294.56899 c -0.1394656,0.0101 -0.064507,0.005 -0.2248911,0.0155 0,0 0.5080945,-0.3758 0.5080945,-0.3758 v 0 c 0.167363,-0.0173 0.08865,-0.007 0.236263,-0.0285 0,0 -0.5194664,0.3888 -0.5194664,0.3888 z"
       inkscape:connector-curvature="0" />
    <path
       style="opacity:1;vector-effect:none;fill:#626262;fill-opacity:0.9677419;stroke:none;stroke-width:0.44979167;stroke-linecap:round;stroke-linejoin:round;stroke-miterlimit:4;stroke-dasharray:none;stroke-dashoffset:0;stroke-opacity:1;paint-order:normal"
       id="path2684"
       d="m 6.7444015,294.4892 c -0.056971,-0.0386 -0.025932,-0.019 -0.093666,-0.058 0,0 0.5421971,-0.35285 0.5421971,-0.35285 v 0 c 0.073942,0.041 0.039662,0.0207 0.1031989,0.0601 0,0 -0.5517298,0.35076 -0.5517298,0.35076 z"
       inkscape:connector-curvature="0" />
    <path
       style="opacity:1;vector-effect:none;fill:#626262;fill-opacity:0.9677419;stroke:none;stroke-width:0.44979167;stroke-linecap:round;stroke-linejoin:round;stroke-miterlimit:4;stroke-dasharray:none;stroke-dashoffset:0;stroke-opacity:1;paint-order:normal"
       id="path2686"
       d="m 7.8322496,293.83059 c -0.1051793,-0.003 -0.048621,-0.002 -0.1696818,-0.004 0,0 0.5171133,-0.3757 0.5171133,-0.3757 v 0 c 0.1272085,-0.002 0.067289,-6.1e-4 0.1797659,-0.004 0,0 -0.5271974,0.38304 -0.5271974,0.38304 z"
       inkscape:connector-curvature="0" />
    <path
       style="opacity:1;vector-effect:none;fill:#626262;fill-opacity:0.9677419;stroke:none;stroke-width:0.44979167;stroke-linecap:round;stroke-linejoin:round;stroke-miterlimit:4;stroke-dasharray:none;stroke-dashoffset:0;stroke-opacity:1;paint-order:normal"
       id="path2690"
       d="m 4.7296411,294.3791 c -0.0157,-0.006 -0.0314,-0.0117 -0.0471,-0.0175 0,0 0.5373566,-0.36609 0.5373566,-0.36609 v 0 c 0.016062,0.004 0.032124,0.008 0.048186,0.0122 0,0 -0.5384426,0.3714 -0.5384426,0.3714 z"
       inkscape:connector-curvature="0" />
    <path
       style="opacity:1;vector-effect:none;fill:#626262;fill-opacity:0.9677419;stroke:none;stroke-width:0.44979167;stroke-linecap:round;stroke-linejoin:round;stroke-miterlimit:4;stroke-dasharray:none;stroke-dashoffset:0;stroke-opacity:1;paint-order:normal"
       id="path2692"
       d="m 3.8656899,294.2974 c -0.109243,-0.20182 -0.1672177,-0.42581 -0.2247414,-0.64655 0,0 0.5562288,-0.3012 0.5562288,-0.3012 v 0 c 0.053521,0.21301 0.1079874,0.4331 0.2308904,0.61822 0,0 -0.5623778,0.32953 -0.5623778,0.32953 z"
       inkscape:connector-curvature="0" />
    <path
       style="opacity:1;vector-effect:none;fill:#626262;fill-opacity:0.9677419;stroke:none;stroke-width:0.44979167;stroke-linecap:round;stroke-linejoin:round;stroke-miterlimit:4;stroke-dasharray:none;stroke-dashoffset:0;stroke-opacity:1;paint-order:normal"
       id="path2694"
       d="m 3.6399002,293.41102 c -0.07058,-0.14759 -0.031335,-0.29985 0.010176,-0.44926 0,0 0.5733467,-0.27218 0.5733467,-0.27218 v 0 c -0.038307,0.12848 -0.087615,0.2682 -0.016762,0.39456 0,0 -0.5667607,0.32688 -0.5667607,0.32688 z"
       inkscape:connector-curvature="0" />
  </g>
</svg>
