<?xml version="1.0" encoding="UTF-8" standalone="no"?>
<!-- Created with Inkscape (http://www.inkscape.org/) -->

<svg
   xmlns:dc="http://purl.org/dc/elements/1.1/"
   xmlns:cc="http://creativecommons.org/ns#"
   xmlns:rdf="http://www.w3.org/1999/02/22-rdf-syntax-ns#"
   xmlns:svg="http://www.w3.org/2000/svg"
   xmlns="http://www.w3.org/2000/svg"
   xmlns:sodipodi="http://sodipodi.sourceforge.net/DTD/sodipodi-0.dtd"
   xmlns:inkscape="http://www.inkscape.org/namespaces/inkscape"
   width="60"
   height="60"
   viewBox="0 0 15.875 15.875"
   version="1.1"
   id="svg8"
   inkscape:version="0.92.2 5c3e80d, 2017-08-06"
   sodipodi:docname="crate.svg"
   inkscape:export-filename="/home/lmb/Projects/LD40-MetalFear/src/images/obstacles/crate.png"
   inkscape:export-xdpi="96"
   inkscape:export-ydpi="96">
  <defs
     id="defs2" />
  <sodipodi:namedview
     id="base"
     pagecolor="#ffffff"
     bordercolor="#666666"
     borderopacity="1.0"
     inkscape:pageopacity="0.0"
     inkscape:pageshadow="2"
     inkscape:zoom="11.313708"
     inkscape:cx="12.778263"
     inkscape:cy="30.267649"
     inkscape:document-units="px"
     inkscape:current-layer="layer1"
     showgrid="false"
     units="px"
     inkscape:window-width="1918"
     inkscape:window-height="1058"
     inkscape:window-x="0"
     inkscape:window-y="20"
     inkscape:window-maximized="1" />
  <metadata
     id="metadata5">
    <rdf:RDF>
      <cc:Work
         rdf:about="">
        <dc:format>image/svg+xml</dc:format>
        <dc:type
           rdf:resource="http://purl.org/dc/dcmitype/StillImage" />
        <dc:title />
      </cc:Work>
    </rdf:RDF>
  </metadata>
  <g
     inkscape:label="Layer 1"
     inkscape:groupmode="layer"
     id="layer1"
     transform="translate(0,-281.12498)">
    <rect
       style="opacity:1;vector-effect:none;fill:#b1902f;fill-opacity:0.99539173;stroke:#5c4b21;stroke-width:0.8204729;stroke-linecap:round;stroke-linejoin:miter;stroke-miterlimit:4;stroke-dasharray:none;stroke-dashoffset:0;stroke-opacity:1;paint-order:normal"
       id="rect882"
       width="15.054527"
       height="15.054527"
       x="0.41023645"
       y="281.53522"
       ry="0"
       rx="0" />
    <path
       style="opacity:1;vector-effect:none;fill:#b1902f;fill-opacity:0.99539173;stroke:#5d4b21;stroke-width:0.8204729;stroke-linecap:butt;stroke-linejoin:miter;stroke-miterlimit:4;stroke-dasharray:none;stroke-dashoffset:0;stroke-opacity:0.2764977;paint-order:normal"
       id="path966"
       d="m 1.6499705,282.46272 c 0.098013,0.0205 0.1170759,0.026 0.2349903,0.0403 0.1841056,0.0223 0.4051924,0.0382 0.5858348,0.0514 0.3268194,0.0238 0.6503172,0.0441 0.9775417,0.0654 0.665693,0.0444 1.331182,0.0914 1.9969043,0.13537 0,0 -0.312094,0.22379 -0.312094,0.22379 v 0 c -0.6778921,-0.0398 -1.3557313,-0.082 -2.0343458,-0.10785 -0.6750638,-0.0236 -0.4023296,-0.0148 -1.0217993,-0.0337 -0.1969206,-0.006 -0.4306014,-0.0113 -0.6309804,-0.0228 -0.1434004,-0.008 -0.1503341,-0.0106 -0.2692976,-0.0254 0,0 0.473246,-0.32642 0.473246,-0.32642 z"
       inkscape:connector-curvature="0" />
    <path
       style="opacity:1;vector-effect:none;fill:#b1902f;fill-opacity:0.99539173;stroke:#5d4b21;stroke-width:0.8204729;stroke-linecap:butt;stroke-linejoin:miter;stroke-miterlimit:4;stroke-dasharray:none;stroke-dashoffset:0;stroke-opacity:0.2764977;paint-order:normal"
       id="path968"
       d="m 8.4712177,282.83655 c 0.4072278,-0.0396 0.8125616,-0.096 1.2194905,-0.13852 0.4791838,-0.05 0.5810398,-0.0552 1.0686538,-0.0944 0,0 -0.34435,0.25466 -0.34435,0.25466 v 0 c -0.185315,0.0165 -0.370846,0.0308 -0.555946,0.0496 -0.6177598,0.0627 -1.23214,0.15566 -1.8425353,0.26903 0,0 0.454687,-0.34032 0.454687,-0.34032 z"
       inkscape:connector-curvature="0" />
    <path
       style="opacity:1;vector-effect:none;fill:#b1902f;fill-opacity:0.99539173;stroke:#5d4b21;stroke-width:0.8204729;stroke-linecap:butt;stroke-linejoin:miter;stroke-miterlimit:4;stroke-dasharray:none;stroke-dashoffset:0;stroke-opacity:0.2764977;paint-order:normal"
       id="path970"
       d="m 7.7760461,285.335 c 0.7103761,0.12318 1.429838,0.18808 2.14688,0.25881 0,0 -0.315453,0.22513 -0.315453,0.22513 v 0 c -0.7642169,-0.0547 -1.5283333,-0.1121 -2.2933413,-0.1547 0,0 0.4619143,-0.32924 0.4619143,-0.32924 z"
       inkscape:connector-curvature="0" />
    <path
       style="opacity:1;vector-effect:none;fill:#b1902f;fill-opacity:0.99539173;stroke:#5d4b21;stroke-width:0.8204729;stroke-linecap:butt;stroke-linejoin:miter;stroke-miterlimit:4;stroke-dasharray:none;stroke-dashoffset:0;stroke-opacity:0.2764977;paint-order:normal"
       id="path972"
       d="m 11.252654,284.03312 c 0.397171,0.0935 0.808109,0.10087 1.213522,0.11885 0,0 -0.353379,0.2556 -0.353379,0.2556 v 0 c -0.442926,1.9e-4 -0.888203,0.007 -1.328599,-0.0495 0,0 0.468456,-0.32495 0.468456,-0.32495 z"
       inkscape:connector-curvature="0" />
    <path
       style="opacity:1;vector-effect:none;fill:#b1902f;fill-opacity:0.99539173;stroke:#5d4b21;stroke-width:0.8204729;stroke-linecap:butt;stroke-linejoin:miter;stroke-miterlimit:4;stroke-dasharray:none;stroke-dashoffset:0;stroke-opacity:0.2764977;paint-order:normal"
       id="path974"
       d="m 2.8965443,285.26476 c -0.053248,-0.0249 -0.022469,-0.0124 -0.093493,-0.0345 0,0 0.4675807,-0.3188 0.4675807,-0.3188 v 0 c 0.084043,0.0257 0.046526,0.0111 0.113498,0.0411 0,0 -0.4875855,0.3122 -0.4875857,0.3122 z"
       inkscape:connector-curvature="0" />
    <path
       style="opacity:1;vector-effect:none;fill:#b1902f;fill-opacity:0.99539173;stroke:#5d4b21;stroke-width:0.8204729;stroke-linecap:butt;stroke-linejoin:miter;stroke-miterlimit:4;stroke-dasharray:none;stroke-dashoffset:0;stroke-opacity:0.2764977;paint-order:normal"
       id="path976"
       d="m 2.7545413,284.85217 c 0.3011038,0.0697 0.6157214,0.076 0.9232577,0.0827 0.4572741,0.01 0.7029374,0.003 1.1752691,-10e-4 0,0 -0.32152,0.23479 -0.32152,0.23479 v 0 c -0.4018018,0.0153 -0.830212,0.0337 -1.2338968,0.0419 -0.3029154,0.006 -0.6098151,0.0127 -0.9119362,-0.0184 -0.034905,-0.004 -0.069387,-0.0105 -0.1040803,-0.0158 0,0 0.4729065,-0.32388 0.4729065,-0.32388 z"
       inkscape:connector-curvature="0" />
    <path
       style="opacity:1;vector-effect:none;fill:#b1902f;fill-opacity:0.99539173;stroke:#5d4b21;stroke-width:0.8204729;stroke-linecap:butt;stroke-linejoin:miter;stroke-miterlimit:4;stroke-dasharray:none;stroke-dashoffset:0;stroke-opacity:0.2764977;paint-order:normal"
       id="path978"
       d="m 2.0790828,288.68127 c 0.091544,-0.008 0.1274596,-0.0125 0.2336598,-0.0174 0.2332196,-0.0108 0.3906008,-0.0118 0.6337484,-0.0126 0.3581289,-0.001 0.7640923,0.003 1.1184697,0.005 0.8530285,0.004 1.7062912,0.008 2.5591232,-0.0157 0.3435255,-0.009 0.6868316,-0.0257 1.0302475,-0.0385 0,0 -0.235395,0.17255 -0.235395,0.17255 v 0 c -0.3488785,0.0166 -0.697647,0.0357 -1.0466353,0.0499 -0.8779877,0.0355 -1.7566073,0.0499 -2.6350118,0.0704 -0.4293431,0.0113 -0.7529462,0.0172 -1.1746366,0.0375 -0.3149282,0.0152 -0.6343204,0.0301 -0.9431537,0.0985 0,0 0.4595838,-0.34951 0.4595838,-0.34951 z"
       inkscape:connector-curvature="0" />
    <path
       style="opacity:1;vector-effect:none;fill:#b1902f;fill-opacity:0.99539173;stroke:#5d4b21;stroke-width:0.8204729;stroke-linecap:butt;stroke-linejoin:miter;stroke-miterlimit:4;stroke-dasharray:none;stroke-dashoffset:0;stroke-opacity:0.2764977;paint-order:normal"
       id="path980"
       d="m 5.0173707,286.75636 c 0.8148037,0.0729 1.6294721,0.1474 2.4442406,0.22076 1.1897389,0.10468 0.5818934,0.0534 1.8235851,0.15331 0,0 -0.2552359,0.18259 -0.2552359,0.18259 v 0 c -1.2667784,-0.0846 -0.6447835,-0.0437 -1.8659766,-0.12297 -0.8703839,-0.0497 -1.7416216,-0.10554 -2.6138729,-0.0997 0,0 0.4672597,-0.33403 0.4672597,-0.33403 z"
       inkscape:connector-curvature="0" />
    <path
       style="opacity:1;vector-effect:none;fill:#b1902f;fill-opacity:0.99539173;stroke:#5d4b21;stroke-width:0.8204729;stroke-linecap:butt;stroke-linejoin:miter;stroke-miterlimit:4;stroke-dasharray:none;stroke-dashoffset:0;stroke-opacity:0.2764977;paint-order:normal"
       id="path982"
       d="m 6.267347,290.84241 c 0.060986,0.0123 0.1215289,0.027 0.1829573,0.0368 0.2716098,0.0433 0.5634238,0.0728 0.835167,0.092 0.4860965,0.0343 0.9667912,0.0496 1.4544379,0.0527 0.2939415,0.002 0.5878787,-0.004 0.8818181,-0.006 0,0 -0.2694763,0.19639 -0.2694763,0.19639 v 0 c -1.1818982,0.026 -2.367917,0.053 -3.5472319,-0.0487 0,0 0.4623279,-0.32266 0.4623279,-0.32266 z"
       inkscape:connector-curvature="0" />
    <path
       style="opacity:1;vector-effect:none;fill:#b1902f;fill-opacity:0.99539173;stroke:#5d4b21;stroke-width:0.8204729;stroke-linecap:butt;stroke-linejoin:miter;stroke-miterlimit:4;stroke-dasharray:none;stroke-dashoffset:0;stroke-opacity:0.2764977;paint-order:normal"
       id="path984"
       d="m 13.36256,288.27216 c -0.05494,-0.006 -0.109699,-0.0146 -0.16482,-0.0192 -0.459148,-0.0384 -0.920949,-0.0394 -1.38127,-0.0323 -0.583711,0.009 -0.940694,0.027 -1.531194,0.0505 0,0 0.287383,-0.21083 0.287383,-0.21083 v 0 c 1.082722,-0.0567 2.166325,-0.12655 3.251047,-0.11706 0,0 -0.461146,0.32897 -0.461146,0.32897 z"
       inkscape:connector-curvature="0" />
    <path
       style="opacity:1;vector-effect:none;fill:#b1902f;fill-opacity:0.99539173;stroke:#5d4b21;stroke-width:0.8204729;stroke-linecap:butt;stroke-linejoin:miter;stroke-miterlimit:4;stroke-dasharray:none;stroke-dashoffset:0;stroke-opacity:0.2764977;paint-order:normal"
       id="path986"
       d="m 13.120172,286.04788 c -0.545917,0.0583 -1.08399,0.17445 -1.622205,0.27961 0,0 0.32362,-0.24539 0.32362,-0.24539 v 0 c 0.582075,-0.12761 1.163354,-0.25974 1.748811,-0.37119 0,0 -0.450226,0.33697 -0.450226,0.33697 z"
       inkscape:connector-curvature="0" />
    <path
       style="opacity:1;vector-effect:none;fill:#b1902f;fill-opacity:0.99539173;stroke:#5d4b21;stroke-width:0.8204729;stroke-linecap:butt;stroke-linejoin:miter;stroke-miterlimit:4;stroke-dasharray:none;stroke-dashoffset:0;stroke-opacity:0.2764977;paint-order:normal"
       id="path988"
       d="m 11.750328,293.35455 c -0.734116,-0.0212 -1.468833,-0.009 -2.2031661,-0.0152 -0.2907202,-0.002 -0.5814123,-0.007 -0.8721185,-0.0112 0,0 0.2707777,-0.19674 0.2707777,-0.19674 v 0 c 0.3008371,-0.004 0.6017125,-0.005 0.9025118,-0.0115 0.7873111,-0.0161 1.5743181,-0.051 2.3603261,-0.0984 0,0 -0.458331,0.333 -0.458331,0.333 z"
       inkscape:connector-curvature="0" />
    <path
       style="opacity:1;vector-effect:none;fill:#b1902f;fill-opacity:0.99539173;stroke:#5d4b21;stroke-width:0.8204729;stroke-linecap:butt;stroke-linejoin:miter;stroke-miterlimit:4;stroke-dasharray:none;stroke-dashoffset:0;stroke-opacity:0.2764977;paint-order:normal"
       id="path990"
       d="m 2.4369832,290.26089 c 0.739269,-0.15872 1.499695,-0.18775 2.2525396,-0.22396 0,0 -0.3250977,0.23907 -0.3250977,0.23907 v 0 c -0.2165464,0.0146 -0.4333976,0.0252 -0.6496392,0.0437 -0.3476828,0.0298 -0.7075032,0.0733 -1.0524458,0.13171 -0.1850004,0.0313 -0.3820199,0.0728 -0.564196,0.12485 -0.038145,0.0109 -0.075056,0.0257 -0.112584,0.0386 0,0 0.4514231,-0.354 0.4514231,-0.354 z"
       inkscape:connector-curvature="0" />
    <path
       style="opacity:1;vector-effect:none;fill:#b1902f;fill-opacity:0.99539173;stroke:#5d4b21;stroke-width:0.8204729;stroke-linecap:butt;stroke-linejoin:miter;stroke-miterlimit:4;stroke-dasharray:none;stroke-dashoffset:0;stroke-opacity:0.2764977;paint-order:normal"
       id="path992"
       d="m 1.3202618,293.30256 c 0.5841655,-0.14894 1.1773216,-0.26534 1.7724932,-0.36079 0.2527276,-0.0405 0.5064641,-0.0745 0.7596963,-0.11175 0,0 -0.2911901,0.21865 -0.2911901,0.21865 v 0 c -0.2622045,0.0445 -0.5251765,0.0847 -0.7866137,0.13357 -0.2222875,0.0415 -0.4434842,0.0888 -0.6643297,0.13742 -0.375097,0.0826 -0.7504263,0.17492 -1.11694691,0.29065 -0.0420378,0.0133 -0.0833092,0.0289 -0.12496379,0.0433 0,0 0.4518547,-0.35104 0.4518547,-0.35104 z"
       inkscape:connector-curvature="0" />
    <path
       style="opacity:1;vector-effect:none;fill:#b1902f;fill-opacity:0.99539173;stroke:#5d4b21;stroke-width:0.8204729;stroke-linecap:butt;stroke-linejoin:miter;stroke-miterlimit:4;stroke-dasharray:none;stroke-dashoffset:0;stroke-opacity:0.2764977;paint-order:normal"
       id="path994"
       d="m 2.6188887,294.74352 c 0.4537614,0.0127 0.9059513,0.0582 1.3581136,0.0955 0.2149795,0.0177 0.4300283,0.0346 0.6450428,0.0519 1.0382827,0.0719 0.5046583,0.0395 1.6009646,0.0958 0,0 -0.2792518,0.20106 -0.2792518,0.20106 v 0 c -1.1237468,-0.0393 -0.5752801,-0.0174 -1.6454289,-0.0648 -0.3264652,-0.0146 -0.8771057,-0.041 -1.21934,-0.0505 -0.2793431,-0.008 -0.5627553,-0.0147 -0.8420138,0.006 -0.027285,0.002 -0.054348,0.006 -0.081522,0.01 0,0 0.4634358,-0.3446 0.4634358,-0.3446 z"
       inkscape:connector-curvature="0" />
    <path
       style="opacity:1;vector-effect:none;fill:#b1902f;fill-opacity:0.99539173;stroke:#5d4b21;stroke-width:0.8204729;stroke-linecap:butt;stroke-linejoin:miter;stroke-miterlimit:4;stroke-dasharray:none;stroke-dashoffset:0;stroke-opacity:0.2764977;paint-order:normal"
       id="path996"
       d="m 11.453639,294.95674 c 0.333717,-0.0173 0.662098,-0.0864 0.98955,-0.14824 0,0 -0.375616,0.28448 -0.375616,0.28448 v 0 c -0.35637,0.0762 -0.712702,0.1568 -1.0746,0.20287 0,0 0.460666,-0.33911 0.460666,-0.33911 z"
       inkscape:connector-curvature="0" />
    <path
       style="opacity:1;vector-effect:none;fill:#b1902f;fill-opacity:0.99539173;stroke:#5d4b21;stroke-width:0.8204729;stroke-linecap:butt;stroke-linejoin:miter;stroke-miterlimit:4;stroke-dasharray:none;stroke-dashoffset:0;stroke-opacity:0.2764977;paint-order:normal"
       id="path998"
       d="m 11.853365,289.94072 c 0.341297,-0.0322 0.684294,-0.0266 1.026551,-0.0225 0,0 -0.383217,0.27883 -0.383217,0.27883 v 0 c -0.366415,0.009 -0.737023,0.0115 -1.097135,0.0888 0,0 0.453801,-0.34511 0.453801,-0.34511 z"
       inkscape:connector-curvature="0" />
    <path
       style="opacity:1;vector-effect:none;fill:#b1902f;fill-opacity:0.99539173;stroke:#1a1507;stroke-width:0.8204729;stroke-linecap:butt;stroke-linejoin:miter;stroke-miterlimit:4;stroke-dasharray:none;stroke-dashoffset:0;stroke-opacity:0.2764977;paint-order:normal"
       id="path1000"
       d="m 14.881543,282.62135 c -0.384598,-0.0484 -0.767357,-0.11115 -1.151134,-0.16584 -0.383809,-0.0421 -0.189365,-0.0244 -0.583375,-0.0525 0,0 0.243891,-0.1746 0.243891,-0.1746 v 0 c 0.397263,0.0275 0.201237,0.0101 0.588124,0.0516 0.393153,0.053 0.786109,0.11703 1.182357,0.141 0,0 -0.279863,0.2003 -0.279863,0.2003 z"
       inkscape:connector-curvature="0" />
    <path
       style="opacity:1;vector-effect:none;fill:#b1902f;fill-opacity:0.99539173;stroke:#1a1507;stroke-width:0.8204729;stroke-linecap:butt;stroke-linejoin:miter;stroke-miterlimit:4;stroke-dasharray:none;stroke-dashoffset:0;stroke-opacity:0.2764977;paint-order:normal"
       id="path1004"
       d="m 14.681481,285.04239 c -0.390108,0.0645 -0.782,0.11762 -1.173265,0.17449 0,0 0.236835,-0.17753 0.236835,-0.17753 v 0 c 0.404903,-0.0629 0.810865,-0.12191 1.212252,-0.20503 0,0 -0.275822,0.20807 -0.275822,0.20807 z"
       inkscape:connector-curvature="0" />
    <path
       style="opacity:1;vector-effect:none;fill:#b1902f;fill-opacity:0.99539173;stroke:#1a1507;stroke-width:0.8204729;stroke-linecap:butt;stroke-linejoin:miter;stroke-miterlimit:4;stroke-dasharray:none;stroke-dashoffset:0;stroke-opacity:0.2764977;paint-order:normal"
       id="path1006"
       d="m 13.489452,290.8033 c -0.356928,0.0672 -0.717162,0.11583 -1.076376,0.16899 0,0 0.227457,-0.17065 0.227457,-0.17065 v 0 c 0.374497,-0.0603 0.751253,-0.11429 1.119837,-0.2055 0,0 -0.270918,0.20716 -0.270918,0.20716 z"
       inkscape:connector-curvature="0" />
    <path
       style="opacity:1;vector-effect:none;fill:#b1902f;fill-opacity:0.99539173;stroke:#1a1507;stroke-width:0.8204729;stroke-linecap:butt;stroke-linejoin:miter;stroke-miterlimit:4;stroke-dasharray:none;stroke-dashoffset:0;stroke-opacity:0.2764977;paint-order:normal"
       id="path1008"
       d="m 13.334849,291.84628 c -0.144776,0.0165 -0.06288,0.008 -0.245753,0.026 0,0 0.260176,-0.19376 0.260176,-0.19376 v 0 c 0.192837,-0.0261 0.106001,-0.0133 0.260675,-0.0374 0,0 -0.275098,0.20515 -0.275098,0.20515 z"
       inkscape:connector-curvature="0" />
    <path
       style="opacity:1;vector-effect:none;fill:#b1902f;fill-opacity:0.99539173;stroke:#1a1507;stroke-width:0.8204729;stroke-linecap:butt;stroke-linejoin:miter;stroke-miterlimit:4;stroke-dasharray:none;stroke-dashoffset:0;stroke-opacity:0.2764977;paint-order:normal"
       id="path1010"
       d="m 14.544993,294.19079 c -0.312993,0.0537 -0.628083,0.0931 -0.941533,0.14428 0,0 0.246906,-0.18571 0.246906,-0.18571 v 0 c 0.322927,-0.0551 0.649352,-0.0951 0.968386,-0.16993 0,0 -0.273759,0.21136 -0.273759,0.21136 z"
       inkscape:connector-curvature="0" />
    <path
       style="opacity:1;vector-effect:none;fill:#b1902f;fill-opacity:0.99539173;stroke:#1a1507;stroke-width:0.8204729;stroke-linecap:butt;stroke-linejoin:miter;stroke-miterlimit:4;stroke-dasharray:none;stroke-dashoffset:0;stroke-opacity:0.2764977;paint-order:normal"
       id="path1012"
       d="m 14.196178,295.41469 c -0.08536,0.0171 -0.09204,0.0202 -0.193827,0.0299 -0.112243,0.0107 -0.324776,0.022 -0.427344,0.0273 -1.12759,0.058 0.617934,-0.035 -0.658022,0.0335 0,0 0.23384,-0.17205 0.23384,-0.17205 v 0 c 0.224236,-0.0148 0.448571,-0.0283 0.672698,-0.0446 0.188088,-0.0138 0.384999,-0.0213 0.569521,-0.0656 0.02492,-0.006 0.04863,-0.0162 0.07294,-0.0243 0,0 -0.269807,0.21582 -0.269807,0.21582 z"
       inkscape:connector-curvature="0" />
    <path
       style="opacity:1;vector-effect:none;fill:#b1902f;fill-opacity:0.99539173;stroke:#1a1507;stroke-width:0.8204729;stroke-linecap:butt;stroke-linejoin:miter;stroke-miterlimit:4;stroke-dasharray:none;stroke-dashoffset:0;stroke-opacity:0.2764977;paint-order:normal"
       id="path1014"
       d="m 7.8733665,294.58357 c -0.1192035,0.0204 -0.2270694,0.007 -0.3460972,-0.006 0,0 0.2648987,-0.18883 0.2648987,-0.18883 v 0 c 0.050257,0.003 0.1003974,0.0101 0.1507704,0.0103 0.079117,2.9e-4 0.1315831,-0.0106 0.2061834,-0.0226 0,0 -0.2757553,0.20739 -0.2757553,0.20739 z"
       inkscape:connector-curvature="0" />
    <path
       style="opacity:1;vector-effect:none;fill:#b1902f;fill-opacity:0.99539173;stroke:#1a1507;stroke-width:0.8204729;stroke-linecap:butt;stroke-linejoin:miter;stroke-miterlimit:4;stroke-dasharray:none;stroke-dashoffset:0;stroke-opacity:0.2764977;paint-order:normal"
       id="path1016"
       d="m 5.570693,294.51939 c -0.089316,0.0297 -0.1827488,0.0335 -0.2756924,0.0405 0,0 0.2640391,-0.19582 0.2640391,-0.19582 v 0 c 0.096688,-0.0117 0.1938041,-0.0203 0.2846901,-0.0584 0,0 -0.2730368,0.21375 -0.2730368,0.21375 z"
       inkscape:connector-curvature="0" />
    <path
       style="opacity:1;vector-effect:none;fill:#b1902f;fill-opacity:0.99539173;stroke:#1a1507;stroke-width:0.8204729;stroke-linecap:butt;stroke-linejoin:miter;stroke-miterlimit:4;stroke-dasharray:none;stroke-dashoffset:0;stroke-opacity:0.2764977;paint-order:normal"
       id="path1018"
       d="m 2.3200199,294.54444 c -0.070135,-0.016 -0.1321152,-0.0272 -0.1990971,-0.0585 -0.046257,-0.0217 -0.088391,-0.0512 -0.1325868,-0.0768 0,0 0.2723398,-0.17773 0.2723398,-0.17773 v 0 c 0.044323,0.0229 0.086722,0.05 0.1329706,0.0686 0.074574,0.0301 0.1308397,0.0348 0.2070342,0.0462 0,0 -0.2806607,0.19828 -0.2806607,0.19828 z"
       inkscape:connector-curvature="0" />
    <path
       style="opacity:1;vector-effect:none;fill:#b1902f;fill-opacity:0.99539173;stroke:#1a1507;stroke-width:0.8204729;stroke-linecap:butt;stroke-linejoin:miter;stroke-miterlimit:4;stroke-dasharray:none;stroke-dashoffset:0;stroke-opacity:0.2764977;paint-order:normal"
       id="path1020"
       d="m 1.0710007,291.75678 c -0.013928,-0.0124 -0.03298,-0.0207 -0.041785,-0.0371 -0.0443547,-0.0827 -0.00566,-0.11913 0.024312,-0.20712 0,0 0.2986387,-0.13902 0.2986387,-0.13902 v 0 c -0.018611,0.0456 -0.067052,0.10857 -0.033505,0.16365 0.00804,0.0132 0.025941,0.0168 0.038911,0.0252 0,0 -0.2865706,0.19444 -0.2865706,0.19444 z"
       inkscape:connector-curvature="0" />
    <path
       style="opacity:1;vector-effect:none;fill:#b1902f;fill-opacity:0.99539173;stroke:#1a1507;stroke-width:0.8204729;stroke-linecap:butt;stroke-linejoin:miter;stroke-miterlimit:4;stroke-dasharray:none;stroke-dashoffset:0;stroke-opacity:0.2764977;paint-order:normal"
       id="path1022"
       d="m 2.7099162,285.07127 c -0.055458,-0.13973 -0.1216871,-0.27448 -0.1757897,-0.41478 0,0 0.2914607,-0.16144 0.2914607,-0.16144 v 0 c 0.010941,0.0326 0.020032,0.066 0.032818,0.0979 0.042775,0.10692 0.1005602,0.20682 0.1510864,0.31004 0,0 -0.2995758,0.16825 -0.2995758,0.16825 z"
       inkscape:connector-curvature="0" />
    <path
       style="opacity:1;vector-effect:none;fill:#b1902f;fill-opacity:0.99539173;stroke:#1a1507;stroke-width:0.8204729;stroke-linecap:butt;stroke-linejoin:miter;stroke-miterlimit:4;stroke-dasharray:none;stroke-dashoffset:0;stroke-opacity:0.2764977;paint-order:normal"
       id="path1024"
       d="m 7.402387,289.96653 c -0.091386,0.0709 -0.04593,0.0315 -0.135255,0.1193 0,0 -0.3087383,0.12847 -0.3087383,0.12847 v 0 c 0.082768,-0.0898 0.040959,-0.05 0.123821,-0.12099 0,0 0.3201723,-0.12678 0.3201723,-0.12678 z"
       inkscape:connector-curvature="0" />
    <path
       style="opacity:1;vector-effect:none;fill:#b1902f;fill-opacity:0.99539173;stroke:#1a1507;stroke-width:0.8204729;stroke-linecap:butt;stroke-linejoin:miter;stroke-miterlimit:4;stroke-dasharray:none;stroke-dashoffset:0;stroke-opacity:0.2764977;paint-order:normal"
       id="path1026"
       d="m 7.5123592,291.52333 c -0.030256,0.031 -0.016007,0.0178 -0.042008,0.0404 0,0 -0.3232259,0.12612 -0.3232259,0.12612 v 0 c 0.030703,-0.0147 0.015034,-0.005 0.045774,-0.0308 0,0 0.3194598,-0.13573 0.3194598,-0.13573 z"
       inkscape:connector-curvature="0" />
    <path
       style="opacity:1;vector-effect:none;fill:#b1902f;fill-opacity:0.99539173;stroke:#1a1507;stroke-width:0.8204729;stroke-linecap:butt;stroke-linejoin:miter;stroke-miterlimit:4;stroke-dasharray:none;stroke-dashoffset:0;stroke-opacity:0.2764977;paint-order:normal"
       id="path1028"
       d="m 4.3805086,290.19464 c -0.1283378,-0.0433 -0.058427,-0.0155 -0.2073641,-0.0893 0,0 0.2731815,-0.18121 0.2731815,-0.18121 v 0 c 0.1538674,0.0637 0.08131,0.0421 0.2154113,0.0722 0,0 -0.2812287,0.19829 -0.2812287,0.19829 z"
       inkscape:connector-curvature="0" />
    <path
       style="opacity:1;vector-effect:none;fill:#b1902f;fill-opacity:0.99539173;stroke:#1a1507;stroke-width:0.8204729;stroke-linecap:butt;stroke-linejoin:miter;stroke-miterlimit:4;stroke-dasharray:none;stroke-dashoffset:0;stroke-opacity:0.5299539;paint-order:normal"
       id="path1030"
       d="m 2.1721474,286.85436 c -0.049424,-0.0109 -0.025292,-0.004 -0.072428,-0.0205 0,0 0.2850215,-0.19409 0.2850215,-0.19409 v 0 c 0.044438,0.0123 0.021156,0.007 0.069975,0.014 0,0 -0.282569,0.20056 -0.282569,0.20056 z"
       inkscape:connector-curvature="0" />
    <path
       style="opacity:1;vector-effect:none;fill:#b1902f;fill-opacity:0.99539173;stroke:#1a1507;stroke-width:0.8204729;stroke-linecap:butt;stroke-linejoin:miter;stroke-miterlimit:4;stroke-dasharray:none;stroke-dashoffset:0;stroke-opacity:0.5299539;paint-order:normal"
       id="path1032"
       d="m 10.57022,284.11813 c -0.05477,-0.0115 -0.02577,-0.005 -0.08692,-0.0198 0,0 0.281241,-0.19526 0.281241,-0.19526 v 0 c 0.06208,0.012 0.03241,0.007 0.08891,0.0147 0,0 -0.283227,0.20045 -0.283227,0.20045 z"
       inkscape:connector-curvature="0" />
    <path
       style="opacity:1;vector-effect:none;fill:#b1902f;fill-opacity:0.99539173;stroke:#1a1507;stroke-width:0.8204729;stroke-linecap:butt;stroke-linejoin:miter;stroke-miterlimit:4;stroke-dasharray:none;stroke-dashoffset:0;stroke-opacity:0.5299539;paint-order:normal"
       id="path1034"
       d="m 8.3644488,283.72063 c -0.051032,-0.007 -0.1003443,-0.0162 -0.1497129,-0.0309 0,0 0.2823749,-0.1938 0.2823749,-0.1938 v 0 c 0.048992,0.0123 0.09816,0.0211 0.148739,0.0241 0,0 -0.281401,0.20058 -0.281401,0.20058 z"
       inkscape:connector-curvature="0" />
    <path
       style="opacity:1;vector-effect:none;fill:#b1902f;fill-opacity:0.99539173;stroke:#1a1507;stroke-width:0.8204729;stroke-linecap:butt;stroke-linejoin:miter;stroke-miterlimit:4;stroke-dasharray:none;stroke-dashoffset:0;stroke-opacity:0.5299539;paint-order:normal"
       id="path1036"
       d="m 7.3155873,282.67247 c -0.096997,0.002 -0.042416,-2.9e-4 -0.1636274,0.01 0,0 0.2678356,-0.19836 0.2678356,-0.19836 v 0 c 0.1292529,-0.013 0.070626,-0.009 0.175763,-0.0148 0,0 -0.2799712,0.20341 -0.2799712,0.20341 z"
       inkscape:connector-curvature="0" />
    <path
       style="opacity:1;vector-effect:none;fill:#b1902f;fill-opacity:0.99539173;stroke:#1a1507;stroke-width:0.8204729;stroke-linecap:butt;stroke-linejoin:miter;stroke-miterlimit:4;stroke-dasharray:none;stroke-dashoffset:0;stroke-opacity:0.5299539;paint-order:normal"
       id="path1038"
       d="m 4.0517997,286.99324 c -0.024969,0.0123 -0.049192,0.0255 -0.075318,0.0351 0,0 0.2728669,-0.21532 0.2728669,-0.21532 v 0 c 0.024532,-0.0118 0.048894,-0.0238 0.073083,-0.0363 0,0 -0.2706325,0.21648 -0.2706325,0.21648 z"
       inkscape:connector-curvature="0" />
    <path
       style="opacity:1;vector-effect:none;fill:#b1902f;fill-opacity:0.99539173;stroke:#1a1507;stroke-width:0.8204729;stroke-linecap:butt;stroke-linejoin:miter;stroke-miterlimit:4;stroke-dasharray:none;stroke-dashoffset:0;stroke-opacity:0.5299539;paint-order:normal"
       id="path1040"
       d="m 6.3144711,288.92391 c 0.077613,0.0543 0.1592443,0.0564 0.250379,0.0509 0,0 -0.2734496,0.20009 -0.2734496,0.20009 v 0 c -0.1021238,9e-4 -0.1848635,-0.008 -0.2712233,-0.0669 0,0 0.2942939,-0.18403 0.2942939,-0.18403 z"
       inkscape:connector-curvature="0" />
    <path
       style="opacity:1;vector-effect:none;fill:#b1902f;fill-opacity:0.99539173;stroke:#1a1507;stroke-width:0.8204729;stroke-linecap:butt;stroke-linejoin:miter;stroke-miterlimit:4;stroke-dasharray:none;stroke-dashoffset:0;stroke-opacity:0.5299539;paint-order:normal"
       id="path1042"
       d="m 10.729453,290.79795 c -0.01557,-0.005 -0.03114,-0.01 -0.04671,-0.015 0,0 0.282505,-0.19312 0.282505,-0.19312 v 0 c 0.01693,0.005 0.03385,0.009 0.05077,0.0137 0,0 -0.286571,0.19444 -0.286571,0.19444 z"
       inkscape:connector-curvature="0" />
    <path
       style="opacity:1;vector-effect:none;fill:#b1902f;fill-opacity:0.99539173;stroke:#1a1507;stroke-width:0.8204729;stroke-linecap:butt;stroke-linejoin:miter;stroke-miterlimit:4;stroke-dasharray:none;stroke-dashoffset:0;stroke-opacity:0.5299539;paint-order:normal"
       id="path1044"
       d="m 13.978679,286.49938 c -0.18339,-0.0568 -0.104494,-0.0466 0.228754,-0.22235 0.007,-0.004 0.07061,0.0341 0.07117,0.0344 0.01105,0.01 0.0221,0.0195 0.03314,0.0292 0,0 -0.291669,0.18233 -0.291669,0.18233 v 0 c -0.0096,-0.008 -0.0192,-0.015 -0.0288,-0.0225 -0.01168,-0.005 -0.0229,-0.0115 -0.03505,-0.0153 -0.01026,-0.003 -0.03998,10e-4 -0.03175,-0.006 0.277283,-0.23295 0.170225,-0.21739 0.338062,-0.17768 0,0 -0.283855,0.19779 -0.283855,0.19779 z"
       inkscape:connector-curvature="0" />
    <path
       style="opacity:1;vector-effect:none;fill:#b1902f;fill-opacity:0.99539173;stroke:#1a1507;stroke-width:0.8204729;stroke-linecap:butt;stroke-linejoin:miter;stroke-miterlimit:4;stroke-dasharray:none;stroke-dashoffset:0;stroke-opacity:0.5299539;paint-order:normal"
       id="path1046"
       d="m 8.7915167,289.33764 c -0.011367,-1.5e-4 -0.022733,-3.1e-4 -0.034098,-4.7e-4 0,0 0.2790441,-0.20274 0.2790441,-0.20274 v 0 c 0.011803,-1.6e-4 0.023606,-3.2e-4 0.035408,-4.8e-4 0,0 -0.2803535,0.20369 -0.2803541,0.20369 z"
       inkscape:connector-curvature="0" />
    <path
       style="opacity:1;vector-effect:none;fill:#b1902f;fill-opacity:0.99539173;stroke:#1a1507;stroke-width:0.8204729;stroke-linecap:butt;stroke-linejoin:miter;stroke-miterlimit:4;stroke-dasharray:none;stroke-dashoffset:0;stroke-opacity:0.5299539;paint-order:normal"
       id="path1048"
       d="m 5.6084033,293.28975 c -0.1629812,-0.005 -0.3323204,0.024 -0.4942163,0.004 -0.025834,-0.003 -0.050973,-0.0105 -0.076459,-0.0158 0,0 0.2775066,-0.19321 0.2775066,-0.19321 v 0 c 0.023416,0.005 0.046518,0.0114 0.070248,0.0142 0.1657771,0.0192 0.3367688,-0.01 0.5028919,-0.0129 0,0 -0.2799709,0.20341 -0.2799709,0.20341 z"
       inkscape:connector-curvature="0" />
    <path
       style="opacity:1;vector-effect:none;fill:#b1902f;fill-opacity:0.99539173;stroke:#1a1507;stroke-width:0.8204729;stroke-linecap:butt;stroke-linejoin:miter;stroke-miterlimit:4;stroke-dasharray:none;stroke-dashoffset:0;stroke-opacity:0.5299539;paint-order:normal"
       id="path1050"
       d="m 4.9492627,292.87145 c -0.065047,-0.0421 -0.031568,-0.0186 -0.099786,-0.0714 0,0 0.2867954,-0.18171 0.2867954,-0.18171 v 0 c 0.068468,0.048 0.03436,0.0273 0.1016225,0.0632 0,0 -0.2886316,0.18991 -0.2886319,0.18991 z"
       inkscape:connector-curvature="0" />
    <path
       style="opacity:1;vector-effect:none;fill:#b1902f;fill-opacity:0.99539173;stroke:#1a1507;stroke-width:0.8204729;stroke-linecap:butt;stroke-linejoin:miter;stroke-miterlimit:4;stroke-dasharray:none;stroke-dashoffset:0;stroke-opacity:0.5299539;paint-order:normal"
       id="path1052"
       d="m 1.4264078,295.43422 c -0.064305,0.0237 -0.1287036,0.0468 -0.1941875,0.067 -0.011605,0.004 -0.077899,0.0259 -0.087275,0.0204 -0.010865,-0.006 -0.011584,-0.0224 -0.017376,-0.0336 0,0 0.3102798,-0.16004 0.3102798,-0.16004 v 0 c -0.00547,-0.005 -0.019776,-0.008 -0.016395,-0.0139 0.00426,-0.008 0.017856,-0.003 0.026596,-0.005 0.017304,-0.005 0.034422,-0.01 0.051462,-0.0151 0.067328,-0.0214 0.1332988,-0.0465 0.198639,-0.0733 0,0 -0.2717441,0.21369 -0.2717441,0.21369 z"
       inkscape:connector-curvature="0" />
    <g
       id="g950"
       transform="matrix(0.97634903,0,0,0.97653899,0.18534738,6.782511)"
       style="stroke-width:1.02412426">
      <path
         sodipodi:nodetypes="cc"
         inkscape:connector-curvature="0"
         id="path884"
         d="M 0.49110776,281.68624 15.352603,296.50367"
         style="fill:none;fill-rule:evenodd;stroke:#5d4b21;stroke-width:1.7612803;stroke-linecap:butt;stroke-linejoin:miter;stroke-miterlimit:4;stroke-dasharray:none;stroke-opacity:1" />
      <path
         style="fill:none;fill-rule:evenodd;stroke:#5d4b21;stroke-width:0.94838172;stroke-linecap:butt;stroke-linejoin:miter;stroke-miterlimit:4;stroke-dasharray:none;stroke-opacity:1"
         d="M 0.1403165,281.27698 15.734562,296.85439"
         id="path888"
         inkscape:connector-curvature="0"
         sodipodi:nodetypes="cc" />
      <path
         inkscape:connector-curvature="0"
         id="path890"
         d="M -0.06614583,284.49842 H 15.676562"
         style="opacity:1;vector-effect:none;fill:none;fill-opacity:1;fill-rule:evenodd;stroke:#5d4b21;stroke-width:0.94838172;stroke-linecap:butt;stroke-linejoin:miter;stroke-miterlimit:4;stroke-dasharray:none;stroke-dashoffset:0;stroke-opacity:1" />
      <path
         style="opacity:1;vector-effect:none;fill:none;fill-opacity:1;fill-rule:evenodd;stroke:#5d4b21;stroke-width:0.94838172;stroke-linecap:butt;stroke-linejoin:miter;stroke-miterlimit:4;stroke-dasharray:none;stroke-dashoffset:0;stroke-opacity:1"
         d="M -0.06614583,287.67344 H 15.676562"
         id="path908"
         inkscape:connector-curvature="0" />
      <path
         inkscape:connector-curvature="0"
         id="path910"
         d="M -0.06614583,290.84846 H 15.676562"
         style="opacity:1;vector-effect:none;fill:none;fill-opacity:1;fill-rule:evenodd;stroke:#5d4b21;stroke-width:0.94838172;stroke-linecap:butt;stroke-linejoin:miter;stroke-miterlimit:4;stroke-dasharray:none;stroke-dashoffset:0;stroke-opacity:1" />
      <path
         style="opacity:1;vector-effect:none;fill:none;fill-opacity:1;fill-rule:evenodd;stroke:#5d4b21;stroke-width:0.94838172;stroke-linecap:butt;stroke-linejoin:miter;stroke-miterlimit:4;stroke-dasharray:none;stroke-dashoffset:0;stroke-opacity:1"
         d="M -0.06614583,294.02348 H 15.676562"
         id="path912"
         inkscape:connector-curvature="0" />
      <path
         inkscape:connector-curvature="0"
         id="path914"
         d="M -0.06614583,294.02348 H 15.676562"
         style="opacity:1;vector-effect:none;fill:none;fill-opacity:1;fill-rule:evenodd;stroke:#5d4b21;stroke-width:0.94838172;stroke-linecap:butt;stroke-linejoin:miter;stroke-miterlimit:4;stroke-dasharray:none;stroke-dashoffset:0;stroke-opacity:1" />
    </g>
  </g>
</svg>
