<?xml version="1.0" encoding="UTF-8" standalone="no"?>
<!-- Created with Inkscape (http://www.inkscape.org/) -->

<svg
   xmlns:dc="http://purl.org/dc/elements/1.1/"
   xmlns:cc="http://creativecommons.org/ns#"
   xmlns:rdf="http://www.w3.org/1999/02/22-rdf-syntax-ns#"
   xmlns:svg="http://www.w3.org/2000/svg"
   xmlns="http://www.w3.org/2000/svg"
   xmlns:sodipodi="http://sodipodi.sourceforge.net/DTD/sodipodi-0.dtd"
   xmlns:inkscape="http://www.inkscape.org/namespaces/inkscape"
   width="56"
   height="56"
   viewBox="0 0 14.816667 14.816667"
   version="1.1"
   id="svg8"
   inkscape:version="0.92.2 5c3e80d, 2017-08-06"
   sodipodi:docname="henchman.svg"
   inkscape:export-filename="/home/lmb/Projects/LD40-MetalFear/src/images/henchman/henchman.png"
   inkscape:export-xdpi="115.2"
   inkscape:export-ydpi="115.2">
  <defs
     id="defs2" />
  <sodipodi:namedview
     id="base"
     pagecolor="#ffffff"
     bordercolor="#666666"
     borderopacity="1.0"
     inkscape:pageopacity="0.0"
     inkscape:pageshadow="2"
     inkscape:zoom="8"
     inkscape:cx="1.893453"
     inkscape:cy="33.25543"
     inkscape:document-units="mm"
     inkscape:current-layer="layer1"
     showgrid="false"
     units="px"
     inkscape:window-width="1918"
     inkscape:window-height="1058"
     inkscape:window-x="0"
     inkscape:window-y="20"
     inkscape:window-maximized="1" />
  <metadata
     id="metadata5">
    <rdf:RDF>
      <cc:Work
         rdf:about="">
        <dc:format>image/svg+xml</dc:format>
        <dc:type
           rdf:resource="http://purl.org/dc/dcmitype/StillImage" />
        <dc:title />
      </cc:Work>
    </rdf:RDF>
  </metadata>
  <g
     inkscape:label="Layer 1"
     inkscape:groupmode="layer"
     id="layer1"
     transform="translate(0,-282.18331)">
    <ellipse
       style="opacity:1;fill:#b18643;fill-opacity:1;stroke:#513820;stroke-width:0.1;stroke-linecap:round;stroke-linejoin:miter;stroke-miterlimit:4;stroke-dasharray:none;stroke-dashoffset:0;stroke-opacity:1;paint-order:normal"
       id="path834"
       cx="7.4083333"
       cy="289.59164"
       rx="7.3038397"
       ry="3.6616442" />
    <ellipse
       style="opacity:1;fill:#dac49b;fill-opacity:1;stroke:#523509;stroke-width:0.1;stroke-linecap:round;stroke-linejoin:miter;stroke-miterlimit:4;stroke-dasharray:none;stroke-dashoffset:0;stroke-opacity:1;paint-order:normal"
       id="path836"
       cx="7.4083333"
       cy="289.59164"
       rx="3.2571177"
       ry="3.2657909" />
    <ellipse
       style="opacity:1;fill:#ffffff;fill-opacity:1;stroke:#30231b;stroke-width:0.20002501;stroke-linecap:round;stroke-linejoin:miter;stroke-miterlimit:4;stroke-dasharray:none;stroke-dashoffset:0;stroke-opacity:1;paint-order:normal"
       id="path938"
       cx="6.3605919"
       cy="287.16699"
       rx="0.52526373"
       ry="0.52656823" />
    <g
       id="g1086">
      <path
         inkscape:connector-curvature="0"
         d="m 4.3398717,289.47538 c -0.00141,-0.006 -0.00613,-0.0332 -0.013425,-0.0376 -0.00947,-0.006 -0.046588,0.0419 -0.032143,0.0345 0.5197239,-0.26882 0.6898153,-0.44462 0.4599226,-0.22374 -0.024673,0.0359 -0.052898,0.0694 -0.074023,0.10752 -0.10662,0.19199 -0.1290993,0.41766 -0.069545,0.6289 0.016113,0.0571 0.043223,0.11059 0.064835,0.1659 0.1276329,0.19241 0.054279,0.10585 0.2188536,0.26089 0,0 -0.5310043,0.32708 -0.5310043,0.32708 v 0 c -0.1698496,-0.17285 -0.093565,-0.0779 -0.2277606,-0.28545 -0.024146,-0.0584 -0.053572,-0.11479 -0.072441,-0.17514 -0.0689,-0.22021 -0.060897,-0.44696 0.026994,-0.65981 0.016029,-0.0388 0.037951,-0.075 0.056926,-0.11241 0.1897982,-0.27387 0.070639,-0.12554 0.6934921,-0.45409 0.030894,-0.0163 0.071842,0.0196 0.088571,0.0385 0.00875,0.01 0.019847,0.036 0.025734,0.0487 0,0 -0.6149828,0.33611 -0.6149828,0.33611 z"
         id="path842"
         style="opacity:1;fill:none;fill-opacity:1;stroke:#452d08;stroke-width:0.1;stroke-linecap:round;stroke-linejoin:miter;stroke-miterlimit:4;stroke-dasharray:none;stroke-dashoffset:0;stroke-opacity:1;paint-order:normal" />
      <path
         inkscape:connector-curvature="0"
         d="m 5.3380404,289.42163 c 0.1559055,0.0743 0.2733425,0.20815 0.3429515,0.36604 0.022503,0.051 0.035867,0.1057 0.053804,0.15849 0.00822,0.0568 0.02282,0.11297 0.024655,0.17029 0.00561,0.17548 -0.04934,0.34246 -0.1698717,0.47183 -0.1805919,0.19383 -0.7986839,0.47931 -0.8296232,0.49643 -0.1279379,0.0278 -0.1972035,0.0552 -0.3279947,0.0383 -0.042873,-0.006 -0.082807,-0.0249 -0.1242097,-0.0373 0,0 0.5372387,-0.36801 0.5372387,-0.36801 v 0 c 0.033381,0.01 0.065504,0.0263 0.1001468,0.0297 0.1227947,0.0126 0.1820194,-0.0173 0.3012039,-0.0503 -0.1238922,0.0783 -0.2457124,0.16007 -0.3716775,0.235 -0.048389,0.0288 0.096758,-0.0588 0.1387256,-0.0965 0.1233072,-0.11045 0.191132,-0.26002 0.1910845,-0.42601 -1.51e-5,-0.0531 -0.013815,-0.10515 -0.020734,-0.15777 -0.017879,-0.0479 -0.030827,-0.098 -0.053631,-0.14381 -0.063501,-0.12749 -0.174278,-0.2389 -0.3132911,-0.2783 -0.015686,-0.004 -0.03222,-0.006 -0.048332,-0.007 0,0 0.5695548,-0.40067 0.5695548,-0.40067 z"
         id="path844"
         style="opacity:1;fill:none;fill-opacity:1;stroke:#452d08;stroke-width:0.1;stroke-linecap:round;stroke-linejoin:miter;stroke-miterlimit:4;stroke-dasharray:none;stroke-dashoffset:0;stroke-opacity:1;paint-order:normal" />
      <path
         inkscape:connector-curvature="0"
         d="m 4.6814663,289.85756 c -0.025138,-0.0314 -0.061787,-0.0948 -0.1059836,-0.10166 -0.012924,-10e-4 -0.048839,0.0183 -0.037338,0.0126 0.5866698,-0.31752 0.6608305,-0.4555 0.4873657,-0.20085 -0.01492,0.0503 -0.03565,0.0992 -0.044758,0.1507 -0.053366,0.30243 0.025964,0.62189 0.2267311,0.85679 0.053703,0.0628 0.1222585,0.11115 0.1833886,0.16677 0.072297,0.0374 0.1445946,0.0749 0.2168922,0.11227 0,0 -0.4908006,0.32159 -0.4908006,0.32159 v 0 c -0.074276,-0.0419 -0.1485518,-0.0838 -0.2228277,-0.12568 -0.063739,-0.0595 -0.1345936,-0.11213 -0.1912168,-0.17841 -0.2074638,-0.24299 -0.2999447,-0.56091 -0.2912084,-0.87676 0.00143,-0.0515 0.011183,-0.10235 0.016767,-0.1536 0.00926,-0.0351 -0.00181,-0.0843 0.027791,-0.10529 0.03142,-0.0222 0.456897,-0.47761 0.6932529,-0.3473 0.049929,0.0275 0.08324,0.0769 0.1270939,0.11199 0,0 -0.5951489,0.35755 -0.5951489,0.35755 z"
         id="path846"
         style="opacity:1;fill:none;fill-opacity:1;stroke:#452d08;stroke-width:0.1;stroke-linecap:round;stroke-linejoin:miter;stroke-miterlimit:4;stroke-dasharray:none;stroke-dashoffset:0;stroke-opacity:1;paint-order:normal" />
      <path
         inkscape:connector-curvature="0"
         d="m 6.2474607,289.36195 c 0.013022,0.01 0.025599,0.0196 0.039059,0.0283 0.1079361,0.0705 0.041928,0.0193 0.170849,0.10613 0.090186,0.0607 0.1776769,0.12442 0.2545282,0.20214 0.044985,0.0455 0.083589,0.0969 0.1253837,0.14544 0.033934,0.0587 0.074278,0.11394 0.1017985,0.17594 0.085607,0.19266 0.108677,0.41142 0.047666,0.61517 -0.053149,0.17751 -0.1001872,0.20949 -0.2119792,0.35025 0,0 -0.5618057,0.23844 -0.5618057,0.23844 v 0 c 0.1169217,-0.12707 0.1654334,-0.15451 0.225751,-0.32152 0.067962,-0.18816 0.053255,-0.39407 -0.029262,-0.57482 -0.026453,-0.0579 -0.066263,-0.10878 -0.099393,-0.16314 -0.042119,-0.0445 -0.080791,-0.0926 -0.1263571,-0.1335 -0.1516665,-0.13629 -0.3398728,-0.2122 -0.5229965,-0.294 0,0 0.5867564,-0.37482 0.5867564,-0.37482 z"
         id="path848"
         style="opacity:1;fill:none;fill-opacity:1;stroke:#452d08;stroke-width:0.1;stroke-linecap:round;stroke-linejoin:miter;stroke-miterlimit:4;stroke-dasharray:none;stroke-dashoffset:0;stroke-opacity:1;paint-order:normal" />
      <path
         inkscape:connector-curvature="0"
         d="m 6.5547732,289.55792 c -0.060383,0.30419 -0.1371701,0.60475 -0.218221,0.90395 -0.08539,0.27333 -0.1662193,0.56395 -0.3528794,0.78901 -0.038391,0.0464 -0.078166,0.094 -0.1290005,0.12609 -0.2197799,0.13853 -0.4524484,0.25532 -0.6786727,0.38298 -0.050965,4e-5 -0.1019308,8e-5 -0.1528964,1.3e-4 0,0 0.5148191,-0.379 0.5148191,-0.379 v 0 c 0.043403,-0.004 0.086805,-0.01 0.1302079,-0.0141 -0.1289336,0.0814 -0.2514428,0.17421 -0.3868009,0.24444 -0.054513,0.0282 0.099535,-0.073 0.1420626,-0.11744 0.2017232,-0.21049 0.2888579,-0.49951 0.3699633,-0.77159 0.0453,-0.18715 0.088383,-0.37322 0.1166696,-0.56386 0.00809,-0.0544 0.022373,-0.16833 0.025584,-0.2296 0.00103,-0.0198 -2.694e-4,-0.0398 -4.053e-4,-0.0596 0,0 0.6195674,-0.31134 0.6195674,-0.31134 z"
         id="path850"
         style="opacity:1;fill:none;fill-opacity:1;stroke:#452d08;stroke-width:0.1;stroke-linecap:round;stroke-linejoin:miter;stroke-miterlimit:4;stroke-dasharray:none;stroke-dashoffset:0;stroke-opacity:1;paint-order:normal" />
      <path
         inkscape:connector-curvature="0"
         d="m 5.5189728,290.27344 c 0.00965,0.0147 0.021917,0.0279 0.028967,0.0441 0.044907,0.10264 0.035551,0.22492 0.033388,0.33328 -0.00823,0.41203 -0.00478,-0.0691 -0.00625,0.36876 0.011114,0.14238 0.00983,0.23151 0.052003,0.3683 0.015827,0.0514 0.042098,0.0989 0.063146,0.14828 0,0 -0.5469644,0.30634 -0.5469644,0.30634 v 0 c -0.020392,-0.054 -0.045533,-0.10654 -0.061178,-0.16222 -0.038706,-0.13768 -0.041402,-0.23776 -0.054627,-0.37961 -0.00496,-0.11883 -0.00682,-0.23776 -0.014503,-0.35641 -0.00479,-0.074 -0.00855,-0.20361 -0.055372,-0.27028 -0.00458,-0.007 -0.013286,-0.008 -0.019928,-0.0126 0,0 0.5813238,-0.38731 0.5813238,-0.38731 z"
         id="path852"
         style="opacity:1;fill:none;fill-opacity:1;stroke:#452d08;stroke-width:0.1;stroke-linecap:round;stroke-linejoin:miter;stroke-miterlimit:4;stroke-dasharray:none;stroke-dashoffset:0;stroke-opacity:1;paint-order:normal" />
      <path
         inkscape:connector-curvature="0"
         d="m 5.2590549,290.6106 c -0.00407,0.008 -0.011977,0.0151 -0.012186,0.0242 -0.00133,0.0571 0.032954,0.15377 0.049766,0.19694 0.061626,0.15821 0.099705,0.21613 0.183528,0.37184 0,0 -0.5150248,0.29945 -0.5150248,0.29945 v 0 c -0.09427,-0.14147 -0.1453256,-0.21353 -0.2292399,-0.35502 -0.032213,-0.0543 -0.078114,-0.13518 -0.1018152,-0.19826 -0.00648,-0.0173 -0.00939,-0.0356 -0.014072,-0.0535 0,0 0.6390514,-0.28562 0.6390514,-0.28562 z"
         id="path854"
         style="opacity:1;fill:none;fill-opacity:1;stroke:#452d08;stroke-width:0.1;stroke-linecap:round;stroke-linejoin:miter;stroke-miterlimit:4;stroke-dasharray:none;stroke-dashoffset:0;stroke-opacity:1;paint-order:normal" />
      <path
         inkscape:connector-curvature="0"
         d="m 7.0176938,291.46622 c -0.086959,0.18899 -0.1138814,0.39826 -0.1444763,0.60214 0,0 -0.5756108,0.28369 -0.5756108,0.28369 v 0 c 0.027231,-0.19631 0.047067,-0.39413 0.088012,-0.58819 0,0 0.6320748,-0.29764 0.6320751,-0.29764 z"
         id="path856"
         style="opacity:1;fill:none;fill-opacity:1;stroke:#452d08;stroke-width:0.1;stroke-linecap:round;stroke-linejoin:miter;stroke-miterlimit:4;stroke-dasharray:none;stroke-dashoffset:0;stroke-opacity:1;paint-order:normal" />
      <path
         inkscape:connector-curvature="0"
         d="m 6.5421943,292.18345 c -0.024773,0.10054 -0.028015,0.20443 -0.054681,0.30458 -0.6354579,0.37805 -0.4878111,0.56597 -0.6557538,0.28771 0,0 0.5911854,-0.34902 0.5911854,-0.34902 v 0 c 0.191813,-0.12261 0.00645,-0.004 -0.5619858,0.3462 0.00805,-0.01 0.018475,-0.019 0.024165,-0.0309 0.035853,-0.074 0.022646,-0.1683 0.029762,-0.24797 0,0 0.6273101,-0.3107 0.6273101,-0.3107 z"
         id="path858"
         style="opacity:1;fill:none;fill-opacity:1;stroke:#452d08;stroke-width:0.1;stroke-linecap:round;stroke-linejoin:miter;stroke-miterlimit:4;stroke-dasharray:none;stroke-dashoffset:0;stroke-opacity:1;paint-order:normal" />
      <path
         inkscape:connector-curvature="0"
         d="m 6.1628126,290.73427 c 0.00794,0.14383 0.083419,0.27774 0.1778441,0.38339 0.031792,0.0356 0.068101,0.0668 0.1021509,0.10026 0.1670657,0.14442 0.3682222,0.236 0.5670813,0.32657 0,0 -0.5259899,0.3484 -0.5259899,0.3484 v 0 c -0.2008195,-0.10082 -0.4052069,-0.19898 -0.581894,-0.34018 -0.038084,-0.0342 -0.078183,-0.0663 -0.1142519,-0.10277 -0.1102048,-0.11116 -0.1921866,-0.24578 -0.2423212,-0.3938 0,0 0.6173798,-0.32191 0.6173798,-0.32191 z"
         id="path860"
         style="opacity:1;fill:none;fill-opacity:1;stroke:#452d08;stroke-width:0.1;stroke-linecap:round;stroke-linejoin:miter;stroke-miterlimit:4;stroke-dasharray:none;stroke-dashoffset:0;stroke-opacity:1;paint-order:normal" />
      <path
         inkscape:connector-curvature="0"
         d="m 6.3829818,291.18656 c -0.077433,0.0924 -0.1633485,0.28171 -0.021379,0.3636 0.023542,0.014 0.052237,0.0149 0.078355,0.0223 0.028745,-0.006 0.059095,-0.004 0.086235,-0.0149 0.027997,-0.0112 0.1026759,-0.0627 0.075849,-0.0492 -0.1714273,0.0874 -0.3324123,0.19639 -0.5100077,0.27033 -0.022105,0.01 0.022821,-0.044 0.023822,-0.0679 0.00302,-0.0718 -0.036151,-0.0922 -0.080779,-0.14022 -0.034626,-0.0183 -0.067132,-0.0413 -0.1038736,-0.0549 -0.1773044,-0.0654 -0.4072087,-0.0552 -0.5784088,0.0246 -0.036462,0.0169 -0.067832,0.0433 -0.1017498,0.0649 0.1655823,-0.0883 0.3243848,-0.19056 0.496747,-0.26452 0.020875,-0.008 -0.022857,0.0403 -0.026726,0.0628 -0.00396,0.0229 -0.00133,0.0471 0.00384,0.0698 0.020929,0.0916 0.08581,0.16482 0.1422608,0.23597 0.063795,0.0762 0.1358832,0.1444 0.2085929,0.21182 0,0 -0.5634407,0.34767 -0.5634407,0.34767 v 0 c -0.071612,-0.0719 -0.1428089,-0.14436 -0.2091191,-0.22134 -0.079113,-0.0978 -0.1882666,-0.22225 -0.1862314,-0.35744 4.79e-4,-0.0314 -0.00471,-0.0729 0.02013,-0.092 0.1954299,-0.15071 0.4141373,-0.26836 0.621206,-0.40254 0.033639,-0.0154 0.065805,-0.0344 0.1009128,-0.0459 0.1878215,-0.0616 0.4269586,-0.0599 0.6115905,0.0126 0.043753,0.0172 0.082621,0.0448 0.1239326,0.0672 0.066377,0.0701 0.1085669,0.0905 0.1210858,0.191 0.036561,0.29348 -0.5620228,0.45894 -0.6329014,0.50191 -0.026954,0.0163 -0.059082,0.0243 -0.090412,0.0275 -0.034132,0.004 -0.068448,-0.006 -0.1026718,-0.007 -0.031635,-0.0158 -0.067089,-0.0254 -0.094908,-0.0472 -0.1386003,-0.10864 -0.1109805,-0.2923 -0.048422,-0.43333 0,0 0.6364702,-0.27501 0.6364702,-0.27501 z"
         id="path862"
         style="opacity:1;fill:none;fill-opacity:1;stroke:#452d08;stroke-width:0.1;stroke-linecap:round;stroke-linejoin:miter;stroke-miterlimit:4;stroke-dasharray:none;stroke-dashoffset:0;stroke-opacity:1;paint-order:normal" />
      <path
         inkscape:connector-curvature="0"
         d="m 5.8996237,291.7598 c -0.02971,0.0924 -0.024516,0.20018 0.033679,0.28196 0.018531,0.0261 0.045768,0.0445 0.068651,0.0669 0,0 -0.5593446,0.3436 -0.5593446,0.3436 v 0 c -0.027054,-0.0279 -0.058063,-0.0524 -0.081163,-0.0836 -0.064612,-0.0874 -0.088386,-0.19801 -0.091033,-0.30447 0,0 0.6292111,-0.30426 0.6292111,-0.30426 z"
         id="path864"
         style="opacity:1;fill:none;fill-opacity:1;stroke:#452d08;stroke-width:0.1;stroke-linecap:round;stroke-linejoin:miter;stroke-miterlimit:4;stroke-dasharray:none;stroke-dashoffset:0;stroke-opacity:1;paint-order:normal" />
      <path
         inkscape:connector-curvature="0"
         d="m 6.9682623,290.14506 c 0.085373,0.16422 0.2122419,0.30218 0.334257,0.4394 0.032508,0.0342 0.065012,0.0683 0.097517,0.1025 0,0 -0.5456648,0.3331 -0.5456648,0.3331 v 0 c -0.032195,-0.0346 -0.064392,-0.0691 -0.096587,-0.10376 -0.1321842,-0.13782 -0.2662309,-0.27401 -0.3938866,-0.41615 0,0 0.6043643,-0.35508 0.6043643,-0.35508 z"
         id="path866"
         style="opacity:1;fill:none;fill-opacity:1;stroke:#452d08;stroke-width:0.1;stroke-linecap:round;stroke-linejoin:miter;stroke-miterlimit:4;stroke-dasharray:none;stroke-dashoffset:0;stroke-opacity:1;paint-order:normal" />
      <path
         inkscape:connector-curvature="0"
         d="m 6.1667819,290.22498 c 0.024475,-0.038 0.039738,-0.0656 0.074778,-0.0983 0.023663,-0.0221 0.048368,-0.0438 0.07669,-0.0595 0.2231366,-0.12302 0.4420837,-0.25621 0.6765282,-0.35594 0.060835,-0.0258 0.2766519,0.0384 0.3199699,0.0489 0.2701183,0.11451 0.1352551,0.0473 0.4030984,0.2046 0,0 -0.4957145,0.3245 -0.4957145,0.3245 v 0 c -0.2751794,-0.13967 -0.1363079,-0.0832 -0.4152147,-0.17283 -0.060278,-0.007 -0.1201319,-0.0207 -0.1808333,-0.0216 -0.049145,-7.6e-4 -0.1836495,0.0489 -0.1465339,0.0165 0.1356715,-0.11813 0.3054665,-0.18977 0.4569184,-0.28669 0.023273,-0.0149 -0.049822,0.0244 -0.072289,0.0405 -0.035014,0.0251 -0.040714,0.0392 -0.060702,0.0712 0,0 -0.6366945,0.28883 -0.6366945,0.28883 z"
         id="path868"
         style="opacity:1;fill:none;fill-opacity:1;stroke:#452d08;stroke-width:0.1;stroke-linecap:round;stroke-linejoin:miter;stroke-miterlimit:4;stroke-dasharray:none;stroke-dashoffset:0;stroke-opacity:1;paint-order:normal" />
      <path
         inkscape:connector-curvature="0"
         d="m 7.5750162,289.73635 c 0.197429,-0.007 0.3840751,0.0864 0.5427475,0.19686 0.054954,0.0383 0.1055991,0.0824 0.158399,0.12344 0.051004,0.049 0.1020102,0.098 0.1530146,0.14699 0,0 -0.5154956,0.31942 -0.5154956,0.31942 v 0 c -0.051261,-0.0461 -0.1025227,-0.0922 -0.1537834,-0.13824 -0.053776,-0.0373 -0.1050602,-0.0786 -0.1613266,-0.11199 -0.1448532,-0.086 -0.3443515,-0.16563 -0.516153,-0.12274 -0.018177,0.004 -0.034302,0.0151 -0.051456,0.0226 0,0 0.5440527,-0.43635 0.5440527,-0.43635 z"
         id="path870"
         style="opacity:1;fill:none;fill-opacity:1;stroke:#452d08;stroke-width:0.1;stroke-linecap:round;stroke-linejoin:miter;stroke-miterlimit:4;stroke-dasharray:none;stroke-dashoffset:0;stroke-opacity:1;paint-order:normal" />
      <path
         inkscape:connector-curvature="0"
         d="m 8.5651144,289.42875 c -0.00787,0.19748 -0.017846,0.3955 0.00808,0.59224 0.00674,0.0513 0.017716,0.1018 0.026575,0.15271 0.012339,0.0451 0.024673,0.0904 0.037009,0.13545 0,0 -0.5611085,0.3045 -0.5611085,0.3045 v 0 c -0.011128,-0.0475 -0.022264,-0.0951 -0.033399,-0.14266 -0.00943,-0.0522 -0.020204,-0.10417 -0.028304,-0.15656 -0.028671,-0.1855 -0.032943,-0.37369 -0.063468,-0.55878 0,0 0.6146221,-0.32693 0.6146221,-0.32693 z"
         id="path872"
         style="opacity:1;fill:none;fill-opacity:1;stroke:#452d08;stroke-width:0.1;stroke-linecap:round;stroke-linejoin:miter;stroke-miterlimit:4;stroke-dasharray:none;stroke-dashoffset:0;stroke-opacity:1;paint-order:normal" />
      <path
         inkscape:connector-curvature="0"
         d="m 8.1486465,290.17641 c -0.1277666,0.12107 -0.2248485,0.27894 -0.2740109,0.4487 -0.011225,0.0388 -0.016228,0.079 -0.024341,0.11856 -1.157e-4,0.0334 -2.315e-4,0.0669 -3.472e-4,0.10026 0,0 -0.5844986,0.2974 -0.5844986,0.2974 v 0 c 0.00103,-0.0381 0.0021,-0.0764 0.00313,-0.1145 0.0079,-0.0427 0.013133,-0.086 0.02369,-0.12819 0.041023,-0.16369 0.1190414,-0.31584 0.2128152,-0.45498 0,0 0.6435447,-0.26728 0.6435447,-0.26728 z"
         id="path874"
         style="opacity:1;fill:none;fill-opacity:1;stroke:#452d08;stroke-width:0.1;stroke-linecap:round;stroke-linejoin:miter;stroke-miterlimit:4;stroke-dasharray:none;stroke-dashoffset:0;stroke-opacity:1;paint-order:normal" />
      <path
         inkscape:connector-curvature="0"
         d="m 8.1210859,290.40751 c 0.01426,0.21664 0.050521,0.45292 0.172793,0.63767 0.026144,0.0395 0.061374,0.0722 0.092061,0.10822 0,0 -0.5457451,0.32715 -0.5457451,0.32715 v 0 c -0.030883,-0.0409 -0.065619,-0.079 -0.092646,-0.12261 -0.1183757,-0.19073 -0.1628539,-0.41409 -0.2373974,-0.62285 0,0 0.6109343,-0.32751 0.6109343,-0.32751 z"
         id="path876"
         style="opacity:1;fill:none;fill-opacity:1;stroke:#452d08;stroke-width:0.1;stroke-linecap:round;stroke-linejoin:miter;stroke-miterlimit:4;stroke-dasharray:none;stroke-dashoffset:0;stroke-opacity:1;paint-order:normal" />
      <path
         inkscape:connector-curvature="0"
         d="m 9.616322,289.72343 c -0.113387,0.15387 -0.1927023,0.32899 -0.2605911,0.50677 -0.00818,0.0307 -0.016335,0.0616 -0.024504,0.0923 0,0 -0.5948077,0.28461 -0.5948077,0.28461 v 0 c 0.0089,-0.0336 0.017808,-0.0673 0.026712,-0.10082 0.06393,-0.16998 0.136911,-0.33597 0.2142179,-0.50026 0,0 0.6389738,-0.28256 0.6389738,-0.28256 z"
         id="path878"
         style="opacity:1;fill:none;fill-opacity:1;stroke:#452d08;stroke-width:0.1;stroke-linecap:round;stroke-linejoin:miter;stroke-miterlimit:4;stroke-dasharray:none;stroke-dashoffset:0;stroke-opacity:1;paint-order:normal" />
      <path
         inkscape:connector-curvature="0"
         d="m 9.2591271,289.72886 c -0.048649,0.0299 -0.1179607,0.0774 -0.1052705,0.14569 0.010543,0.0568 0.053074,0.0828 0.091938,0.12037 0.1446819,0.0923 0.066222,0.0487 0.2369723,0.12805 0,0 -0.5270955,0.35122 -0.5270955,0.35122 v 0 c -0.1901607,-0.0811 -0.1009392,-0.0363 -0.2687104,-0.13238 -0.029085,-0.0254 -0.062071,-0.0471 -0.087248,-0.0764 -0.078139,-0.091 -0.077165,-0.19832 0.00709,-0.28069 0,0 0.6523233,-0.25592 0.6523237,-0.25592 z"
         id="path880"
         style="opacity:1;fill:none;fill-opacity:1;stroke:#452d08;stroke-width:0.1;stroke-linecap:round;stroke-linejoin:miter;stroke-miterlimit:4;stroke-dasharray:none;stroke-dashoffset:0;stroke-opacity:1;paint-order:normal" />
      <path
         inkscape:connector-curvature="0"
         d="m 8.894722,289.42053 c 0.00474,0.0126 0.00809,0.0254 0.014208,0.0371 0.083448,0.1601 0.2255257,0.27858 0.3579755,0.39589 0,0 -0.5223546,0.32774 -0.5223546,0.32774 v 0 c -0.1643942,-0.12833 -0.336745,-0.25563 -0.4617293,-0.42523 0,0 0.6118979,-0.33549 0.6118979,-0.33549 z"
         id="path882"
         style="opacity:1;fill:none;fill-opacity:1;stroke:#452d08;stroke-width:0.1;stroke-linecap:round;stroke-linejoin:miter;stroke-miterlimit:4;stroke-dasharray:none;stroke-dashoffset:0;stroke-opacity:1;paint-order:normal" />
      <path
         inkscape:connector-curvature="0"
         d="m 10.077308,289.58227 c -0.01626,0.20487 0.06414,0.40007 0.140327,0.58558 0,0 -0.5619226,0.31553 -0.5619226,0.31553 v 0 c -0.078974,-0.19007 -0.1603523,-0.38084 -0.1984681,-0.58434 0,0 0.6200637,-0.31677 0.6200637,-0.31677 z"
         id="path884"
         style="opacity:1;fill:none;fill-opacity:1;stroke:#452d08;stroke-width:0.1;stroke-linecap:round;stroke-linejoin:miter;stroke-miterlimit:4;stroke-dasharray:none;stroke-dashoffset:0;stroke-opacity:1;paint-order:normal" />
      <path
         inkscape:connector-curvature="0"
         d="m 10.160197,290.57223 c -0.0497,0.14355 -0.09363,0.289 -0.141361,0.43322 0,0 -0.5882623,0.2776 -0.5882623,0.2776 v 0 c 0.042029,-0.13335 0.081983,-0.26756 0.1004128,-0.40654 0,0 0.6292105,-0.30428 0.6292105,-0.30428 z"
         id="path886"
         style="opacity:1;fill:none;fill-opacity:1;stroke:#452d08;stroke-width:0.1;stroke-linecap:round;stroke-linejoin:miter;stroke-miterlimit:4;stroke-dasharray:none;stroke-dashoffset:0;stroke-opacity:1;paint-order:normal" />
      <path
         inkscape:connector-curvature="0"
         d="m 9.9801336,290.56984 c 0.010334,0.17983 0.00609,0.35998 0.00111,0.53989 0,0 -0.5726918,0.29107 -0.5726918,0.29107 v 0 c 0.00228,-0.16775 0.00589,-0.33909 -0.039711,-0.50218 0,0 0.6113093,-0.32878 0.6113093,-0.32878 z"
         id="path888"
         style="opacity:1;fill:none;fill-opacity:1;stroke:#452d08;stroke-width:0.1;stroke-linecap:round;stroke-linejoin:miter;stroke-miterlimit:4;stroke-dasharray:none;stroke-dashoffset:0;stroke-opacity:1;paint-order:normal" />
      <path
         inkscape:connector-curvature="0"
         d="m 9.5731213,290.23282 c -0.019953,0.014 -0.040873,0.0264 -0.059855,0.0416 -0.1748089,0.13972 -0.3215112,0.32681 -0.4440035,0.51265 -0.040303,0.0612 -0.076216,0.12512 -0.1143244,0.18765 -0.1289239,0.2476 -0.069719,0.12456 -0.1785803,0.36871 0,0 -0.5554921,0.25443 -0.5554921,0.25443 v 0 c 0.1158508,-0.25072 0.054575,-0.12455 0.1843051,-0.37846 0.036133,-0.0631 0.070559,-0.12721 0.1083971,-0.18931 0.1185331,-0.1945 0.2527996,-0.38218 0.4136321,-0.54388 0,0 0.645921,-0.25341 0.645921,-0.25341 z"
         id="path890"
         style="opacity:1;fill:none;fill-opacity:1;stroke:#452d08;stroke-width:0.1;stroke-linecap:round;stroke-linejoin:miter;stroke-miterlimit:4;stroke-dasharray:none;stroke-dashoffset:0;stroke-opacity:1;paint-order:normal" />
      <path
         inkscape:connector-curvature="0"
         d="m 9.2574814,290.4367 c -0.1927695,0.14818 -0.3460668,0.34334 -0.4836275,0.54234 -0.043918,0.0635 -0.08427,0.12945 -0.1264059,0.19421 0,0 -0.5455852,0.24076 -0.5455852,0.24076 v 0 c 0.1531592,-0.24805 0.3066405,-0.50095 0.5065862,-0.71464 0,0 0.649032,-0.26267 0.6490324,-0.26267 z"
         id="path892"
         style="opacity:1;fill:none;fill-opacity:1;stroke:#452d08;stroke-width:0.1;stroke-linecap:round;stroke-linejoin:miter;stroke-miterlimit:4;stroke-dasharray:none;stroke-dashoffset:0;stroke-opacity:1;paint-order:normal" />
      <path
         inkscape:connector-curvature="0"
         d="m 8.1488933,291.03208 c -0.1633311,0.18739 -0.3203438,0.38021 -0.4740274,0.57561 -0.087966,0.11255 -0.045967,0.0605 -0.125424,0.15671 0,0 -0.611336,0.25712 -0.611336,0.25712 v 0 c 0.097331,-0.0977 0.047382,-0.0443 0.1484474,-0.16199 0.092274,-0.11297 0.1840589,-0.22597 0.2723269,-0.34213 0.024659,-0.0324 0.095763,-0.12652 0.1232125,-0.16678 0.00955,-0.014 0.017797,-0.0289 0.026696,-0.0433 0,0 0.640103,-0.27525 0.640103,-0.27525 z"
         id="path894"
         style="opacity:1;fill:none;fill-opacity:1;stroke:#452d08;stroke-width:0.1;stroke-linecap:round;stroke-linejoin:miter;stroke-miterlimit:4;stroke-dasharray:none;stroke-dashoffset:0;stroke-opacity:1;paint-order:normal" />
      <path
         inkscape:connector-curvature="0"
         d="m 7.3642231,291.1286 c -0.087777,0.0768 -0.1595409,0.17044 -0.2151526,0.27296 -0.019117,0.0352 -0.034559,0.0723 -0.05184,0.1085 0,0 -0.5899282,0.27081 -0.5899282,0.27081 v 0 c 0.01548,-0.0376 0.029522,-0.0758 0.046442,-0.11283 0.044091,-0.0964 0.099126,-0.18793 0.1644433,-0.27124 0,0 0.6460359,-0.2683 0.6460359,-0.2683 z"
         id="path896"
         style="opacity:1;fill:none;fill-opacity:1;stroke:#452d08;stroke-width:0.1;stroke-linecap:round;stroke-linejoin:miter;stroke-miterlimit:4;stroke-dasharray:none;stroke-dashoffset:0;stroke-opacity:1;paint-order:normal" />
      <path
         inkscape:connector-curvature="0"
         d="m 6.7213045,291.83022 c 0.1764874,-0.1 0.34743,-0.21058 0.5294626,-0.30005 0.032349,-0.0159 -0.053618,0.0487 -0.075915,0.0771 -0.094498,0.12023 -0.1494128,0.2666 -0.1649668,0.41859 -0.00553,0.054 -8.476e-4,0.10864 -0.00129,0.16297 0,0 -0.5577808,0.28566 -0.5577808,0.28566 v 0 c -0.00155,-0.0574 -0.00767,-0.11492 -0.00462,-0.17236 0.00813,-0.15289 0.049536,-0.30303 0.1237389,-0.43682 0.016055,-0.0289 0.028053,-0.0638 0.055386,-0.0824 0.2048676,-0.13936 0.4230409,-0.25803 0.6345614,-0.38703 0,0 -0.5385821,0.43429 -0.5385821,0.43429 z"
         id="path898"
         style="opacity:1;fill:none;fill-opacity:1;stroke:#452d08;stroke-width:0.1;stroke-linecap:round;stroke-linejoin:miter;stroke-miterlimit:4;stroke-dasharray:none;stroke-dashoffset:0;stroke-opacity:1;paint-order:normal" />
      <path
         inkscape:connector-curvature="0"
         d="m 7.4804113,292.46154 c -0.014327,0.0168 -0.078354,0.0785 -0.066586,0.10347 0.00177,0.004 0.00822,0.001 0.012325,0.003 0,0 -0.5882152,0.36326 -0.5882152,0.36326 v 0 c -0.012311,-0.0149 -0.028315,-0.0275 -0.036955,-0.0448 -0.02615,-0.0525 0.00574,-0.10808 0.035253,-0.14989 0,0 0.6441758,-0.27443 0.6441758,-0.27443 z"
         id="path900"
         style="opacity:1;fill:none;fill-opacity:1;stroke:#452d08;stroke-width:0.1;stroke-linecap:round;stroke-linejoin:miter;stroke-miterlimit:4;stroke-dasharray:none;stroke-dashoffset:0;stroke-opacity:1;paint-order:normal" />
      <path
         inkscape:connector-curvature="0"
         d="m 7.9730224,292.43502 c -0.045233,0.0324 -0.1003877,0.0627 -0.1265855,0.11451 -0.00331,0.007 -0.0035,0.0142 -0.00526,0.0215 0,0 -0.6145536,0.31421 -0.6145536,0.31421 v 0 c -0.00184,-0.017 -0.00741,-0.0341 -0.00549,-0.0511 0.00677,-0.0602 0.059132,-0.10515 0.1016384,-0.14165 0,0 0.6502632,-0.25754 0.6502632,-0.25754 z"
         id="path902"
         style="opacity:1;fill:none;fill-opacity:1;stroke:#452d08;stroke-width:0.1;stroke-linecap:round;stroke-linejoin:miter;stroke-miterlimit:4;stroke-dasharray:none;stroke-dashoffset:0;stroke-opacity:1;paint-order:normal" />
      <path
         inkscape:connector-curvature="0"
         d="m 7.2816412,292.02677 c -0.2160989,0.13448 0.1831716,-0.1145 0.5413074,-0.30591 0.01188,-0.007 -0.020551,0.0191 -0.024928,0.0318 -0.0062,0.0182 -0.00801,0.0381 -0.00558,0.0571 0.00972,0.0758 0.036827,0.0998 0.078555,0.16437 0,0 -0.5630615,0.33292 -0.5630615,0.33292 v 0 c -0.058478,-0.0769 -0.083961,-0.0965 -0.1143383,-0.18587 -0.1070684,-0.31529 0.3793622,-0.4553 0.6442352,-0.51674 0,0 -0.556192,0.42225 -0.556192,0.42225 z"
         id="path904"
         style="opacity:1;fill:none;fill-opacity:1;stroke:#452d08;stroke-width:0.1;stroke-linecap:round;stroke-linejoin:miter;stroke-miterlimit:4;stroke-dasharray:none;stroke-dashoffset:0;stroke-opacity:1;paint-order:normal" />
      <path
         inkscape:connector-curvature="0"
         d="m 9.0570187,291.33983 c -0.069712,0.0994 -0.096664,0.22421 -0.1018055,0.34424 -0.00184,0.0434 0.0024,0.0869 0.00358,0.13028 0,0 -0.5712879,0.29583 -0.5712879,0.29583 v 0 c -0.00365,-0.0452 -0.00965,-0.0904 -0.010988,-0.13573 -0.0035,-0.11855 0.010821,-0.23762 0.041537,-0.35211 0,0 0.6389737,-0.28257 0.6389737,-0.28257 z"
         id="path906"
         style="opacity:1;fill:none;fill-opacity:1;stroke:#452d08;stroke-width:0.1;stroke-linecap:round;stroke-linejoin:miter;stroke-miterlimit:4;stroke-dasharray:none;stroke-dashoffset:0;stroke-opacity:1;paint-order:normal" />
      <path
         inkscape:connector-curvature="0"
         d="m 9.3816034,291.59339 c -0.046659,0.0593 -0.080635,0.1293 -0.090697,0.20507 -0.00365,0.0275 -1.14e-5,0.0554 -1.73e-5,0.0832 0,0 -0.5903605,0.30424 -0.5903605,0.30424 v 0 c -0.00213,-0.0324 -0.00748,-0.0646 -0.00636,-0.097 0.00255,-0.0746 0.024559,-0.14762 0.049434,-0.21721 0,0 0.6380101,-0.27817 0.6380101,-0.27817 z"
         id="path908"
         style="opacity:1;fill:none;fill-opacity:1;stroke:#452d08;stroke-width:0.1;stroke-linecap:round;stroke-linejoin:miter;stroke-miterlimit:4;stroke-dasharray:none;stroke-dashoffset:0;stroke-opacity:1;paint-order:normal" />
      <path
         inkscape:connector-curvature="0"
         d="m 10.225264,290.80134 c -0.02273,0.0169 -0.04884,0.036 -0.05093,0.0674 -6.64e-4,0.01 0.0034,0.0191 0.0052,0.0288 0,0 -0.6027335,0.3309 -0.6027335,0.3309 v 0 c -0.00642,-0.017 -0.015296,-0.0334 -0.019241,-0.0511 -0.00876,-0.0395 -0.00118,-0.0795 0.020333,-0.11297 0,0 0.6474225,-0.26307 0.6474225,-0.26307 z"
         id="path910"
         style="opacity:1;fill:none;fill-opacity:1;stroke:#452d08;stroke-width:0.1;stroke-linecap:round;stroke-linejoin:miter;stroke-miterlimit:4;stroke-dasharray:none;stroke-dashoffset:0;stroke-opacity:1;paint-order:normal" />
      <path
         inkscape:connector-curvature="0"
         d="m 10.162081,289.69584 c 0.02514,0.0418 0.0099,0.0194 0.04757,0.0659 0,0 -0.583168,0.35432 -0.583168,0.35432 v 0 c -0.050463,-0.051 -0.027348,-0.0258 -0.069832,-0.0746 0,0 0.605433,-0.34563 0.605433,-0.34563 z"
         id="path912"
         style="opacity:1;fill:none;fill-opacity:1;stroke:#452d08;stroke-width:0.1;stroke-linecap:round;stroke-linejoin:miter;stroke-miterlimit:4;stroke-dasharray:none;stroke-dashoffset:0;stroke-opacity:1;paint-order:normal" />
      <path
         inkscape:connector-curvature="0"
         d="m 10.452266,289.52634 c 0.08766,0.0356 0.178287,0.0637 0.268182,0.093 0,0 -0.543875,0.37265 -0.543875,0.37265 v 0 c -0.100048,-0.0271 -0.2003991,-0.0526 -0.3021632,-0.0725 0,0 0.5778562,-0.39311 0.5778562,-0.39311 z"
         id="path914"
         style="opacity:1;fill:none;fill-opacity:1;stroke:#452d08;stroke-width:0.1;stroke-linecap:round;stroke-linejoin:miter;stroke-miterlimit:4;stroke-dasharray:none;stroke-dashoffset:0;stroke-opacity:1;paint-order:normal" />
      <path
         inkscape:connector-curvature="0"
         d="m 10.688334,289.71209 c -0.0041,0.0112 -0.0096,0.023 -0.01239,0.0351 -0.03741,0.16022 0.0031,0.32843 0.04009,0.48437 0,0 -0.570708,0.30958 -0.570708,0.30958 v 0 c -0.04575,-0.17273 -0.08815,-0.34794 -0.08967,-0.52775 0,0 0.63268,-0.3013 0.63268,-0.3013 z"
         id="path916"
         style="opacity:1;fill:none;fill-opacity:1;stroke:#452d08;stroke-width:0.1;stroke-linecap:round;stroke-linejoin:miter;stroke-miterlimit:4;stroke-dasharray:none;stroke-dashoffset:0;stroke-opacity:1;paint-order:normal" />
      <path
         inkscape:connector-curvature="0"
         d="m 10.230036,291.18923 c -0.120214,0.10962 -0.225626,0.23515 -0.3180798,0.369 -0.024368,0.0353 -0.046272,0.0722 -0.069409,0.10836 0,0 -0.5892127,0.25956 -0.5892127,0.25956 v 0 c 0.1047984,-0.16236 0.2148725,-0.32117 0.3368934,-0.47113 0,0 0.6398081,-0.26574 0.6398081,-0.26574 z"
         id="path918"
         style="opacity:1;fill:none;fill-opacity:1;stroke:#452d08;stroke-width:0.1;stroke-linecap:round;stroke-linejoin:miter;stroke-miterlimit:4;stroke-dasharray:none;stroke-dashoffset:0;stroke-opacity:1;paint-order:normal" />
      <path
         inkscape:connector-curvature="0"
         d="m 9.1962711,292.14365 c -0.092667,0.0813 -0.1706368,0.17704 -0.2474202,0.27296 0,0 -0.6064183,0.25977 -0.6064183,0.25977 v 0 c 0.070761,-0.089 0.1412311,-0.17818 0.2127852,-0.26649 0,0 0.6410533,-0.26624 0.6410533,-0.26624 z"
         id="path920"
         style="opacity:1;fill:none;fill-opacity:1;stroke:#452d08;stroke-width:0.1;stroke-linecap:round;stroke-linejoin:miter;stroke-miterlimit:4;stroke-dasharray:none;stroke-dashoffset:0;stroke-opacity:1;paint-order:normal" />
      <path
         inkscape:connector-curvature="0"
         d="m 8.6116895,292.00764 c -0.1347802,0.0891 -0.2570778,0.19494 -0.3753575,0.30463 0,0 -0.6055545,0.2491 -0.6055545,0.2491 v 0 c 0.1075698,-0.1018 0.217076,-0.20228 0.3324861,-0.29517 0,0 0.6484259,-0.25856 0.6484259,-0.25856 z"
         id="path922"
         style="opacity:1;fill:none;fill-opacity:1;stroke:#452d08;stroke-width:0.1;stroke-linecap:round;stroke-linejoin:miter;stroke-miterlimit:4;stroke-dasharray:none;stroke-dashoffset:0;stroke-opacity:1;paint-order:normal" />
      <path
         inkscape:connector-curvature="0"
         d="m 8.3274487,291.80997 c -0.061189,0.0603 -0.1057691,0.13266 -0.1506398,0.20516 0,0 -0.6013572,0.26938 -0.6013572,0.26938 v 0 c 0.034317,-0.0686 0.067125,-0.13867 0.1127492,-0.20069 0,0 0.6392474,-0.27385 0.6392478,-0.27385 z"
         id="path924"
         style="opacity:1;fill:none;fill-opacity:1;stroke:#452d08;stroke-width:0.1;stroke-linecap:round;stroke-linejoin:miter;stroke-miterlimit:4;stroke-dasharray:none;stroke-dashoffset:0;stroke-opacity:1;paint-order:normal" />
      <path
         inkscape:connector-curvature="0"
         d="m 8.2392215,291.55969 c -0.027496,0.0112 -0.04263,0.0303 -0.059576,0.0532 0,0 -0.6284631,0.28693 -0.6284631,0.28693 v 0 c 0.00844,-0.0299 0.015737,-0.0596 0.035717,-0.0844 0,0 0.6523233,-0.2559 0.6523233,-0.2559 z"
         id="path926"
         style="opacity:1;fill:none;fill-opacity:1;stroke:#452d08;stroke-width:0.1;stroke-linecap:round;stroke-linejoin:miter;stroke-miterlimit:4;stroke-dasharray:none;stroke-dashoffset:0;stroke-opacity:1;paint-order:normal" />
      <path
         inkscape:connector-curvature="0"
         d="m 7.0027968,291.80409 c -0.011114,0.0489 -0.013523,0.0991 -0.01918,0.14876 0,0 -0.6167283,0.30397 -0.6167283,0.30397 v 0 c 0.00841,-0.0471 0.010348,-0.0943 0.00859,-0.14203 0,0 0.6273101,-0.3107 0.6273101,-0.3107 z"
         id="path928"
         style="opacity:1;fill:none;fill-opacity:1;stroke:#452d08;stroke-width:0.1;stroke-linecap:round;stroke-linejoin:miter;stroke-miterlimit:4;stroke-dasharray:none;stroke-dashoffset:0;stroke-opacity:1;paint-order:normal" />
      <path
         inkscape:connector-curvature="0"
         d="m 6.6630516,292.72261 c -0.025548,0.004 -0.050557,0.007 -0.076417,0.008 0,0 0.5574632,-0.41603 0.5574632,-0.41603 v 0 c 0.024935,-0.006 0.050094,-0.0112 0.073924,-0.0201 0,0 -0.5549708,0.42845 -0.5549708,0.42845 z"
         id="path930"
         style="opacity:1;fill:none;fill-opacity:1;stroke:#452d08;stroke-width:0.1;stroke-linecap:round;stroke-linejoin:miter;stroke-miterlimit:4;stroke-dasharray:none;stroke-dashoffset:0;stroke-opacity:1;paint-order:normal" />
      <path
         inkscape:connector-curvature="0"
         d="m 6.5229743,292.78471 c -0.055505,-0.003 -0.025517,-2.7e-4 -0.089892,-0.007 0,0 0.5527886,-0.40087 0.5527886,-0.40087 v 0 c 0.066043,-0.004 0.035009,-4e-5 0.093286,-0.0126 0,0 -0.5561819,0.4207 -0.5561819,0.4207 z"
         id="path932"
         style="opacity:1;fill:none;fill-opacity:1;stroke:#452d08;stroke-width:0.1;stroke-linecap:round;stroke-linejoin:miter;stroke-miterlimit:4;stroke-dasharray:none;stroke-dashoffset:0;stroke-opacity:1;paint-order:normal" />
      <path
         inkscape:connector-curvature="0"
         d="m 5.9987048,290.33789 c -0.00221,0.0112 -0.00441,0.0212 -0.00663,0.0317 0,0 -0.6260837,0.30058 -0.6260837,0.30058 v 0 c 0.00221,-0.007 0.00446,-0.0141 0.00667,-0.0212 0,0 0.626037,-0.31113 0.626037,-0.31113 z"
         id="path934"
         style="opacity:1;fill:none;fill-opacity:1;stroke:#452d08;stroke-width:0.1;stroke-linecap:round;stroke-linejoin:miter;stroke-miterlimit:4;stroke-dasharray:none;stroke-dashoffset:0;stroke-opacity:1;paint-order:normal" />
      <path
         inkscape:connector-curvature="0"
         d="m 5.7846775,289.64081 c -0.042687,0.0589 -0.020904,0.0228 -0.057539,0.1131 0,0 -0.6038366,0.28821 -0.6038366,0.28821 v 0 c 0.013718,-0.0926 0.00666,-0.052 0.019949,-0.12233 0,0 0.6414263,-0.27893 0.6414263,-0.27893 z"
         id="path936"
         style="opacity:1;fill:none;fill-opacity:1;stroke:#452d08;stroke-width:0.1;stroke-linecap:round;stroke-linejoin:miter;stroke-miterlimit:4;stroke-dasharray:none;stroke-dashoffset:0;stroke-opacity:1;paint-order:normal" />
      <path
         inkscape:connector-curvature="0"
         d="m 4.5986412,288.51944 c -0.056572,0.10459 0.00542,-0.0149 0.2678363,-0.14131 0.014905,-0.007 -0.023999,0.0232 -0.033404,0.0367 -0.032294,0.0468 -0.054631,0.1025 -0.070476,0.15655 -0.0111,0.0378 -0.017812,0.077 -0.026719,0.11549 -0.019518,0.17624 -0.014308,0.0867 -0.014924,0.2685 0,0 -0.2553771,0.13084 -0.2553771,0.13084 v 0 c -0.00529,-0.18225 -0.00653,-0.0926 0.00298,-0.26902 0.012548,-0.0888 0.013718,-0.12232 0.037671,-0.20514 0.045456,-0.15718 0.1856191,-0.32317 0.3813461,-0.29111 0,0 -0.2889415,0.19841 -0.2889415,0.19841 z"
         id="path944"
         style="opacity:1;vector-effect:none;fill:none;fill-opacity:1;stroke:#452d08;stroke-width:0.1;stroke-linecap:round;stroke-linejoin:miter;stroke-miterlimit:4;stroke-dasharray:none;stroke-dashoffset:0;stroke-opacity:1;paint-order:normal" />
      <path
         inkscape:connector-curvature="0"
         d="m 5.2338248,288.45017 c -0.053305,0.0705 -0.097577,0.14788 -0.1348233,0.22806 -0.016913,0.0364 -0.031483,0.0739 -0.047222,0.11087 0,0 -0.2692203,0.12512 -0.2692203,0.12512 v 0 c 0.038891,-0.10948 0.078289,-0.21923 0.1317789,-0.32265 0,0 0.3194868,-0.14129 0.3194868,-0.14129 z"
         id="path960"
         style="opacity:1;vector-effect:none;fill:none;fill-opacity:1;stroke:#452d08;stroke-width:0.1;stroke-linecap:round;stroke-linejoin:miter;stroke-miterlimit:4;stroke-dasharray:none;stroke-dashoffset:0;stroke-opacity:1;paint-order:normal" />
      <path
         inkscape:connector-curvature="0"
         d="m 5.2635912,288.78455 c -0.028524,0.0746 -0.058522,0.14849 -0.084822,0.22388 -0.013398,0.0384 -0.02562,0.0772 -0.038433,0.11577 0,0 -0.2675202,0.12679 -0.2675202,0.12679 v 0 c 0.028918,-0.10473 0.06112,-0.20925 0.079523,-0.31649 0,0 0.3112516,-0.15005 0.3112516,-0.15005 z"
         id="path962"
         style="opacity:1;vector-effect:none;fill:none;fill-opacity:1;stroke:#452d08;stroke-width:0.1;stroke-linecap:round;stroke-linejoin:miter;stroke-miterlimit:4;stroke-dasharray:none;stroke-dashoffset:0;stroke-opacity:1;paint-order:normal" />
      <path
         inkscape:connector-curvature="0"
         d="m 10.153776,288.52387 c 0.10147,0.0522 0.183757,0.13699 0.254803,0.22497 0.0245,0.0303 0.04668,0.0626 0.07002,0.0938 0,0 -0.255602,0.15287 -0.255602,0.15287 v 0 c -0.0243,-0.0296 -0.04705,-0.0605 -0.07291,-0.0887 -0.06653,-0.0726 -0.154271,-0.14839 -0.2502141,-0.17848 -0.010027,-0.003 -0.020635,-0.004 -0.030957,-0.006 0,0 0.2848501,-0.19844 0.2848501,-0.19844 z"
         id="path964"
         style="opacity:1;vector-effect:none;fill:none;fill-opacity:1;stroke:#452d08;stroke-width:0.1;stroke-linecap:round;stroke-linejoin:miter;stroke-miterlimit:4;stroke-dasharray:none;stroke-dashoffset:0;stroke-opacity:1;paint-order:normal" />
      <path
         inkscape:connector-curvature="0"
         d="m 10.120115,288.96966 c -0.0058,0.007 -0.01196,0.0141 -0.01743,0.0215 -0.02746,0.0373 -0.04772,0.0695 -0.07158,0.11074 -0.057749,0.0996 -0.107181,0.2031 -0.1568293,0.30685 0,0 -0.2685594,0.12261 -0.2685594,0.12261 v 0 c 0.064704,-0.14066 0.126243,-0.28286 0.1936856,-0.42222 0,0 0.3207131,-0.1395 0.3207131,-0.1395 z"
         id="path966"
         style="opacity:1;vector-effect:none;fill:none;fill-opacity:1;stroke:#452d08;stroke-width:0.1;stroke-linecap:round;stroke-linejoin:miter;stroke-miterlimit:4;stroke-dasharray:none;stroke-dashoffset:0;stroke-opacity:1;paint-order:normal" />
      <path
         inkscape:connector-curvature="0"
         d="m 10.193637,288.88212 c 0.02726,0.0567 0.0271,0.12204 0.02344,0.18355 -0.0039,0.0652 -0.01426,0.1335 -0.02282,0.19794 -0.01,0.073 -0.02013,0.14075 -0.02681,0.2141 -0.0028,0.0307 -0.0041,0.0614 -0.0061,0.0923 0,0 -0.2757835,0.13782 -0.2757835,0.13782 v 0 c 0.011573,-0.10305 0.024589,-0.20589 0.0367,-0.30888 0.00616,-0.0733 0.011824,-0.11464 0.010125,-0.18668 -0.00107,-0.045 -0.00436,-0.0969 -0.028075,-0.13699 -0.0028,-0.004 -0.00716,-0.008 -0.010738,-0.0126 0,0 0.3000305,-0.18061 0.3000305,-0.18061 z"
         id="path968"
         style="opacity:1;vector-effect:none;fill:none;fill-opacity:1;stroke:#452d08;stroke-width:0.1;stroke-linecap:round;stroke-linejoin:miter;stroke-miterlimit:4;stroke-dasharray:none;stroke-dashoffset:0;stroke-opacity:1;paint-order:normal" />
      <path
         inkscape:connector-curvature="0"
         d="m 10.357878,289.23032 c -0.01175,0.0471 -0.01792,0.0952 -0.02448,0.14315 0,0 -0.289875,0.14491 -0.289875,0.14491 v 0 c 0.0016,-0.044 0.0039,-0.0881 0.0031,-0.13223 0,0 0.311317,-0.1558 0.311317,-0.1558 z"
         id="path970"
         style="opacity:1;vector-effect:none;fill:none;fill-opacity:1;stroke:#452d08;stroke-width:0.1;stroke-linecap:round;stroke-linejoin:miter;stroke-miterlimit:4;stroke-dasharray:none;stroke-dashoffset:0;stroke-opacity:1;paint-order:normal" />
      <path
         inkscape:connector-curvature="0"
         d="m 10.345715,288.10881 c 0.01099,0.007 0.02312,0.0126 0.03295,0.0212 0.102552,0.0897 0.142271,0.24535 0.183884,0.36834 0,0 -0.555993,0.31104 -0.555993,0.31104 v 0 c -0.043994,-0.0962 -0.056242,-0.13853 -0.1165749,-0.21961 -0.020278,-0.0272 -0.048637,-0.0602 -0.084117,-0.07 -0.00845,-0.003 -0.017495,9.6e-4 -0.026247,10e-4 0,0 0.5660909,-0.41238 0.5660909,-0.41238 z"
         id="path972"
         style="opacity:1;vector-effect:none;fill:none;fill-opacity:1;stroke:#452d08;stroke-width:0.1;stroke-linecap:round;stroke-linejoin:miter;stroke-miterlimit:4;stroke-dasharray:none;stroke-dashoffset:0;stroke-opacity:1;paint-order:normal" />
      <path
         inkscape:connector-curvature="0"
         d="m 6.7403772,289.00499 c -0.00826,0.003 -0.016946,0.004 -0.024777,0.007 -0.012562,0.006 -0.047992,0.0274 -0.035993,0.0205 0.1759738,-0.1004 0.3506213,-0.20307 0.5279187,-0.30104 0.025226,-0.014 -0.0485,0.0313 -0.071417,0.0487 -0.066463,0.0507 -0.092213,0.0793 -0.1525994,0.13796 0,0 -0.6064946,0.25246 -0.6064946,0.25246 v 0 c 0.063008,-0.0674 0.073485,-0.0811 0.1396117,-0.14243 0.019662,-0.0183 0.037409,-0.0394 0.060379,-0.0532 0.2109585,-0.12679 0.4250676,-0.24837 0.6401678,-0.36799 0.02212,-0.0126 0.058536,-0.0172 0.084088,-0.0218 0,0 -0.560885,0.41938 -0.560885,0.41938 z"
         id="path974"
         style="opacity:1;vector-effect:none;fill:none;fill-opacity:1;stroke:#452d08;stroke-width:0.1;stroke-linecap:round;stroke-linejoin:miter;stroke-miterlimit:4;stroke-dasharray:none;stroke-dashoffset:0;stroke-opacity:1;paint-order:normal" />
      <path
         inkscape:connector-curvature="0"
         d="m 7.6111204,288.80638 c -0.012799,0.008 -0.026719,0.0168 -0.038391,0.0272 -0.1170665,0.10514 -0.2081606,0.28303 -0.251584,0.43126 -0.015885,0.0542 -0.02279,0.11073 -0.034188,0.16606 0,0 -0.5610532,0.27404 -0.5610532,0.27404 v 0 c 0.00901,-0.0577 0.014352,-0.11604 0.027046,-0.17305 0.037136,-0.16673 0.1076102,-0.32979 0.2079078,-0.46799 0,0 0.6502631,-0.25753 0.6502631,-0.25753 z"
         id="path976"
         style="opacity:1;vector-effect:none;fill:none;fill-opacity:1;stroke:#452d08;stroke-width:0.1;stroke-linecap:round;stroke-linejoin:miter;stroke-miterlimit:4;stroke-dasharray:none;stroke-dashoffset:0;stroke-opacity:1;paint-order:normal" />
      <path
         inkscape:connector-curvature="0"
         d="m 6.3526434,289.35269 c 0.1863186,-0.10766 0.3710305,-0.21823 0.5589559,-0.32309 0.018406,-0.01 -0.03449,0.0244 -0.049791,0.039 -0.047211,0.0447 -0.083461,0.0916 -0.1113983,0.1514 -0.050252,0.10752 -0.042906,0.12987 -0.057103,0.24891 0.024106,0.18572 -9.211e-4,0.0962 0.075571,0.26827 0,0 -0.5526666,0.31308 -0.5526666,0.31308 v 0 c -0.089061,-0.18977 -0.057628,-0.0916 -0.095707,-0.29389 0.00129,-0.0475 -0.0017,-0.0952 0.00384,-0.14243 0.00891,-0.0762 0.032551,-0.15078 0.06703,-0.21907 0.1282317,-0.25391 0.5340799,-0.37419 0.7040821,-0.48145 0,0 -0.5428126,0.43925 -0.5428123,0.43925 z"
         id="path978"
         style="opacity:1;vector-effect:none;fill:none;fill-opacity:1;stroke:#452d08;stroke-width:0.1;stroke-linecap:round;stroke-linejoin:miter;stroke-miterlimit:4;stroke-dasharray:none;stroke-dashoffset:0;stroke-opacity:1;paint-order:normal" />
      <path
         inkscape:connector-curvature="0"
         d="m 7.9709372,288.77892 c -0.00497,0.0156 -0.011949,0.0307 -0.014916,0.0468 -0.031689,0.17195 0.00737,0.39194 0.059454,0.55518 0.018668,0.0585 0.044327,0.11451 0.066488,0.17177 0,0 -0.5387583,0.30137 -0.5387583,0.30137 v 0 c -0.02356,-0.0588 -0.049241,-0.11674 -0.070683,-0.17632 -0.069187,-0.19224 -0.1202238,-0.39514 -0.1319363,-0.59964 0,0 0.630351,-0.29916 0.6303516,-0.29916 z"
         id="path980"
         style="opacity:1;vector-effect:none;fill:none;fill-opacity:1;stroke:#452d08;stroke-width:0.1;stroke-linecap:round;stroke-linejoin:miter;stroke-miterlimit:4;stroke-dasharray:none;stroke-dashoffset:0;stroke-opacity:1;paint-order:normal" />
      <path
         inkscape:connector-curvature="0"
         d="m 7.6538191,288.46571 c 0.053485,0.0258 0.1007025,0.064 0.1067899,0.12721 0.00107,0.0112 -0.00107,0.0225 -0.00159,0.0338 0,0 -0.6262399,0.3023 -0.6262399,0.3023 v 0 c 0.00542,-0.008 0.014725,-0.0166 0.015513,-0.0269 0.00206,-0.0271 -0.05247,-0.0342 -0.068477,-0.037 0,0 0.5739932,-0.39922 0.5739932,-0.39922 z"
         id="path982"
         style="opacity:1;vector-effect:none;fill:none;fill-opacity:1;stroke:#452d08;stroke-width:0.1;stroke-linecap:round;stroke-linejoin:miter;stroke-miterlimit:4;stroke-dasharray:none;stroke-dashoffset:0;stroke-opacity:1;paint-order:normal" />
      <path
         inkscape:connector-curvature="0"
         d="m 5.8511818,289.05464 c 0.00706,0.0423 0.015435,0.0885 -0.00511,0.12903 -0.006,0.0112 -0.01558,0.0214 -0.023365,0.0321 0,0 -0.6444335,0.25079 -0.6444335,0.25079 v 0 c 0.010947,-0.001 0.022337,-4e-5 0.032847,-0.003 0.035179,-0.0112 0.036391,-0.0466 0.02478,-0.075 0,0 0.6152864,-0.33363 0.6152864,-0.33363 z"
         id="path984"
         style="opacity:1;vector-effect:none;fill:none;fill-opacity:1;stroke:#452d08;stroke-width:0.1;stroke-linecap:round;stroke-linejoin:miter;stroke-miterlimit:4;stroke-dasharray:none;stroke-dashoffset:0;stroke-opacity:1;paint-order:normal" />
      <path
         inkscape:connector-curvature="0"
         d="m 4.4322505,288.61462 c -0.046162,-0.0149 -0.094788,-0.0197 -0.1427267,-0.0254 0,0 0.5702418,-0.40135 0.5702418,-0.40135 v 0 c 0.047272,0.01 0.09525,0.0191 0.1435981,0.0215 0,0 -0.5711132,0.40526 -0.5711132,0.40526 z"
         id="path986"
         style="opacity:1;vector-effect:none;fill:none;fill-opacity:1;stroke:#452d08;stroke-width:0.1;stroke-linecap:round;stroke-linejoin:miter;stroke-miterlimit:4;stroke-dasharray:none;stroke-dashoffset:0;stroke-opacity:1;paint-order:normal" />
      <path
         inkscape:connector-curvature="0"
         d="m 4.32034,288.62496 c -0.2007878,0.10431 -0.4628028,0.26214 0.4628889,-0.26702 0,0 -0.6317926,0.24502 -0.6317926,0.24502 v 0 c 0.2119239,-0.1226 0.4225283,-0.24755 0.6357722,-0.36784 0.034275,-0.0193 0.057425,-0.0212 0.09383,-0.0282 0,0 -0.5606977,0.41804 -0.5606985,0.41804 z"
         id="path988"
         style="opacity:1;vector-effect:none;fill:none;fill-opacity:1;stroke:#452d08;stroke-width:0.1;stroke-linecap:round;stroke-linejoin:miter;stroke-miterlimit:4;stroke-dasharray:none;stroke-dashoffset:0;stroke-opacity:1;paint-order:normal" />
      <path
         inkscape:connector-curvature="0"
         d="m 9.2909731,289.31782 c 0.060175,0.0676 0.139672,0.11171 0.2175492,0.1551 0,0 -0.5574082,0.36457 -0.5574082,0.36457 v 0 c -0.085908,-0.0469 -0.1709329,-0.0955 -0.2513243,-0.15162 0,0 0.5911833,-0.36805 0.5911833,-0.36805 z"
         id="path990"
         style="opacity:1;vector-effect:none;fill:none;fill-opacity:1;stroke:#452d08;stroke-width:0.1;stroke-linecap:round;stroke-linejoin:miter;stroke-miterlimit:4;stroke-dasharray:none;stroke-dashoffset:0;stroke-opacity:1;paint-order:normal" />
    </g>
    <ellipse
       ry="0.52656823"
       rx="0.52526373"
       cy="287.11053"
       cx="8.4636774"
       id="ellipse1100"
       style="opacity:1;fill:#ffffff;fill-opacity:1;stroke:#30231b;stroke-width:0.20002501;stroke-linecap:round;stroke-linejoin:miter;stroke-miterlimit:4;stroke-dasharray:none;stroke-dashoffset:0;stroke-opacity:1;paint-order:normal" />
  </g>
</svg>
