<?xml version="1.0" encoding="UTF-8" standalone="no"?>
<!-- Created with Inkscape (http://www.inkscape.org/) -->

<svg
   xmlns:dc="http://purl.org/dc/elements/1.1/"
   xmlns:cc="http://creativecommons.org/ns#"
   xmlns:rdf="http://www.w3.org/1999/02/22-rdf-syntax-ns#"
   xmlns:svg="http://www.w3.org/2000/svg"
   xmlns="http://www.w3.org/2000/svg"
   xmlns:sodipodi="http://sodipodi.sourceforge.net/DTD/sodipodi-0.dtd"
   xmlns:inkscape="http://www.inkscape.org/namespaces/inkscape"
   width="64"
   height="64"
   viewBox="0 0 16.933334 16.933333"
   version="1.1"
   id="svg8"
   sodipodi:docname="icon.svg"
   inkscape:version="0.92.2 5c3e80d, 2017-08-06"
   inkscape:export-filename="/home/lmb/Projects/LD40-MetalFear/src/icon.png"
   inkscape:export-xdpi="115.2"
   inkscape:export-ydpi="115.2">
  <defs
     id="defs2" />
  <sodipodi:namedview
     id="base"
     pagecolor="#ffffff"
     bordercolor="#666666"
     borderopacity="1.0"
     inkscape:pageopacity="0.0"
     inkscape:pageshadow="2"
     inkscape:zoom="11.2"
     inkscape:cx="32.779833"
     inkscape:cy="30.218028"
     inkscape:document-units="mm"
     inkscape:current-layer="layer1"
     showgrid="false"
     units="px"
     inkscape:window-width="1918"
     inkscape:window-height="1058"
     inkscape:window-x="0"
     inkscape:window-y="20"
     inkscape:window-maximized="1" />
  <metadata
     id="metadata5">
    <rdf:RDF>
      <cc:Work
         rdf:about="">
        <dc:format>image/svg+xml</dc:format>
        <dc:type
           rdf:resource="http://purl.org/dc/dcmitype/StillImage" />
        <dc:title />
      </cc:Work>
    </rdf:RDF>
  </metadata>
  <g
     inkscape:label="Layer 1"
     inkscape:groupmode="layer"
     id="layer1"
     transform="translate(0,-280.06669)">
    <g
       id="g904"
       transform="matrix(1.1401385,0,0,1.1401383,-1.8038991,-40.392738)"
       style="stroke-width:0.87708652;stroke:#395120;stroke-opacity:1;fill:#5cb143;fill-opacity:1">
      <path
         inkscape:connector-curvature="0"
         d="m 1.9357632,289.30781 c -0.00853,-0.0198 -0.020577,-0.0385 -0.025596,-0.0595 -0.038471,-0.16095 0.033644,-0.31675 0.099815,-0.45958 0.1066306,-0.23015 0.24778,-0.47319 0.3690105,-0.69211 0.6594505,-1.14663 1.2556223,-2.32937 1.7671042,-3.54954 0.1122652,-0.26781 0.2158194,-0.5392 0.3237289,-0.8088 0.086171,-0.23743 0.1770867,-0.47319 0.2585128,-0.7123 0.060692,-0.17822 0.1174599,-0.35789 0.1677291,-0.53933 0.027896,-0.10068 0.057208,-0.20222 0.066562,-0.30628 0.00188,-0.021 -0.054167,-0.0463 -0.034237,-0.0533 1.4724232,-0.51632 1.3842315,-0.79367 1.1737237,0.11333 -0.1220997,0.68225 -0.1624986,1.37964 -0.057975,2.06768 0.053601,0.35283 0.1550049,0.74047 0.3344003,1.05542 0.064192,0.1127 0.1594337,0.20462 0.2391505,0.30692 0.2159635,0.12028 0.2655962,0.20814 0.5200272,0.13095 0.096827,-0.0294 0.3584612,-0.18736 0.2660443,-0.14616 -0.2480714,0.11059 -0.4633637,0.38176 -0.7336083,0.3546 -0.1871443,-0.0188 0.2773339,-0.25431 0.410573,-0.38706 0.1418069,-0.1413 0.2761792,-0.28986 0.4142687,-0.43479 0.097251,-0.10146 0.5609336,-0.60496 0.71935,-0.70406 0.4385765,-0.27435 0.8745764,-0.56476 1.3549404,-0.75678 0.088294,-0.0353 0.2084512,0.0322 0.2632202,0.10995 0.1670122,0.23703 0.046829,0.74487 0.022759,0.95905 -0.046802,0.23602 -0.089866,0.47282 -0.1404062,0.70808 -0.057006,0.26536 -0.1197615,0.52945 -0.182196,0.79359 -0.1131552,0.4787 -0.2827081,1.16401 -0.4078468,1.64025 -0.1693201,0.64439 -0.2399212,0.87858 -0.4206663,1.51021 -0.1585349,0.5645 -0.3433297,1.12211 -0.484279,1.69155 -0.028236,0.11408 -0.049984,0.22966 -0.074975,0.34449 0,0 -1.1354443,0.53519 -1.1354443,0.53519 v 0 c 0.2899058,-0.71147 0.5711389,-1.42677 0.8153146,-2.15549 0.080061,-0.24713 0.163834,-0.49308 0.2401813,-0.74137 0.1672553,-0.54394 0.3068167,-1.04523 0.4356534,-1.60001 0.1150298,-0.49532 0.2284826,-1.05309 0.285219,-1.56057 0.023924,-0.21397 0.027565,-0.42973 0.041348,-0.64459 -0.016296,-0.17528 -0.00596,-0.53921 -0.1401799,-0.7183 -0.030166,-0.0403 -0.1737537,-0.0316 -0.1361834,-0.065 0.2270381,-0.20213 0.4936482,-0.35966 0.7656425,-0.49538 0.3212441,-0.16029 -1.2669097,0.86151 -0.7998809,0.72126 -0.1261245,0.14131 -0.2515651,0.28323 -0.3783738,0.42393 -0.1123061,0.1246 -0.2033862,0.27318 -0.3389609,0.37196 -0.4509148,0.32856 -0.9279739,0.6209 -1.409764,0.90224 -0.1932964,0.11287 -0.412996,0.17461 -0.6224733,0.0584 -0.091904,-0.051 -0.149707,-0.14753 -0.2245606,-0.22129 -0.059586,-0.12395 -0.1328031,-0.24222 -0.178758,-0.37184 -0.1242044,-0.35033 -0.1869525,-0.78022 -0.2273274,-1.14342 -0.073958,-0.66529 -0.078068,-1.33529 -0.1088752,-2.00316 -0.092197,-0.91894 -0.156078,-0.3218 1.2507007,-1.21542 0.053676,-0.0341 -0.126533,0.0427 -0.1674672,0.0914 -0.094235,0.11202 -0.1579938,0.24691 -0.2260933,0.3765 -0.2108221,0.40117 -0.4288687,0.92823 -0.6056752,1.33562 -0.3417808,0.81456 -0.6790671,1.63102 -1.0225635,2.44486 -0.5225295,1.23802 -0.083303,0.19105 -0.5581842,1.30282 -0.067587,0.15824 -0.1335465,0.31716 -0.2003198,0.47574 -0.097021,0.24273 -0.1560242,0.37327 -0.2297402,0.6106 -0.012919,0.0416 -0.076098,0.23575 -0.053651,0.30016 0.00242,0.007 0.010374,0.0104 0.015561,0.0156 0,0 -1.2942799,0.79314 -1.2942799,0.79314 z"
         id="path892"
         style="opacity:1;fill:#5cb143;fill-opacity:1;stroke:#395120;stroke-width:0.08770865;stroke-linecap:round;stroke-linejoin:miter;stroke-miterlimit:4;stroke-dasharray:none;stroke-dashoffset:0;stroke-opacity:1;paint-order:normal" />
      <path
         inkscape:connector-curvature="0"
         d="m 12.127922,287.43558 c 0.005,0.0291 0.01478,0.0577 0.01498,0.0872 8.46e-4,0.12464 -0.03688,0.26547 -0.0667,0.38147 -0.03093,0.12031 -0.0658,0.23958 -0.09906,0.35927 -0.220626,0.79395 -0.07417,0.24902 -0.313846,1.16506 -0.06084,0.25909 -0.124543,0.51753 -0.182523,0.77727 -0.250731,1.12326 -0.429829,2.26464 -0.749426,3.37178 -0.06814,0.23604 -0.150271,0.46781 -0.225406,0.70171 -0.292876,0.75423 -0.144351,0.40036 -0.439998,1.06393 0,0 -1.036467,0.4674 -1.036467,0.4674 v 0 c 0.4040439,-0.69504 0.2065192,-0.32486 0.584998,-1.11456 0.091903,-0.23945 0.1933739,-0.47545 0.275708,-0.71835 0.447481,-1.32019 0.631083,-2.70908 0.816755,-4.0845 0.04383,-0.37689 0.08472,-0.69302 0.114638,-1.06582 0.0084,-0.10401 0.01416,-0.20823 0.0179,-0.31251 0.0025,-0.0701 0.0051,-0.20331 -0.0091,-0.28512 -0.0019,-0.0112 -0.0085,-0.0211 -0.01273,-0.0317 0,0 1.310237,-0.76259 1.310237,-0.76259 z"
         id="path894"
         style="opacity:1;fill:#5cb143;fill-opacity:1;stroke:#395120;stroke-width:0.08770865;stroke-linecap:round;stroke-linejoin:miter;stroke-miterlimit:4;stroke-dasharray:none;stroke-dashoffset:0;stroke-opacity:1;paint-order:normal" />
      <path
         inkscape:connector-curvature="0"
         d="m 11.346603,288.11409 c 0.145166,0.006 0.290131,-0.0435 0.426817,-0.0855 0.251504,-0.0773 0.385258,-0.12764 0.646354,-0.21923 0.818507,-0.29709 1.640994,-0.58345 2.471948,-0.84398 0.31994,-0.10031 1.00704,-0.30546 1.341619,-0.40583 0,0 -0.85319,0.65607 -0.85319,0.65607 v 0 c -0.545125,0.13946 -0.697547,0.17128 -1.259287,0.34808 -0.902984,0.28421 -1.784581,0.63099 -2.657677,0.99553 -0.237817,0.0973 -0.528945,0.22019 -0.775907,0.30913 -0.185288,0.0667 -0.377988,0.13139 -0.577574,0.12362 0,0 1.236897,-0.87791 1.236897,-0.87791 z"
         id="path896"
         style="opacity:1;fill:#5cb143;fill-opacity:1;stroke:#395120;stroke-width:0.08770865;stroke-linecap:round;stroke-linejoin:miter;stroke-miterlimit:4;stroke-dasharray:none;stroke-dashoffset:0;stroke-opacity:1;paint-order:normal" />
      <path
         inkscape:connector-curvature="0"
         d="m 11.509899,290.71326 c 0.180445,0.009 0.367391,-0.0213 0.543407,-0.0514 0.180238,-0.0309 0.359811,-0.0657 0.538816,-0.10302 0.255699,-0.0533 0.510113,-0.11267 0.765169,-0.169 0,0 -0.717461,0.55018 -0.717461,0.55018 v 0 c -0.300558,0.0907 -0.601071,0.18154 -0.901676,0.27209 -0.226661,0.0683 -0.452385,0.13976 -0.68012,0.20436 -0.18651,0.0529 -0.477086,0.14236 -0.692742,0.14186 -0.04247,-1e-4 -0.08273,-0.0193 -0.124097,-0.0289 0,0 1.268704,-0.81615 1.268704,-0.81615 z"
         id="path898"
         style="opacity:1;fill:#5cb143;fill-opacity:1;stroke:#395120;stroke-width:0.08770865;stroke-linecap:round;stroke-linejoin:miter;stroke-miterlimit:4;stroke-dasharray:none;stroke-dashoffset:0;stroke-opacity:1;paint-order:normal" />
    </g>
  </g>
</svg>
