<?xml version="1.0" encoding="UTF-8" standalone="no"?>
<!-- Created with Inkscape (http://www.inkscape.org/) -->

<svg
   xmlns:dc="http://purl.org/dc/elements/1.1/"
   xmlns:cc="http://creativecommons.org/ns#"
   xmlns:rdf="http://www.w3.org/1999/02/22-rdf-syntax-ns#"
   xmlns:svg="http://www.w3.org/2000/svg"
   xmlns="http://www.w3.org/2000/svg"
   xmlns:sodipodi="http://sodipodi.sourceforge.net/DTD/sodipodi-0.dtd"
   xmlns:inkscape="http://www.inkscape.org/namespaces/inkscape"
   width="160"
   height="160"
   viewBox="0 0 42.333335 42.333334"
   version="1.1"
   id="svg8"
   inkscape:version="0.92.2 5c3e80d, 2017-08-06"
   sodipodi:docname="tree_1.svg"
   inkscape:export-filename="/home/lmb/Projects/LD40-MetalFear/src/images/obstacles/tree_1.png"
   inkscape:export-xdpi="115.2"
   inkscape:export-ydpi="115.2">
  <defs
     id="defs2" />
  <sodipodi:namedview
     id="base"
     pagecolor="#ffffff"
     bordercolor="#666666"
     borderopacity="1.0"
     inkscape:pageopacity="0.0"
     inkscape:pageshadow="2"
     inkscape:zoom="4"
     inkscape:cx="48.880501"
     inkscape:cy="62.300553"
     inkscape:document-units="mm"
     inkscape:current-layer="layer1"
     showgrid="false"
     units="px"
     inkscape:window-width="1918"
     inkscape:window-height="1058"
     inkscape:window-x="0"
     inkscape:window-y="20"
     inkscape:window-maximized="1"
     fit-margin-top="0"
     fit-margin-left="0"
     fit-margin-right="0"
     fit-margin-bottom="0" />
  <metadata
     id="metadata5">
    <rdf:RDF>
      <cc:Work
         rdf:about="">
        <dc:format>image/svg+xml</dc:format>
        <dc:type
           rdf:resource="http://purl.org/dc/dcmitype/StillImage" />
        <dc:title></dc:title>
      </cc:Work>
    </rdf:RDF>
  </metadata>
  <g
     inkscape:label="Layer 1"
     inkscape:groupmode="layer"
     id="layer1"
     transform="translate(108.2845,-239.88248)">
    <g
       id="g888"
       transform="matrix(0.47101312,0,0,0.47073397,-56.871133,147.0146)"
       style="stroke-width:2.12371254">
      <path
         sodipodi:nodetypes="sssssssssssssssss"
         inkscape:connector-curvature="0"
         id="path883"
         d="m -57.061783,243.48766 c 0.41333,1.11299 0.189331,2.58292 -0.2458,3.61168 -0.435131,1.02877 -1.23014,1.49221 -2.008193,2.27026 -0.778052,0.77805 -1.175347,1.73843 -2.567914,2.30585 -1.034428,0.42149 -1.573528,1.45749 -3.347103,0.67575 -1.086416,-0.47886 -2.318338,-0.24062 -3.347103,-0.67575 -1.028765,-0.43513 -1.227623,-1.3955 -2.005675,-2.17356 -0.778053,-0.77805 -2.895978,-1.00998 -3.331109,-2.03874 -0.435131,-1.02877 -0.179655,-2.42442 -0.179654,-3.61169 0,-1.18727 0.902076,-2.25219 1.337207,-3.28096 0.435131,-1.02876 0.370244,-2.38517 1.148296,-3.16323 0.778053,-0.77805 1.936024,-0.9116 2.964789,-1.34673 1.028765,-0.43513 1.663741,-1.13877 2.851009,-1.13877 1.187269,0 2.45063,0.70364 3.479395,1.13877 1.028765,0.43513 2.980486,0.53561 3.758539,1.31366 0.778052,0.77805 0.704318,1.66153 0.817567,2.76635 0.112813,1.10058 0.234837,2.15984 0.675749,3.34711 z"
         style="opacity:1;vector-effect:none;fill:#824e25;fill-opacity:1;stroke:#583a1c;stroke-width:0.95522821;stroke-linecap:round;stroke-linejoin:miter;stroke-miterlimit:4;stroke-dasharray:none;stroke-dashoffset:0;stroke-opacity:1;paint-order:normal" />
      <path
         sodipodi:nodetypes="sssssssssssssssssssssssssssssssss"
         inkscape:connector-curvature="0"
         id="path887"
         d="m -20.372917,242.23122 c 0,2.79465 -3.018185,6.08442 -0.88694,8.15838 1.934036,1.88206 -2.468209,3.21276 -3.572773,5.63432 -1.104563,2.42155 -3.110818,5.19043 -2.996089,8.84075 0.08371,2.66328 -4.010571,1.44691 -5.985628,3.27833 -1.975057,1.83142 -3.483668,6.20095 -5.806196,7.65591 -2.322527,1.45495 -6.825066,-1.47579 -7.228553,1.30019 -0.366417,2.52094 -5.352809,3.31625 -8.194725,2.35878 -2.741232,-0.92354 -4.942523,0.5418 -7.956358,0.5418 -3.013836,0 -6.989955,1.32727 -9.827245,1.89035 -2.46774,0.48975 -6.518689,-0.96037 -9.410803,-1.51688 -2.754619,-0.53005 -3.035139,-3.49346 -5.357667,-4.94842 -2.322527,-1.45495 -2.398628,-4.7313 -6.244572,-5.62727 -2.623253,-0.61113 -2.618567,-4.91486 -2.684987,-7.57862 -0.0724,-2.90197 -6.285347,-3.73852 -7.389917,-6.16007 -1.10456,-2.42156 -0.77552,-4.27935 -1.35706,-6.91458 -0.58154,-2.63524 -2.78717,-3.46351 -2.78717,-6.25816 0,-2.79465 2.64401,-5.24252 3.22555,-7.87775 0.58154,-2.63523 0.53312,-4.26055 1.63769,-6.68211 1.10456,-2.42155 -2.04191,-6.04562 -0.47284,-8.19924 1.56907,-2.15361 4.934942,-3.37496 6.918317,-5.19736 1.980763,-1.82001 9.45381,2.11541 8.31309,-6.26604 -0.369593,-2.71559 3.216661,-0.0623 5.828142,-1.08651 2.611481,-1.02423 5.617393,-3.67162 8.45931,-4.21087 2.841917,-0.53924 7.371922,1.55882 10.385757,1.55882 3.013835,0 5.691757,-2.89181 8.533674,-2.35256 2.841917,0.53924 1.37375,5.82467 6.13675,3.38777 2.497277,-1.27769 2.657607,6.25597 5.357667,6.72576 5.741861,0.99904 6.524319,0.67159 8.460289,2.50821 1.954067,1.8538 1.078314,5.08567 2.647379,7.23929 1.569069,2.15362 5.197524,4.63044 7.766851,5.09898 2.618395,0.47749 2.927033,3.99873 2.105408,7.28877 -0.653852,2.61823 2.383649,4.61538 2.383649,7.41003 z"
         style="opacity:1;vector-effect:none;fill:#6eb433;fill-opacity:0.46543783;stroke:#1c581f;stroke-width:0.95522821;stroke-linecap:round;stroke-linejoin:miter;stroke-miterlimit:4;stroke-dasharray:none;stroke-dashoffset:0;stroke-opacity:0.30875579;paint-order:normal" />
      <path
         inkscape:connector-curvature="0"
         d="m -67.421338,211.74522 c 1.649907,-0.65477 3.340867,-1.31663 5.120491,-1.51174 0.443,-0.0486 0.890829,-0.0291 1.336244,-0.0437 0.370401,0.0835 0.766048,0.0922 1.111205,0.25045 0.66579,0.30519 0.99868,0.8132 1.050499,1.5407 0.08685,1.21927 -0.691272,2.40938 -1.259266,3.41308 -0.185663,0.30709 -0.38576,0.60591 -0.55699,0.92128 -0.11166,0.20565 -0.233257,0.41225 -0.290274,0.63921 -0.02199,0.0875 -0.01995,0.22904 0.06362,0.26298 0.123597,0.0502 0.261022,-0.0557 0.392599,-0.0777 0.564658,-0.0944 1.674979,-0.24918 2.171073,-0.3203 0.512582,-0.0404 1.023588,-0.11764 1.537748,-0.12117 1.658588,-0.0114 3.293954,0.30528 4.640508,1.33998 1.150922,0.88439 1.341565,1.45361 2.085628,2.67129 0.691886,1.53052 1.180405,3.16767 1.243643,4.8575 0.03417,0.91306 -0.04666,1.7364 -0.452303,2.56613 -0.17104,0.34985 -0.444582,0.63949 -0.666874,0.95924 -1.905995,1.56455 -0.540933,0.53967 -4.410438,2.60229 0,0 2.366397,-1.86533 2.366397,-1.86533 v 0 c -1.9162,1.29598 -2.136119,1.4604 -0.694664,0.44273 0.240625,-0.29545 0.530066,-0.55711 0.721879,-0.88635 0.944295,-1.62086 0.618098,-3.96603 0.08515,-5.66265 -0.171331,-0.54542 -0.424177,-1.0618 -0.636265,-1.5927 -0.723551,-1.15178 -0.921266,-1.71139 -2.032987,-2.53462 -1.328205,-0.98354 -2.941312,-1.24973 -4.552995,-1.19066 -0.528066,0.0193 -1.050528,0.11536 -1.575794,0.17304 -0.457264,0.0808 -0.913051,0.17039 -1.371791,0.2423 -0.413896,0.0649 -1.268045,0.32625 -1.679612,-0.10522 -0.400426,-0.41978 0.766977,-1.84505 0.912955,-2.11998 0.555459,-0.93337 1.796677,-2.7961 1.066361,-3.9288 -0.406815,-0.63096 -0.98094,-0.59533 -1.638882,-0.74049 -0.428268,0.0202 -0.859578,0.006 -1.284806,0.0606 -1.868384,0.24079 -3.634073,0.99782 -5.332563,1.77157 0,0 2.530507,-2.01298 2.530507,-2.01298 z"
         id="path901"
         style="opacity:1;vector-effect:none;fill:#6eb433;fill-opacity:0.46543783;stroke:none;stroke-width:0.95522821;stroke-linecap:round;stroke-linejoin:miter;stroke-miterlimit:4;stroke-dasharray:none;stroke-dashoffset:0;stroke-opacity:0.30875579;paint-order:normal" />
      <path
         inkscape:connector-curvature="0"
         d="m -77.253123,217.79274 c -0.08868,0.0176 -0.179366,0.0272 -0.266057,0.0529 -0.389453,0.11554 -0.918451,0.33864 -1.258932,0.50465 -0.349234,0.17027 -1.336548,0.7835 -1.031383,0.54302 0.37742,-0.29742 1.468723,-1.14458 1.251098,-0.71616 -0.232778,0.45824 -0.86982,0.54782 -1.304729,0.82174 -0.85448,0.61459 -1.795301,1.16729 -2.50426,1.96269 -0.252013,0.28274 -0.239504,0.21749 -0.108707,0.26973 0.0096,0.10592 0.06268,0.21694 0.02881,0.31776 -0.105931,0.31538 -0.833993,1.16068 -0.933325,1.28591 -0.308221,0.38856 -0.623507,0.77168 -0.922835,1.16714 -1.181979,1.56157 -1.110639,1.52324 -2.213367,3.22835 -1.026205,1.72544 -1.919052,3.53189 -2.533996,5.44689 -0.277032,0.86271 -0.557229,1.94191 -0.597562,2.86735 -0.014,0.32086 0.05142,0.64028 0.07714,0.96042 0.101195,0.20405 0.157268,0.4376 0.303585,0.61216 0.275093,0.32817 0.731806,0.36647 1.085488,0.53512 0.245067,0.11686 0.500774,0.22835 0.706149,0.40594 0.805463,0.69648 0.916101,1.23864 1.39414,2.22777 0.226197,0.67023 0.452398,1.34045 0.678595,2.01067 0,0 -2.375895,1.32095 -2.375895,1.32095 v 0 c -0.267134,-0.63323 -0.53427,-1.26645 -0.801404,-1.89968 -0.533768,-0.90056 -0.66725,-1.37617 -1.474007,-1.97449 -0.737362,-0.54686 -0.6468,-0.18302 -1.391248,-0.64664 -0.626724,-0.3903 -0.548426,-0.52758 -0.812194,-1.20662 -0.0064,-0.3523 -0.05103,-0.70598 -0.01918,-1.05689 0.08611,-0.94889 0.413792,-2.1034 0.711014,-2.98557 0.648722,-1.92545 1.538174,-3.75591 2.548528,-5.51554 1.065712,-1.73616 0.938503,-1.58689 2.046449,-3.18151 0.260995,-0.37563 0.532987,-0.74351 0.799698,-1.11512 0.174188,-0.24269 0.345969,-0.48713 0.523007,-0.72775 0.08622,-0.11719 0.163809,-0.24263 0.266663,-0.34552 0.02633,-0.0264 0.07191,-0.0194 0.10787,-0.0292 -0.08369,-0.11209 -0.227605,-0.26715 -0.189259,-0.42802 0.07087,-0.29728 0.684244,-0.80403 0.810443,-0.91051 0.740725,-0.62493 1.299747,-0.98604 2.109531,-1.55362 2.25376,-1.45176 1.54278,-1.02246 5.045717,-3.00437 0.7942,-0.44935 1.657155,-0.91044 2.5546,-1.12505 0.10998,-0.0263 0.22442,-0.028 0.336632,-0.042 0,0 -2.646807,1.92302 -2.646807,1.92302 z"
         id="path903"
         style="opacity:1;vector-effect:none;fill:#6eb433;fill-opacity:0.46543783;stroke:none;stroke-width:0.95522821;stroke-linecap:round;stroke-linejoin:miter;stroke-miterlimit:4;stroke-dasharray:none;stroke-dashoffset:0;stroke-opacity:0.30875579;paint-order:normal" />
      <path
         inkscape:connector-curvature="0"
         d="m -72.54242,233.59667 c 2.178859,-1.47631 4.615651,-3.04529 7.362536,-2.98493 0.528249,0.0116 1.04961,0.12266 1.574417,0.18399 0.526716,0.1845 1.082426,0.30104 1.580155,0.55352 1.649222,0.83657 2.826975,2.29117 3.428,4.02706 0.501994,1.44986 0.431831,2.23829 0.502883,3.74284 -0.224783,3.23977 0.01124,0.31334 -0.304729,3.19433 -0.03391,0.30914 -0.212728,1.2968 0.0352,1.69683 0.1646,0.26559 0.808357,0.11511 0.952595,0.103 0.980847,-0.0816 1.986941,-0.04 2.689707,0.78026 1.116658,1.30332 1.001815,3.18208 1.045035,4.75947 -0.117671,2.25838 -0.618731,4.46303 -1.447377,6.56553 -0.424849,1.07796 -1.084289,2.44709 -1.793131,3.39467 -0.275977,0.36893 -0.632944,0.66967 -0.949415,1.0045 -1.180986,0.62172 -2.275348,1.44751 -3.542961,1.86515 -0.360003,0.11861 -0.756767,-0.15079 -1.084975,-0.34039 -0.777573,-0.4492 -1.494533,-1.42615 -2.051531,-2.07451 -1.283682,-1.49426 -0.647285,-0.87747 -2.066999,-2.02827 0.293653,-1.3993 -2.5917,0.71334 -2.201376,0.0912 0.235728,-0.3757 1.314511,-0.95477 1.2246,-0.52044 -0.128331,0.61991 -0.936141,0.853 -1.385707,1.2987 -5.612546,5.56423 2.615956,-2.41674 -2.659089,2.67816 -2.291305,1.55124 -0.743741,0.62167 -4.893456,2.32067 0,0 2.393045,-1.77253 2.393045,-1.77253 v 0 c -1.747681,1.65047 -1.92066,1.63229 -0.08447,0.51492 2.243447,-2.1003 0.465751,-0.38038 2.673308,-2.68038 0.424383,-0.44216 0.793059,-0.95197 1.29137,-1.30875 1.206651,-0.86394 2.471619,-1.65567 3.792866,-2.33147 0.375973,-0.19231 0.821817,-0.27355 1.243107,-0.24436 0.386332,0.0268 0.725705,0.2706 1.08856,0.40591 0.33841,0.30431 0.697087,0.5875 1.015232,0.91294 0.717664,0.73413 1.298649,1.59967 2.06691,2.28815 0.315833,0.28303 0.647879,0.56415 1.031716,0.7445 0.298302,0.14016 1.095772,-0.10865 0.969213,0.19567 -0.238434,0.57334 -1.004233,0.73062 -1.506349,1.09593 0.357063,-0.32954 0.759253,-0.61607 1.071192,-0.98861 0.774486,-0.92493 1.482188,-2.29554 1.935768,-3.38665 0.852932,-2.05178 1.344949,-4.2152 1.417968,-6.43735 -0.08136,-1.32963 -0.0084,-2.16937 -0.510714,-3.3969 -0.148696,-0.36341 -0.354275,-0.71437 -0.625925,-0.99789 -0.717899,-0.74925 -1.74276,-0.65377 -2.670222,-0.58087 -0.456542,-0.0452 -0.954585,0.0614 -1.182961,-0.47875 -0.194526,-0.46003 0.0635,-1.51769 0.124048,-1.87446 0.374819,-2.20872 0.191008,-0.77638 0.425701,-3.19449 -0.05027,-1.46149 0.03352,-2.23111 -0.455758,-3.63748 -0.58026,-1.66788 -1.742601,-3.05517 -3.351712,-3.81037 -0.493641,-0.23168 -1.040829,-0.32575 -1.561243,-0.48863 -1.455394,-0.10902 -1.607862,-0.2255 -3.022883,0.0675 -0.42704,0.0884 -0.843995,0.2249 -1.253175,0.37574 -0.339792,0.12526 -1.283865,0.66027 -0.988563,0.45065 0.527016,-0.37413 2.95697,-1.76717 1.683433,-0.96201 0,0 -3.023849,1.20868 -3.023849,1.20868 z"
         id="path905"
         style="opacity:1;vector-effect:none;fill:#6eb433;fill-opacity:0.46543783;stroke:none;stroke-width:0.95522821;stroke-linecap:round;stroke-linejoin:miter;stroke-miterlimit:4;stroke-dasharray:none;stroke-dashoffset:0;stroke-opacity:0.30875579;paint-order:normal" />
      <path
         inkscape:connector-curvature="0"
         d="m -36.301169,233.78766 c 1.453759,0.35337 2.774691,1.13198 3.702053,2.32525 0.285342,0.36715 0.500882,0.78359 0.751324,1.17538 0.199734,0.46247 0.431712,0.9123 0.599207,1.3874 0.516078,1.46384 0.755877,3.04406 0.732626,4.59435 -0.01873,1.2494 -0.127183,1.5229 -0.365001,2.71206 -0.580657,1.93411 -0.06583,0.29411 -0.649578,1.97914 -0.09129,0.26352 -0.298895,0.78236 -0.26439,1.10985 0.02894,0.27463 0.290361,0.49236 0.450442,0.67355 0.153956,0.18825 0.328853,0.36116 0.46187,0.56475 0.986285,1.50953 1.165185,3.43037 0.94856,5.18394 -0.07112,0.57569 -0.231595,1.13679 -0.347392,1.70519 -0.210894,0.5471 -0.371743,1.11622 -0.63268,1.64129 -0.519366,1.04509 -1.221055,1.98196 -2.110571,2.74205 -1.28625,1.0991 -4.421642,2.52865 -5.414187,2.89437 -0.531093,0.1957 -1.126839,0.10797 -1.690259,0.16196 -1.575911,0.0501 -3.083067,-0.47702 -4.637119,-0.61158 -0.377655,-0.0327 -0.758132,-0.003 -1.137195,-0.005 0,0 2.427243,-1.74959 2.427243,-1.74959 v 0 c 0.3664,0.0263 0.735062,0.0306 1.099206,0.079 0.449847,0.0598 0.892185,0.16672 1.339167,0.24513 1.962055,0.34418 1.139793,0.23704 3.181988,0.35127 0.5515,-0.0717 1.102997,-0.14332 1.654495,-0.21498 -0.287084,0.27787 -1.258044,0.88037 -0.861248,0.83363 0.560186,-0.066 0.99123,-0.54947 1.43242,-0.90092 0.894739,-0.71274 1.628579,-1.63138 2.159468,-2.64158 0.26675,-0.50758 0.43125,-1.06264 0.646875,-1.59396 0.114987,-0.55018 0.27778,-1.09249 0.344963,-1.65052 0.200271,-1.66346 -0.01701,-3.50078 -1.058021,-4.86591 -0.14864,-0.19492 -0.337346,-0.35573 -0.506021,-0.53359 -0.260887,-0.2838 -0.546796,-0.49077 -0.592304,-0.90704 -0.04067,-0.372 0.22534,-0.93512 0.347316,-1.23414 0.653859,-1.60293 0.122182,-0.15816 0.758513,-1.97825 0.101367,-0.42075 0.232296,-0.83545 0.304099,-1.26224 0.329192,-1.95666 0.142539,-4.04014 -0.540335,-5.90437 -0.167378,-0.45694 -0.402918,-0.88594 -0.604377,-1.32891 -0.250823,-0.36866 -0.466559,-0.76382 -0.752467,-1.10598 -0.966962,-1.15723 -2.348865,-1.84966 -3.835752,-2.00165 0,0 2.657062,-1.86918 2.657062,-1.86918 z"
         id="path907"
         style="opacity:1;vector-effect:none;fill:#6eb433;fill-opacity:0.46543783;stroke:none;stroke-width:0.95522821;stroke-linecap:round;stroke-linejoin:miter;stroke-miterlimit:4;stroke-dasharray:none;stroke-dashoffset:0;stroke-opacity:0.30875579;paint-order:normal" />
      <path
         inkscape:connector-curvature="0"
         d="m -43.442633,238.22034 c -0.665533,2.27488 -1.319524,4.5572 -2.11297,6.79184 -0.208952,0.58848 -0.438851,1.16933 -0.658278,1.75399 -0.562666,1.38946 -1.255125,2.72676 -2.138199,3.94088 -0.03157,0.0434 -0.667464,0.87049 -0.884576,0.99681 -0.957418,0.55707 -1.950188,1.05104 -2.925283,1.57655 -0.04196,-0.13459 -0.239623,-0.32048 -0.125884,-0.40379 0.906645,-0.66408 1.871258,-1.29919 2.937163,-1.65538 0.202669,-0.0677 0.153782,0.40823 0.155512,0.62191 0.0029,0.36252 -0.07763,0.72151 -0.141727,1.07834 -0.253317,1.41017 -0.526147,2.34611 -0.891783,3.77025 -0.670878,2.20807 -1.331587,4.51798 -2.741427,6.39725 -1.33045,1.77344 -3.280125,2.8109 -5.341427,3.61087 -0.556041,0.21579 -1.192464,0.032 -1.788695,0.048 0,0 2.268125,-1.66558 2.268125,-1.66558 v 0 c 0.569725,-0.0434 1.19784,-0.38507 1.709169,-0.1301 0.287906,0.14357 -0.963465,0.84858 -0.74876,0.60899 0.445471,-0.49709 1.026157,-0.86655 1.445191,-1.38613 1.46672,-1.81866 2.157552,-4.09881 2.757064,-6.30929 0.329972,-1.58209 0.487095,-2.07809 0.627591,-3.59451 0.0287,-0.30979 0.01418,-0.62211 0.02753,-0.93293 0.0028,-0.0643 -0.03228,-0.15559 0.02082,-0.19197 0.863267,-0.59165 1.827726,-1.03072 2.669847,-1.65209 0.07174,-0.0529 -0.143126,-0.10633 -0.214688,-0.15949 -0.878613,0.51605 -1.749425,1.04561 -2.635832,1.54815 -0.160536,0.091 0.319402,-0.18959 0.456811,-0.31277 1.367118,-1.22556 2.223955,-3.0012 2.982388,-4.63264 0.223724,-0.58217 0.463024,-1.15859 0.671174,-1.74651 0.753713,-2.12886 1.33795,-4.32873 1.71772,-6.55461 0,0 2.903432,-1.41605 2.903432,-1.41605 z"
         id="path909"
         style="opacity:1;vector-effect:none;fill:#6eb433;fill-opacity:0.46543783;stroke:none;stroke-width:0.95522821;stroke-linecap:round;stroke-linejoin:miter;stroke-miterlimit:4;stroke-dasharray:none;stroke-dashoffset:0;stroke-opacity:0.30875579;paint-order:normal" />
      <path
         inkscape:connector-curvature="0"
         d="m -71.049435,239.35497 c -0.0826,0.0334 -0.169928,0.0568 -0.247795,0.10011 -0.132982,0.0739 -0.517708,0.31854 -0.381942,0.24988 0.715166,-0.36168 1.358098,-0.88819 2.122178,-1.12997 0.310266,-0.0982 -0.478121,0.44244 -0.700434,0.68009 -0.68497,0.73222 -0.911326,1.08288 -1.521246,1.89705 -0.67228,0.92626 -1.240774,1.92005 -1.852808,2.88523 -0.01167,0.0184 -0.560996,0.89463 -0.707507,0.9871 -0.972783,0.614 -1.997403,1.14175 -2.996104,1.71263 -0.12804,-0.0609 -0.468345,-0.24571 -0.627314,-0.23172 -0.160843,0.0142 -0.598218,0.23582 -0.459571,0.15307 0.615527,-0.36737 1.181248,-0.99027 1.897756,-1.01144 0.487421,-0.0144 -0.748443,0.62926 -1.079527,0.98727 -0.419737,0.45387 -0.777822,0.96109 -1.166733,1.44163 -0.342201,0.57837 -0.736237,1.12905 -1.026604,1.7351 -0.67501,1.40888 -1.256655,3.28243 -0.410676,4.77217 0.556813,0.98054 1.174983,1.04617 2.13845,1.45221 1.478597,0.3976 3.014871,0.12212 4.511992,0.32214 0.440876,0.0589 0.889265,0.12863 1.30083,0.29731 1.087723,0.44581 1.239334,0.87086 1.960427,1.76038 0.255246,0.4579 0.510493,0.9158 0.765739,1.37371 0.25686,0.50139 0.499414,1.01038 0.77058,1.50419 0.268819,0.48953 0.565801,0.96306 0.848701,1.44459 0,0 -2.452811,1.41857 -2.452811,1.41857 v 0 c -0.284986,-0.4854 -0.578485,-0.96589 -0.854954,-1.45618 -1.666549,-2.95546 0.06179,-0.0575 -1.587513,-2.77688 -0.699738,-0.80702 -0.855231,-1.1913 -1.867773,-1.5937 -0.392308,-0.15591 -0.816163,-0.22577 -1.234395,-0.28316 -1.521524,-0.20878 -3.087587,0.0448 -4.583443,-0.40083 -1.060059,-0.49176 -1.679686,-0.56041 -2.260796,-1.67691 -0.829829,-1.59438 -0.230349,-3.53555 0.450929,-5.04097 0.274252,-0.60601 0.641303,-1.16558 0.961954,-1.74837 0.329761,-0.45138 1.398635,-2.03427 1.97539,-2.42832 1.099269,-0.75105 2.271585,-1.39426 3.456712,-2.00084 0.175715,-0.0899 0.390713,-0.0711 0.5881,-0.0694 0.117089,0.001 0.228452,0.0515 0.342678,0.0772 0.05957,-0.005 0.119131,-0.01 0.178697,-0.0147 -0.821185,0.50038 -1.621478,1.03678 -2.463554,1.50115 -0.153112,0.0844 0.270851,-0.22365 0.385828,-0.35538 0.173855,-0.19918 0.326261,-0.41648 0.477282,-0.63349 0.666123,-0.9572 1.236885,-1.97862 1.910043,-2.93132 0.60701,-0.85493 0.765585,-1.1177 1.425591,-1.90121 0.199591,-0.23694 0.369012,-0.51198 0.622414,-0.6902 1.03818,-0.73016 2.143064,-1.36091 3.228742,-2.01836 0.395094,-0.23926 0.416018,-0.21231 0.805685,-0.27988 0,0 -2.643198,1.9204 -2.643198,1.9204 z"
         id="path911"
         style="opacity:1;vector-effect:none;fill:#6eb433;fill-opacity:0.46543783;stroke:none;stroke-width:0.95522821;stroke-linecap:round;stroke-linejoin:miter;stroke-miterlimit:4;stroke-dasharray:none;stroke-dashoffset:0;stroke-opacity:0.30875579;paint-order:normal" />
      <path
         inkscape:connector-curvature="0"
         d="m -93.488937,238.96599 c -0.112652,0.11815 -0.240575,0.22343 -0.337958,0.35445 -0.894546,1.20355 -1.128996,2.76689 -0.903708,4.22723 0.0769,0.4985 0.247832,0.97788 0.371747,1.46683 0.524677,1.43819 1.400956,2.65682 2.391101,3.8048 0.380021,0.44061 1.227516,1.30151 1.594061,1.79415 0.190186,0.25561 0.337384,0.54055 0.506077,0.81083 0.577289,1.28986 0.314402,2.71461 0.510545,4.07263 0.176377,1.22117 0.290642,1.31011 0.746668,2.47019 0.88135,1.74642 2.219496,3.16712 3.793738,4.31096 0.713243,0.51824 1.262938,0.80598 2.016953,1.23532 0.562695,0.3602 1.016868,0.57148 1.41786,1.12479 0.412933,0.56978 0.547748,1.19038 0.701032,1.86318 0.09073,0.39824 0.155797,0.80189 0.233693,1.20283 0.09979,0.42559 0.199583,0.85118 0.299376,1.27678 0.156615,0.41642 0.273934,0.84982 0.469842,1.24926 0.581097,1.18481 1.498399,2.19763 2.78492,2.61785 0.437909,0.14303 0.908542,0.15312 1.362813,0.22968 0,0 -2.383256,1.66517 -2.383256,1.66517 v 0 c -0.476154,-0.0973 -0.971537,-0.12625 -1.428464,-0.29179 -1.33635,-0.48413 -2.277658,-1.55601 -2.893205,-2.79787 -0.202679,-0.4089 -0.331333,-0.85048 -0.496996,-1.27572 -0.109937,-0.42392 -0.225719,-0.84637 -0.329811,-1.27176 -0.09451,-0.38624 -0.165915,-0.77804 -0.265938,-1.16289 -0.155888,-0.59979 -0.304771,-1.18871 -0.674246,-1.70072 -0.371369,-0.51465 -0.800775,-0.74283 -1.314178,-1.1004 -0.764714,-0.48224 -1.233244,-0.75434 -1.964107,-1.31963 -1.571059,-1.21515 -2.951695,-2.65941 -3.883652,-4.42741 -0.489567,-1.17174 -0.616583,-1.28763 -0.833539,-2.52252 -0.228816,-1.3024 -0.02532,-2.66697 -0.505393,-3.92311 -0.147098,-0.26502 -0.272098,-0.54357 -0.441294,-0.79506 -0.385701,-0.5733 -1.092107,-1.32848 -1.51376,-1.84664 -0.977855,-1.20167 -1.866548,-2.46294 -2.427028,-3.92099 -0.141997,-0.49978 -0.326904,-0.98932 -0.425993,-1.49934 -0.311401,-1.60282 -0.132196,-3.33045 0.808887,-4.69366 0,0 3.013213,-1.22742 3.013213,-1.22742 z"
         id="path913"
         style="opacity:1;vector-effect:none;fill:#6eb433;fill-opacity:0.46543783;stroke:none;stroke-width:0.95522821;stroke-linecap:round;stroke-linejoin:miter;stroke-miterlimit:4;stroke-dasharray:none;stroke-dashoffset:0;stroke-opacity:0.30875579;paint-order:normal" />
      <path
         inkscape:connector-curvature="0"
         d="m -66.907351,271.06705 c 2.155449,0.45582 4.335928,0.77178 6.521458,1.04038 1.861624,0.17749 3.841991,0.37899 5.612728,-0.39262 0.444103,-0.19352 1.038627,-0.2883 1.264084,-0.71707 0.170458,-0.32418 -0.701771,0.20998 -1.052656,0.31498 2.141279,-2.15843 1.073505,-0.99797 3.182467,-3.50045 0,0 2.394468,-1.01935 2.394468,-1.01935 v 0 c -1.977988,2.47291 -0.981088,1.32104 -2.971413,3.47222 -0.51131,0.34217 -3.662561,2.65647 -5.134896,3.23461 -1.79669,0.7055 -3.770564,0.44469 -5.632453,0.26353 -2.28012,-0.27065 -4.553844,-0.6146 -6.84218,-0.80498 0,0 2.658393,-1.89125 2.658393,-1.89125 z"
         id="path915"
         style="opacity:1;vector-effect:none;fill:#6eb433;fill-opacity:0.46543783;stroke:none;stroke-width:0.95522821;stroke-linecap:round;stroke-linejoin:miter;stroke-miterlimit:4;stroke-dasharray:none;stroke-dashoffset:0;stroke-opacity:0.30875579;paint-order:normal" />
      <path
         inkscape:connector-curvature="0"
         d="m -56.370391,233.64372 c -0.108731,-1.26057 -0.139944,-2.52864 -0.377992,-3.7755 -0.07879,-0.41271 -0.190765,-0.81838 -0.286147,-1.22757 -0.388297,-1.27083 -1.006141,-2.4063 -2.031468,-3.27908 -1.286462,-1.09506 -2.906816,-1.66819 -4.444815,-2.29466 -2.273347,-0.89442 -4.733372,-1.62808 -6.561904,-3.33714 -0.767237,-0.7171 -1.016561,-1.21387 -1.561598,-2.066 -0.203255,-0.30056 -0.584753,-1.06605 -1.070903,-1.15697 -0.437621,-0.0818 -3.286779,1.4276 1.117383,-0.68166 0,0 -2.789431,1.10154 -2.789431,1.10154 v 0 c 1.17838,-0.7034 2.298488,-1.51519 3.535135,-2.11023 0.232254,-0.11175 0.533884,-0.0603 0.772303,0.0376 0.466024,0.19138 0.803037,0.95771 1.009957,1.31545 0.487251,0.84481 0.694375,1.32189 1.411576,2.0374 1.750724,1.7466 4.191619,2.46783 6.440929,3.31606 1.605822,0.62277 3.295533,1.18819 4.63664,2.31897 1.06753,0.90011 1.708931,2.08748 2.131743,3.39623 0.106741,0.41137 0.226031,0.81968 0.320222,1.2341 0.270719,1.19106 0.382879,2.40834 0.623774,3.60407 0,0 -2.875404,1.56736 -2.875404,1.56736 z"
         id="path917"
         style="opacity:1;vector-effect:none;fill:#6eb433;fill-opacity:0.46543783;stroke:none;stroke-width:0.95522821;stroke-linecap:round;stroke-linejoin:miter;stroke-miterlimit:4;stroke-dasharray:none;stroke-dashoffset:0;stroke-opacity:0.30875579;paint-order:normal" />
      <path
         inkscape:connector-curvature="0"
         d="m -69.998184,239.28298 c -0.163436,0.62456 -0.374698,1.37129 -0.03617,1.97979 0.06816,0.12252 0.174836,0.21924 0.262252,0.32886 0.635063,0.47956 1.312066,0.88602 1.740358,1.58307 0.335536,0.54609 0.411363,0.89621 0.613383,1.50411 0.256249,0.86477 0.477356,2.04794 1.544799,2.24169 0.641429,0.11642 1.230585,-0.0793 1.850284,-0.20629 1.846726,-0.57571 3.598773,-1.40862 5.373994,-2.16821 0,0 -2.255599,1.78254 -2.255599,1.78254 v 0 c -1.81569,0.77832 -3.608607,1.6358 -5.509342,2.19143 -0.750916,0.12883 -1.303245,0.323 -2.054262,0.11264 -1.10894,-0.31062 -1.363906,-1.51825 -1.644195,-2.46823 -0.198329,-0.57417 -0.26348,-0.88495 -0.59563,-1.39121 -0.450908,-0.68727 -1.187534,-1.03441 -1.79239,-1.55719 -0.103135,-0.13732 -0.226256,-0.26169 -0.309409,-0.41195 -0.357442,-0.64593 -0.238411,-1.40974 -0.130001,-2.10222 0,0 2.941929,-1.41883 2.941929,-1.41883 z"
         id="path919"
         style="opacity:1;vector-effect:none;fill:#6eb433;fill-opacity:0.46543783;stroke:none;stroke-width:0.95522821;stroke-linecap:round;stroke-linejoin:miter;stroke-miterlimit:4;stroke-dasharray:none;stroke-dashoffset:0;stroke-opacity:0.30875579;paint-order:normal" />
      <path
         inkscape:connector-curvature="0"
         d="m -93.404445,218.02488 c -0.982888,-0.10495 -1.960491,0.21255 -2.865824,0.55876 -0.217829,0.10484 -0.439373,0.20229 -0.653489,0.31452 -0.225005,0.11793 -0.885542,0.49836 -0.663149,0.37558 0.655457,-0.36188 1.286743,-0.7702 1.962359,-1.09289 0.245237,-0.11713 -0.449109,0.30673 -0.664189,0.47286 -0.55572,0.42926 -0.581843,0.48804 -1.047456,0.96769 -0.06902,0.10593 -0.378339,0.45736 -0.302237,0.67445 0.02186,0.0623 0.106786,0.0829 0.170122,0.1016 0.302713,0.0896 0.678551,0.0784 0.981697,0.0966 0.19708,0.0118 0.393856,0.0283 0.590785,0.0425 0.148284,0.0648 0.342321,0.0693 0.444852,0.19446 0.117081,0.14298 0.176464,0.35034 0.151162,0.5334 -0.08591,0.62156 -0.814202,1.55684 -1.105294,1.97454 -2.733524,3.92249 0.816446,-1.27613 -2.080191,2.98805 -1.055254,1.78875 -2.329863,3.90966 -1.634653,6.07828 0.138627,0.43244 0.416495,0.8071 0.624743,1.21064 0,0 -2.526803,1.44309 -2.526803,1.44309 v 0 c -0.22333,-0.4322 -0.52219,-0.83309 -0.66997,-1.29659 -0.71792,-2.2518 0.58933,-4.44949 1.66404,-6.32271 0.33949,-0.52083 0.67585,-1.0437 1.01848,-1.56246 0.415715,-0.62942 1.158432,-1.69717 1.566922,-2.39061 0.119033,-0.20206 0.236133,-0.40748 0.320622,-0.62625 0.03131,-0.0811 0.07706,-0.19291 0.02159,-0.2598 -0.08,-0.0965 -0.233521,-0.091 -0.350282,-0.13652 -0.480396,-0.0365 -1.348184,-0.0209 -1.755372,-0.28154 -0.57246,-0.36649 -0.28067,-0.83377 -0.006,-1.26062 0.15778,-0.17093 0.306747,-0.35042 0.473323,-0.51277 0.301319,-0.29369 0.887598,-0.79013 1.243352,-1.01001 1.510247,-0.93344 3.037136,-1.92102 4.677592,-2.63146 1.002051,-0.34541 2.012177,-0.62224 3.083354,-0.53254 0,0 -2.670286,1.88979 -2.670286,1.88979 z"
         id="path923"
         style="opacity:1;vector-effect:none;fill:#6eb433;fill-opacity:0.46543783;stroke:none;stroke-width:0.95522821;stroke-linecap:round;stroke-linejoin:miter;stroke-miterlimit:4;stroke-dasharray:none;stroke-dashoffset:0;stroke-opacity:0.30875579;paint-order:normal" />
      <path
         inkscape:connector-curvature="0"
         d="m -100.03075,239.28851 c -0.6586,1.0377 -0.9224,2.3298 -0.99788,3.54271 -0.028,0.44934 -0.007,0.90039 -0.0104,1.35058 0.0563,0.48837 0.0841,0.98088 0.16897,1.4651 0.33432,1.907 1.076899,3.97654 2.324097,5.48556 0.281075,0.34007 0.626062,0.62182 0.939091,0.93273 0,0 -2.497998,1.52724 -2.497998,1.52724 v 0 c -0.31534,-0.33054 -0.66282,-0.63315 -0.94601,-0.99161 -1.22209,-1.54691 -1.9924,-3.6944 -2.37613,-5.6088 -0.0979,-0.48834 -0.14476,-0.98552 -0.21714,-1.47829 -0.016,-0.45243 -0.0535,-0.90462 -0.048,-1.35731 0.0146,-1.20581 0.21433,-2.4323 0.66088,-3.55508 0,0 3.00052,-1.31283 3.00052,-1.31283 z"
         id="path925"
         style="opacity:1;vector-effect:none;fill:#6eb433;fill-opacity:0.46543783;stroke:none;stroke-width:0.95522821;stroke-linecap:round;stroke-linejoin:miter;stroke-miterlimit:4;stroke-dasharray:none;stroke-dashoffset:0;stroke-opacity:0.30875579;paint-order:normal" />
      <path
         inkscape:connector-curvature="0"
         d="m -77.074055,211.66171 c 0.332525,-0.39502 0.76028,-0.68171 1.206219,-0.93481 1.134131,-0.6437 2.265775,-1.29257 3.417491,-1.90426 0.362857,-0.19272 1.549381,-0.64332 1.905979,-0.78283 1.262062,-0.43268 2.541312,-0.92657 3.881845,-1.05312 0.790408,-0.0746 0.914281,-0.0151 1.694267,0.0847 0.286028,0.0866 0.581057,0.14778 0.858081,0.25992 1.084357,0.43893 2.01958,1.1844 2.930839,1.89721 2.726103,2.13242 -0.447376,-0.29448 2.498186,1.94272 1.951849,1.32823 0.94851,0.69395 3.011609,1.90031 0,0 -2.345944,1.52187 -2.345944,1.52187 v 0 c -2.089928,-1.21803 -1.069316,-0.58271 -3.063073,-1.90398 -0.452978,-0.32784 -0.905958,-0.65568 -1.358937,-0.98352 -0.406123,-0.30236 -0.808255,-0.61016 -1.21837,-0.90709 -0.927309,-0.67137 -1.883081,-1.35821 -2.976747,-1.73707 -0.273143,-0.0946 -0.560761,-0.14067 -0.84114,-0.21101 -0.760182,-0.0669 -0.867947,-0.11512 -1.631889,-0.0269 -1.31169,0.15154 -2.565376,0.62634 -3.797866,1.0713 -0.337905,0.13866 -0.678728,0.27043 -1.013717,0.416 -1.431245,0.62195 -1.571585,0.84699 0.96238,-0.70815 0.178596,-0.10961 -0.369327,0.19885 -0.546248,0.31114 -0.126228,0.0801 -0.244499,0.1724 -0.361744,0.26517 -0.07517,0.0595 -0.143256,0.12739 -0.214884,0.19109 0,0 -2.996337,1.29123 -2.996337,1.29123 z"
         id="path927"
         style="opacity:1;vector-effect:none;fill:#6eb433;fill-opacity:0.46543783;stroke:none;stroke-width:0.95522821;stroke-linecap:round;stroke-linejoin:miter;stroke-miterlimit:4;stroke-dasharray:none;stroke-dashoffset:0;stroke-opacity:0.30875579;paint-order:normal" />
      <path
         inkscape:connector-curvature="0"
         d="m -43.782011,218.01882 c 0.735761,0.24015 1.38126,0.86236 1.855152,1.45388 0.16242,0.20274 0.303919,0.42138 0.45588,0.63207 0.698251,1.06529 0.931601,2.31583 1.289577,3.51362 0.09546,0.3194 0.18225,0.64306 0.311623,0.95029 0.126722,0.30093 0.302699,0.57866 0.454049,0.868 0.844706,1.2607 2.138093,1.84491 3.401496,2.57952 1.084475,0.63057 0.851168,0.50063 1.830055,1.25301 1.362048,1.21667 1.954059,2.94668 2.751587,4.53173 0.153654,0.30538 0.324551,0.60178 0.486825,0.90266 0,0 -2.617036,1.4994 -2.617036,1.4994 v 0 c -0.162287,-0.30696 -0.332306,-0.60995 -0.486857,-0.92088 -0.768247,-1.54555 -1.360175,-3.2211 -2.676287,-4.40984 -0.947293,-0.73138 -0.728165,-0.61001 -1.786601,-1.22776 -1.33467,-0.77897 -2.633195,-1.37156 -3.528693,-2.70647 -0.15903,-0.3037 -0.342373,-0.59586 -0.477088,-0.91109 -0.132959,-0.31113 -0.224036,-0.63872 -0.32343,-0.96214 -0.355303,-1.15612 -0.583268,-2.36885 -1.289044,-3.38236 -0.152112,-0.19659 -0.292817,-0.40255 -0.45633,-0.58976 -0.480602,-0.55024 -1.113949,-1.09894 -1.865164,-1.18409 0,0 2.670286,-1.88979 2.670286,-1.88979 z"
         id="path929"
         style="opacity:1;vector-effect:none;fill:#6eb433;fill-opacity:0.46543783;stroke:none;stroke-width:0.95522821;stroke-linecap:round;stroke-linejoin:miter;stroke-miterlimit:4;stroke-dasharray:none;stroke-dashoffset:0;stroke-opacity:0.30875579;paint-order:normal" />
      <path
         inkscape:connector-curvature="0"
         d="m -49.395202,233.51602 c -0.463582,0.80299 -0.730652,1.69966 -0.758989,2.62976 -0.01005,0.33021 0.02788,0.66015 0.04182,0.99023 0,0 -2.685515,1.39003 -2.685515,1.39003 v 0 c -0.02889,-0.33917 -0.08045,-0.67717 -0.08665,-1.01751 -0.01664,-0.9128 0.173123,-1.80961 0.521499,-2.64977 0,0 2.967837,-1.34274 2.967837,-1.34274 z"
         id="path931"
         style="opacity:1;vector-effect:none;fill:#6eb433;fill-opacity:0.46543783;stroke:none;stroke-width:0.95522821;stroke-linecap:round;stroke-linejoin:miter;stroke-miterlimit:4;stroke-dasharray:none;stroke-dashoffset:0;stroke-opacity:0.30875579;paint-order:normal" />
      <path
         inkscape:connector-curvature="0"
         d="m -76.675884,231.16759 c -1.137055,1.66544 -2.211864,3.37386 -3.286609,5.08014 -0.314796,0.53397 -0.658842,1.06403 -0.892736,1.64237 -0.07189,0.17776 -0.107199,0.36821 -0.1608,0.55231 0,0 -2.832937,1.33894 -2.832937,1.33894 v 0 c 0.06692,-0.20935 0.11425,-0.42601 0.200742,-0.62807 0.247164,-0.57739 0.642909,-1.17888 0.964462,-1.70755 1.045128,-1.63566 2.094971,-3.26935 3.03394,-4.9694 0,0 2.973938,-1.30874 2.973938,-1.30874 z"
         id="path933"
         style="opacity:1;vector-effect:none;fill:#6eb433;fill-opacity:0.46543783;stroke:none;stroke-width:0.95522821;stroke-linecap:round;stroke-linejoin:miter;stroke-miterlimit:4;stroke-dasharray:none;stroke-dashoffset:0;stroke-opacity:0.30875579;paint-order:normal" />
      <path
         inkscape:connector-curvature="0"
         d="m -79.662413,211.04324 c -0.962224,0.0281 -1.955678,0.15867 -2.841485,0.5581 -0.236323,0.10656 -0.456049,0.24666 -0.684075,0.36999 0,0 2.408809,-1.92907 2.408809,-1.92907 v 0 c 0.238972,-0.11351 0.470972,-0.24305 0.716918,-0.34052 0.963443,-0.38185 2.015434,-0.49393 3.039425,-0.57627 0,0 -2.639592,1.91777 -2.639592,1.91777 z"
         id="path935"
         style="opacity:1;vector-effect:none;fill:#6eb433;fill-opacity:0.46543783;stroke:none;stroke-width:0.95522821;stroke-linecap:round;stroke-linejoin:miter;stroke-miterlimit:4;stroke-dasharray:none;stroke-dashoffset:0;stroke-opacity:0.30875579;paint-order:normal" />
      <path
         inkscape:connector-curvature="0"
         d="m -75.491508,230.29723 c -0.842042,0.48406 -2.487486,1.09423 1.273717,-0.77236 0.324935,-0.16126 -0.613185,0.38857 -0.907423,0.60073 -1.115036,0.804 -1.054134,0.81951 -2.079273,1.81015 -1.275691,1.65935 -0.720146,0.76854 -1.658006,2.67781 0,0 -2.594724,1.1815 -2.594724,1.1815 v 0 c 0.881184,-1.95973 0.352359,-1.04592 1.572713,-2.74936 0.330967,-0.34208 0.644244,-0.70221 0.992904,-1.02624 0.346795,-0.3223 1.348899,-1.11542 1.798725,-1.38801 1.272201,-0.77094 2.733365,-1.73835 4.196178,-2.3321 0,0 -2.594811,1.99788 -2.594811,1.99788 z"
         id="path937"
         style="opacity:1;vector-effect:none;fill:#395e1a;fill-opacity:0.46543783;stroke:none;stroke-width:0.95522821;stroke-linecap:round;stroke-linejoin:miter;stroke-miterlimit:4;stroke-dasharray:none;stroke-dashoffset:0;stroke-opacity:0.30875579;paint-order:normal" />
      <path
         inkscape:connector-curvature="0"
         d="m -74.265027,216.3803 c -0.796068,-0.24019 -1.645192,-0.3638 -2.477844,-0.30578 -0.224393,0.0156 -0.446326,0.0564 -0.669489,0.0846 -1.625861,0.33139 -3.018194,1.28071 -4.442923,2.08053 -0.204533,0.10616 -0.405974,0.2185 -0.6136,0.31847 -0.513257,0.24714 -1.059767,0.39967 -1.57598,0.63743 -0.630111,0.29022 -2.936251,1.6419 1.421387,-0.84108 -0.849824,0.55913 -1.693445,1.1793 -2.329715,1.98596 -0.316471,0.40123 -0.653994,0.92504 -0.644453,1.4711 0.0038,0.21902 0.122872,0.42052 0.184308,0.63078 0.172167,0.20753 0.322427,0.43538 0.516501,0.62258 0.492874,0.47542 1.252736,0.96424 1.809711,1.33344 0.367781,0.2438 0.740119,0.48064 1.110178,0.72095 0,0 -2.466043,1.58626 -2.466043,1.58626 v 0 c -0.378765,-0.23661 -0.759005,-0.47087 -1.136291,-0.70984 -0.556971,-0.35276 -1.442233,-0.89197 -1.940726,-1.3531 -0.229831,-0.2126 -0.408649,-0.47443 -0.612974,-0.71165 -0.08129,-0.2581 -0.229039,-0.50412 -0.243877,-0.77431 -0.03349,-0.60993 0.30394,-1.1884 0.645459,-1.65185 0.600861,-0.81538 1.416587,-1.45436 2.228845,-2.0419 1.113255,-0.64372 2.21914,-1.30036 3.339766,-1.93116 0.865635,-0.48727 1.869559,-0.68805 2.709085,-1.23197 1.443524,-0.80953 2.876235,-1.73411 4.540636,-1.99785 0.232151,-0.0209 0.463556,-0.0532 0.696452,-0.0628 0.890252,-0.0364 1.778212,0.11288 2.644323,0.30227 0,0 -2.692736,1.83893 -2.692736,1.83893 z"
         id="path939"
         style="opacity:1;vector-effect:none;fill:#395e1a;fill-opacity:0.46543783;stroke:none;stroke-width:0.95522821;stroke-linecap:round;stroke-linejoin:miter;stroke-miterlimit:4;stroke-dasharray:none;stroke-dashoffset:0;stroke-opacity:0.30875579;paint-order:normal" />
      <path
         inkscape:connector-curvature="0"
         d="m -75.51571,228.17547 c 0.127678,-0.0132 0.255355,-0.0264 0.383032,-0.0396 0,0 -2.557349,1.90194 -2.557349,1.90194 v 0 c -0.155093,0.0185 -0.310184,0.0369 -0.465275,0.0554 0,0 2.639592,-1.91777 2.639592,-1.91777 z"
         id="path941"
         style="opacity:1;vector-effect:none;fill:#395e1a;fill-opacity:0.46543783;stroke:none;stroke-width:0.95522821;stroke-linecap:round;stroke-linejoin:miter;stroke-miterlimit:4;stroke-dasharray:none;stroke-dashoffset:0;stroke-opacity:0.30875579;paint-order:normal" />
      <path
         inkscape:connector-curvature="0"
         d="m -56.58939,209.62883 c 0.628526,1.07967 1.551036,1.96701 2.558365,2.69444 0.380497,0.27478 0.784328,0.5157 1.176491,0.77355 1.443202,0.89529 3.031527,1.51313 4.519803,2.32294 1.011259,0.55026 1.902291,1.05923 2.70338,1.90244 0.360802,0.37977 0.629018,0.83783 0.943528,1.25675 1.074923,1.92289 1.322165,4.12197 1.802294,6.2333 0.109128,0.47989 0.238226,0.95503 0.357339,1.43254 0,0 -2.542583,1.37143 -2.542583,1.37143 v 0 c -0.6693,-2.93705 -5.29e-4,0.0608 -0.645009,-3.03216 -0.208164,-0.99881 -0.443918,-2.17856 -0.802389,-3.14033 -0.179107,-0.48054 -0.427516,-0.93231 -0.641276,-1.39846 -0.299841,-0.40259 -0.556196,-0.84155 -0.899525,-1.20775 -0.783219,-0.83539 -1.625602,-1.32931 -2.623838,-1.87233 -1.510035,-0.82144 -3.127917,-1.42828 -4.613727,-2.29724 -0.413862,-0.25439 -0.837822,-0.49304 -1.241584,-0.76318 -1.081948,-0.72388 -2.050476,-1.60031 -2.866329,-2.61418 0,0 2.81506,-1.66176 2.81506,-1.66176 z"
         id="path943"
         style="opacity:1;vector-effect:none;fill:#395e1a;fill-opacity:0.46543783;stroke:none;stroke-width:0.95522821;stroke-linecap:round;stroke-linejoin:miter;stroke-miterlimit:4;stroke-dasharray:none;stroke-dashoffset:0;stroke-opacity:0.30875579;paint-order:normal" />
      <path
         inkscape:connector-curvature="0"
         d="m -29.21931,232.49974 c 0.0059,2.61519 0.07091,5.22914 0.141483,7.84329 0.05847,1.72989 0.0037,3.47114 -0.510257,5.1368 -0.2325,0.75356 -0.442169,1.17076 -0.758955,1.88465 -0.395099,0.82761 -0.755509,1.67285 -1.014843,2.55384 -0.207468,0.70481 -0.209407,0.88282 -0.386207,1.58743 -0.06118,0.24381 -0.133059,0.48481 -0.199591,0.7272 -0.201253,0.53521 -0.256662,0.7757 -0.570672,1.25285 -0.117155,0.17801 -0.264465,0.33425 -0.396695,0.50138 0,0 -2.882559,1.21887 -2.882559,1.21887 v 0 c 0.142407,-0.15114 0.300093,-0.28922 0.42722,-0.45342 0.347456,-0.44879 0.402053,-0.67074 0.626163,-1.19303 0.07355,-0.23946 0.155567,-0.47648 0.220647,-0.71837 0.30005,-1.11527 0.06687,-0.48028 0.396168,-1.62193 0.258617,-0.89661 0.610293,-1.76197 1.025533,-2.59708 0.320998,-0.67956 0.560118,-1.14033 0.808956,-1.85535 0.574164,-1.64982 0.718518,-3.38564 0.678291,-5.12326 -0.04319,-1.86555 -0.02064,-1.38193 -0.109707,-3.25257 -0.06007,-1.26137 -0.11857,-2.52777 -0.258553,-3.7836 -0.02223,-0.19946 -0.05746,-0.39725 -0.08619,-0.59588 0,0 2.849764,-1.51182 2.849764,-1.51182 z"
         id="path945"
         style="opacity:1;vector-effect:none;fill:#395e1a;fill-opacity:0.46543783;stroke:none;stroke-width:0.95522821;stroke-linecap:round;stroke-linejoin:miter;stroke-miterlimit:4;stroke-dasharray:none;stroke-dashoffset:0;stroke-opacity:0.30875579;paint-order:normal" />
      <path
         inkscape:connector-curvature="0"
         d="m -45.40165,250.17339 c -0.433134,1.72312 -1.356394,3.26846 -2.245548,4.78845 -0.181337,0.29011 -0.362675,0.58023 -0.544015,0.87034 0,0 -2.76148,1.21495 -2.76148,1.21495 v 0 c 0.188116,-0.2893 0.376235,-0.5786 0.564354,-0.8679 0.774353,-1.30228 1.640353,-2.68902 1.999731,-4.17832 0.03158,-0.13088 0.04298,-0.26582 0.06446,-0.39873 0,0 2.922495,-1.42879 2.922495,-1.42879 z"
         id="path947"
         style="opacity:1;vector-effect:none;fill:#395e1a;fill-opacity:0.46543783;stroke:none;stroke-width:0.95522821;stroke-linecap:round;stroke-linejoin:miter;stroke-miterlimit:4;stroke-dasharray:none;stroke-dashoffset:0;stroke-opacity:0.30875579;paint-order:normal" />
      <path
         inkscape:connector-curvature="0"
         d="m -66.893802,229.44972 c -0.869719,0.0812 -1.733079,0.22123 -2.604209,0.28895 -0.272862,0.0212 -1.807059,0.0997 -2.046285,0.11227 -0.723,0.0658 -1.490204,0.0917 -2.187085,0.33041 -0.348784,0.11947 -1.34498,0.59934 -0.99546,0.48204 0.564843,-0.18956 1.115996,-0.97466 1.644668,-0.69992 0.410861,0.21353 -0.573688,0.73474 -0.780923,1.14881 -0.245964,0.49145 -0.379045,1.0317 -0.568568,1.54756 -0.39061,2.59346 -0.291534,1.25528 -0.26411,4.01685 0,0 -2.409111,1.23566 -2.409111,1.23566 v 0 c -0.121102,-2.77301 -0.164764,-1.42531 0.09992,-4.044 0.196651,-0.65548 0.546145,-2.26168 1.171826,-2.78712 0.677254,-0.56877 3.015187,-2.27052 4.488548,-2.70657 0.682942,-0.20212 1.518647,-0.24153 2.220606,-0.3043 0.667263,-0.0445 1.412808,-0.0876 2.080088,-0.1576 0.92389,-0.0969 1.837756,-0.26708 2.758799,-0.38504 0,0 -2.608707,1.922 -2.608707,1.922 z"
         id="path949"
         style="opacity:1;vector-effect:none;fill:#395e1a;fill-opacity:0.46543783;stroke:none;stroke-width:0.95522821;stroke-linecap:round;stroke-linejoin:miter;stroke-miterlimit:4;stroke-dasharray:none;stroke-dashoffset:0;stroke-opacity:0.30875579;paint-order:normal" />
      <path
         inkscape:connector-curvature="0"
         d="m -74.762171,253.27614 c 0.69301,-0.108 1.464667,-0.0637 2.086155,0.30068 0.633055,0.37121 0.784375,0.69226 1.230378,1.2715 0.779595,1.31297 1.335673,2.74706 2.224921,3.99625 0.555625,0.78052 0.770319,0.95194 1.42702,1.62925 0.250592,0.2265 0.498078,0.45648 0.751774,0.6795 0.790665,0.69504 0.721624,0.58067 1.484691,1.31604 0.792061,0.76332 1.507749,1.58945 2.22265,2.42379 0.243674,0.30975 0.494311,0.61414 0.73102,0.92924 0.513543,0.68362 0.847678,1.17518 1.28541,1.9052 0.330406,0.55102 0.605747,1.13445 0.947634,1.67843 0.128873,0.20505 0.281355,0.39428 0.422031,0.59142 0,0 -2.674008,1.56666 -2.674008,1.56666 v 0 c -0.132303,-0.21291 -0.273913,-0.42031 -0.39691,-0.63872 -0.998275,-1.77275 0.210857,0.22194 -0.886158,-1.6923 -0.57022,-0.995 -1.243796,-1.92352 -1.984161,-2.79849 -0.722116,-0.81801 -1.447744,-1.62187 -2.241166,-2.37234 -0.904031,-0.8551 -0.558356,-0.48568 -1.479214,-1.32058 -0.254064,-0.23035 -0.500242,-0.46924 -0.750364,-0.70387 -0.666993,-0.71542 -0.865177,-0.8783 -1.432951,-1.69359 -0.867699,-1.24597 -1.443107,-2.65927 -2.269154,-3.93003 -0.436504,-0.51277 -0.579398,-0.799 -1.187646,-1.09244 -0.672116,-0.32426 -1.433867,-0.23205 -2.134418,-0.09 0,0 2.622466,-1.95561 2.622466,-1.95561 z"
         id="path951"
         style="opacity:1;vector-effect:none;fill:#395e1a;fill-opacity:0.46543783;stroke:none;stroke-width:0.95522821;stroke-linecap:round;stroke-linejoin:miter;stroke-miterlimit:4;stroke-dasharray:none;stroke-dashoffset:0;stroke-opacity:0.30875579;paint-order:normal" />
      <path
         inkscape:connector-curvature="0"
         d="m -50.542906,271.54614 c -0.143539,0.70016 -0.622322,1.23186 -1.229043,1.59485 -3.162972,1.89236 -2.430558,1.53561 -4.534225,2.41785 -0.417933,0.15645 -0.833919,0.3182 -1.253795,0.46935 -0.580554,0.209 -2.334302,0.80643 -2.897504,0.99396 -0.927677,0.30888 -2.115381,0.70167 -3.061283,0.9549 -0.499006,0.13358 -1.005056,0.2393 -1.507585,0.35896 -1.493271,0.29647 -2.99961,0.35704 -4.490757,0.004 -1.666359,-0.39461 -3.175132,-1.22766 -4.685937,-1.99896 -2.002272,-1.09278 -4.062595,-2.09193 -6.307984,-2.56642 -1.166699,-0.24654 -1.825699,-0.27545 -3.004225,-0.38672 -0.605766,-0.0433 -1.968373,-0.10436 -2.59456,-0.28017 -0.315793,-0.0887 -0.597016,-0.27188 -0.895524,-0.40781 0,0 2.539621,-1.68071 2.539621,-1.68071 v 0 c 0.263065,0.12637 0.509482,0.29585 0.789197,0.37911 0.627629,0.18682 1.907916,0.26302 2.513899,0.31676 1.192257,0.13199 1.828694,0.16723 3.006587,0.44216 2.237833,0.52234 4.27922,1.57489 6.297038,2.64192 1.51714,0.74744 3.024246,1.53186 4.696643,1.87958 1.473044,0.30627 2.956242,0.21524 4.420155,-0.0862 0.495528,-0.12076 0.994479,-0.22826 1.486586,-0.36228 0.950433,-0.25886 2.124945,-0.64994 3.055908,-0.96519 0.783474,-0.26531 2.157947,-0.74473 2.940153,-1.04141 0.431493,-0.16365 0.857573,-0.34124 1.286357,-0.51186 1.423297,-0.65133 1.956419,-0.94491 -0.682686,0.56887 -0.202023,0.11587 0.400338,-0.24054 0.583171,-0.38481 0.247356,-0.19519 0.411437,-0.38791 0.538652,-0.66862 0.03288,-0.0725 0.0427,-0.15349 0.06406,-0.23023 0,0 2.927086,-1.45085 2.927086,-1.45085 z"
         id="path953"
         style="opacity:1;vector-effect:none;fill:#395e1a;fill-opacity:0.46543783;stroke:none;stroke-width:0.95522821;stroke-linecap:round;stroke-linejoin:miter;stroke-miterlimit:4;stroke-dasharray:none;stroke-dashoffset:0;stroke-opacity:0.30875579;paint-order:normal" />
      <path
         inkscape:connector-curvature="0"
         d="m -94.657814,265.71694 c -1.002638,-1.26857 -1.574138,-2.81484 -2.185696,-4.29494 -0.574342,-1.39383 -0.934482,-2.85378 -1.295853,-4.3123 0,0 2.489071,-1.35041 2.489071,-1.35041 v 0 c 0.400894,1.42324 0.800595,2.84801 1.406541,4.20195 0.3527,0.78558 0.532077,1.21238 0.915577,1.96661 0.325718,0.6406 0.673896,1.28027 1.160039,1.81623 0.08414,0.0928 0.182965,0.17105 0.274447,0.25658 0,0 -2.764126,1.71628 -2.764126,1.71628 z"
         id="path955"
         style="opacity:1;vector-effect:none;fill:#395e1a;fill-opacity:0.46543783;stroke:none;stroke-width:0.95522821;stroke-linecap:round;stroke-linejoin:miter;stroke-miterlimit:4;stroke-dasharray:none;stroke-dashoffset:0;stroke-opacity:0.30875579;paint-order:normal" />
      <path
         inkscape:connector-curvature="0"
         d="m -93.175628,220.50859 c -0.153996,0.0478 -0.310373,0.0885 -0.461987,0.14332 -0.259657,0.094 -0.521308,0.18508 -0.771048,0.30289 -0.347827,0.16408 -1.38484,0.65948 -1.018813,0.54145 0.476771,-0.15374 1.072912,-1.06381 1.355058,-0.64988 0.28298,0.41515 -0.768723,0.65595 -1.084612,1.04665 -0.322027,0.39829 -0.543258,0.86846 -0.81489,1.30269 -0.139462,0.51406 -0.278923,1.02812 -0.418383,1.54218 0,0 -2.56995,1.23159 -2.56995,1.23159 v 0 c 0.121546,-0.53669 0.243091,-1.07339 0.364638,-1.61008 0.258265,-0.45424 0.463259,-0.94323 0.774792,-1.36273 1.159481,-1.56133 3.140718,-2.42415 4.708263,-3.3593 0.789903,-0.47123 1.641597,-0.83159 2.520506,-1.09689 0,0 -2.583574,1.96811 -2.583574,1.96811 z"
         id="path957"
         style="opacity:1;vector-effect:none;fill:#395e1a;fill-opacity:0.46543783;stroke:none;stroke-width:0.95522821;stroke-linecap:round;stroke-linejoin:miter;stroke-miterlimit:4;stroke-dasharray:none;stroke-dashoffset:0;stroke-opacity:0.30875579;paint-order:normal" />
      <path
         inkscape:connector-curvature="0"
         d="m -89.698263,246.39592 c -0.226565,1.23917 0.07315,2.39874 0.826956,3.41598 0.264376,0.35677 0.589123,0.66457 0.883684,0.99686 1.161603,0.94927 1.362308,1.20913 2.751619,1.9228 0.586782,0.30143 1.208834,0.52859 1.81325,0.79288 0,0 -2.28147,1.5201 -2.28147,1.5201 v 0 c -0.625864,-0.26433 -1.268497,-0.49202 -1.877589,-0.79299 -1.434454,-0.70881 -1.680019,-0.98681 -2.903879,-1.92586 -0.322646,-0.3371 -0.674322,-0.64863 -0.967936,-1.01129 -0.84483,-1.0435 -1.183547,-2.15259 -1.177673,-3.46968 0,0 2.933038,-1.4488 2.933038,-1.4488 z"
         id="path959"
         style="opacity:1;vector-effect:none;fill:#395e1a;fill-opacity:0.46543783;stroke:none;stroke-width:0.95522821;stroke-linecap:round;stroke-linejoin:miter;stroke-miterlimit:4;stroke-dasharray:none;stroke-dashoffset:0;stroke-opacity:0.30875579;paint-order:normal" />
      <path
         inkscape:connector-curvature="0"
         d="m -62.982143,257.81797 c 2.724729,-0.0856 5.362463,-0.88555 7.977809,-1.58534 1.309756,-0.36015 2.642817,-0.66783 4.001571,-0.76562 1.064557,-0.0766 2.145983,-0.018 3.211155,0.0108 1.738985,0.10131 3.469939,-0.14227 5.205352,-0.18535 0.305578,-0.008 0.611341,1.4e-4 0.917011,2.1e-4 0.781413,0.0203 1.527146,0.17316 2.248178,0.47084 1.571048,0.6486 -0.329866,-0.0776 1.203534,0.5657 0.200824,0.0843 0.409186,0.14927 0.613778,0.22391 0.867188,0.15554 0.426643,0.11493 1.321964,0.11811 0,0 -2.523127,1.82083 -2.523127,1.82083 v 0 c -0.942753,-0.0558 -0.480529,0.011 -1.387176,-0.19697 -0.210498,-0.0813 -0.424138,-0.15491 -0.631495,-0.24393 -0.630541,-0.27069 -0.539863,-0.29158 -1.178721,-0.54382 -0.686226,-0.27094 -1.398757,-0.4024 -2.136751,-0.42058 -0.296961,-4.8e-4 -0.593998,-0.008 -0.890884,-0.001 -1.733714,0.0394 -3.464324,0.25461 -5.201052,0.15561 -1.050327,-0.0236 -2.112304,-0.0727 -3.161755,0.004 -1.306594,0.0958 -2.591477,0.37382 -3.855262,0.70794 -2.750495,0.71862 -5.505077,1.51772 -8.34848,1.76431 0,0 2.614351,-1.89944 2.614351,-1.89944 z"
         id="path961"
         style="opacity:1;vector-effect:none;fill:#395e1a;fill-opacity:0.46543783;stroke:none;stroke-width:0.95522821;stroke-linecap:round;stroke-linejoin:miter;stroke-miterlimit:4;stroke-dasharray:none;stroke-dashoffset:0;stroke-opacity:0.30875579;paint-order:normal" />
      <path
         inkscape:connector-curvature="0"
         d="m -44.971382,267.95836 c 0.440698,-1.14224 1.537195,-1.77075 2.532319,-2.37347 1.11633,-0.64426 2.23266,-1.28851 3.34899,-1.93276 0.256074,-0.14655 1.027919,-0.57968 0.768226,-0.43964 -0.588883,0.31754 -1.126154,0.74641 -1.755929,0.97224 -0.357899,0.12834 0.614032,-0.44857 0.921047,-0.67286 0,0 2.778241,-1.10531 2.778241,-1.10531 v 0 c -1.914512,1.48329 -0.62946,0.54487 -4.318003,2.72811 -0.259696,0.15372 -1.045191,0.60392 -0.7841,0.45258 0.640696,-0.37137 1.281948,-0.74179 1.922923,-1.11268 -0.911427,0.53179 -2.008606,1.0598 -2.455569,2.07882 0,0 -2.958145,1.40497 -2.958145,1.40497 z"
         id="path963"
         style="opacity:1;vector-effect:none;fill:#395e1a;fill-opacity:0.46543783;stroke:none;stroke-width:0.95522821;stroke-linecap:round;stroke-linejoin:miter;stroke-miterlimit:4;stroke-dasharray:none;stroke-dashoffset:0;stroke-opacity:0.30875579;paint-order:normal" />
      <path
         inkscape:connector-curvature="0"
         d="m -30.099799,237.59651 c -1.442283,-0.85608 -2.964645,-1.57046 -4.38014,-2.47405 -0.44914,-0.28672 -0.880657,-0.60015 -1.320987,-0.90023 -1.330656,-0.97822 -2.359565,-2.16827 -3.254709,-3.54595 -0.728414,-1.12107 -0.81458,-1.44221 -1.484196,-2.57386 -0.224322,-0.3791 -0.469294,-0.7456 -0.703942,-1.11841 0,0 2.536301,-1.47329 2.536301,-1.47329 v 0 c 0.228211,0.38202 0.465497,0.75877 0.68463,1.14608 0.608068,1.07473 0.761296,1.5119 1.435481,2.56487 0.869344,1.35778 1.876642,2.51455 3.193566,3.45949 0.443741,0.28998 0.877004,0.59667 1.331219,0.86995 1.493975,0.89887 3.10478,1.575 4.695886,2.27703 0,0 -2.733109,1.76837 -2.733109,1.76837 z"
         id="path965"
         style="opacity:1;vector-effect:none;fill:#395e1a;fill-opacity:0.46543783;stroke:none;stroke-width:0.95522821;stroke-linecap:round;stroke-linejoin:miter;stroke-miterlimit:4;stroke-dasharray:none;stroke-dashoffset:0;stroke-opacity:0.30875579;paint-order:normal" />
      <path
         inkscape:connector-curvature="0"
         d="m -48.218989,218.77903 c -0.09391,-0.0818 -0.187828,-0.16363 -0.281742,-0.24544 0,0 2.703979,-1.70907 2.703979,-1.70907 v 0 c 0.110995,0.0729 0.22199,0.14574 0.332986,0.21861 0,0 -2.755223,1.7359 -2.755223,1.7359 z"
         id="path967"
         style="opacity:1;vector-effect:none;fill:#395e1a;fill-opacity:0.46543783;stroke:none;stroke-width:0.95522821;stroke-linecap:round;stroke-linejoin:miter;stroke-miterlimit:4;stroke-dasharray:none;stroke-dashoffset:0;stroke-opacity:0.30875579;paint-order:normal" />
      <path
         inkscape:connector-curvature="0"
         d="m -52.574123,215.53785 c -0.432374,-0.7935 -0.781341,-1.62946 -1.152152,-2.45267 0,0 2.663322,-1.50759 2.663322,-1.50759 v 0 c 0.383326,0.78574 0.739368,1.604 1.28637,2.29342 0,0 -2.79754,1.66684 -2.79754,1.66684 z"
         id="path969"
         style="opacity:1;vector-effect:none;fill:#395e1a;fill-opacity:0.46543783;stroke:none;stroke-width:0.95522821;stroke-linecap:round;stroke-linejoin:miter;stroke-miterlimit:4;stroke-dasharray:none;stroke-dashoffset:0;stroke-opacity:0.30875579;paint-order:normal" />
      <path
         inkscape:connector-curvature="0"
         d="m -72.751203,209.15855 c -1.471435,0.38316 -2.941889,0.80231 -4.362172,1.34966 -0.386943,0.14912 -1.474097,0.73955 -1.144228,0.48826 0.555549,-0.42322 1.222476,-0.67567 1.833714,-1.0135 0,0 -2.853587,1.10089 -2.853587,1.10089 v 0 c 1.115981,-0.64066 2.210935,-1.31942 3.347939,-1.92197 0.351441,-0.18624 0.73601,-0.30224 1.10912,-0.44003 1.522434,-0.5622 3.079626,-1.02715 4.624462,-1.52221 0,0 -2.555248,1.9589 -2.555248,1.9589 z"
         id="path971"
         style="opacity:1;vector-effect:none;fill:#395e1a;fill-opacity:0.46543783;stroke:none;stroke-width:0.95522821;stroke-linecap:round;stroke-linejoin:miter;stroke-miterlimit:4;stroke-dasharray:none;stroke-dashoffset:0;stroke-opacity:0.30875579;paint-order:normal" />
      <path
         inkscape:connector-curvature="0"
         d="m -73.043837,221.48741 c -0.204047,-0.2463 -0.112827,-0.10165 -0.253281,-0.44614 0,0 2.830698,-1.57904 2.830698,-1.57904 v 0 c 0.07752,0.20828 0.01553,0.12314 0.180784,0.25914 0,0 -2.758201,1.76604 -2.758201,1.76604 z"
         id="path973"
         style="opacity:1;vector-effect:none;fill:#395e1a;fill-opacity:0.46543783;stroke:none;stroke-width:0.95522821;stroke-linecap:round;stroke-linejoin:miter;stroke-miterlimit:4;stroke-dasharray:none;stroke-dashoffset:0;stroke-opacity:0.30875579;paint-order:normal" />
    </g>
  </g>
</svg>
